<?xml version="1.0" encoding="UTF-8" standalone="no"?>
<svg
   xmlns:dc="http://purl.org/dc/elements/1.1/"
   xmlns:cc="http://creativecommons.org/ns#"
   xmlns:rdf="http://www.w3.org/1999/02/22-rdf-syntax-ns#"
   xmlns:svg="http://www.w3.org/2000/svg"
   xmlns="http://www.w3.org/2000/svg"
   xmlns:sodipodi="http://sodipodi.sourceforge.net/DTD/sodipodi-0.dtd"
   xmlns:inkscape="http://www.inkscape.org/namespaces/inkscape"
   viewBox="0 0 982.05906 280.32511"
   width="982.05908"
   height="280.3251"
   version="1.1"
   id="svg4529"
   sodipodi:docname="screen-pendant.svg"
   inkscape:version="1.0.1 (c497b03c, 2020-09-10)">
  <metadata
     id="metadata4533">
    <rdf:RDF>
      <cc:Work
         rdf:about="">
        <dc:format>image/svg+xml</dc:format>
        <dc:type
           rdf:resource="http://purl.org/dc/dcmitype/StillImage" />
        <dc:title></dc:title>
      </cc:Work>
    </rdf:RDF>
  </metadata>
  <sodipodi:namedview
     pagecolor="#ffffff"
     bordercolor="#666666"
     borderopacity="1"
     objecttolerance="10"
     gridtolerance="10"
     guidetolerance="10"
     inkscape:pageopacity="0"
     inkscape:pageshadow="2"
     inkscape:window-width="1199"
     inkscape:window-height="746"
     id="namedview4531"
     showgrid="false"
     inkscape:zoom="0.53807521"
     inkscape:cx="309.1516"
     inkscape:cy="186.93907"
     inkscape:window-x="0"
     inkscape:window-y="25"
     inkscape:window-maximized="0"
     inkscape:current-layer="g4525"
     inkscape:document-rotation="0" />
  <defs
     id="defs4517">
    <marker
       id="DistanceX"
       orient="auto"
       refX="0"
       refY="0"
       style="overflow:visible">
      <path
         d="M 3,-3 -3,3 M 0,-5 V 5"
         style="stroke:#000000;stroke-width:0.5"
         id="path4505" />
    </marker>
    <pattern
       id="Hatch"
       patternUnits="userSpaceOnUse"
       width="8"
       height="8"
       x="0"
       y="0">
      <path
         d="M8 4 l-4,4"
         stroke="#000000"
         stroke-width="0.25"
         linecap="square"
         id="path4508" />
      <path
         d="M6 2 l-4,4"
         stroke="#000000"
         stroke-width="0.25"
         linecap="square"
         id="path4510" />
      <path
         d="M4 0 l-4,4"
         stroke="#000000"
         stroke-width="0.25"
         linecap="square"
         id="path4512" />
    </pattern>
    <symbol
       id="*MODEL_SPACE" />
    <symbol
       id="*PAPER_SPACE" />
    <marker
       id="DistanceX-2"
       orient="auto"
       refX="0"
       refY="0"
       style="overflow:visible">
      <path
         d="M 3,-3 -3,3 M 0,-5 V 5"
         style="stroke:#000000;stroke-width:0.5"
         id="path2714" />
    </marker>
    <pattern
       id="Hatch-4"
       patternUnits="userSpaceOnUse"
       width="8"
       height="8"
       x="0"
       y="0">
      <path
         d="M8 4 l-4,4"
         stroke="#000000"
         stroke-width="0.25"
         linecap="square"
         id="path2717" />
      <path
         d="M6 2 l-4,4"
         stroke="#000000"
         stroke-width="0.25"
         linecap="square"
         id="path2719" />
      <path
         d="M4 0 l-4,4"
         stroke="#000000"
         stroke-width="0.25"
         linecap="square"
         id="path2721" />
    </pattern>
    <symbol
       id="*MODEL_SPACE-8" />
    <symbol
       id="*PAPER_SPACE-3" />
  </defs>
  <g
     inkscape:groupmode="layer"
     inkscape:label="0"
     id="g4519"
     transform="translate(-4.7337747,-5.1689953)" />
  <g
     inkscape:groupmode="layer"
     inkscape:label="CUTOUTS"
     id="g4521"
     transform="translate(-4.7337747,-5.1689953)" />
  <g
     inkscape:groupmode="layer"
     inkscape:label="PERIMETER"
     id="g4525"
     transform="translate(-4.7337747,-5.1689953)">
    <path
       d="M 349.35976,5.6689953 H 5.2337747 V 200.88159 H 349.35976 Z"
       style="fill:none;stroke:#0000ff"
       id="path4523" />
    <path
       d="m 700.38446,5.6689953 h -344.126 V 200.88159 h 344.126 z"
       style="fill:none;stroke:#0000ff"
       id="path4523-0" />
    <g
       id="g5841"
       transform="translate(703.05401,4.0484937)">
      <g
         inkscape:label="0"
         id="g2728" />
      <g
         inkscape:label="CUTOUTS"
         id="g2732">
        <path
           d="m 44.780054,198.65634 52.01101,-30.0286 a 53.574803,53.574803 0 0 1 -4.06313,-38.658 l -29.31665,-9.5256 a 84.377953,84.377953 0 0 0 -2.61081,34.9891 l -29.07165,3.0555 a 6.916535,6.916535 0 1 1 -0.53334,-5.0744 l 23.99505,-2.522 a 89.480315,89.480315 0 0 1 3.36603,-32.0256 l -22.94635,-7.4557 a 6.916535,6.916535 0 1 1 1.57671,-4.8527 l 91.384176,29.6926 a 17.669291,17.669291 0 0 1 13.28887,-9.655 V 95.674838 a 48.472441,48.472441 0 0 0 -35.128,17.911702 L 58.304264,69.982038 a 6.916535,6.916535 0 1 1 3.41415,-3.7918 l 44.631146,40.186102 a 53.574803,53.574803 0 0 1 35.51041,-15.810202 v -30.8254 a 84.377953,84.377953 0 0 0 -34.08335,8.3292 l -11.889636,-26.7046 a 6.916535,6.916535 0 1 1 4.661236,-2.0753 l 9.81343,22.0413 a 89.480315,89.480315 0 0 1 31.49832,-6.6952 v -24.1272 a 6.916535,6.916535 0 1 1 5.10237,0 v 96.087002 a 17.669291,17.669291 0 0 1 13.28887,9.655 l 29.40772,-9.5552 a 48.472441,48.472441 0 0 0 -27.8902,-27.873702 l 26.50536,-59.532 a 6.916535,6.916535 0 1 1 4.66124,2.0753 l -24.42744,54.8649 a 53.574803,53.574803 0 0 1 26.00977,28.886802 l 29.31665,-9.5255 A 84.377953,84.377953 0 0 0 205.38045,85.750138 l 21.72345,-19.5599 a 6.916535,6.916535 0 1 1 3.41415,3.7918 l -17.93002,16.1443 a 89.480315,89.480315 0 0 1 16.10101,27.887802 l 22.94636,-7.4558 a 6.916535,6.916535 0 1 1 1.57671,4.8527 l -91.38419,29.6925 a 17.669291,17.669291 0 0 1 -5.07589,15.622 l 18.17497,25.0157 a 48.472441,48.472441 0 0 0 17.89092,-35.1386 l 64.80892,6.8117 a 6.916535,6.916535 0 1 1 -0.53334,5.0744 l -59.72814,-6.2777 a 53.574803,53.574803 0 0 1 -19.4355,33.6633 l 18.11869,24.9382 a 84.377953,84.377953 0 0 0 22.67824,-26.7721 l 25.31547,14.6159 a 6.916535,6.916535 0 1 1 -2.55118,4.4188 l -20.89479,-12.0637 a 89.480315,89.480315 0 0 1 -21.54736,23.9308 l 14.18163,19.5193 a 6.916535,6.916535 0 1 1 -4.1279,2.9991 l -56.47853,-77.736 a 17.669291,17.669291 0 0 1 -16.42595,0 l -18.17497,25.0157 a 48.472441,48.472441 0 0 0 38.9474,6.1569 l 13.54875,63.7418 a 6.916535,6.916535 0 1 1 -4.99086,1.0609 l -12.48658,-58.7448 a 53.574803,53.574803 0 0 1 -38.02157,-8.0817 l -18.118686,24.9382 a 84.377953,84.377953 0 0 0 32.469776,13.2953 l -6.07763,28.593 a 6.916535,6.916535 0 1 1 -4.99086,-1.0609 l 5.01633,-23.6 a 89.480315,89.480315 0 0 1 -29.417996,-13.0977 l -14.18163,19.5193 a 6.916535,6.916535 0 1 1 -4.1279,-2.9991 l 56.478526,-77.736 a 17.669291,17.669291 0 0 1 -5.07589,-15.622 l -29.407726,-9.5551 a 48.472441,48.472441 0 0 0 6.179896,38.9437 l -56.435326,32.583 a 6.916535,6.916535 0 1 1 -2.55118,-4.4188 z"
           style="fill:none;stroke:#ff0000"
           id="path2730" />
      </g>
      <g
         inkscape:label="PERIMETER"
         id="g2736">
        <path
           d="m 58.912364,228.68554 a 19.483465,19.483465 0 1 0 31.45489,22.8533 120.28347,120.28347 0 0 0 10.348976,4.6076 19.483465,19.483465 0 1 0 38.03074,8.0837 120.28347,120.28347 0 0 0 11.32837,0 19.483465,19.483465 0 1 0 38.03074,-8.0837 120.28347,120.28347 0 0 0 10.34898,-4.6076 19.483465,19.483465 0 1 0 31.45489,-22.8533 120.28347,120.28347 0 0 0 7.58015,-8.4187 19.483465,19.483465 0 1 0 19.4402,-33.6714 120.28347,120.28347 0 0 0 3.50066,-10.7739 19.483465,19.483465 0 1 0 4.0641,-38.6674 120.28347,120.28347 0 0 0 -1.18414,-11.2663 19.483465,19.483465 0 1 0 -12.01469,-36.977402 120.28347,120.28347 0 0 0 -5.66419,-9.8107 19.483465,19.483465 0 1 0 -26.01605,-28.8937 120.28347,120.28347 0 0 0 -9.16484,-6.6587 19.483465,19.483465 0 1 0 -35.51899,-15.814 120.28347,120.28347 0 0 0 -11.08082,-2.3553 19.483465,19.483465 0 1 0 -38.88037,0 120.28347,120.28347 0 0 0 -11.08082,2.3553 19.483465,19.483465 0 1 0 -35.518986,15.814 120.28347,120.28347 0 0 0 -9.16484,6.6587 19.483465,19.483465 0 1 0 -26.01604,28.8937 120.28347,120.28347 0 0 0 -5.66419,9.8107 19.483465,19.483465 0 1 0 -12.01469,36.977402 120.28347,120.28347 0 0 0 -1.18414,11.2663 19.483465,19.483465 0 1 0 4.0641,38.6674 120.28347,120.28347 0 0 0 3.50066,10.7739 19.483465,19.483465 0 1 0 19.44019,33.6714 120.28347,120.28347 0 0 0 7.58015,8.4187 z"
           style="fill:none;stroke:#0000ff"
           id="path2734" />
      </g>
    </g>
  </g>
  <desc
     id="desc4527">Screen.dxf - scale = 1.000000, origin = (0.000000, 0.000000), method = manual</desc>
</svg>
