<?xml version="1.0" encoding="utf-8"?>
<!-- Generator: Fusion 360, Shaper Origin Export Add-In, Version 1.7.0  -->
<svg xmlns="http://www.w3.org/2000/svg" xmlns:xlink="http://www.w3.org/1999/xlink" xmlns:shaper="http://www.shapertools.com/namespaces/shaper" shaper:fusionaddin="version:1.7.0" width="7.331214cm" height="7.2966186cm" version="1.1" x="0cm" y="0cm" viewBox="0 0 7.331214 7.2966186" enable-background="new 0 0 7.331214 7.2966186" xml:space="preserve"><path d="M1.7374527,2.6574204 A0.508,0.508 331.4114343 1,1 0.8122654,3.0693403 A3.175,3.175 75.1771315 0,1 0.5063718,3.13436 A0.508,0.508 355.4114343 1,1 -0.5063718,3.13436 A3.175,3.175 99.1771315 0,1 -0.8122654,3.0693403 A0.508,0.508 19.4114343 1,1 -1.7374527,2.6574204 A3.175,3.175 123.1771315 0,1 -1.9904546,2.4736038 A0.508,0.508 43.4114343 1,1 -2.6681123,1.7209886 A3.175,3.175 147.1771315 0,1 -2.824476,1.4501587 A0.508,0.508 67.4114343 1,1 -3.137431,0.4869823 A3.175,3.175 171.1771315 0,1 -3.1701199,0.175968 A0.508,0.508 91.4114343 1,1 -3.0642594,-0.8312277 A3.175,3.175 195.1771315 0,1 -2.9676213,-1.1286492 A0.508,0.508 115.4114343 1,1 -2.4612495,-2.0057108 A3.175,3.175 219.1771315 0,1 -2.251994,-2.2381126 A0.508,0.508 139.4114343 1,1 -1.4326672,-2.8333884 A3.175,3.175 243.1771315 0,1 -1.1469764,-2.9605861 A0.508,0.508 163.4114343 1,1 -0.1563637,-3.1711473 A3.175,3.175 267.1771315 0,1 0.1563637,-3.1711473 A0.508,0.508 187.4114343 1,1 1.1469764,-2.9605861 A3.175,3.175 291.1771315 0,1 1.4326672,-2.8333884 A0.508,0.508 211.4114343 1,1 2.251994,-2.2381126 A3.175,3.175 315.1771315 0,1 2.4612495,-2.0057108 A0.508,0.508 235.4114343 1,1 2.9676213,-1.1286492 A3.175,3.175 339.1771315 0,1 3.0642594,-0.8312277 A0.508,0.508 259.4114343 1,1 3.1701199,0.175968 A3.175,3.175 3.1771315 0,1 3.137431,0.4869823 A0.508,0.508 283.4114343 1,1 2.824476,1.4501587 A3.175,3.175 27.1771315 0,1 2.6681123,1.7209886 A0.508,0.508 307.4114343 1,1 1.9904546,2.4736038 A3.175,3.175 51.1771315 0,1 1.7374527,2.6574204z" transform="matrix(1,0,0,-1,3.665607,3.683)" fill="rgb(0,0,0)" stroke-linecap="round" stroke-linejoin="round" /><path d="M1.6023728,1.5437054 L2.1791642,2.0630508 A0.1905,0.1905 198.8150299 1,0 2.2795338,1.951579 L1.8142735,1.5326567 A2.375,2.375 40.1903587 0,0 2.2344564,0.8048786 L2.8298839,0.9983447 A0.1905,0.1905 174.8150299 1,0 2.8762365,0.8556862 L0.4692613,0.0736126 A0.475,0.475 8.9152797 0,0 0.336372,-0.3353787 L0.8088048,-0.9856266 A1.275,1.275 309.3722867 0,1 1.2736594,-0.0584539 L2.991291,-0.2389842 A0.1905,0.1905 150.8150299 1,0 2.9756117,-0.3881625 L1.4073898,-0.2233358 A1.425,1.425 350.9830387 0,0 0.8971094,-1.1071675 L1.3677553,-1.754956 A2.225,2.225 307.9316843 0,1 1.9633115,-1.0469159 L2.6354767,-1.4349906 A0.1905,0.1905 126.8150299 1,0 2.5604767,-1.5648944 L2.0182845,-1.2518597 A2.375,2.375 328.1903587 0,0 1.45597,-1.8763732 L1.8239645,-2.3828741 A0.1905,0.1905 102.8150299 1,0 1.7026119,-2.4710419 L0.2150194,-0.4235465 A0.475,0.475 296.9152797 0,0 -0.2150194,-0.4235465 L-0.6874522,-1.0737944 A1.275,1.275 237.3722867 0,1 0.3379894,-1.2293853 L0.6970722,-2.918737 A0.1905,0.1905 78.8150299 1,0 0.5503501,-2.9499237 L0.2225025,-1.4075218 A1.425,1.425 278.9830387 0,0 -0.7757568,-1.1953353 L-1.2464027,-1.8431238 A2.225,2.225 235.9316843 0,1 -0.3889796,-2.190735 L-0.5503501,-2.9499237 A0.1905,0.1905 54.8150299 1,0 -0.6970722,-2.918737 L-0.5669051,-2.3063486 A2.375,2.375 256.1903587 0,0 -1.3346175,-1.964541 L-1.7026119,-2.4710419 A0.1905,0.1905 30.8150299 1,0 -1.8239645,-2.3828741 L-0.336372,-0.3353787 A0.475,0.475 224.9152797 0,0 -0.4692613,0.0736126 L-1.2336736,0.3219852 A1.275,1.275 165.3722867 0,1 -1.0647704,-0.701348 L-2.5604767,-1.5648944 A0.1905,0.1905 6.8150299 1,0 -2.6354767,-1.4349906 L-1.2698758,-0.6465606 A1.425,1.425 206.9830387 0,0 -1.3765534,0.3684097 L-2.1380745,0.6158429 A2.225,2.225 163.9316843 0,1 -2.2037141,-0.3070328 L-2.9756117,-0.3881625 A0.1905,0.1905 342.8150299 1,0 -2.991291,-0.2389842 L-2.3686511,-0.1735421 A2.375,2.375 184.1903587 0,0 -2.280809,0.6622201 L-2.8762365,0.8556862 A0.1905,0.1905 318.8150299 1,0 -2.8298839,0.9983447 L-0.4229088,0.2162711 A0.475,0.475 152.9152797 0,0 -0.075,0.4690416 L-0.075,1.2727922 A1.275,1.275 93.3722867 0,1 -0.9960537,0.7959284 L-2.2795338,1.951579 A0.1905,0.1905 294.8150299 1,0 -2.1791642,2.0630508 L-1.0073288,1.0079254 A1.425,1.425 134.9830387 0,0 -0.075,1.4230249 L-0.075,2.2237356 A2.225,2.225 91.9316843 0,1 -0.9729907,2.0009783 L-1.2886791,2.7100261 A0.1905,0.1905 270.8150299 1,0 -1.1516473,2.7710366 L-0.8970018,2.1990936 A2.375,2.375 112.1903587 0,0 -0.075,2.3738155 L-0.075,2.999885 A0.1905,0.1905 246.8150299 1,0 0.075,2.999885 L0.075,0.4690416 A0.475,0.475 80.9152797 0,0 0.4229088,0.2162711 L1.187321,0.4646437 A1.275,1.275 21.3722867 0,1 0.4491753,1.1932588 L1.1516473,2.7710366 A0.1905,0.1905 222.8150299 1,0 1.2886791,2.7100261 L0.6473123,1.2694927 A1.425,1.425 62.9830387 0,0 1.3302009,0.5110681 L2.091722,0.7585013 A2.225,2.225 19.9316843 0,1 1.6023728,1.5437054z" transform="matrix(1,0,0,-1,3.665607,3.683)" fill="rgb(255,255,255)" stroke="rgb(0,0,0)" stroke-width="0.0010cm" stroke-linecap="round" stroke-linejoin="round" /></svg>