999
"DXF R12 Output" (www.mydxf.blogspot.com)
 0 
SECTION
 2 
HEADER
 9 
$ACADVER
 1 
AC1009
 9 
$EXTMIN
 10 
 0 
 20 
 0 
 9 
$EXTMAX
 10 
 8.5 
 20 
 11 
 0 
ENDSEC
 0 
SECTION
 2 
ENTITIES
0
LINE
8
Layer 1
10
0.846666
20
317.647000
11
-0.846666
21
315.953000
0
LINE
8
Layer 1
10
0.000000
20
318.211000
11
0.000000
21
315.389000
0
LINE
8
Layer 1
10
2.257780
20
315.671000
11
1.128890
21
314.542110
0
LINE
8
Layer 1
10
1.693330
20
316.236000
11
0.564440
21
315.107110
0
LINE
8
Layer 1
10
1.128890
20
316.800000
11
0.000000
21
315.671110
0
LINE
8
CUTOUTS
10
12.637900
20
260.735000
11
27.316600
21
269.209730
0
LINE
8
CUTOUTS
10
27.316600
20
269.209730
11
26.265448
21
271.820440
0
LINE
8
CUTOUTS
10
26.265448
20
271.820440
11
25.718892
21
274.557115
0
LINE
8
CUTOUTS
10
25.718892
20
274.557115
11
25.684516
21
277.347623
0
LINE
8
CUTOUTS
10
25.684516
20
277.347623
11
26.169900
21
280.119830
0
LINE
8
CUTOUTS
10
26.169900
20
280.119830
11
17.896100
21
282.808160
0
LINE
8
CUTOUTS
10
17.896100
20
282.808160
11
17.323454
21
280.378756
0
LINE
8
CUTOUTS
10
17.323454
20
280.378756
11
17.008749
21
277.909537
0
LINE
8
CUTOUTS
10
17.008749
20
277.909537
11
16.953513
21
275.420957
0
LINE
8
CUTOUTS
10
16.953513
20
275.420957
11
17.159272
21
272.933470
0
LINE
8
CUTOUTS
10
17.159272
20
272.933470
11
8.954612
21
272.071141
0
LINE
8
CUTOUTS
10
8.954612
20
272.071141
11
8.659962
21
271.457855
0
LINE
8
CUTOUTS
10
8.659962
20
271.457855
11
8.188021
21
270.994007
0
LINE
8
CUTOUTS
10
8.188021
20
270.994007
11
7.588431
21
270.714055
0
LINE
8
CUTOUTS
10
7.588431
20
270.714055
11
6.910829
21
270.652455
0
LINE
8
CUTOUTS
10
6.910829
20
270.652455
11
6.253126
21
270.826710
0
LINE
8
CUTOUTS
10
6.253126
20
270.826710
11
5.708914
21
271.203162
0
LINE
8
CUTOUTS
10
5.708914
20
271.203162
11
5.321358
21
271.739523
0
LINE
8
CUTOUTS
10
5.321358
20
271.739523
11
5.133623
21
272.393506
0
LINE
8
CUTOUTS
10
5.133623
20
272.393506
11
5.181286
21
273.072231
0
LINE
8
CUTOUTS
10
5.181286
20
273.072231
11
5.448857
21
273.677448
0
LINE
8
CUTOUTS
10
5.448857
20
273.677448
11
5.902909
21
274.158821
0
LINE
8
CUTOUTS
10
5.902909
20
274.158821
11
6.510010
21
274.466012
0
LINE
8
CUTOUTS
10
6.510010
20
274.466012
11
7.185612
21
274.546638
0
LINE
8
CUTOUTS
10
7.185612
20
274.546638
11
7.830306
21
274.397465
0
LINE
8
CUTOUTS
10
7.830306
20
274.397465
11
8.388372
21
274.041874
0
LINE
8
CUTOUTS
10
8.388372
20
274.041874
11
8.804092
21
273.503251
0
LINE
8
CUTOUTS
10
8.804092
20
273.503251
11
15.576022
21
274.215015
0
LINE
8
CUTOUTS
10
15.576022
20
274.215015
11
15.505332
21
276.499940
0
LINE
8
CUTOUTS
10
15.505332
20
276.499940
11
15.641073
21
278.777266
0
LINE
8
CUTOUTS
10
15.641073
20
278.777266
11
15.981781
21
281.033049
0
LINE
8
CUTOUTS
10
15.981781
20
281.033049
11
16.525990
21
283.253345
0
LINE
8
CUTOUTS
10
16.525990
20
283.253345
11
10.050030
21
285.357505
0
LINE
8
CUTOUTS
10
10.050030
20
285.357505
11
9.531409
21
284.917086
0
LINE
8
CUTOUTS
10
9.531409
20
284.917086
11
8.911608
21
284.685294
0
LINE
8
CUTOUTS
10
8.911608
20
284.685294
11
8.249989
21
284.673419
0
LINE
8
CUTOUTS
10
8.249989
20
284.673419
11
7.605915
21
284.892747
0
LINE
8
CUTOUTS
10
7.605915
20
284.892747
11
7.075948
21
285.319447
0
LINE
8
CUTOUTS
10
7.075948
20
285.319447
11
6.731901
21
285.884701
0
LINE
8
CUTOUTS
10
6.731901
20
285.884701
11
6.596005
21
286.532322
0
LINE
8
CUTOUTS
10
6.596005
20
286.532322
11
6.690496
21
287.206123
0
LINE
8
CUTOUTS
10
6.690496
20
287.206123
11
7.010095
21
287.806784
0
LINE
8
CUTOUTS
10
7.010095
20
287.806784
11
7.500694
21
288.250849
0
LINE
8
CUTOUTS
10
7.500694
20
288.250849
11
8.111279
21
288.505930
0
LINE
8
CUTOUTS
10
8.111279
20
288.505930
11
8.790839
21
288.539638
0
LINE
8
CUTOUTS
10
8.790839
20
288.539638
11
9.440826
21
288.338508
0
LINE
8
CUTOUTS
10
9.440826
20
288.338508
11
9.969111
21
287.940017
0
LINE
8
CUTOUTS
10
9.969111
20
287.940017
11
10.334304
21
287.388188
0
LINE
8
CUTOUTS
10
10.334304
20
287.388188
11
10.495012
21
286.727045
0
LINE
8
CUTOUTS
10
10.495012
20
286.727045
11
36.285612
21
278.347145
0
LINE
8
CUTOUTS
10
36.285612
20
278.347145
11
36.949931
21
279.359558
0
LINE
8
CUTOUTS
10
36.949931
20
279.359558
11
37.824933
21
280.171872
0
LINE
8
CUTOUTS
10
37.824933
20
280.171872
11
38.867876
21
280.753036
0
LINE
8
CUTOUTS
10
38.867876
20
280.753036
11
40.036022
21
281.071995
0
LINE
8
CUTOUTS
10
40.036022
20
281.071995
11
40.036000
21
289.798000
0
LINE
8
CUTOUTS
10
40.036000
20
289.798000
11
38.598462
21
289.645813
0
LINE
8
CUTOUTS
10
38.598462
20
289.645813
11
37.196586
21
289.345864
0
LINE
8
CUTOUTS
10
37.196586
20
289.345864
11
34.541811
21
288.324090
0
LINE
8
CUTOUTS
10
34.541811
20
288.324090
11
32.155658
21
286.775501
0
LINE
8
CUTOUTS
10
32.155658
20
286.775501
11
31.089559
21
285.817033
0
LINE
8
CUTOUTS
10
31.089559
20
285.817033
11
30.122110
21
284.742920
0
LINE
8
CUTOUTS
10
30.122110
20
284.742920
11
16.454700
21
297.050000
0
LINE
8
CUTOUTS
10
16.454700
20
297.050000
11
15.801780
21
296.858599
0
LINE
8
CUTOUTS
10
15.801780
20
296.858599
11
15.141285
21
296.898944
0
LINE
8
CUTOUTS
10
15.141285
20
296.898944
11
14.532035
21
297.157201
0
LINE
8
CUTOUTS
10
14.532035
20
297.157201
11
14.032853
21
297.619538
0
LINE
8
CUTOUTS
10
14.032853
20
297.619538
11
13.722260
21
298.224907
0
LINE
8
CUTOUTS
10
13.722260
20
298.224907
11
13.637869
21
298.881230
0
LINE
8
CUTOUTS
10
13.637869
20
298.881230
11
13.777137
21
299.528135
0
LINE
8
CUTOUTS
10
13.777137
20
299.528135
11
14.137521
21
300.105250
0
LINE
8
CUTOUTS
10
14.137521
20
300.105250
11
14.673803
21
300.523986
0
LINE
8
CUTOUTS
10
14.673803
20
300.523986
11
15.302607
21
300.730112
0
LINE
8
CUTOUTS
10
15.302607
20
300.730112
11
15.964156
21
300.714788
0
LINE
8
CUTOUTS
10
15.964156
20
300.714788
11
16.598674
21
300.469176
0
LINE
8
CUTOUTS
10
16.598674
20
300.469176
11
17.110658
21
300.021056
0
LINE
8
CUTOUTS
10
17.110658
20
300.021056
11
17.431185
21
299.442140
0
LINE
8
CUTOUTS
10
17.431185
20
299.442140
11
17.540351
21
298.789480
0
LINE
8
CUTOUTS
10
17.540351
20
298.789480
11
17.418248
21
298.120130
0
LINE
8
CUTOUTS
10
17.418248
20
298.120130
11
30.014148
21
286.778730
0
LINE
8
CUTOUTS
10
30.014148
20
286.778730
11
32.172262
21
288.585195
0
LINE
8
CUTOUTS
10
32.172262
20
288.585195
11
34.606107
21
289.950682
0
LINE
8
CUTOUTS
10
34.606107
20
289.950682
11
37.249423
21
290.845691
0
LINE
8
CUTOUTS
10
37.249423
20
290.845691
11
40.035948
21
291.240720
0
LINE
8
CUTOUTS
10
40.035948
20
291.240720
11
40.036000
21
299.940000
0
LINE
8
CUTOUTS
10
40.036000
20
299.940000
11
37.548545
21
299.733892
0
LINE
8
CUTOUTS
10
37.548545
20
299.733892
11
35.102932
21
299.270163
0
LINE
8
CUTOUTS
10
35.102932
20
299.270163
11
32.719086
21
298.553683
0
LINE
8
CUTOUTS
10
32.719086
20
298.553683
11
30.416930
21
297.589320
0
LINE
8
CUTOUTS
10
30.416930
20
297.589320
11
27.061410
21
305.125950
0
LINE
8
CUTOUTS
10
27.061410
20
305.125950
11
26.387088
21
305.216663
0
LINE
8
CUTOUTS
10
26.387088
20
305.216663
11
25.800105
21
305.522169
0
LINE
8
CUTOUTS
10
25.800105
20
305.522169
11
25.348570
21
306.005904
0
LINE
8
CUTOUTS
10
25.348570
20
306.005904
11
25.080595
21
306.631306
0
LINE
8
CUTOUTS
10
25.080595
20
306.631306
11
25.043081
21
307.310668
0
LINE
8
CUTOUTS
10
25.043081
20
307.310668
11
25.232938
21
307.944574
0
LINE
8
CUTOUTS
10
25.232938
20
307.944574
11
25.623287
21
308.478906
0
LINE
8
CUTOUTS
10
25.623287
20
308.478906
11
26.187250
21
308.859544
0
LINE
8
CUTOUTS
10
26.187250
20
308.859544
11
26.847484
21
309.023951
0
LINE
8
CUTOUTS
10
26.847484
20
309.023951
11
27.505764
21
308.956496
0
LINE
8
CUTOUTS
10
27.505764
20
308.956496
11
28.103886
21
308.673418
0
LINE
8
CUTOUTS
10
28.103886
20
308.673418
11
28.583646
21
308.190956
0
LINE
8
CUTOUTS
10
28.583646
20
308.190956
11
28.869098
21
307.573335
0
LINE
8
CUTOUTS
10
28.869098
20
307.573335
11
28.926445
21
306.914097
0
LINE
8
CUTOUTS
10
28.926445
20
306.914097
11
28.760709
21
306.273461
0
LINE
8
CUTOUTS
10
28.760709
20
306.273461
11
28.376910
21
305.711645
0
LINE
8
CUTOUTS
10
28.376910
20
305.711645
11
31.146480
21
299.491105
0
LINE
8
CUTOUTS
10
31.146480
20
299.491105
11
33.297728
21
300.264418
0
LINE
8
CUTOUTS
10
33.297728
20
300.264418
11
35.505540
21
300.839054
0
LINE
8
CUTOUTS
10
35.505540
20
300.839054
11
37.756203
21
301.212098
0
LINE
8
CUTOUTS
10
37.756203
20
301.212098
11
40.036000
21
301.380635
0
LINE
8
CUTOUTS
10
40.036000
20
301.380635
11
40.036000
21
308.190000
0
LINE
8
CUTOUTS
10
40.036000
20
308.190000
11
39.456873
21
308.547142
0
LINE
8
CUTOUTS
10
39.456873
20
308.547142
11
39.044897
21
309.064982
0
LINE
8
CUTOUTS
10
39.044897
20
309.064982
11
38.829153
21
309.690551
0
LINE
8
CUTOUTS
10
38.829153
20
309.690551
11
38.838719
21
310.370879
0
LINE
8
CUTOUTS
10
38.838719
20
310.370879
11
39.080768
21
311.006765
0
LINE
8
CUTOUTS
10
39.080768
20
311.006765
11
39.512043
21
311.508646
0
LINE
8
CUTOUTS
10
39.512043
20
311.508646
11
40.085976
21
311.838014
0
LINE
8
CUTOUTS
10
40.085976
20
311.838014
11
40.756000
21
311.956360
0
LINE
8
CUTOUTS
10
40.756000
20
311.956360
11
41.426024
21
311.838014
0
LINE
8
CUTOUTS
10
41.426024
20
311.838014
11
41.999957
21
311.508646
0
LINE
8
CUTOUTS
10
41.999957
20
311.508646
11
42.431232
21
311.006765
0
LINE
8
CUTOUTS
10
42.431232
20
311.006765
11
42.673281
21
310.370879
0
LINE
8
CUTOUTS
10
42.673281
20
310.370879
11
42.682847
21
309.690551
0
LINE
8
CUTOUTS
10
42.682847
20
309.690551
11
42.467103
21
309.064982
0
LINE
8
CUTOUTS
10
42.467103
20
309.064982
11
42.055127
21
308.547142
0
LINE
8
CUTOUTS
10
42.055127
20
308.547142
11
41.476000
21
308.190000
0
LINE
8
CUTOUTS
10
41.476000
20
308.190000
11
41.476000
21
281.072000
0
LINE
8
CUTOUTS
10
41.476000
20
281.072000
11
42.644146
21
280.753041
0
LINE
8
CUTOUTS
10
42.644146
20
280.753041
11
43.687089
21
280.171877
0
LINE
8
CUTOUTS
10
43.687089
20
280.171877
11
44.562091
21
279.359563
0
LINE
8
CUTOUTS
10
44.562091
20
279.359563
11
45.226410
21
278.347150
0
LINE
8
CUTOUTS
10
45.226410
20
278.347150
11
53.525920
21
281.043840
0
LINE
8
CUTOUTS
10
53.525920
20
281.043840
11
52.936958
21
282.363993
0
LINE
8
CUTOUTS
10
52.936958
20
282.363993
11
52.218486
21
283.604568
0
LINE
8
CUTOUTS
10
52.218486
20
283.604568
11
50.426350
21
285.813665
0
LINE
8
CUTOUTS
10
50.426350
20
285.813665
11
48.216191
21
287.604493
0
LINE
8
CUTOUTS
10
48.216191
20
287.604493
11
46.975191
21
288.322230
0
LINE
8
CUTOUTS
10
46.975191
20
288.322230
11
45.654690
21
288.910410
0
LINE
8
CUTOUTS
10
45.654690
20
288.910410
11
53.135090
21
305.711610
0
LINE
8
CUTOUTS
10
53.135090
20
305.711610
11
52.751291
21
306.273426
0
LINE
8
CUTOUTS
10
52.751291
20
306.273426
11
52.585555
21
306.914062
0
LINE
8
CUTOUTS
10
52.585555
20
306.914062
11
52.642902
21
307.573300
0
LINE
8
CUTOUTS
10
52.642902
20
307.573300
11
52.928354
21
308.190921
0
LINE
8
CUTOUTS
10
52.928354
20
308.190921
11
53.408114
21
308.673383
0
LINE
8
CUTOUTS
10
53.408114
20
308.673383
11
54.006236
21
308.956461
0
LINE
8
CUTOUTS
10
54.006236
20
308.956461
11
54.664516
21
309.023916
0
LINE
8
CUTOUTS
10
54.664516
20
309.023916
11
55.324750
21
308.859509
0
LINE
8
CUTOUTS
10
55.324750
20
308.859509
11
55.888713
21
308.478871
0
LINE
8
CUTOUTS
10
55.888713
20
308.478871
11
56.279062
21
307.944539
0
LINE
8
CUTOUTS
10
56.279062
20
307.944539
11
56.468919
21
307.310633
0
LINE
8
CUTOUTS
10
56.468919
20
307.310633
11
56.431405
21
306.631271
0
LINE
8
CUTOUTS
10
56.431405
20
306.631271
11
56.163430
21
306.005869
0
LINE
8
CUTOUTS
10
56.163430
20
306.005869
11
55.711895
21
305.522134
0
LINE
8
CUTOUTS
10
55.711895
20
305.522134
11
55.124912
21
305.216628
0
LINE
8
CUTOUTS
10
55.124912
20
305.216628
11
54.450590
21
305.125915
0
LINE
8
CUTOUTS
10
54.450590
20
305.125915
11
47.556630
21
289.641815
0
LINE
8
CUTOUTS
10
47.556630
20
289.641815
11
49.941582
21
288.147552
0
LINE
8
CUTOUTS
10
49.941582
20
288.147552
11
51.992343
21
286.254782
0
LINE
8
CUTOUTS
10
51.992343
20
286.254782
11
53.660380
21
284.017406
0
LINE
8
CUTOUTS
10
53.660380
20
284.017406
11
54.897160
21
281.489325
0
LINE
8
CUTOUTS
10
54.897160
20
281.489325
11
63.170960
21
284.177635
0
LINE
8
CUTOUTS
10
63.170960
20
284.177635
11
62.206243
21
286.479517
0
LINE
8
CUTOUTS
10
62.206243
20
286.479517
11
61.009470
21
288.661999
0
LINE
8
CUTOUTS
10
61.009470
20
288.661999
11
59.591427
21
290.707641
0
LINE
8
CUTOUTS
10
59.591427
20
290.707641
11
57.962900
21
292.599000
0
LINE
8
CUTOUTS
10
57.962900
20
292.599000
11
64.093740
21
298.119230
0
LINE
8
CUTOUTS
10
64.093740
20
298.119230
11
63.971637
21
298.788580
0
LINE
8
CUTOUTS
10
63.971637
20
298.788580
11
64.080803
21
299.441240
0
LINE
8
CUTOUTS
10
64.080803
20
299.441240
11
64.401330
21
300.020156
0
LINE
8
CUTOUTS
10
64.401330
20
300.020156
11
64.913314
21
300.468276
0
LINE
8
CUTOUTS
10
64.913314
20
300.468276
11
65.547832
21
300.713888
0
LINE
8
CUTOUTS
10
65.547832
20
300.713888
11
66.209381
21
300.729212
0
LINE
8
CUTOUTS
10
66.209381
20
300.729212
11
66.838185
21
300.523086
0
LINE
8
CUTOUTS
10
66.838185
20
300.523086
11
67.374467
21
300.104350
0
LINE
8
CUTOUTS
10
67.374467
20
300.104350
11
67.734851
21
299.527235
0
LINE
8
CUTOUTS
10
67.734851
20
299.527235
11
67.874119
21
298.880330
0
LINE
8
CUTOUTS
10
67.874119
20
298.880330
11
67.789728
21
298.224007
0
LINE
8
CUTOUTS
10
67.789728
20
298.224007
11
67.479135
21
297.618638
0
LINE
8
CUTOUTS
10
67.479135
20
297.618638
11
66.979953
21
297.156301
0
LINE
8
CUTOUTS
10
66.979953
20
297.156301
11
66.370703
21
296.898044
0
LINE
8
CUTOUTS
10
66.370703
20
296.898044
11
65.710208
21
296.857699
0
LINE
8
CUTOUTS
10
65.710208
20
296.857699
11
65.057288
21
297.049100
0
LINE
8
CUTOUTS
10
65.057288
20
297.049100
11
59.997038
21
292.492820
0
LINE
8
CUTOUTS
10
59.997038
20
292.492820
11
61.397274
21
290.685826
0
LINE
8
CUTOUTS
10
61.397274
20
290.685826
11
62.626037
21
288.763641
0
LINE
8
CUTOUTS
10
62.626037
20
288.763641
11
63.676315
21
286.738408
0
LINE
8
CUTOUTS
10
63.676315
20
286.738408
11
64.541098
21
284.622270
0
LINE
8
CUTOUTS
10
64.541098
20
284.622270
11
71.017068
21
286.726460
0
LINE
8
CUTOUTS
10
71.017068
20
286.726460
11
71.177776
21
287.387603
0
LINE
8
CUTOUTS
10
71.177776
20
287.387603
11
71.542969
21
287.939432
0
LINE
8
CUTOUTS
10
71.542969
20
287.939432
11
72.071254
21
288.337923
0
LINE
8
CUTOUTS
10
72.071254
20
288.337923
11
72.721241
21
288.539053
0
LINE
8
CUTOUTS
10
72.721241
20
288.539053
11
73.400801
21
288.505345
0
LINE
8
CUTOUTS
10
73.400801
20
288.505345
11
74.011386
21
288.250264
0
LINE
8
CUTOUTS
10
74.011386
20
288.250264
11
74.501985
21
287.806199
0
LINE
8
CUTOUTS
10
74.501985
20
287.806199
11
74.821584
21
287.205538
0
LINE
8
CUTOUTS
10
74.821584
20
287.205538
11
74.916075
21
286.531737
0
LINE
8
CUTOUTS
10
74.916075
20
286.531737
11
74.780179
21
285.884116
0
LINE
8
CUTOUTS
10
74.780179
20
285.884116
11
74.436132
21
285.318862
0
LINE
8
CUTOUTS
10
74.436132
20
285.318862
11
73.906165
21
284.892162
0
LINE
8
CUTOUTS
10
73.906165
20
284.892162
11
73.262091
21
284.672834
0
LINE
8
CUTOUTS
10
73.262091
20
284.672834
11
72.600472
21
284.684709
0
LINE
8
CUTOUTS
10
72.600472
20
284.684709
11
71.980671
21
284.916501
0
LINE
8
CUTOUTS
10
71.980671
20
284.916501
11
71.462050
21
285.356920
0
LINE
8
CUTOUTS
10
71.462050
20
285.356920
11
45.671450
21
276.977040
0
LINE
8
CUTOUTS
10
45.671450
20
276.977040
11
45.729081
21
275.767507
0
LINE
8
CUTOUTS
10
45.729081
20
275.767507
11
45.498652
21
274.596022
0
LINE
8
CUTOUTS
10
45.498652
20
274.596022
11
44.996490
21
273.512828
0
LINE
8
CUTOUTS
10
44.996490
20
273.512828
11
44.238920
21
272.568170
0
LINE
8
CUTOUTS
10
44.238920
20
272.568170
11
49.368300
21
265.508190
0
LINE
8
CUTOUTS
10
49.368300
20
265.508190
11
50.441841
21
266.476276
0
LINE
8
CUTOUTS
10
50.441841
20
266.476276
11
51.399678
21
267.542942
0
LINE
8
CUTOUTS
10
51.399678
20
267.542942
11
52.946854
21
269.930014
0
LINE
8
CUTOUTS
10
52.946854
20
269.930014
11
53.967056
21
272.585396
0
LINE
8
CUTOUTS
10
53.967056
20
272.585396
11
54.266175
21
273.987451
0
LINE
8
CUTOUTS
10
54.266175
20
273.987451
11
54.417510
21
275.425080
0
LINE
8
CUTOUTS
10
54.417510
20
275.425080
11
72.708010
21
273.502670
0
LINE
8
CUTOUTS
10
72.708010
20
273.502670
11
73.123730
21
274.041293
0
LINE
8
CUTOUTS
10
73.123730
20
274.041293
11
73.681796
21
274.396884
0
LINE
8
CUTOUTS
10
73.681796
20
274.396884
11
74.326490
21
274.546057
0
LINE
8
CUTOUTS
10
74.326490
20
274.546057
11
75.002092
21
274.465431
0
LINE
8
CUTOUTS
10
75.002092
20
274.465431
11
75.609193
21
274.158240
0
LINE
8
CUTOUTS
10
75.609193
20
274.158240
11
76.063245
21
273.676867
0
LINE
8
CUTOUTS
10
76.063245
20
273.676867
11
76.330816
21
273.071650
0
LINE
8
CUTOUTS
10
76.330816
20
273.071650
11
76.378479
21
272.392925
0
LINE
8
CUTOUTS
10
76.378479
20
272.392925
11
76.190744
21
271.738942
0
LINE
8
CUTOUTS
10
76.190744
20
271.738942
11
75.803188
21
271.202581
0
LINE
8
CUTOUTS
10
75.803188
20
271.202581
11
75.258976
21
270.826129
0
LINE
8
CUTOUTS
10
75.258976
20
270.826129
11
74.601273
21
270.651874
0
LINE
8
CUTOUTS
10
74.601273
20
270.651874
11
73.923671
21
270.713474
0
LINE
8
CUTOUTS
10
73.923671
20
270.713474
11
73.324081
21
270.993426
0
LINE
8
CUTOUTS
10
73.324081
20
270.993426
11
72.852140
21
271.457274
0
LINE
8
CUTOUTS
10
72.852140
20
271.457274
11
72.557490
21
272.070560
0
LINE
8
CUTOUTS
10
72.557490
20
272.070560
11
55.700890
21
273.842270
0
LINE
8
CUTOUTS
10
55.700890
20
273.842270
11
55.016753
21
271.112293
0
LINE
8
CUTOUTS
10
55.016753
20
271.112293
11
53.850341
21
268.577004
0
LINE
8
CUTOUTS
10
53.850341
20
268.577004
11
52.237922
21
266.299218
0
LINE
8
CUTOUTS
10
52.237922
20
266.299218
11
50.215760
21
264.341750
0
LINE
8
CUTOUTS
10
50.215760
20
264.341750
11
55.329250
21
257.303640
0
LINE
8
CUTOUTS
10
55.329250
20
257.303640
11
57.220497
21
258.932473
0
LINE
8
CUTOUTS
10
57.220497
20
258.932473
11
58.926467
21
260.745131
0
LINE
8
CUTOUTS
10
58.926467
20
260.745131
11
60.433904
21
262.725963
0
LINE
8
CUTOUTS
10
60.433904
20
262.725963
11
61.729550
21
264.859320
0
LINE
8
CUTOUTS
10
61.729550
20
264.859320
11
68.874130
21
260.734390
0
LINE
8
CUTOUTS
10
68.874130
20
260.734390
11
69.472987
21
261.057358
0
LINE
8
CUTOUTS
10
69.472987
20
261.057358
11
70.127437
21
261.155220
0
LINE
8
CUTOUTS
10
70.127437
20
261.155220
11
70.777068
21
261.029277
0
LINE
8
CUTOUTS
10
70.777068
20
261.029277
11
71.361467
21
260.680830
0
LINE
8
CUTOUTS
10
71.361467
20
260.680830
11
71.791136
21
260.153267
0
LINE
8
CUTOUTS
10
71.791136
20
260.153267
11
72.010141
21
259.528832
0
LINE
8
CUTOUTS
10
72.010141
20
259.528832
11
72.008417
21
258.867107
0
LINE
8
CUTOUTS
10
72.008417
20
258.867107
11
71.775897
21
258.227676
0
LINE
8
CUTOUTS
10
71.775897
20
258.227676
11
71.338395
21
257.706591
0
LINE
8
CUTOUTS
10
71.338395
20
257.706591
11
70.766188
21
257.374233
0
LINE
8
CUTOUTS
10
70.766188
20
257.374233
11
70.115910
21
257.251677
0
LINE
8
CUTOUTS
10
70.115910
20
257.251677
11
69.444192
21
257.359998
0
LINE
8
CUTOUTS
10
69.444192
20
257.359998
11
68.850227
21
257.691876
0
LINE
8
CUTOUTS
10
68.850227
20
257.691876
11
68.416339
21
258.191500
0
LINE
8
CUTOUTS
10
68.416339
20
258.191500
11
68.173863
21
258.807201
0
LINE
8
CUTOUTS
10
68.173863
20
258.807201
11
68.154131
21
259.487310
0
LINE
8
CUTOUTS
10
68.154131
20
259.487310
11
62.257161
21
262.891950
0
LINE
8
CUTOUTS
10
62.257161
20
262.891950
11
60.971306
21
261.001852
0
LINE
8
CUTOUTS
10
60.971306
20
261.001852
11
59.522910
21
259.239240
0
LINE
8
CUTOUTS
10
59.522910
20
259.239240
11
57.921354
21
257.614532
0
LINE
8
CUTOUTS
10
57.921354
20
257.614532
11
56.176021
21
256.138150
0
LINE
8
CUTOUTS
10
56.176021
20
256.138150
11
60.178391
21
250.629370
0
LINE
8
CUTOUTS
10
60.178391
20
250.629370
11
60.856837
21
250.680841
0
LINE
8
CUTOUTS
10
60.856837
20
250.680841
11
61.494512
21
250.504054
0
LINE
8
CUTOUTS
10
61.494512
20
250.504054
11
62.036755
21
250.124772
0
LINE
8
CUTOUTS
10
62.036755
20
250.124772
11
62.428905
21
249.568753
0
LINE
8
CUTOUTS
10
62.428905
20
249.568753
11
62.606849
21
248.912038
0
LINE
8
CUTOUTS
10
62.606849
20
248.912038
11
62.552940
21
248.252510
0
LINE
8
CUTOUTS
10
62.552940
20
248.252510
11
62.282218
21
247.648696
0
LINE
8
CUTOUTS
10
62.282218
20
247.648696
11
61.809720
21
247.159119
0
LINE
8
CUTOUTS
10
61.809720
20
247.159119
11
61.198097
21
246.861032
0
LINE
8
CUTOUTS
10
61.198097
20
246.861032
11
60.540178
21
246.790145
0
LINE
8
CUTOUTS
10
60.540178
20
246.790145
11
59.896271
21
246.942677
0
LINE
8
CUTOUTS
10
59.896271
20
246.942677
11
59.326684
21
247.314845
0
LINE
8
CUTOUTS
10
59.326684
20
247.314845
11
58.919056
21
247.859619
0
LINE
8
CUTOUTS
10
58.919056
20
247.859619
11
58.725896
21
248.492526
0
LINE
8
CUTOUTS
10
58.725896
20
248.492526
11
58.754811
21
249.153621
0
LINE
8
CUTOUTS
10
58.754811
20
249.153621
11
59.013411
21
249.782958
0
LINE
8
CUTOUTS
10
59.013411
20
249.782958
11
43.073911
21
271.721758
0
LINE
8
CUTOUTS
10
43.073911
20
271.721758
11
41.941386
21
271.293182
0
LINE
8
CUTOUTS
10
41.941386
20
271.293182
11
40.756031
21
271.150323
0
LINE
8
CUTOUTS
10
40.756031
20
271.150323
11
39.570676
21
271.293182
0
LINE
8
CUTOUTS
10
39.570676
20
271.293182
11
38.438151
21
271.721758
0
LINE
8
CUTOUTS
10
38.438151
20
271.721758
11
33.308771
21
264.661778
0
LINE
8
CUTOUTS
10
33.308771
20
264.661778
11
34.561215
21
263.939935
0
LINE
8
CUTOUTS
10
34.561215
20
263.939935
11
35.871661
21
263.358595
0
LINE
8
CUTOUTS
10
35.871661
20
263.358595
11
38.620001
21
262.624786
0
LINE
8
CUTOUTS
10
38.620001
20
262.624786
11
41.460676
21
262.475070
0
LINE
8
CUTOUTS
10
41.460676
20
262.475070
11
42.886541
21
262.623847
0
LINE
8
CUTOUTS
10
42.886541
20
262.623847
11
44.300571
21
262.924168
0
LINE
8
CUTOUTS
10
44.300571
20
262.924168
11
48.124331
21
244.934868
0
LINE
8
CUTOUTS
10
48.124331
20
244.934868
11
48.765059
21
244.705945
0
LINE
8
CUTOUTS
10
48.765059
20
244.705945
11
49.275702
21
244.285081
0
LINE
8
CUTOUTS
10
49.275702
20
244.285081
11
49.616801
21
243.718042
0
LINE
8
CUTOUTS
10
49.616801
20
243.718042
11
49.748900
21
243.050593
0
LINE
8
CUTOUTS
10
49.748900
20
243.050593
11
49.644356
21
242.378277
0
LINE
8
CUTOUTS
10
49.644356
20
242.378277
11
49.326859
21
241.797693
0
LINE
8
CUTOUTS
10
49.326859
20
241.797693
11
48.833952
21
241.356190
0
LINE
8
CUTOUTS
10
48.833952
20
241.356190
11
48.203178
21
241.101116
0
LINE
8
CUTOUTS
10
48.203178
20
241.101116
11
47.523190
21
241.077563
0
LINE
8
CUTOUTS
10
47.523190
20
241.077563
11
46.893317
21
241.280399
0
LINE
8
CUTOUTS
10
46.893317
20
241.280399
11
46.367116
21
241.681639
0
LINE
8
CUTOUTS
10
46.367116
20
241.681639
11
45.998141
21
242.253300
0
LINE
8
CUTOUTS
10
45.998141
20
242.253300
11
45.847328
21
242.916771
0
LINE
8
CUTOUTS
10
45.847328
20
242.916771
11
45.928288
21
243.573527
0
LINE
8
CUTOUTS
10
45.928288
20
243.573527
11
46.223589
21
244.165709
0
LINE
8
CUTOUTS
10
46.223589
20
244.165709
11
46.715801
21
244.635459
0
LINE
8
CUTOUTS
10
46.715801
20
244.635459
11
43.191811
21
261.214559
0
LINE
8
CUTOUTS
10
43.191811
20
261.214559
11
40.384047
21
261.021603
0
LINE
8
CUTOUTS
10
40.384047
20
261.021603
11
37.612412
21
261.347476
0
LINE
8
CUTOUTS
10
37.612412
20
261.347476
11
34.947851
21
262.177098
0
LINE
8
CUTOUTS
10
34.947851
20
262.177098
11
32.461311
21
263.495389
0
LINE
8
CUTOUTS
10
32.461311
20
263.495389
11
27.347821
21
256.457279
0
LINE
8
CUTOUTS
10
27.347821
20
256.457279
11
29.481362
21
255.161928
0
LINE
8
CUTOUTS
10
29.481362
20
255.161928
11
31.732478
21
254.099592
0
LINE
8
CUTOUTS
10
31.732478
20
254.099592
11
34.082188
21
253.278041
0
LINE
8
CUTOUTS
10
34.082188
20
253.278041
11
36.511511
21
252.705049
0
LINE
8
CUTOUTS
10
36.511511
20
252.705049
11
34.796271
21
244.635479
0
LINE
8
CUTOUTS
10
34.796271
20
244.635479
11
35.288483
21
244.165729
0
LINE
8
CUTOUTS
10
35.288483
20
244.165729
11
35.583784
21
243.573547
0
LINE
8
CUTOUTS
10
35.583784
20
243.573547
11
35.664744
21
242.916791
0
LINE
8
CUTOUTS
10
35.664744
20
242.916791
11
35.513931
21
242.253320
0
LINE
8
CUTOUTS
10
35.513931
20
242.253320
11
35.144956
21
241.681659
0
LINE
8
CUTOUTS
10
35.144956
20
241.681659
11
34.618755
21
241.280419
0
LINE
8
CUTOUTS
10
34.618755
20
241.280419
11
33.988882
21
241.077583
0
LINE
8
CUTOUTS
10
33.988882
20
241.077583
11
33.308894
21
241.101136
0
LINE
8
CUTOUTS
10
33.308894
20
241.101136
11
32.678120
21
241.356210
0
LINE
8
CUTOUTS
10
32.678120
20
241.356210
11
32.185213
21
241.797713
0
LINE
8
CUTOUTS
10
32.185213
20
241.797713
11
31.867716
21
242.378297
0
LINE
8
CUTOUTS
10
31.867716
20
242.378297
11
31.763172
21
243.050613
0
LINE
8
CUTOUTS
10
31.763172
20
243.050613
11
31.895271
21
243.718062
0
LINE
8
CUTOUTS
10
31.895271
20
243.718062
11
32.236370
21
244.285101
0
LINE
8
CUTOUTS
10
32.236370
20
244.285101
11
32.747013
21
244.705965
0
LINE
8
CUTOUTS
10
32.747013
20
244.705965
11
33.387741
21
244.934888
0
LINE
8
CUTOUTS
10
33.387741
20
244.934888
11
34.803461
21
251.595328
0
LINE
8
CUTOUTS
10
34.803461
20
251.595328
11
32.608523
21
252.234175
0
LINE
8
CUTOUTS
10
32.608523
20
252.234175
11
30.484603
21
253.067003
0
LINE
8
CUTOUTS
10
30.484603
20
253.067003
11
28.444509
21
254.088108
0
LINE
8
CUTOUTS
10
28.444509
20
254.088108
11
26.501051
21
255.291788
0
LINE
8
CUTOUTS
10
26.501051
20
255.291788
11
22.498681
21
249.783008
0
LINE
8
CUTOUTS
10
22.498681
20
249.783008
11
22.757281
21
249.153671
0
LINE
8
CUTOUTS
10
22.757281
20
249.153671
11
22.786196
21
248.492576
0
LINE
8
CUTOUTS
10
22.786196
20
248.492576
11
22.593036
21
247.859669
0
LINE
8
CUTOUTS
10
22.593036
20
247.859669
11
22.185408
21
247.314895
0
LINE
8
CUTOUTS
10
22.185408
20
247.314895
11
21.615821
21
246.942727
0
LINE
8
CUTOUTS
10
21.615821
20
246.942727
11
20.971914
21
246.790195
0
LINE
8
CUTOUTS
10
20.971914
20
246.790195
11
20.313995
21
246.861082
0
LINE
8
CUTOUTS
10
20.313995
20
246.861082
11
19.702372
21
247.159169
0
LINE
8
CUTOUTS
10
19.702372
20
247.159169
11
19.229874
21
247.648746
0
LINE
8
CUTOUTS
10
19.229874
20
247.648746
11
18.959152
21
248.252560
0
LINE
8
CUTOUTS
10
18.959152
20
248.252560
11
18.905243
21
248.912088
0
LINE
8
CUTOUTS
10
18.905243
20
248.912088
11
19.083187
21
249.568803
0
LINE
8
CUTOUTS
10
19.083187
20
249.568803
11
19.475337
21
250.124822
0
LINE
8
CUTOUTS
10
19.475337
20
250.124822
11
20.017580
21
250.504104
0
LINE
8
CUTOUTS
10
20.017580
20
250.504104
11
20.655255
21
250.680891
0
LINE
8
CUTOUTS
10
20.655255
20
250.680891
11
21.333701
21
250.629420
0
LINE
8
CUTOUTS
10
21.333701
20
250.629420
11
37.273201
21
272.568220
0
LINE
8
CUTOUTS
10
37.273201
20
272.568220
11
36.515631
21
273.512878
0
LINE
8
CUTOUTS
10
36.515631
20
273.512878
11
36.013469
21
274.596072
0
LINE
8
CUTOUTS
10
36.013469
20
274.596072
11
35.783040
21
275.767557
0
LINE
8
CUTOUTS
10
35.783040
20
275.767557
11
35.840671
21
276.977090
0
LINE
8
CUTOUTS
10
35.840671
20
276.977090
11
27.541161
21
279.673750
0
LINE
8
CUTOUTS
10
27.541161
20
279.673750
11
27.241673
21
278.259539
0
LINE
8
CUTOUTS
10
27.241673
20
278.259539
11
27.093735
21
276.833583
0
LINE
8
CUTOUTS
10
27.093735
20
276.833583
11
27.245127
21
273.992990
0
LINE
8
CUTOUTS
10
27.245127
20
273.992990
11
27.980560
21
271.245077
0
LINE
8
CUTOUTS
10
27.980560
20
271.245077
11
28.562676
21
269.934971
0
LINE
8
CUTOUTS
10
28.562676
20
269.934971
11
29.285261
21
268.682950
0
LINE
8
CUTOUTS
10
29.285261
20
268.682950
11
13.357961
21
259.487310
0
LINE
8
CUTOUTS
10
13.357961
20
259.487310
11
13.338229
21
258.807201
0
LINE
8
CUTOUTS
10
13.338229
20
258.807201
11
13.095753
21
258.191500
0
LINE
8
CUTOUTS
10
13.095753
20
258.191500
11
12.661865
21
257.691876
0
LINE
8
CUTOUTS
10
12.661865
20
257.691876
11
12.067900
21
257.359998
0
LINE
8
CUTOUTS
10
12.067900
20
257.359998
11
11.396182
21
257.251677
0
LINE
8
CUTOUTS
10
11.396182
20
257.251677
11
10.745904
21
257.374233
0
LINE
8
CUTOUTS
10
10.745904
20
257.374233
11
10.173697
21
257.706591
0
LINE
8
CUTOUTS
10
10.173697
20
257.706591
11
9.736195
21
258.227676
0
LINE
8
CUTOUTS
10
9.736195
20
258.227676
11
9.503675
21
258.867107
0
LINE
8
CUTOUTS
10
9.503675
20
258.867107
11
9.501951
21
259.528832
0
LINE
8
CUTOUTS
10
9.501951
20
259.528832
11
9.720956
21
260.153267
0
LINE
8
CUTOUTS
10
9.720956
20
260.153267
11
10.150625
21
260.680830
0
LINE
8
CUTOUTS
10
10.150625
20
260.680830
11
10.735024
21
261.029277
0
LINE
8
CUTOUTS
10
10.735024
20
261.029277
11
11.384655
21
261.155220
0
LINE
8
CUTOUTS
10
11.384655
20
261.155220
11
12.039105
21
261.057358
0
LINE
8
CUTOUTS
10
12.039105
20
261.057358
11
12.637962
21
260.734390
0
LINE
8
CUTOUTS
10
12.637962
20
260.734390
11
12.637900
21
260.735000
0
LINE
8
PERIMETER
10
16.626400
20
252.260000
11
15.827976
21
250.979129
0
LINE
8
PERIMETER
10
15.827976
20
250.979129
11
15.412128
21
249.555967
0
LINE
8
PERIMETER
10
15.412128
20
249.555967
11
15.391316
21
248.073439
0
LINE
8
PERIMETER
10
15.391316
20
248.073439
11
15.778002
21
246.614473
0
LINE
8
PERIMETER
10
15.778002
20
246.614473
11
16.546529
21
245.315444
0
LINE
8
PERIMETER
10
16.546529
20
245.315444
11
17.617702
21
244.290304
0
LINE
8
PERIMETER
10
17.617702
20
244.290304
11
18.923678
21
243.588345
0
LINE
8
PERIMETER
10
18.923678
20
243.588345
11
20.396616
21
243.258857
0
LINE
8
PERIMETER
10
20.396616
20
243.258857
11
21.903669
21
243.341943
0
LINE
8
PERIMETER
10
21.903669
20
243.341943
11
23.307205
21
243.819864
0
LINE
8
PERIMETER
10
23.307205
20
243.819864
11
24.532207
21
244.655142
0
LINE
8
PERIMETER
10
24.532207
20
244.655142
11
25.503660
21
245.810300
0
LINE
8
PERIMETER
10
25.503660
20
245.810300
11
28.424370
21
244.509930
0
LINE
8
PERIMETER
10
28.424370
20
244.509930
11
28.215935
21
243.015041
0
LINE
8
PERIMETER
10
28.215935
20
243.015041
11
28.414879
21
241.545767
0
LINE
8
PERIMETER
10
28.414879
20
241.545767
11
28.998858
21
240.182934
0
LINE
8
PERIMETER
10
28.998858
20
240.182934
11
29.945528
21
239.007369
0
LINE
8
PERIMETER
10
29.945528
20
239.007369
11
31.175979
21
238.133225
0
LINE
8
PERIMETER
10
31.175979
20
238.133225
11
32.571513
21
237.632393
0
LINE
8
PERIMETER
10
32.571513
20
237.632393
11
34.050103
21
237.522309
0
LINE
8
PERIMETER
10
34.050103
20
237.522309
11
35.529722
21
237.820407
0
LINE
8
PERIMETER
10
35.529722
20
237.820407
11
36.872695
21
238.509291
0
LINE
8
PERIMETER
10
36.872695
20
238.509291
11
37.960503
21
239.516774
0
LINE
8
PERIMETER
10
37.960503
20
239.516774
11
38.739857
21
240.778104
0
LINE
8
PERIMETER
10
38.739857
20
240.778104
11
39.157470
21
242.228530
0
LINE
8
PERIMETER
10
39.157470
20
242.228530
11
42.354590
21
242.228530
0
LINE
8
PERIMETER
10
42.354590
20
242.228530
11
42.772203
21
240.778104
0
LINE
8
PERIMETER
10
42.772203
20
240.778104
11
43.551557
21
239.516774
0
LINE
8
PERIMETER
10
43.551557
20
239.516774
11
44.639365
21
238.509291
0
LINE
8
PERIMETER
10
44.639365
20
238.509291
11
45.982338
21
237.820407
0
LINE
8
PERIMETER
10
45.982338
20
237.820407
11
47.461957
21
237.522309
0
LINE
8
PERIMETER
10
47.461957
20
237.522309
11
48.940547
21
237.632393
0
LINE
8
PERIMETER
10
48.940547
20
237.632393
11
50.336081
21
238.133225
0
LINE
8
PERIMETER
10
50.336081
20
238.133225
11
51.566532
21
239.007369
0
LINE
8
PERIMETER
10
51.566532
20
239.007369
11
52.513202
21
240.182934
0
LINE
8
PERIMETER
10
52.513202
20
240.182934
11
53.097181
21
241.545767
0
LINE
8
PERIMETER
10
53.097181
20
241.545767
11
53.296125
21
243.015041
0
LINE
8
PERIMETER
10
53.296125
20
243.015041
11
53.087690
21
244.509930
0
LINE
8
PERIMETER
10
53.087690
20
244.509930
11
56.008400
21
245.810300
0
LINE
8
PERIMETER
10
56.008400
20
245.810300
11
56.979853
21
244.655142
0
LINE
8
PERIMETER
10
56.979853
20
244.655142
11
58.204855
21
243.819864
0
LINE
8
PERIMETER
10
58.204855
20
243.819864
11
59.608391
21
243.341943
0
LINE
8
PERIMETER
10
59.608391
20
243.341943
11
61.115444
21
243.258857
0
LINE
8
PERIMETER
10
61.115444
20
243.258857
11
62.588382
21
243.588345
0
LINE
8
PERIMETER
10
62.588382
20
243.588345
11
63.894358
21
244.290304
0
LINE
8
PERIMETER
10
63.894358
20
244.290304
11
64.965531
21
245.315444
0
LINE
8
PERIMETER
10
64.965531
20
245.315444
11
65.734058
21
246.614473
0
LINE
8
PERIMETER
10
65.734058
20
246.614473
11
66.120744
21
248.073439
0
LINE
8
PERIMETER
10
66.120744
20
248.073439
11
66.099932
21
249.555967
0
LINE
8
PERIMETER
10
66.099932
20
249.555967
11
65.684084
21
250.979129
0
LINE
8
PERIMETER
10
65.684084
20
250.979129
11
64.885660
21
252.260000
0
LINE
8
PERIMETER
10
64.885660
20
252.260000
11
67.024950
21
254.635940
0
LINE
8
PERIMETER
10
67.024950
20
254.635940
11
68.382259
21
253.975793
0
LINE
8
PERIMETER
10
68.382259
20
253.975793
11
69.841087
21
253.710995
0
LINE
8
PERIMETER
10
69.841087
20
253.710995
11
71.317659
21
253.845270
0
LINE
8
PERIMETER
10
71.317659
20
253.845270
11
72.728203
21
254.382343
0
LINE
8
PERIMETER
10
72.728203
20
254.382343
11
73.939774
21
255.282443
0
LINE
8
PERIMETER
10
73.939774
20
255.282443
11
74.847324
21
256.454897
0
LINE
8
PERIMETER
10
74.847324
20
256.454897
11
75.408924
21
257.827085
0
LINE
8
PERIMETER
10
75.408924
20
257.827085
11
75.582648
21
259.326386
0
LINE
8
PERIMETER
10
75.582648
20
259.326386
11
75.342495
21
260.816490
0
LINE
8
PERIMETER
10
75.342495
20
260.816490
11
74.720494
21
262.162377
0
LINE
8
PERIMETER
10
74.720494
20
262.162377
11
73.761759
21
263.293359
0
LINE
8
PERIMETER
10
73.761759
20
263.293359
11
72.511400
21
264.138750
0
LINE
8
PERIMETER
10
72.511400
20
264.138750
11
73.499363
21
267.179380
0
LINE
8
PERIMETER
10
73.499363
20
267.179380
11
75.007820
21
267.128394
0
LINE
8
PERIMETER
10
75.007820
20
267.128394
11
76.448212
21
267.479860
0
LINE
8
PERIMETER
10
76.448212
20
267.479860
11
77.742495
21
268.203108
0
LINE
8
PERIMETER
10
77.742495
20
268.203108
11
78.812628
21
269.267466
0
LINE
8
PERIMETER
10
78.812628
20
269.267466
11
79.553338
21
270.582529
0
LINE
8
PERIMETER
10
79.553338
20
270.582529
11
79.905541
21
272.022741
0
LINE
8
PERIMETER
10
79.905541
20
272.022741
11
79.860471
21
273.504708
0
LINE
8
PERIMETER
10
79.860471
20
273.504708
11
79.409364
21
274.945035
0
LINE
8
PERIMETER
10
79.409364
20
274.945035
11
78.583908
21
276.208627
0
LINE
8
PERIMETER
10
78.583908
20
276.208627
11
77.468279
21
277.185167
0
LINE
8
PERIMETER
10
77.468279
20
277.185167
11
76.132437
21
277.828426
0
LINE
8
PERIMETER
10
76.132437
20
277.828426
11
74.646343
21
278.092180
0
LINE
8
PERIMETER
10
74.646343
20
278.092180
11
74.312153
21
281.271780
0
LINE
8
PERIMETER
10
74.312153
20
281.271780
11
75.711042
21
281.838676
0
LINE
8
PERIMETER
10
75.711042
20
281.838676
11
76.884058
21
282.745591
0
LINE
8
PERIMETER
10
76.884058
20
282.745591
11
77.772368
21
283.932759
0
LINE
8
PERIMETER
10
77.772368
20
283.932759
11
78.317139
21
285.340411
0
LINE
8
PERIMETER
10
78.317139
20
285.340411
11
78.458962
21
286.843124
0
LINE
8
PERIMETER
10
78.458962
20
286.843124
11
78.194924
21
288.302146
0
LINE
8
PERIMETER
10
78.194924
20
288.302146
11
77.550941
21
289.637716
0
LINE
8
PERIMETER
10
77.550941
20
289.637716
11
76.552928
21
290.770073
0
LINE
8
PERIMETER
10
76.552928
20
290.770073
11
75.284800
21
291.588676
0
LINE
8
PERIMETER
10
75.284800
20
291.588676
11
73.868341
21
292.026976
0
LINE
8
PERIMETER
10
73.868341
20
292.026976
11
72.386280
21
292.071201
0
LINE
8
PERIMETER
10
72.386280
20
292.071201
11
70.921343
21
291.707580
0
LINE
8
PERIMETER
10
70.921343
20
291.707580
11
69.322783
21
294.476380
0
LINE
8
PERIMETER
10
69.322783
20
294.476380
11
70.370079
21
295.563257
0
LINE
8
PERIMETER
10
70.370079
20
295.563257
11
71.072742
21
296.868862
0
LINE
8
PERIMETER
10
71.072742
20
296.868862
11
71.401341
21
298.314671
0
LINE
8
PERIMETER
10
71.401341
20
298.314671
11
71.326445
21
299.822159
0
LINE
8
PERIMETER
10
71.326445
20
299.822159
11
70.844796
21
301.252594
0
LINE
8
PERIMETER
10
70.844796
20
301.252594
11
70.010166
21
302.478046
0
LINE
8
PERIMETER
10
70.010166
20
302.478046
11
68.878669
21
303.436197
0
LINE
8
PERIMETER
10
68.878669
20
303.436197
11
67.506415
21
304.064727
0
LINE
8
PERIMETER
10
67.506415
20
304.064727
11
66.015013
21
304.296786
0
LINE
8
PERIMETER
10
66.015013
20
304.296786
11
64.542777
21
304.121113
0
LINE
8
PERIMETER
10
64.542777
20
304.121113
11
63.170877
21
303.558770
0
LINE
8
PERIMETER
10
63.170877
20
303.558770
11
61.980483
21
302.630820
0
LINE
8
PERIMETER
10
61.980483
20
302.630820
11
59.393963
21
304.510050
0
LINE
8
PERIMETER
10
59.393963
20
304.510050
11
59.908720
21
305.928954
0
LINE
8
PERIMETER
10
59.908720
20
305.928954
11
60.019655
21
307.407521
0
LINE
8
PERIMETER
10
60.019655
20
307.407521
11
59.731815
21
308.862036
0
LINE
8
PERIMETER
10
59.731815
20
308.862036
11
59.050251
21
310.208786
0
LINE
8
PERIMETER
10
59.050251
20
310.208786
11
58.028416
21
311.319694
0
LINE
8
PERIMETER
10
58.028416
20
311.319694
11
56.767475
21
312.099754
0
LINE
8
PERIMETER
10
56.767475
20
312.099754
11
55.344043
21
312.514854
0
LINE
8
PERIMETER
10
55.344043
20
312.514854
11
53.834736
21
312.530882
0
LINE
8
PERIMETER
10
53.834736
20
312.530882
11
52.377851
21
312.136231
0
LINE
8
PERIMETER
10
52.377851
20
312.136231
11
51.104333
21
311.376877
0
LINE
8
PERIMETER
10
51.104333
20
311.376877
11
50.079774
21
310.305082
0
LINE
8
PERIMETER
10
50.079774
20
310.305082
11
49.369763
21
308.973110
0
LINE
8
PERIMETER
10
49.369763
20
308.973110
11
46.242513
21
309.637827
0
LINE
8
PERIMETER
10
46.242513
20
309.637827
11
46.135562
21
311.143365
0
LINE
8
PERIMETER
10
46.135562
20
311.143365
11
45.635470
21
312.539145
0
LINE
8
PERIMETER
10
45.635470
20
312.539145
11
44.780898
21
313.750757
0
LINE
8
PERIMETER
10
44.780898
20
313.750757
11
43.610507
21
314.703787
0
LINE
8
PERIMETER
10
43.610507
20
314.703787
11
42.225213
21
315.302988
0
LINE
8
PERIMETER
10
42.225213
20
315.302988
11
40.756063
21
315.502722
0
LINE
8
PERIMETER
10
40.756063
20
315.502722
11
39.286913
21
315.302988
0
LINE
8
PERIMETER
10
39.286913
20
315.302988
11
37.901619
21
314.703787
0
LINE
8
PERIMETER
10
37.901619
20
314.703787
11
36.731228
21
313.750757
0
LINE
8
PERIMETER
10
36.731228
20
313.750757
11
35.876656
21
312.539145
0
LINE
8
PERIMETER
10
35.876656
20
312.539145
11
35.376564
21
311.143365
0
LINE
8
PERIMETER
10
35.376564
20
311.143365
11
35.269613
21
309.637827
0
LINE
8
PERIMETER
10
35.269613
20
309.637827
11
32.142363
21
308.973110
0
LINE
8
PERIMETER
10
32.142363
20
308.973110
11
31.432352
21
310.305082
0
LINE
8
PERIMETER
10
31.432352
20
310.305082
11
30.407793
21
311.376877
0
LINE
8
PERIMETER
10
30.407793
20
311.376877
11
29.134275
21
312.136231
0
LINE
8
PERIMETER
10
29.134275
20
312.136231
11
27.677390
21
312.530882
0
LINE
8
PERIMETER
10
27.677390
20
312.530882
11
26.168083
21
312.514854
0
LINE
8
PERIMETER
10
26.168083
20
312.514854
11
24.744651
21
312.099754
0
LINE
8
PERIMETER
10
24.744651
20
312.099754
11
23.483710
21
311.319694
0
LINE
8
PERIMETER
10
23.483710
20
311.319694
11
22.461875
21
310.208786
0
LINE
8
PERIMETER
10
22.461875
20
310.208786
11
21.780311
21
308.862036
0
LINE
8
PERIMETER
10
21.780311
20
308.862036
11
21.492471
21
307.407521
0
LINE
8
PERIMETER
10
21.492471
20
307.407521
11
21.603406
21
305.928954
0
LINE
8
PERIMETER
10
21.603406
20
305.928954
11
22.118163
21
304.510050
0
LINE
8
PERIMETER
10
22.118163
20
304.510050
11
19.531643
21
302.630820
0
LINE
8
PERIMETER
10
19.531643
20
302.630820
11
18.341249
21
303.558770
0
LINE
8
PERIMETER
10
18.341249
20
303.558770
11
16.969349
21
304.121113
0
LINE
8
PERIMETER
10
16.969349
20
304.121113
11
15.497113
21
304.296786
0
LINE
8
PERIMETER
10
15.497113
20
304.296786
11
14.005711
21
304.064727
0
LINE
8
PERIMETER
10
14.005711
20
304.064727
11
12.633457
21
303.436197
0
LINE
8
PERIMETER
10
12.633457
20
303.436197
11
11.501960
21
302.478046
0
LINE
8
PERIMETER
10
11.501960
20
302.478046
11
10.667330
21
301.252594
0
LINE
8
PERIMETER
10
10.667330
20
301.252594
11
10.185681
21
299.822159
0
LINE
8
PERIMETER
10
10.185681
20
299.822159
11
10.110785
21
298.314671
0
LINE
8
PERIMETER
10
10.110785
20
298.314671
11
10.439384
21
296.868862
0
LINE
8
PERIMETER
10
10.439384
20
296.868862
11
11.142047
21
295.563257
0
LINE
8
PERIMETER
10
11.142047
20
295.563257
11
12.189343
21
294.476380
0
LINE
8
PERIMETER
10
12.189343
20
294.476380
11
10.590783
21
291.707580
0
LINE
8
PERIMETER
10
10.590783
20
291.707580
11
9.125846
21
292.071201
0
LINE
8
PERIMETER
10
9.125846
20
292.071201
11
7.643785
21
292.026976
0
LINE
8
PERIMETER
10
7.643785
20
292.026976
11
6.227326
21
291.588676
0
LINE
8
PERIMETER
10
6.227326
20
291.588676
11
4.959198
21
290.770073
0
LINE
8
PERIMETER
10
4.959198
20
290.770073
11
3.961185
21
289.637716
0
LINE
8
PERIMETER
10
3.961185
20
289.637716
11
3.317202
21
288.302146
0
LINE
8
PERIMETER
10
3.317202
20
288.302146
11
3.053164
21
286.843124
0
LINE
8
PERIMETER
10
3.053164
20
286.843124
11
3.194987
21
285.340411
0
LINE
8
PERIMETER
10
3.194987
20
285.340411
11
3.739758
21
283.932759
0
LINE
8
PERIMETER
10
3.739758
20
283.932759
11
4.628068
21
282.745591
0
LINE
8
PERIMETER
10
4.628068
20
282.745591
11
5.801084
21
281.838676
0
LINE
8
PERIMETER
10
5.801084
20
281.838676
11
7.199973
21
281.271780
0
LINE
8
PERIMETER
10
7.199973
20
281.271780
11
6.865783
21
278.092180
0
LINE
8
PERIMETER
10
6.865783
20
278.092180
11
5.379689
21
277.828426
0
LINE
8
PERIMETER
10
5.379689
20
277.828426
11
4.043847
21
277.185167
0
LINE
8
PERIMETER
10
4.043847
20
277.185167
11
2.928218
21
276.208627
0
LINE
8
PERIMETER
10
2.928218
20
276.208627
11
2.102762
21
274.945035
0
LINE
8
PERIMETER
10
2.102762
20
274.945035
11
1.651655
21
273.504708
0
LINE
8
PERIMETER
10
1.651655
20
273.504708
11
1.606585
21
272.022741
0
LINE
8
PERIMETER
10
1.606585
20
272.022741
11
1.958788
21
270.582529
0
LINE
8
PERIMETER
10
1.958788
20
270.582529
11
2.699498
21
269.267466
0
LINE
8
PERIMETER
10
2.699498
20
269.267466
11
3.769631
21
268.203108
0
LINE
8
PERIMETER
10
3.769631
20
268.203108
11
5.063914
21
267.479860
0
LINE
8
PERIMETER
10
5.063914
20
267.479860
11
6.504306
21
267.128394
0
LINE
8
PERIMETER
10
6.504306
20
267.128394
11
8.012763
21
267.179380
0
LINE
8
PERIMETER
10
8.012763
20
267.179380
11
9.000726
21
264.138750
0
LINE
8
PERIMETER
10
9.000726
20
264.138750
11
7.750367
21
263.293359
0
LINE
8
PERIMETER
10
7.750367
20
263.293359
11
6.791632
21
262.162377
0
LINE
8
PERIMETER
10
6.791632
20
262.162377
11
6.169631
21
260.816490
0
LINE
8
PERIMETER
10
6.169631
20
260.816490
11
5.929478
21
259.326386
0
LINE
8
PERIMETER
10
5.929478
20
259.326386
11
6.103202
21
257.827085
0
LINE
8
PERIMETER
10
6.103202
20
257.827085
11
6.664802
21
256.454897
0
LINE
8
PERIMETER
10
6.664802
20
256.454897
11
7.572352
21
255.282443
0
LINE
8
PERIMETER
10
7.572352
20
255.282443
11
8.783923
21
254.382343
0
LINE
8
PERIMETER
10
8.783923
20
254.382343
11
10.194467
21
253.845270
0
LINE
8
PERIMETER
10
10.194467
20
253.845270
11
11.671039
21
253.710995
0
LINE
8
PERIMETER
10
11.671039
20
253.710995
11
13.129867
21
253.975793
0
LINE
8
PERIMETER
10
13.129867
20
253.975793
11
14.487176
21
254.635940
0
LINE
8
PERIMETER
10
14.487176
20
254.635940
11
16.626466
21
252.260000
0
LINE
8
PERIMETER
10
16.626466
20
252.260000
11
16.626400
21
252.260000
 0 
ENDSEC
 0 
EOF