<?xml version="1.0" encoding="utf-8"?>
<!-- Generator: Fusion 360, Shaper Origin Export Add-In, Version 1.7.0  -->
<svg xmlns="http://www.w3.org/2000/svg" xmlns:xlink="http://www.w3.org/1999/xlink" xmlns:shaper="http://www.shapertools.com/namespaces/shaper" shaper:fusionaddin="version:1.7.0" width="13.9700004cm" height="0cm" version="1.1" x="0cm" y="0cm" viewBox="0 0 13.9700004 0" enable-background="new 0 0 13.9700004 0" xml:space="preserve"><path d="M-77.47,-7.9374993 L-91.4400003,-7.9374993 -91.4400004,-7.9374993 -77.47,-7.9374993z" transform="matrix(1,0,0,-1,91.4400004,-7.9374993)" fill="rgb(0,0,0)" stroke-linecap="round" stroke-linejoin="round" /><path d="M-77.47,-7.9374993 L-77.47,-7.9374993z" transform="matrix(1,0,0,-1,91.4400004,-7.9374993)" fill="rgb(0,0,0)" stroke-linecap="round" stroke-linejoin="round" /><path d="M-90.1700008,-7.9374993 L-90.1700008,-7.9374993z" transform="matrix(1,0,0,-1,91.4400004,-7.9374993)" fill="rgb(255,255,255)" stroke="rgb(0,0,0)" stroke-width="0.0010cm" stroke-linecap="round" stroke-linejoin="round" /><path d="M-90.1700008,-7.9374993 L-78.74,-7.9374993 -78.74,-7.9374993 -90.1700008,-7.9374993z" transform="matrix(1,0,0,-1,91.4400004,-7.9374993)" fill="rgb(255,255,255)" stroke="rgb(0,0,0)" stroke-width="0.0010cm" stroke-linecap="round" stroke-linejoin="round" /><path d="M-90.1700008,-7.9374993 L-90.1700008,-7.9374993z" transform="matrix(1,0,0,-1,91.4400004,-7.9374993)" fill="rgb(255,255,255)" stroke="rgb(0,0,0)" stroke-width="0.0010cm" stroke-linecap="round" stroke-linejoin="round" /><path d="M-90.1700008,-7.9374993 L-78.74,-7.9374993 -78.74,-7.9374993 -90.1700008,-7.9374993z" transform="matrix(1,0,0,-1,91.4400004,-7.9374993)" fill="rgb(255,255,255)" stroke="rgb(0,0,0)" stroke-width="0.0010cm" stroke-linecap="round" stroke-linejoin="round" /><path d="M-90.1700008,-7.9374993 L-90.1700008,-7.9374993z" transform="matrix(1,0,0,-1,91.4400004,-7.9374993)" fill="rgb(255,255,255)" stroke="rgb(0,0,0)" stroke-width="0.0010cm" stroke-linecap="round" stroke-linejoin="round" /><path d="M-90.1700008,-7.9374993 L-78.74,-7.9374993 -78.74,-7.9374993 -90.1700008,-7.9374993z" transform="matrix(1,0,0,-1,91.4400004,-7.9374993)" fill="rgb(255,255,255)" stroke="rgb(0,0,0)" stroke-width="0.0010cm" stroke-linecap="round" stroke-linejoin="round" /><path d="M-90.1700008,-7.9374993 L-90.1700008,-7.9374993z" transform="matrix(1,0,0,-1,91.4400004,-7.9374993)" fill="rgb(255,255,255)" stroke="rgb(0,0,0)" stroke-width="0.0010cm" stroke-linecap="round" stroke-linejoin="round" /><path d="M-90.1700008,-7.9374993 L-78.74,-7.9374993 -78.74,-7.9374993 -90.1700008,-7.9374993z" transform="matrix(1,0,0,-1,91.4400004,-7.9374993)" fill="rgb(255,255,255)" stroke="rgb(0,0,0)" stroke-width="0.0010cm" stroke-linecap="round" stroke-linejoin="round" /><path d="M-90.1700008,-7.9374993 L-90.1700008,-7.9374993z" transform="matrix(1,0,0,-1,91.4400004,-7.9374993)" fill="rgb(255,255,255)" stroke="rgb(0,0,0)" stroke-width="0.0010cm" stroke-linecap="round" stroke-linejoin="round" /><path d="M-90.1700008,-7.9374993 L-78.74,-7.9374993 -78.74,-7.9374993 -90.1700008,-7.9374993z" transform="matrix(1,0,0,-1,91.4400004,-7.9374993)" fill="rgb(255,255,255)" stroke="rgb(0,0,0)" stroke-width="0.0010cm" stroke-linecap="round" stroke-linejoin="round" /><path d="M-90.1700008,-7.9374993 L-90.1700008,-7.9374993z" transform="matrix(1,0,0,-1,91.4400004,-7.9374993)" fill="rgb(255,255,255)" stroke="rgb(0,0,0)" stroke-width="0.0010cm" stroke-linecap="round" stroke-linejoin="round" /><path d="M-90.1700008,-7.9374993 L-78.74,-7.9374993 -78.74,-7.9374993 -90.1700008,-7.9374993z" transform="matrix(1,0,0,-1,91.4400004,-7.9374993)" fill="rgb(255,255,255)" stroke="rgb(0,0,0)" stroke-width="0.0010cm" stroke-linecap="round" stroke-linejoin="round" /><path d="M-90.1700008,-7.9374993 L-90.1700008,-7.9374993z" transform="matrix(1,0,0,-1,91.4400004,-7.9374993)" fill="rgb(255,255,255)" stroke="rgb(0,0,0)" stroke-width="0.0010cm" stroke-linecap="round" stroke-linejoin="round" /><path d="M-90.1700008,-7.9374993 L-78.74,-7.9374993 -78.74,-7.9374993 -90.1700008,-7.9374993z" transform="matrix(1,0,0,-1,91.4400004,-7.9374993)" fill="rgb(255,255,255)" stroke="rgb(0,0,0)" stroke-width="0.0010cm" stroke-linecap="round" stroke-linejoin="round" /><path d="M-90.1700008,-7.9374993 L-90.1700008,-7.9374993z" transform="matrix(1,0,0,-1,91.4400004,-7.9374993)" fill="rgb(255,255,255)" stroke="rgb(0,0,0)" stroke-width="0.0010cm" stroke-linecap="round" stroke-linejoin="round" /><path d="M-90.1700008,-7.9374993 L-78.74,-7.9374993 -78.74,-7.9374993 -90.1700008,-7.9374993z" transform="matrix(1,0,0,-1,91.4400004,-7.9374993)" fill="rgb(255,255,255)" stroke="rgb(0,0,0)" stroke-width="0.0010cm" stroke-linecap="round" stroke-linejoin="round" /><path d="M-90.1700008,-7.9374993 L-90.1700008,-7.9374993z" transform="matrix(1,0,0,-1,91.4400004,-7.9374993)" fill="rgb(255,255,255)" stroke="rgb(0,0,0)" stroke-width="0.0010cm" stroke-linecap="round" stroke-linejoin="round" /><path d="M-90.1700008,-7.9374993 L-78.74,-7.9374993 -78.74,-7.9374993 -90.1700008,-7.9374993z" transform="matrix(1,0,0,-1,91.4400004,-7.9374993)" fill="rgb(255,255,255)" stroke="rgb(0,0,0)" stroke-width="0.0010cm" stroke-linecap="round" stroke-linejoin="round" /><path d="M-90.1700008,-7.9374993 L-90.1700008,-7.9374993z" transform="matrix(1,0,0,-1,91.4400004,-7.9374993)" fill="rgb(255,255,255)" stroke="rgb(0,0,0)" stroke-width="0.0010cm" stroke-linecap="round" stroke-linejoin="round" /><path d="M-90.1700008,-7.9374993 L-78.74,-7.9374993 -78.74,-7.9374993 -90.1700008,-7.9374993z" transform="matrix(1,0,0,-1,91.4400004,-7.9374993)" fill="rgb(255,255,255)" stroke="rgb(0,0,0)" stroke-width="0.0010cm" stroke-linecap="round" stroke-linejoin="round" /><path d="M-90.1700008,-7.9374993 L-90.1700008,-7.9374993z" transform="matrix(1,0,0,-1,91.4400004,-7.9374993)" fill="rgb(255,255,255)" stroke="rgb(0,0,0)" stroke-width="0.0010cm" stroke-linecap="round" stroke-linejoin="round" /><path d="M-90.1700008,-7.9374993 L-78.74,-7.9374993 -78.74,-7.9374993 -90.1700008,-7.9374993z" transform="matrix(1,0,0,-1,91.4400004,-7.9374993)" fill="rgb(255,255,255)" stroke="rgb(0,0,0)" stroke-width="0.0010cm" stroke-linecap="round" stroke-linejoin="round" /></svg>