0
SECTION
2
HEADER
9
$INSUNITS
70
1
9
$ACADVER
1
AC1014
9
$HANDSEED
5
FFFF
0
ENDSEC
0
SECTION
2
TABLES
0
TABLE
2
VPORT
5
8
100
AcDbSymbolTable
0
ENDTAB
0
TABLE
2
LTYPE
5
5
100
AcDbSymbolTable
70
2
0
LTYPE
5
14
100
AcDbSymbolTableRecord
100
AcDbLinetypeTableRecord
2
BYBLOCK
70
0
0
LTYPE
5
15
100
AcDbSymbolTableRecord
100
AcDbLinetypeTableRecord
2
BYLAYER
70
0
0
ENDTAB
0
TABLE
2
LAYER
5
2
100
AcDbSymbolTable
70
3
0
LAYER
5
50
100
AcDbSymbolTableRecord
100
AcDbLayerTableRecord
2
0
70
0
6
CONTINUOUS
0
LAYER
5
51
100
AcDbSymbolTableRecord
100
AcDbLayerTableRecord
2
CUTOUTS
70
0
62
1
6
CONTINUOUS
0
LAYER
5
52
100
AcDbSymbolTableRecord
100
AcDbLayerTableRecord
2
PERIMETER
70
0
62
5
6
CONTINUOUS
0
ENDTAB
0
TABLE
2
STYLE
5
3
100
AcDbSymbolTable
70
1
0
STYLE
5
11
100
AcDbSymbolTableRecord
100
AcDbTextStyleTableRecord
2
STANDARD
70
0
0
ENDTAB
0
TABLE
2
VIEW
5
6
100
AcDbSymbolTable
0
ENDTAB
0
TABLE
2
UCS
5
7
100
AcDbSymbolTable
0
ENDTAB
0
TABLE
2
APPID
5
9
100
AcDbSymbolTable
70
1
0
APPID
5
12
100
AcDbSymbolTableRecord
100
AcDbRegAppTableRecord
2
ACAD
70
0
0
ENDTAB
0
TABLE
2
DIMSTYLE
5
A
100
AcDbSymbolTable
0
ENDTAB
0
TABLE
2
BLOCK_RECORD
5
1
100
AcDbSymbolTable
70
2
0
BLOCK_RECORD
5
1F
100
AcDbSymbolTableRecord
100
AcDbBlockTableRecord
2
*MODEL_SPACE
0
BLOCK_RECORD
5
1B
100
AcDbSymbolTableRecord
100
AcDbBlockTableRecord
2
*PAPER_SPACE
0
ENDTAB
0
ENDSEC
0
SECTION
2
BLOCKS
0
BLOCK
5
20
100
AcDbEntity
100
AcDbBlockBegin
2
*MODEL_SPACE
0
ENDBLK
5
21
100
AcDbEntity
100
AcDbBlockEnd
0
BLOCK
5
1C
100
AcDbEntity
100
AcDbBlockBegin
2
*PAPER_SPACE
0
ENDBLK
5
1D
100
AcDbEntity
100
AcDbBlockEnd
0
ENDSEC
0
SECTION
2
ENTITIES
0
CIRCLE
5
100
100
AcDbEntity
8
CUTOUTS
100
AcDbCircle
10
-4.3709567898628207e-17
20
-33.125000000000242
30
0
40
2.5070472440944873
210
0
220
0
230
1
0
LWPOLYLINE
5
101
100
AcDbEntity
8
CUTOUTS
100
AcDbPolyline
90
20
70
1
43
0.0
10
2.3473664840597741
20
-31.268218702002137
42
0.20747336799011307
10
2.396127083852396
20
-31.294378887215892
42
-0.020194476082933659
10
4.704260938362621
20
-31.581273119710566
10
4.6247897124906823
20
-32.060635722591208
42
0.01617337530020178
10
2.8090393139070349
20
-31.820112593492702
42
0.57438127851340914
10
2.7385061959400869
20
-31.917378364768251
42
-0.034033708615391456
10
2.8770181363909093
20
-32.300055855248374
42
0.30543589237393687
10
2.9365265415666464
20
-32.350044939791637
42
-0.051862655782102425
10
8.5635994190926432
20
-33.546116202905132
42
0.30543589237344809
10
8.6382954447699696
20
-33.524653150745159
42
-0.034033708615382227
10
8.9204813566566319
20
-33.231397749259884
42
0.57438127851351617
10
8.8956077004192977
20
-33.113852642099381
42
0.01617337530021681
10
7.1390076014671031
20
-32.59504923236144
10
7.2613813599705246
20
-32.1248058443039
42
-0.0201944760829471
10
9.4866569554336326
20
-32.801517537137961
42
0.20747336798934687
10
9.5418422858022236
20
-32.797451741439026
42
-0.045800239476416246
10
10.047680117775661
20
-32.588845457506366
42
0.71847656093316203
10
10.050994712275655
20
-32.457063411965485
42
0.070348501482888653
10
2.0206810040793468
20
-30.750167541019746
42
0.71847656093379375
10
1.9701084500078561
20
-30.871904597162121
42
-0.045800239476431491
0
LWPOLYLINE
5
102
100
AcDbEntity
8
CUTOUTS
100
AcDbPolyline
90
20
70
1
43
0.0
10
1.8028521974714702
20
-35.514035402239955
42
0.6914150841686858
10
1.8395084648972828
20
-35.638899235336496
42
-0.067136829544518078
10
8.2280777442502018
20
-36.996831555346354
42
0.69141508416830122
10
8.3123516071662689
20
-36.897672214958
42
-0.042204423892379356
10
8.1061864499327552
20
-36.437367982181435
42
0.23016726822107433
10
8.063025469737072
20
-36.394533313505079
42
0.027406633986802546
10
5.4326859494764363
20
-35.654233210120481
10
5.5383775831008712
20
-35.179961701936399
42
-0.0236932563901136
10
7.8618451784088128
20
-35.815308193795879
42
0.54094004960168673
10
7.9525569464002412
20
-35.742339124861196
42
-0.03256247261592557
10
7.9396131254786519
20
-35.353135440829561
42
0.33516661009009879
10
7.891254554456455
20
-35.284668052849746
42
0.04984894954070207
10
2.8436113953644231
20
-34.211758378416043
42
0.33516661009097071
10
2.771585446921994
20
-34.2546372468599
42
-0.032562472615928345
10
2.6014572781987204
20
-34.604927778234469
42
0.54094004960155151
10
2.654647407655212
20
-34.708484139708581
42
-0.023693256390096933
10
5.0356593746158378
20
-35.073105648051737
10
4.9393098852791439
20
-35.549362890304202
42
0.027406633986786801
10
2.2352679855694277
20
-35.155805220423545
42
0.23016726822139397
10
2.1784160388195275
20
-35.177381485225716
42
-0.042204423892384581
0
LWPOLYLINE
5
103
100
AcDbEntity
8
CUTOUTS
100
AcDbPolyline
90
8
70
1
43
0.0
10
3.0575279802734752
20
-32.799255653884039
42
0.47380331461430147
10
2.991555165323692
20
-32.863613414602469
42
-0.071912399537357577
10
2.9430925561531334
20
-33.721599916289769
42
0.43970019829700102
10
2.9946923922477113
20
-33.792592477153114
42
-0.047868547727682266
10
7.9237253275876256
20
-34.840290770247009
42
0.43970019829667151
10
7.9997393993556578
20
-34.796423382860482
42
-0.071912399537298874
10
8.3044411523831023
20
-33.99290219255667
42
0.47380331461417852
10
8.2703486465083884
20
-33.907274891301114
42
0.04879032666490505
0
LWPOLYLINE
5
104
100
AcDbEntity
8
PERIMETER
100
AcDbPolyline
90
6
70
1
43
0.0
10
9.763175842651739
20
-38.078807653305581
10
10.918981269002067
20
-35.482826162245118
42
-1.0846522890727033
10
10.948508249815088
20
-35.416507477516717
10
12.104313542681565
20
-32.820526286265945
42
0.13351969846230713
10
-3.3241941275647466
20
-30.433330740556109
10
-2.6816744386024167
20
-36.15326230612164
42
-0.13353181275898451
0
ENDSEC
0
SECTION
2
OBJECTS
0
DICTIONARY
5
C
100
AcDbDictionary
3
ACAD_GROUP
350
D
3
ACAD_MLINESTYLE
350
17
0
DICTIONARY
5
D
100
AcDbDictionary
0
DICTIONARY
5
1A
330
C
100
AcDbDictionary
0
DICTIONARY
5
17
100
AcDbDictionary
0
ENDSEC
0
EOF
