999
"DXF R12 Output" (www.mydxf.blogspot.com)
 0 
SECTION
 2 
HEADER
 9 
$ACADVER
 1 
AC1009
 9 
$EXTMIN
 10 
 0 
 20 
 0 
 9 
$EXTMAX
 10 
 8.5 
 20 
 11 
 0 
ENDSEC
 0 
SECTION
 2 
ENTITIES
0
LINE
8
Layer 1
10
0.846666
20
488.527000
11
-0.846666
21
486.833000
0
LINE
8
Layer 1
10
0.000000
20
489.091000
11
0.000000
21
486.269000
0
LINE
8
Layer 1
10
2.257780
20
486.551000
11
1.128890
21
485.422110
0
LINE
8
Layer 1
10
1.693330
20
487.116000
11
0.564440
21
485.987110
0
LINE
8
Layer 1
10
1.128890
20
487.680000
11
0.000000
21
486.551110
0
LINE
8
PERIMETER
10
153.284000
20
450.124000
11
136.245157
21
451.523487
0
LINE
8
PERIMETER
10
136.245157
20
451.523487
11
119.185037
21
452.514571
0
LINE
8
PERIMETER
10
119.185037
20
452.514571
11
102.110970
21
453.097264
0
LINE
8
PERIMETER
10
102.110970
20
453.097264
11
85.030287
21
453.271579
0
LINE
8
PERIMETER
10
85.030287
20
453.271579
11
67.950318
21
453.037529
0
LINE
8
PERIMETER
10
67.950318
20
453.037529
11
50.878394
21
452.395127
0
LINE
8
PERIMETER
10
50.878394
20
452.395127
11
33.821844
21
451.344385
0
LINE
8
PERIMETER
10
33.821844
20
451.344385
11
16.788000
21
449.885316
0
LINE
8
PERIMETER
10
16.788000
20
449.885316
11
16.063017
21
449.965178
0
LINE
8
PERIMETER
10
16.063017
20
449.965178
11
15.431500
21
450.330097
0
LINE
8
PERIMETER
10
15.431500
20
450.330097
11
15.000282
21
450.918340
0
LINE
8
PERIMETER
10
15.000282
20
450.918340
11
14.842310
21
451.630396
0
LINE
8
PERIMETER
10
14.842310
20
451.630396
11
14.567713
21
457.455685
0
LINE
8
PERIMETER
10
14.567713
20
457.455685
11
13.876877
21
463.238839
0
LINE
8
PERIMETER
10
13.876877
20
463.238839
11
12.773275
21
468.957597
0
LINE
8
PERIMETER
10
12.773275
20
468.957597
11
11.260380
21
474.589696
0
LINE
8
PERIMETER
10
11.260380
20
474.589696
11
11.200431
21
475.365650
0
LINE
8
PERIMETER
10
11.200431
20
475.365650
11
11.478500
21
476.092545
0
LINE
8
PERIMETER
10
11.478500
20
476.092545
11
12.041029
21
476.630374
0
LINE
8
PERIMETER
10
12.041029
20
476.630374
11
12.779670
21
476.875546
0
LINE
8
PERIMETER
10
12.779670
20
476.875546
11
30.801148
21
478.448432
0
LINE
8
PERIMETER
10
30.801148
20
478.448432
11
48.847569
21
479.580969
0
LINE
8
PERIMETER
10
48.847569
20
479.580969
11
66.910876
21
480.273143
0
LINE
8
PERIMETER
10
66.910876
20
480.273143
11
84.983010
21
480.524939
0
LINE
8
PERIMETER
10
84.983010
20
480.524939
11
103.055914
21
480.336343
0
LINE
8
PERIMETER
10
103.055914
20
480.336343
11
121.121530
21
479.707341
0
LINE
8
PERIMETER
10
121.121530
20
479.707341
11
139.171801
21
478.637920
0
LINE
8
PERIMETER
10
139.171801
20
478.637920
11
157.198670
21
477.128064
0
LINE
8
PERIMETER
10
157.198670
20
477.128064
11
157.938164
21
476.885475
0
LINE
8
PERIMETER
10
157.938164
20
476.885475
11
158.502570
21
476.349615
0
LINE
8
PERIMETER
10
158.502570
20
476.349615
11
158.783178
21
475.623694
0
LINE
8
PERIMETER
10
158.783178
20
475.623694
11
158.725940
21
474.847534
0
LINE
8
PERIMETER
10
158.725940
20
474.847534
11
157.232764
21
469.210199
0
LINE
8
PERIMETER
10
157.232764
20
469.210199
11
156.149179
21
463.487637
0
LINE
8
PERIMETER
10
156.149179
20
463.487637
11
155.478579
21
457.702125
0
LINE
8
PERIMETER
10
155.478579
20
457.702125
11
155.224360
21
451.875934
0
LINE
8
PERIMETER
10
155.224360
20
451.875934
11
155.068882
21
451.163318
0
LINE
8
PERIMETER
10
155.068882
20
451.163318
11
154.639719
21
450.573562
0
LINE
8
PERIMETER
10
154.639719
20
450.573562
11
154.009471
21
450.206435
0
LINE
8
PERIMETER
10
154.009471
20
450.206435
11
153.284760
21
450.124044
0
LINE
8
PERIMETER
10
153.284760
20
450.124044
11
153.284000
21
450.124000
0
LINE
8
PERIMETER
10
311.062000
20
450.124000
11
294.023157
21
451.523487
0
LINE
8
PERIMETER
10
294.023157
20
451.523487
11
276.963037
21
452.514571
0
LINE
8
PERIMETER
10
276.963037
20
452.514571
11
259.888970
21
453.097264
0
LINE
8
PERIMETER
10
259.888970
20
453.097264
11
242.808287
21
453.271579
0
LINE
8
PERIMETER
10
242.808287
20
453.271579
11
225.728318
21
453.037529
0
LINE
8
PERIMETER
10
225.728318
20
453.037529
11
208.656394
21
452.395127
0
LINE
8
PERIMETER
10
208.656394
20
452.395127
11
191.599844
21
451.344385
0
LINE
8
PERIMETER
10
191.599844
20
451.344385
11
174.566000
21
449.885316
0
LINE
8
PERIMETER
10
174.566000
20
449.885316
11
173.841017
21
449.965178
0
LINE
8
PERIMETER
10
173.841017
20
449.965178
11
173.209500
21
450.330097
0
LINE
8
PERIMETER
10
173.209500
20
450.330097
11
172.778282
21
450.918340
0
LINE
8
PERIMETER
10
172.778282
20
450.918340
11
172.620310
21
451.630396
0
LINE
8
PERIMETER
10
172.620310
20
451.630396
11
172.345713
21
457.455685
0
LINE
8
PERIMETER
10
172.345713
20
457.455685
11
171.654877
21
463.238839
0
LINE
8
PERIMETER
10
171.654877
20
463.238839
11
170.551275
21
468.957597
0
LINE
8
PERIMETER
10
170.551275
20
468.957597
11
169.038380
21
474.589696
0
LINE
8
PERIMETER
10
169.038380
20
474.589696
11
168.978431
21
475.365650
0
LINE
8
PERIMETER
10
168.978431
20
475.365650
11
169.256500
21
476.092545
0
LINE
8
PERIMETER
10
169.256500
20
476.092545
11
169.819029
21
476.630374
0
LINE
8
PERIMETER
10
169.819029
20
476.630374
11
170.557670
21
476.875546
0
LINE
8
PERIMETER
10
170.557670
20
476.875546
11
188.579148
21
478.448432
0
LINE
8
PERIMETER
10
188.579148
20
478.448432
11
206.625569
21
479.580969
0
LINE
8
PERIMETER
10
206.625569
20
479.580969
11
224.688876
21
480.273143
0
LINE
8
PERIMETER
10
224.688876
20
480.273143
11
242.761010
21
480.524939
0
LINE
8
PERIMETER
10
242.761010
20
480.524939
11
260.833914
21
480.336343
0
LINE
8
PERIMETER
10
260.833914
20
480.336343
11
278.899530
21
479.707341
0
LINE
8
PERIMETER
10
278.899530
20
479.707341
11
296.949801
21
478.637920
0
LINE
8
PERIMETER
10
296.949801
20
478.637920
11
314.976670
21
477.128064
0
LINE
8
PERIMETER
10
314.976670
20
477.128064
11
315.716164
21
476.885475
0
LINE
8
PERIMETER
10
315.716164
20
476.885475
11
316.280570
21
476.349615
0
LINE
8
PERIMETER
10
316.280570
20
476.349615
11
316.561178
21
475.623694
0
LINE
8
PERIMETER
10
316.561178
20
475.623694
11
316.503940
21
474.847534
0
LINE
8
PERIMETER
10
316.503940
20
474.847534
11
315.010764
21
469.210199
0
LINE
8
PERIMETER
10
315.010764
20
469.210199
11
313.927179
21
463.487637
0
LINE
8
PERIMETER
10
313.927179
20
463.487637
11
313.256579
21
457.702125
0
LINE
8
PERIMETER
10
313.256579
20
457.702125
11
313.002360
21
451.875934
0
LINE
8
PERIMETER
10
313.002360
20
451.875934
11
312.846882
21
451.163318
0
LINE
8
PERIMETER
10
312.846882
20
451.163318
11
312.417719
21
450.573562
0
LINE
8
PERIMETER
10
312.417719
20
450.573562
11
311.787471
21
450.206435
0
LINE
8
PERIMETER
10
311.787471
20
450.206435
11
311.062760
21
450.124044
0
LINE
8
PERIMETER
10
311.062760
20
450.124044
11
311.062000
21
450.124000
0
LINE
8
PERIMETER
10
153.284000
20
415.201000
11
136.245157
21
416.600487
0
LINE
8
PERIMETER
10
136.245157
20
416.600487
11
119.185037
21
417.591571
0
LINE
8
PERIMETER
10
119.185037
20
417.591571
11
102.110970
21
418.174264
0
LINE
8
PERIMETER
10
102.110970
20
418.174264
11
85.030287
21
418.348579
0
LINE
8
PERIMETER
10
85.030287
20
418.348579
11
67.950318
21
418.114529
0
LINE
8
PERIMETER
10
67.950318
20
418.114529
11
50.878394
21
417.472127
0
LINE
8
PERIMETER
10
50.878394
20
417.472127
11
33.821844
21
416.421385
0
LINE
8
PERIMETER
10
33.821844
20
416.421385
11
16.788000
21
414.962316
0
LINE
8
PERIMETER
10
16.788000
20
414.962316
11
16.063017
21
415.042178
0
LINE
8
PERIMETER
10
16.063017
20
415.042178
11
15.431500
21
415.407097
0
LINE
8
PERIMETER
10
15.431500
20
415.407097
11
15.000282
21
415.995340
0
LINE
8
PERIMETER
10
15.000282
20
415.995340
11
14.842310
21
416.707396
0
LINE
8
PERIMETER
10
14.842310
20
416.707396
11
14.567713
21
422.532685
0
LINE
8
PERIMETER
10
14.567713
20
422.532685
11
13.876877
21
428.315839
0
LINE
8
PERIMETER
10
13.876877
20
428.315839
11
12.773275
21
434.034597
0
LINE
8
PERIMETER
10
12.773275
20
434.034597
11
11.260380
21
439.666696
0
LINE
8
PERIMETER
10
11.260380
20
439.666696
11
11.200431
21
440.442650
0
LINE
8
PERIMETER
10
11.200431
20
440.442650
11
11.478500
21
441.169545
0
LINE
8
PERIMETER
10
11.478500
20
441.169545
11
12.041029
21
441.707374
0
LINE
8
PERIMETER
10
12.041029
20
441.707374
11
12.779670
21
441.952546
0
LINE
8
PERIMETER
10
12.779670
20
441.952546
11
30.801148
21
443.525432
0
LINE
8
PERIMETER
10
30.801148
20
443.525432
11
48.847569
21
444.657969
0
LINE
8
PERIMETER
10
48.847569
20
444.657969
11
66.910876
21
445.350143
0
LINE
8
PERIMETER
10
66.910876
20
445.350143
11
84.983010
21
445.601939
0
LINE
8
PERIMETER
10
84.983010
20
445.601939
11
103.055914
21
445.413343
0
LINE
8
PERIMETER
10
103.055914
20
445.413343
11
121.121530
21
444.784341
0
LINE
8
PERIMETER
10
121.121530
20
444.784341
11
139.171801
21
443.714920
0
LINE
8
PERIMETER
10
139.171801
20
443.714920
11
157.198670
21
442.205064
0
LINE
8
PERIMETER
10
157.198670
20
442.205064
11
157.938164
21
441.962475
0
LINE
8
PERIMETER
10
157.938164
20
441.962475
11
158.502570
21
441.426615
0
LINE
8
PERIMETER
10
158.502570
20
441.426615
11
158.783178
21
440.700694
0
LINE
8
PERIMETER
10
158.783178
20
440.700694
11
158.725940
21
439.924534
0
LINE
8
PERIMETER
10
158.725940
20
439.924534
11
157.232764
21
434.287199
0
LINE
8
PERIMETER
10
157.232764
20
434.287199
11
156.149179
21
428.564637
0
LINE
8
PERIMETER
10
156.149179
20
428.564637
11
155.478579
21
422.779125
0
LINE
8
PERIMETER
10
155.478579
20
422.779125
11
155.224360
21
416.952934
0
LINE
8
PERIMETER
10
155.224360
20
416.952934
11
155.068882
21
416.240318
0
LINE
8
PERIMETER
10
155.068882
20
416.240318
11
154.639719
21
415.650562
0
LINE
8
PERIMETER
10
154.639719
20
415.650562
11
154.009471
21
415.283435
0
LINE
8
PERIMETER
10
154.009471
20
415.283435
11
153.284760
21
415.201044
0
LINE
8
PERIMETER
10
153.284760
20
415.201044
11
153.284000
21
415.201000
0
LINE
8
PERIMETER
10
311.062000
20
415.201000
11
294.023157
21
416.600487
0
LINE
8
PERIMETER
10
294.023157
20
416.600487
11
276.963037
21
417.591571
0
LINE
8
PERIMETER
10
276.963037
20
417.591571
11
259.888970
21
418.174264
0
LINE
8
PERIMETER
10
259.888970
20
418.174264
11
242.808287
21
418.348579
0
LINE
8
PERIMETER
10
242.808287
20
418.348579
11
225.728318
21
418.114529
0
LINE
8
PERIMETER
10
225.728318
20
418.114529
11
208.656394
21
417.472127
0
LINE
8
PERIMETER
10
208.656394
20
417.472127
11
191.599844
21
416.421385
0
LINE
8
PERIMETER
10
191.599844
20
416.421385
11
174.566000
21
414.962316
0
LINE
8
PERIMETER
10
174.566000
20
414.962316
11
173.841017
21
415.042178
0
LINE
8
PERIMETER
10
173.841017
20
415.042178
11
173.209500
21
415.407097
0
LINE
8
PERIMETER
10
173.209500
20
415.407097
11
172.778282
21
415.995340
0
LINE
8
PERIMETER
10
172.778282
20
415.995340
11
172.620310
21
416.707396
0
LINE
8
PERIMETER
10
172.620310
20
416.707396
11
172.345713
21
422.532685
0
LINE
8
PERIMETER
10
172.345713
20
422.532685
11
171.654877
21
428.315839
0
LINE
8
PERIMETER
10
171.654877
20
428.315839
11
170.551275
21
434.034597
0
LINE
8
PERIMETER
10
170.551275
20
434.034597
11
169.038380
21
439.666696
0
LINE
8
PERIMETER
10
169.038380
20
439.666696
11
168.978431
21
440.442650
0
LINE
8
PERIMETER
10
168.978431
20
440.442650
11
169.256500
21
441.169545
0
LINE
8
PERIMETER
10
169.256500
20
441.169545
11
169.819029
21
441.707374
0
LINE
8
PERIMETER
10
169.819029
20
441.707374
11
170.557670
21
441.952546
0
LINE
8
PERIMETER
10
170.557670
20
441.952546
11
188.579148
21
443.525432
0
LINE
8
PERIMETER
10
188.579148
20
443.525432
11
206.625569
21
444.657969
0
LINE
8
PERIMETER
10
206.625569
20
444.657969
11
224.688876
21
445.350143
0
LINE
8
PERIMETER
10
224.688876
20
445.350143
11
242.761010
21
445.601939
0
LINE
8
PERIMETER
10
242.761010
20
445.601939
11
260.833914
21
445.413343
0
LINE
8
PERIMETER
10
260.833914
20
445.413343
11
278.899530
21
444.784341
0
LINE
8
PERIMETER
10
278.899530
20
444.784341
11
296.949801
21
443.714920
0
LINE
8
PERIMETER
10
296.949801
20
443.714920
11
314.976670
21
442.205064
0
LINE
8
PERIMETER
10
314.976670
20
442.205064
11
315.716164
21
441.962475
0
LINE
8
PERIMETER
10
315.716164
20
441.962475
11
316.280570
21
441.426615
0
LINE
8
PERIMETER
10
316.280570
20
441.426615
11
316.561178
21
440.700694
0
LINE
8
PERIMETER
10
316.561178
20
440.700694
11
316.503940
21
439.924534
0
LINE
8
PERIMETER
10
316.503940
20
439.924534
11
315.010764
21
434.287199
0
LINE
8
PERIMETER
10
315.010764
20
434.287199
11
313.927179
21
428.564637
0
LINE
8
PERIMETER
10
313.927179
20
428.564637
11
313.256579
21
422.779125
0
LINE
8
PERIMETER
10
313.256579
20
422.779125
11
313.002360
21
416.952934
0
LINE
8
PERIMETER
10
313.002360
20
416.952934
11
312.846882
21
416.240318
0
LINE
8
PERIMETER
10
312.846882
20
416.240318
11
312.417719
21
415.650562
0
LINE
8
PERIMETER
10
312.417719
20
415.650562
11
311.787471
21
415.283435
0
LINE
8
PERIMETER
10
311.787471
20
415.283435
11
311.062760
21
415.201044
0
LINE
8
PERIMETER
10
311.062760
20
415.201044
11
311.062000
21
415.201000
0
LINE
8
PERIMETER
10
153.284000
20
380.902000
11
136.245157
21
382.301487
0
LINE
8
PERIMETER
10
136.245157
20
382.301487
11
119.185037
21
383.292571
0
LINE
8
PERIMETER
10
119.185037
20
383.292571
11
102.110970
21
383.875264
0
LINE
8
PERIMETER
10
102.110970
20
383.875264
11
85.030287
21
384.049579
0
LINE
8
PERIMETER
10
85.030287
20
384.049579
11
67.950318
21
383.815529
0
LINE
8
PERIMETER
10
67.950318
20
383.815529
11
50.878394
21
383.173127
0
LINE
8
PERIMETER
10
50.878394
20
383.173127
11
33.821844
21
382.122385
0
LINE
8
PERIMETER
10
33.821844
20
382.122385
11
16.788000
21
380.663316
0
LINE
8
PERIMETER
10
16.788000
20
380.663316
11
16.063017
21
380.743178
0
LINE
8
PERIMETER
10
16.063017
20
380.743178
11
15.431500
21
381.108097
0
LINE
8
PERIMETER
10
15.431500
20
381.108097
11
15.000282
21
381.696340
0
LINE
8
PERIMETER
10
15.000282
20
381.696340
11
14.842310
21
382.408396
0
LINE
8
PERIMETER
10
14.842310
20
382.408396
11
14.567713
21
388.233685
0
LINE
8
PERIMETER
10
14.567713
20
388.233685
11
13.876877
21
394.016839
0
LINE
8
PERIMETER
10
13.876877
20
394.016839
11
12.773275
21
399.735597
0
LINE
8
PERIMETER
10
12.773275
20
399.735597
11
11.260380
21
405.367696
0
LINE
8
PERIMETER
10
11.260380
20
405.367696
11
11.200431
21
406.143650
0
LINE
8
PERIMETER
10
11.200431
20
406.143650
11
11.478500
21
406.870545
0
LINE
8
PERIMETER
10
11.478500
20
406.870545
11
12.041029
21
407.408374
0
LINE
8
PERIMETER
10
12.041029
20
407.408374
11
12.779670
21
407.653546
0
LINE
8
PERIMETER
10
12.779670
20
407.653546
11
30.801148
21
409.226432
0
LINE
8
PERIMETER
10
30.801148
20
409.226432
11
48.847569
21
410.358969
0
LINE
8
PERIMETER
10
48.847569
20
410.358969
11
66.910876
21
411.051143
0
LINE
8
PERIMETER
10
66.910876
20
411.051143
11
84.983010
21
411.302939
0
LINE
8
PERIMETER
10
84.983010
20
411.302939
11
103.055914
21
411.114343
0
LINE
8
PERIMETER
10
103.055914
20
411.114343
11
121.121530
21
410.485341
0
LINE
8
PERIMETER
10
121.121530
20
410.485341
11
139.171801
21
409.415920
0
LINE
8
PERIMETER
10
139.171801
20
409.415920
11
157.198670
21
407.906064
0
LINE
8
PERIMETER
10
157.198670
20
407.906064
11
157.938164
21
407.663475
0
LINE
8
PERIMETER
10
157.938164
20
407.663475
11
158.502570
21
407.127615
0
LINE
8
PERIMETER
10
158.502570
20
407.127615
11
158.783178
21
406.401694
0
LINE
8
PERIMETER
10
158.783178
20
406.401694
11
158.725940
21
405.625534
0
LINE
8
PERIMETER
10
158.725940
20
405.625534
11
157.232764
21
399.988199
0
LINE
8
PERIMETER
10
157.232764
20
399.988199
11
156.149179
21
394.265637
0
LINE
8
PERIMETER
10
156.149179
20
394.265637
11
155.478579
21
388.480125
0
LINE
8
PERIMETER
10
155.478579
20
388.480125
11
155.224360
21
382.653934
0
LINE
8
PERIMETER
10
155.224360
20
382.653934
11
155.068882
21
381.941318
0
LINE
8
PERIMETER
10
155.068882
20
381.941318
11
154.639719
21
381.351562
0
LINE
8
PERIMETER
10
154.639719
20
381.351562
11
154.009471
21
380.984435
0
LINE
8
PERIMETER
10
154.009471
20
380.984435
11
153.284760
21
380.902044
0
LINE
8
PERIMETER
10
153.284760
20
380.902044
11
153.284000
21
380.902000
0
LINE
8
PERIMETER
10
311.062000
20
380.902000
11
294.023157
21
382.301487
0
LINE
8
PERIMETER
10
294.023157
20
382.301487
11
276.963037
21
383.292571
0
LINE
8
PERIMETER
10
276.963037
20
383.292571
11
259.888970
21
383.875264
0
LINE
8
PERIMETER
10
259.888970
20
383.875264
11
242.808287
21
384.049579
0
LINE
8
PERIMETER
10
242.808287
20
384.049579
11
225.728318
21
383.815529
0
LINE
8
PERIMETER
10
225.728318
20
383.815529
11
208.656394
21
383.173127
0
LINE
8
PERIMETER
10
208.656394
20
383.173127
11
191.599844
21
382.122385
0
LINE
8
PERIMETER
10
191.599844
20
382.122385
11
174.566000
21
380.663316
0
LINE
8
PERIMETER
10
174.566000
20
380.663316
11
173.841017
21
380.743178
0
LINE
8
PERIMETER
10
173.841017
20
380.743178
11
173.209500
21
381.108097
0
LINE
8
PERIMETER
10
173.209500
20
381.108097
11
172.778282
21
381.696340
0
LINE
8
PERIMETER
10
172.778282
20
381.696340
11
172.620310
21
382.408396
0
LINE
8
PERIMETER
10
172.620310
20
382.408396
11
172.345713
21
388.233685
0
LINE
8
PERIMETER
10
172.345713
20
388.233685
11
171.654877
21
394.016839
0
LINE
8
PERIMETER
10
171.654877
20
394.016839
11
170.551275
21
399.735597
0
LINE
8
PERIMETER
10
170.551275
20
399.735597
11
169.038380
21
405.367696
0
LINE
8
PERIMETER
10
169.038380
20
405.367696
11
168.978431
21
406.143650
0
LINE
8
PERIMETER
10
168.978431
20
406.143650
11
169.256500
21
406.870545
0
LINE
8
PERIMETER
10
169.256500
20
406.870545
11
169.819029
21
407.408374
0
LINE
8
PERIMETER
10
169.819029
20
407.408374
11
170.557670
21
407.653546
0
LINE
8
PERIMETER
10
170.557670
20
407.653546
11
188.579148
21
409.226432
0
LINE
8
PERIMETER
10
188.579148
20
409.226432
11
206.625569
21
410.358969
0
LINE
8
PERIMETER
10
206.625569
20
410.358969
11
224.688876
21
411.051143
0
LINE
8
PERIMETER
10
224.688876
20
411.051143
11
242.761010
21
411.302939
0
LINE
8
PERIMETER
10
242.761010
20
411.302939
11
260.833914
21
411.114343
0
LINE
8
PERIMETER
10
260.833914
20
411.114343
11
278.899530
21
410.485341
0
LINE
8
PERIMETER
10
278.899530
20
410.485341
11
296.949801
21
409.415920
0
LINE
8
PERIMETER
10
296.949801
20
409.415920
11
314.976670
21
407.906064
0
LINE
8
PERIMETER
10
314.976670
20
407.906064
11
315.716164
21
407.663475
0
LINE
8
PERIMETER
10
315.716164
20
407.663475
11
316.280570
21
407.127615
0
LINE
8
PERIMETER
10
316.280570
20
407.127615
11
316.561178
21
406.401694
0
LINE
8
PERIMETER
10
316.561178
20
406.401694
11
316.503940
21
405.625534
0
LINE
8
PERIMETER
10
316.503940
20
405.625534
11
315.010764
21
399.988199
0
LINE
8
PERIMETER
10
315.010764
20
399.988199
11
313.927179
21
394.265637
0
LINE
8
PERIMETER
10
313.927179
20
394.265637
11
313.256579
21
388.480125
0
LINE
8
PERIMETER
10
313.256579
20
388.480125
11
313.002360
21
382.653934
0
LINE
8
PERIMETER
10
313.002360
20
382.653934
11
312.846882
21
381.941318
0
LINE
8
PERIMETER
10
312.846882
20
381.941318
11
312.417719
21
381.351562
0
LINE
8
PERIMETER
10
312.417719
20
381.351562
11
311.787471
21
380.984435
0
LINE
8
PERIMETER
10
311.787471
20
380.984435
11
311.062760
21
380.902044
0
LINE
8
PERIMETER
10
311.062760
20
380.902044
11
311.062000
21
380.902000
0
LINE
8
PERIMETER
10
153.284000
20
345.978000
11
136.245157
21
347.377487
0
LINE
8
PERIMETER
10
136.245157
20
347.377487
11
119.185037
21
348.368571
0
LINE
8
PERIMETER
10
119.185037
20
348.368571
11
102.110970
21
348.951264
0
LINE
8
PERIMETER
10
102.110970
20
348.951264
11
85.030287
21
349.125579
0
LINE
8
PERIMETER
10
85.030287
20
349.125579
11
67.950318
21
348.891529
0
LINE
8
PERIMETER
10
67.950318
20
348.891529
11
50.878394
21
348.249127
0
LINE
8
PERIMETER
10
50.878394
20
348.249127
11
33.821844
21
347.198385
0
LINE
8
PERIMETER
10
33.821844
20
347.198385
11
16.788000
21
345.739316
0
LINE
8
PERIMETER
10
16.788000
20
345.739316
11
16.063017
21
345.819178
0
LINE
8
PERIMETER
10
16.063017
20
345.819178
11
15.431500
21
346.184097
0
LINE
8
PERIMETER
10
15.431500
20
346.184097
11
15.000282
21
346.772340
0
LINE
8
PERIMETER
10
15.000282
20
346.772340
11
14.842310
21
347.484396
0
LINE
8
PERIMETER
10
14.842310
20
347.484396
11
14.567713
21
353.309685
0
LINE
8
PERIMETER
10
14.567713
20
353.309685
11
13.876877
21
359.092839
0
LINE
8
PERIMETER
10
13.876877
20
359.092839
11
12.773275
21
364.811597
0
LINE
8
PERIMETER
10
12.773275
20
364.811597
11
11.260380
21
370.443696
0
LINE
8
PERIMETER
10
11.260380
20
370.443696
11
11.200431
21
371.219650
0
LINE
8
PERIMETER
10
11.200431
20
371.219650
11
11.478500
21
371.946545
0
LINE
8
PERIMETER
10
11.478500
20
371.946545
11
12.041029
21
372.484374
0
LINE
8
PERIMETER
10
12.041029
20
372.484374
11
12.779670
21
372.729546
0
LINE
8
PERIMETER
10
12.779670
20
372.729546
11
30.801148
21
374.302432
0
LINE
8
PERIMETER
10
30.801148
20
374.302432
11
48.847569
21
375.434969
0
LINE
8
PERIMETER
10
48.847569
20
375.434969
11
66.910876
21
376.127143
0
LINE
8
PERIMETER
10
66.910876
20
376.127143
11
84.983010
21
376.378939
0
LINE
8
PERIMETER
10
84.983010
20
376.378939
11
103.055914
21
376.190343
0
LINE
8
PERIMETER
10
103.055914
20
376.190343
11
121.121530
21
375.561341
0
LINE
8
PERIMETER
10
121.121530
20
375.561341
11
139.171801
21
374.491920
0
LINE
8
PERIMETER
10
139.171801
20
374.491920
11
157.198670
21
372.982064
0
LINE
8
PERIMETER
10
157.198670
20
372.982064
11
157.938164
21
372.739475
0
LINE
8
PERIMETER
10
157.938164
20
372.739475
11
158.502570
21
372.203615
0
LINE
8
PERIMETER
10
158.502570
20
372.203615
11
158.783178
21
371.477694
0
LINE
8
PERIMETER
10
158.783178
20
371.477694
11
158.725940
21
370.701534
0
LINE
8
PERIMETER
10
158.725940
20
370.701534
11
157.232764
21
365.064199
0
LINE
8
PERIMETER
10
157.232764
20
365.064199
11
156.149179
21
359.341637
0
LINE
8
PERIMETER
10
156.149179
20
359.341637
11
155.478579
21
353.556125
0
LINE
8
PERIMETER
10
155.478579
20
353.556125
11
155.224360
21
347.729934
0
LINE
8
PERIMETER
10
155.224360
20
347.729934
11
155.068882
21
347.017318
0
LINE
8
PERIMETER
10
155.068882
20
347.017318
11
154.639719
21
346.427562
0
LINE
8
PERIMETER
10
154.639719
20
346.427562
11
154.009471
21
346.060435
0
LINE
8
PERIMETER
10
154.009471
20
346.060435
11
153.284760
21
345.978044
0
LINE
8
PERIMETER
10
153.284760
20
345.978044
11
153.284000
21
345.978000
0
LINE
8
PERIMETER
10
311.062000
20
345.978000
11
294.023157
21
347.377487
0
LINE
8
PERIMETER
10
294.023157
20
347.377487
11
276.963037
21
348.368571
0
LINE
8
PERIMETER
10
276.963037
20
348.368571
11
259.888970
21
348.951264
0
LINE
8
PERIMETER
10
259.888970
20
348.951264
11
242.808287
21
349.125579
0
LINE
8
PERIMETER
10
242.808287
20
349.125579
11
225.728318
21
348.891529
0
LINE
8
PERIMETER
10
225.728318
20
348.891529
11
208.656394
21
348.249127
0
LINE
8
PERIMETER
10
208.656394
20
348.249127
11
191.599844
21
347.198385
0
LINE
8
PERIMETER
10
191.599844
20
347.198385
11
174.566000
21
345.739316
0
LINE
8
PERIMETER
10
174.566000
20
345.739316
11
173.841017
21
345.819178
0
LINE
8
PERIMETER
10
173.841017
20
345.819178
11
173.209500
21
346.184097
0
LINE
8
PERIMETER
10
173.209500
20
346.184097
11
172.778282
21
346.772340
0
LINE
8
PERIMETER
10
172.778282
20
346.772340
11
172.620310
21
347.484396
0
LINE
8
PERIMETER
10
172.620310
20
347.484396
11
172.345713
21
353.309685
0
LINE
8
PERIMETER
10
172.345713
20
353.309685
11
171.654877
21
359.092839
0
LINE
8
PERIMETER
10
171.654877
20
359.092839
11
170.551275
21
364.811597
0
LINE
8
PERIMETER
10
170.551275
20
364.811597
11
169.038380
21
370.443696
0
LINE
8
PERIMETER
10
169.038380
20
370.443696
11
168.978431
21
371.219650
0
LINE
8
PERIMETER
10
168.978431
20
371.219650
11
169.256500
21
371.946545
0
LINE
8
PERIMETER
10
169.256500
20
371.946545
11
169.819029
21
372.484374
0
LINE
8
PERIMETER
10
169.819029
20
372.484374
11
170.557670
21
372.729546
0
LINE
8
PERIMETER
10
170.557670
20
372.729546
11
188.579148
21
374.302432
0
LINE
8
PERIMETER
10
188.579148
20
374.302432
11
206.625569
21
375.434969
0
LINE
8
PERIMETER
10
206.625569
20
375.434969
11
224.688876
21
376.127143
0
LINE
8
PERIMETER
10
224.688876
20
376.127143
11
242.761010
21
376.378939
0
LINE
8
PERIMETER
10
242.761010
20
376.378939
11
260.833914
21
376.190343
0
LINE
8
PERIMETER
10
260.833914
20
376.190343
11
278.899530
21
375.561341
0
LINE
8
PERIMETER
10
278.899530
20
375.561341
11
296.949801
21
374.491920
0
LINE
8
PERIMETER
10
296.949801
20
374.491920
11
314.976670
21
372.982064
0
LINE
8
PERIMETER
10
314.976670
20
372.982064
11
315.716164
21
372.739475
0
LINE
8
PERIMETER
10
315.716164
20
372.739475
11
316.280570
21
372.203615
0
LINE
8
PERIMETER
10
316.280570
20
372.203615
11
316.561178
21
371.477694
0
LINE
8
PERIMETER
10
316.561178
20
371.477694
11
316.503940
21
370.701534
0
LINE
8
PERIMETER
10
316.503940
20
370.701534
11
315.010764
21
365.064199
0
LINE
8
PERIMETER
10
315.010764
20
365.064199
11
313.927179
21
359.341637
0
LINE
8
PERIMETER
10
313.927179
20
359.341637
11
313.256579
21
353.556125
0
LINE
8
PERIMETER
10
313.256579
20
353.556125
11
313.002360
21
347.729934
0
LINE
8
PERIMETER
10
313.002360
20
347.729934
11
312.846882
21
347.017318
0
LINE
8
PERIMETER
10
312.846882
20
347.017318
11
312.417719
21
346.427562
0
LINE
8
PERIMETER
10
312.417719
20
346.427562
11
311.787471
21
346.060435
0
LINE
8
PERIMETER
10
311.787471
20
346.060435
11
311.062760
21
345.978044
0
LINE
8
PERIMETER
10
311.062760
20
345.978044
11
311.062000
21
345.978000
0
LINE
8
PERIMETER
10
153.284000
20
309.895000
11
136.245157
21
311.294487
0
LINE
8
PERIMETER
10
136.245157
20
311.294487
11
119.185037
21
312.285571
0
LINE
8
PERIMETER
10
119.185037
20
312.285571
11
102.110970
21
312.868264
0
LINE
8
PERIMETER
10
102.110970
20
312.868264
11
85.030287
21
313.042579
0
LINE
8
PERIMETER
10
85.030287
20
313.042579
11
67.950318
21
312.808529
0
LINE
8
PERIMETER
10
67.950318
20
312.808529
11
50.878394
21
312.166127
0
LINE
8
PERIMETER
10
50.878394
20
312.166127
11
33.821844
21
311.115385
0
LINE
8
PERIMETER
10
33.821844
20
311.115385
11
16.788000
21
309.656316
0
LINE
8
PERIMETER
10
16.788000
20
309.656316
11
16.063017
21
309.736178
0
LINE
8
PERIMETER
10
16.063017
20
309.736178
11
15.431500
21
310.101097
0
LINE
8
PERIMETER
10
15.431500
20
310.101097
11
15.000282
21
310.689340
0
LINE
8
PERIMETER
10
15.000282
20
310.689340
11
14.842310
21
311.401396
0
LINE
8
PERIMETER
10
14.842310
20
311.401396
11
14.567713
21
317.226685
0
LINE
8
PERIMETER
10
14.567713
20
317.226685
11
13.876877
21
323.009839
0
LINE
8
PERIMETER
10
13.876877
20
323.009839
11
12.773275
21
328.728597
0
LINE
8
PERIMETER
10
12.773275
20
328.728597
11
11.260380
21
334.360696
0
LINE
8
PERIMETER
10
11.260380
20
334.360696
11
11.200431
21
335.136650
0
LINE
8
PERIMETER
10
11.200431
20
335.136650
11
11.478500
21
335.863545
0
LINE
8
PERIMETER
10
11.478500
20
335.863545
11
12.041029
21
336.401374
0
LINE
8
PERIMETER
10
12.041029
20
336.401374
11
12.779670
21
336.646546
0
LINE
8
PERIMETER
10
12.779670
20
336.646546
11
30.801148
21
338.219432
0
LINE
8
PERIMETER
10
30.801148
20
338.219432
11
48.847569
21
339.351969
0
LINE
8
PERIMETER
10
48.847569
20
339.351969
11
66.910876
21
340.044143
0
LINE
8
PERIMETER
10
66.910876
20
340.044143
11
84.983010
21
340.295939
0
LINE
8
PERIMETER
10
84.983010
20
340.295939
11
103.055914
21
340.107343
0
LINE
8
PERIMETER
10
103.055914
20
340.107343
11
121.121530
21
339.478341
0
LINE
8
PERIMETER
10
121.121530
20
339.478341
11
139.171801
21
338.408920
0
LINE
8
PERIMETER
10
139.171801
20
338.408920
11
157.198670
21
336.899064
0
LINE
8
PERIMETER
10
157.198670
20
336.899064
11
157.938164
21
336.656475
0
LINE
8
PERIMETER
10
157.938164
20
336.656475
11
158.502570
21
336.120615
0
LINE
8
PERIMETER
10
158.502570
20
336.120615
11
158.783178
21
335.394694
0
LINE
8
PERIMETER
10
158.783178
20
335.394694
11
158.725940
21
334.618534
0
LINE
8
PERIMETER
10
158.725940
20
334.618534
11
157.232764
21
328.981199
0
LINE
8
PERIMETER
10
157.232764
20
328.981199
11
156.149179
21
323.258637
0
LINE
8
PERIMETER
10
156.149179
20
323.258637
11
155.478579
21
317.473125
0
LINE
8
PERIMETER
10
155.478579
20
317.473125
11
155.224360
21
311.646934
0
LINE
8
PERIMETER
10
155.224360
20
311.646934
11
155.068882
21
310.934318
0
LINE
8
PERIMETER
10
155.068882
20
310.934318
11
154.639719
21
310.344562
0
LINE
8
PERIMETER
10
154.639719
20
310.344562
11
154.009471
21
309.977435
0
LINE
8
PERIMETER
10
154.009471
20
309.977435
11
153.284760
21
309.895044
0
LINE
8
PERIMETER
10
153.284760
20
309.895044
11
153.284000
21
309.895000
0
LINE
8
PERIMETER
10
311.062000
20
309.895000
11
294.023157
21
311.294487
0
LINE
8
PERIMETER
10
294.023157
20
311.294487
11
276.963037
21
312.285571
0
LINE
8
PERIMETER
10
276.963037
20
312.285571
11
259.888970
21
312.868264
0
LINE
8
PERIMETER
10
259.888970
20
312.868264
11
242.808287
21
313.042579
0
LINE
8
PERIMETER
10
242.808287
20
313.042579
11
225.728318
21
312.808529
0
LINE
8
PERIMETER
10
225.728318
20
312.808529
11
208.656394
21
312.166127
0
LINE
8
PERIMETER
10
208.656394
20
312.166127
11
191.599844
21
311.115385
0
LINE
8
PERIMETER
10
191.599844
20
311.115385
11
174.566000
21
309.656316
0
LINE
8
PERIMETER
10
174.566000
20
309.656316
11
173.841017
21
309.736178
0
LINE
8
PERIMETER
10
173.841017
20
309.736178
11
173.209500
21
310.101097
0
LINE
8
PERIMETER
10
173.209500
20
310.101097
11
172.778282
21
310.689340
0
LINE
8
PERIMETER
10
172.778282
20
310.689340
11
172.620310
21
311.401396
0
LINE
8
PERIMETER
10
172.620310
20
311.401396
11
172.345713
21
317.226685
0
LINE
8
PERIMETER
10
172.345713
20
317.226685
11
171.654877
21
323.009839
0
LINE
8
PERIMETER
10
171.654877
20
323.009839
11
170.551275
21
328.728597
0
LINE
8
PERIMETER
10
170.551275
20
328.728597
11
169.038380
21
334.360696
0
LINE
8
PERIMETER
10
169.038380
20
334.360696
11
168.978431
21
335.136650
0
LINE
8
PERIMETER
10
168.978431
20
335.136650
11
169.256500
21
335.863545
0
LINE
8
PERIMETER
10
169.256500
20
335.863545
11
169.819029
21
336.401374
0
LINE
8
PERIMETER
10
169.819029
20
336.401374
11
170.557670
21
336.646546
0
LINE
8
PERIMETER
10
170.557670
20
336.646546
11
188.579148
21
338.219432
0
LINE
8
PERIMETER
10
188.579148
20
338.219432
11
206.625569
21
339.351969
0
LINE
8
PERIMETER
10
206.625569
20
339.351969
11
224.688876
21
340.044143
0
LINE
8
PERIMETER
10
224.688876
20
340.044143
11
242.761010
21
340.295939
0
LINE
8
PERIMETER
10
242.761010
20
340.295939
11
260.833914
21
340.107343
0
LINE
8
PERIMETER
10
260.833914
20
340.107343
11
278.899530
21
339.478341
0
LINE
8
PERIMETER
10
278.899530
20
339.478341
11
296.949801
21
338.408920
0
LINE
8
PERIMETER
10
296.949801
20
338.408920
11
314.976670
21
336.899064
0
LINE
8
PERIMETER
10
314.976670
20
336.899064
11
315.716164
21
336.656475
0
LINE
8
PERIMETER
10
315.716164
20
336.656475
11
316.280570
21
336.120615
0
LINE
8
PERIMETER
10
316.280570
20
336.120615
11
316.561178
21
335.394694
0
LINE
8
PERIMETER
10
316.561178
20
335.394694
11
316.503940
21
334.618534
0
LINE
8
PERIMETER
10
316.503940
20
334.618534
11
315.010764
21
328.981199
0
LINE
8
PERIMETER
10
315.010764
20
328.981199
11
313.927179
21
323.258637
0
LINE
8
PERIMETER
10
313.927179
20
323.258637
11
313.256579
21
317.473125
0
LINE
8
PERIMETER
10
313.256579
20
317.473125
11
313.002360
21
311.646934
0
LINE
8
PERIMETER
10
313.002360
20
311.646934
11
312.846882
21
310.934318
0
LINE
8
PERIMETER
10
312.846882
20
310.934318
11
312.417719
21
310.344562
0
LINE
8
PERIMETER
10
312.417719
20
310.344562
11
311.787471
21
309.977435
0
LINE
8
PERIMETER
10
311.787471
20
309.977435
11
311.062760
21
309.895044
0
LINE
8
PERIMETER
10
311.062760
20
309.895044
11
311.062000
21
309.895000
0
LINE
8
PERIMETER
10
153.284000
20
274.972000
11
136.245157
21
276.371487
0
LINE
8
PERIMETER
10
136.245157
20
276.371487
11
119.185037
21
277.362571
0
LINE
8
PERIMETER
10
119.185037
20
277.362571
11
102.110970
21
277.945264
0
LINE
8
PERIMETER
10
102.110970
20
277.945264
11
85.030287
21
278.119579
0
LINE
8
PERIMETER
10
85.030287
20
278.119579
11
67.950318
21
277.885529
0
LINE
8
PERIMETER
10
67.950318
20
277.885529
11
50.878394
21
277.243127
0
LINE
8
PERIMETER
10
50.878394
20
277.243127
11
33.821844
21
276.192385
0
LINE
8
PERIMETER
10
33.821844
20
276.192385
11
16.788000
21
274.733316
0
LINE
8
PERIMETER
10
16.788000
20
274.733316
11
16.063017
21
274.813178
0
LINE
8
PERIMETER
10
16.063017
20
274.813178
11
15.431500
21
275.178097
0
LINE
8
PERIMETER
10
15.431500
20
275.178097
11
15.000282
21
275.766340
0
LINE
8
PERIMETER
10
15.000282
20
275.766340
11
14.842310
21
276.478396
0
LINE
8
PERIMETER
10
14.842310
20
276.478396
11
14.567713
21
282.303685
0
LINE
8
PERIMETER
10
14.567713
20
282.303685
11
13.876877
21
288.086839
0
LINE
8
PERIMETER
10
13.876877
20
288.086839
11
12.773275
21
293.805597
0
LINE
8
PERIMETER
10
12.773275
20
293.805597
11
11.260380
21
299.437696
0
LINE
8
PERIMETER
10
11.260380
20
299.437696
11
11.200431
21
300.213650
0
LINE
8
PERIMETER
10
11.200431
20
300.213650
11
11.478500
21
300.940545
0
LINE
8
PERIMETER
10
11.478500
20
300.940545
11
12.041029
21
301.478374
0
LINE
8
PERIMETER
10
12.041029
20
301.478374
11
12.779670
21
301.723546
0
LINE
8
PERIMETER
10
12.779670
20
301.723546
11
30.801148
21
303.296432
0
LINE
8
PERIMETER
10
30.801148
20
303.296432
11
48.847569
21
304.428969
0
LINE
8
PERIMETER
10
48.847569
20
304.428969
11
66.910876
21
305.121143
0
LINE
8
PERIMETER
10
66.910876
20
305.121143
11
84.983010
21
305.372939
0
LINE
8
PERIMETER
10
84.983010
20
305.372939
11
103.055914
21
305.184343
0
LINE
8
PERIMETER
10
103.055914
20
305.184343
11
121.121530
21
304.555341
0
LINE
8
PERIMETER
10
121.121530
20
304.555341
11
139.171801
21
303.485920
0
LINE
8
PERIMETER
10
139.171801
20
303.485920
11
157.198670
21
301.976064
0
LINE
8
PERIMETER
10
157.198670
20
301.976064
11
157.938164
21
301.733475
0
LINE
8
PERIMETER
10
157.938164
20
301.733475
11
158.502570
21
301.197615
0
LINE
8
PERIMETER
10
158.502570
20
301.197615
11
158.783178
21
300.471694
0
LINE
8
PERIMETER
10
158.783178
20
300.471694
11
158.725940
21
299.695534
0
LINE
8
PERIMETER
10
158.725940
20
299.695534
11
157.232764
21
294.058199
0
LINE
8
PERIMETER
10
157.232764
20
294.058199
11
156.149179
21
288.335637
0
LINE
8
PERIMETER
10
156.149179
20
288.335637
11
155.478579
21
282.550125
0
LINE
8
PERIMETER
10
155.478579
20
282.550125
11
155.224360
21
276.723934
0
LINE
8
PERIMETER
10
155.224360
20
276.723934
11
155.068882
21
276.011318
0
LINE
8
PERIMETER
10
155.068882
20
276.011318
11
154.639719
21
275.421562
0
LINE
8
PERIMETER
10
154.639719
20
275.421562
11
154.009471
21
275.054435
0
LINE
8
PERIMETER
10
154.009471
20
275.054435
11
153.284760
21
274.972044
0
LINE
8
PERIMETER
10
153.284760
20
274.972044
11
153.284000
21
274.972000
0
LINE
8
PERIMETER
10
311.062000
20
274.972000
11
294.023157
21
276.371487
0
LINE
8
PERIMETER
10
294.023157
20
276.371487
11
276.963037
21
277.362571
0
LINE
8
PERIMETER
10
276.963037
20
277.362571
11
259.888970
21
277.945264
0
LINE
8
PERIMETER
10
259.888970
20
277.945264
11
242.808287
21
278.119579
0
LINE
8
PERIMETER
10
242.808287
20
278.119579
11
225.728318
21
277.885529
0
LINE
8
PERIMETER
10
225.728318
20
277.885529
11
208.656394
21
277.243127
0
LINE
8
PERIMETER
10
208.656394
20
277.243127
11
191.599844
21
276.192385
0
LINE
8
PERIMETER
10
191.599844
20
276.192385
11
174.566000
21
274.733316
0
LINE
8
PERIMETER
10
174.566000
20
274.733316
11
173.841017
21
274.813178
0
LINE
8
PERIMETER
10
173.841017
20
274.813178
11
173.209500
21
275.178097
0
LINE
8
PERIMETER
10
173.209500
20
275.178097
11
172.778282
21
275.766340
0
LINE
8
PERIMETER
10
172.778282
20
275.766340
11
172.620310
21
276.478396
0
LINE
8
PERIMETER
10
172.620310
20
276.478396
11
172.345713
21
282.303685
0
LINE
8
PERIMETER
10
172.345713
20
282.303685
11
171.654877
21
288.086839
0
LINE
8
PERIMETER
10
171.654877
20
288.086839
11
170.551275
21
293.805597
0
LINE
8
PERIMETER
10
170.551275
20
293.805597
11
169.038380
21
299.437696
0
LINE
8
PERIMETER
10
169.038380
20
299.437696
11
168.978431
21
300.213650
0
LINE
8
PERIMETER
10
168.978431
20
300.213650
11
169.256500
21
300.940545
0
LINE
8
PERIMETER
10
169.256500
20
300.940545
11
169.819029
21
301.478374
0
LINE
8
PERIMETER
10
169.819029
20
301.478374
11
170.557670
21
301.723546
0
LINE
8
PERIMETER
10
170.557670
20
301.723546
11
188.579148
21
303.296432
0
LINE
8
PERIMETER
10
188.579148
20
303.296432
11
206.625569
21
304.428969
0
LINE
8
PERIMETER
10
206.625569
20
304.428969
11
224.688876
21
305.121143
0
LINE
8
PERIMETER
10
224.688876
20
305.121143
11
242.761010
21
305.372939
0
LINE
8
PERIMETER
10
242.761010
20
305.372939
11
260.833914
21
305.184343
0
LINE
8
PERIMETER
10
260.833914
20
305.184343
11
278.899530
21
304.555341
0
LINE
8
PERIMETER
10
278.899530
20
304.555341
11
296.949801
21
303.485920
0
LINE
8
PERIMETER
10
296.949801
20
303.485920
11
314.976670
21
301.976064
0
LINE
8
PERIMETER
10
314.976670
20
301.976064
11
315.716164
21
301.733475
0
LINE
8
PERIMETER
10
315.716164
20
301.733475
11
316.280570
21
301.197615
0
LINE
8
PERIMETER
10
316.280570
20
301.197615
11
316.561178
21
300.471694
0
LINE
8
PERIMETER
10
316.561178
20
300.471694
11
316.503940
21
299.695534
0
LINE
8
PERIMETER
10
316.503940
20
299.695534
11
315.010764
21
294.058199
0
LINE
8
PERIMETER
10
315.010764
20
294.058199
11
313.927179
21
288.335637
0
LINE
8
PERIMETER
10
313.927179
20
288.335637
11
313.256579
21
282.550125
0
LINE
8
PERIMETER
10
313.256579
20
282.550125
11
313.002360
21
276.723934
0
LINE
8
PERIMETER
10
313.002360
20
276.723934
11
312.846882
21
276.011318
0
LINE
8
PERIMETER
10
312.846882
20
276.011318
11
312.417719
21
275.421562
0
LINE
8
PERIMETER
10
312.417719
20
275.421562
11
311.787471
21
275.054435
0
LINE
8
PERIMETER
10
311.787471
20
275.054435
11
311.062760
21
274.972044
0
LINE
8
PERIMETER
10
311.062760
20
274.972044
11
311.062000
21
274.972000
0
LINE
8
PERIMETER
10
153.284000
20
240.673000
11
136.245157
21
242.072487
0
LINE
8
PERIMETER
10
136.245157
20
242.072487
11
119.185037
21
243.063571
0
LINE
8
PERIMETER
10
119.185037
20
243.063571
11
102.110970
21
243.646264
0
LINE
8
PERIMETER
10
102.110970
20
243.646264
11
85.030287
21
243.820579
0
LINE
8
PERIMETER
10
85.030287
20
243.820579
11
67.950318
21
243.586529
0
LINE
8
PERIMETER
10
67.950318
20
243.586529
11
50.878394
21
242.944127
0
LINE
8
PERIMETER
10
50.878394
20
242.944127
11
33.821844
21
241.893385
0
LINE
8
PERIMETER
10
33.821844
20
241.893385
11
16.788000
21
240.434316
0
LINE
8
PERIMETER
10
16.788000
20
240.434316
11
16.063017
21
240.514178
0
LINE
8
PERIMETER
10
16.063017
20
240.514178
11
15.431500
21
240.879097
0
LINE
8
PERIMETER
10
15.431500
20
240.879097
11
15.000282
21
241.467340
0
LINE
8
PERIMETER
10
15.000282
20
241.467340
11
14.842310
21
242.179396
0
LINE
8
PERIMETER
10
14.842310
20
242.179396
11
14.567713
21
248.004685
0
LINE
8
PERIMETER
10
14.567713
20
248.004685
11
13.876877
21
253.787839
0
LINE
8
PERIMETER
10
13.876877
20
253.787839
11
12.773275
21
259.506597
0
LINE
8
PERIMETER
10
12.773275
20
259.506597
11
11.260380
21
265.138696
0
LINE
8
PERIMETER
10
11.260380
20
265.138696
11
11.200431
21
265.914650
0
LINE
8
PERIMETER
10
11.200431
20
265.914650
11
11.478500
21
266.641545
0
LINE
8
PERIMETER
10
11.478500
20
266.641545
11
12.041029
21
267.179374
0
LINE
8
PERIMETER
10
12.041029
20
267.179374
11
12.779670
21
267.424546
0
LINE
8
PERIMETER
10
12.779670
20
267.424546
11
30.801148
21
268.997432
0
LINE
8
PERIMETER
10
30.801148
20
268.997432
11
48.847569
21
270.129969
0
LINE
8
PERIMETER
10
48.847569
20
270.129969
11
66.910876
21
270.822143
0
LINE
8
PERIMETER
10
66.910876
20
270.822143
11
84.983010
21
271.073939
0
LINE
8
PERIMETER
10
84.983010
20
271.073939
11
103.055914
21
270.885343
0
LINE
8
PERIMETER
10
103.055914
20
270.885343
11
121.121530
21
270.256341
0
LINE
8
PERIMETER
10
121.121530
20
270.256341
11
139.171801
21
269.186920
0
LINE
8
PERIMETER
10
139.171801
20
269.186920
11
157.198670
21
267.677064
0
LINE
8
PERIMETER
10
157.198670
20
267.677064
11
157.938164
21
267.434475
0
LINE
8
PERIMETER
10
157.938164
20
267.434475
11
158.502570
21
266.898615
0
LINE
8
PERIMETER
10
158.502570
20
266.898615
11
158.783178
21
266.172694
0
LINE
8
PERIMETER
10
158.783178
20
266.172694
11
158.725940
21
265.396534
0
LINE
8
PERIMETER
10
158.725940
20
265.396534
11
157.232764
21
259.759199
0
LINE
8
PERIMETER
10
157.232764
20
259.759199
11
156.149179
21
254.036637
0
LINE
8
PERIMETER
10
156.149179
20
254.036637
11
155.478579
21
248.251125
0
LINE
8
PERIMETER
10
155.478579
20
248.251125
11
155.224360
21
242.424934
0
LINE
8
PERIMETER
10
155.224360
20
242.424934
11
155.068882
21
241.712318
0
LINE
8
PERIMETER
10
155.068882
20
241.712318
11
154.639719
21
241.122562
0
LINE
8
PERIMETER
10
154.639719
20
241.122562
11
154.009471
21
240.755435
0
LINE
8
PERIMETER
10
154.009471
20
240.755435
11
153.284760
21
240.673044
0
LINE
8
PERIMETER
10
153.284760
20
240.673044
11
153.284000
21
240.673000
0
LINE
8
PERIMETER
10
311.062000
20
240.673000
11
294.023157
21
242.072487
0
LINE
8
PERIMETER
10
294.023157
20
242.072487
11
276.963037
21
243.063571
0
LINE
8
PERIMETER
10
276.963037
20
243.063571
11
259.888970
21
243.646264
0
LINE
8
PERIMETER
10
259.888970
20
243.646264
11
242.808287
21
243.820579
0
LINE
8
PERIMETER
10
242.808287
20
243.820579
11
225.728318
21
243.586529
0
LINE
8
PERIMETER
10
225.728318
20
243.586529
11
208.656394
21
242.944127
0
LINE
8
PERIMETER
10
208.656394
20
242.944127
11
191.599844
21
241.893385
0
LINE
8
PERIMETER
10
191.599844
20
241.893385
11
174.566000
21
240.434316
0
LINE
8
PERIMETER
10
174.566000
20
240.434316
11
173.841017
21
240.514178
0
LINE
8
PERIMETER
10
173.841017
20
240.514178
11
173.209500
21
240.879097
0
LINE
8
PERIMETER
10
173.209500
20
240.879097
11
172.778282
21
241.467340
0
LINE
8
PERIMETER
10
172.778282
20
241.467340
11
172.620310
21
242.179396
0
LINE
8
PERIMETER
10
172.620310
20
242.179396
11
172.345713
21
248.004685
0
LINE
8
PERIMETER
10
172.345713
20
248.004685
11
171.654877
21
253.787839
0
LINE
8
PERIMETER
10
171.654877
20
253.787839
11
170.551275
21
259.506597
0
LINE
8
PERIMETER
10
170.551275
20
259.506597
11
169.038380
21
265.138696
0
LINE
8
PERIMETER
10
169.038380
20
265.138696
11
168.978431
21
265.914650
0
LINE
8
PERIMETER
10
168.978431
20
265.914650
11
169.256500
21
266.641545
0
LINE
8
PERIMETER
10
169.256500
20
266.641545
11
169.819029
21
267.179374
0
LINE
8
PERIMETER
10
169.819029
20
267.179374
11
170.557670
21
267.424546
0
LINE
8
PERIMETER
10
170.557670
20
267.424546
11
188.579148
21
268.997432
0
LINE
8
PERIMETER
10
188.579148
20
268.997432
11
206.625569
21
270.129969
0
LINE
8
PERIMETER
10
206.625569
20
270.129969
11
224.688876
21
270.822143
0
LINE
8
PERIMETER
10
224.688876
20
270.822143
11
242.761010
21
271.073939
0
LINE
8
PERIMETER
10
242.761010
20
271.073939
11
260.833914
21
270.885343
0
LINE
8
PERIMETER
10
260.833914
20
270.885343
11
278.899530
21
270.256341
0
LINE
8
PERIMETER
10
278.899530
20
270.256341
11
296.949801
21
269.186920
0
LINE
8
PERIMETER
10
296.949801
20
269.186920
11
314.976670
21
267.677064
0
LINE
8
PERIMETER
10
314.976670
20
267.677064
11
315.716164
21
267.434475
0
LINE
8
PERIMETER
10
315.716164
20
267.434475
11
316.280570
21
266.898615
0
LINE
8
PERIMETER
10
316.280570
20
266.898615
11
316.561178
21
266.172694
0
LINE
8
PERIMETER
10
316.561178
20
266.172694
11
316.503940
21
265.396534
0
LINE
8
PERIMETER
10
316.503940
20
265.396534
11
315.010764
21
259.759199
0
LINE
8
PERIMETER
10
315.010764
20
259.759199
11
313.927179
21
254.036637
0
LINE
8
PERIMETER
10
313.927179
20
254.036637
11
313.256579
21
248.251125
0
LINE
8
PERIMETER
10
313.256579
20
248.251125
11
313.002360
21
242.424934
0
LINE
8
PERIMETER
10
313.002360
20
242.424934
11
312.846882
21
241.712318
0
LINE
8
PERIMETER
10
312.846882
20
241.712318
11
312.417719
21
241.122562
0
LINE
8
PERIMETER
10
312.417719
20
241.122562
11
311.787471
21
240.755435
0
LINE
8
PERIMETER
10
311.787471
20
240.755435
11
311.062760
21
240.673044
0
LINE
8
PERIMETER
10
311.062760
20
240.673044
11
311.062000
21
240.673000
0
LINE
8
PERIMETER
10
153.284000
20
205.749000
11
136.245157
21
207.148487
0
LINE
8
PERIMETER
10
136.245157
20
207.148487
11
119.185037
21
208.139571
0
LINE
8
PERIMETER
10
119.185037
20
208.139571
11
102.110970
21
208.722264
0
LINE
8
PERIMETER
10
102.110970
20
208.722264
11
85.030287
21
208.896579
0
LINE
8
PERIMETER
10
85.030287
20
208.896579
11
67.950318
21
208.662529
0
LINE
8
PERIMETER
10
67.950318
20
208.662529
11
50.878394
21
208.020127
0
LINE
8
PERIMETER
10
50.878394
20
208.020127
11
33.821844
21
206.969385
0
LINE
8
PERIMETER
10
33.821844
20
206.969385
11
16.788000
21
205.510316
0
LINE
8
PERIMETER
10
16.788000
20
205.510316
11
16.063017
21
205.590178
0
LINE
8
PERIMETER
10
16.063017
20
205.590178
11
15.431500
21
205.955097
0
LINE
8
PERIMETER
10
15.431500
20
205.955097
11
15.000282
21
206.543340
0
LINE
8
PERIMETER
10
15.000282
20
206.543340
11
14.842310
21
207.255396
0
LINE
8
PERIMETER
10
14.842310
20
207.255396
11
14.567713
21
213.080685
0
LINE
8
PERIMETER
10
14.567713
20
213.080685
11
13.876877
21
218.863839
0
LINE
8
PERIMETER
10
13.876877
20
218.863839
11
12.773275
21
224.582597
0
LINE
8
PERIMETER
10
12.773275
20
224.582597
11
11.260380
21
230.214696
0
LINE
8
PERIMETER
10
11.260380
20
230.214696
11
11.200431
21
230.990650
0
LINE
8
PERIMETER
10
11.200431
20
230.990650
11
11.478500
21
231.717545
0
LINE
8
PERIMETER
10
11.478500
20
231.717545
11
12.041029
21
232.255374
0
LINE
8
PERIMETER
10
12.041029
20
232.255374
11
12.779670
21
232.500546
0
LINE
8
PERIMETER
10
12.779670
20
232.500546
11
30.801148
21
234.073432
0
LINE
8
PERIMETER
10
30.801148
20
234.073432
11
48.847569
21
235.205969
0
LINE
8
PERIMETER
10
48.847569
20
235.205969
11
66.910876
21
235.898143
0
LINE
8
PERIMETER
10
66.910876
20
235.898143
11
84.983010
21
236.149939
0
LINE
8
PERIMETER
10
84.983010
20
236.149939
11
103.055914
21
235.961343
0
LINE
8
PERIMETER
10
103.055914
20
235.961343
11
121.121530
21
235.332341
0
LINE
8
PERIMETER
10
121.121530
20
235.332341
11
139.171801
21
234.262920
0
LINE
8
PERIMETER
10
139.171801
20
234.262920
11
157.198670
21
232.753064
0
LINE
8
PERIMETER
10
157.198670
20
232.753064
11
157.938164
21
232.510475
0
LINE
8
PERIMETER
10
157.938164
20
232.510475
11
158.502570
21
231.974615
0
LINE
8
PERIMETER
10
158.502570
20
231.974615
11
158.783178
21
231.248694
0
LINE
8
PERIMETER
10
158.783178
20
231.248694
11
158.725940
21
230.472534
0
LINE
8
PERIMETER
10
158.725940
20
230.472534
11
157.232764
21
224.835199
0
LINE
8
PERIMETER
10
157.232764
20
224.835199
11
156.149179
21
219.112637
0
LINE
8
PERIMETER
10
156.149179
20
219.112637
11
155.478579
21
213.327125
0
LINE
8
PERIMETER
10
155.478579
20
213.327125
11
155.224360
21
207.500934
0
LINE
8
PERIMETER
10
155.224360
20
207.500934
11
155.068882
21
206.788318
0
LINE
8
PERIMETER
10
155.068882
20
206.788318
11
154.639719
21
206.198562
0
LINE
8
PERIMETER
10
154.639719
20
206.198562
11
154.009471
21
205.831435
0
LINE
8
PERIMETER
10
154.009471
20
205.831435
11
153.284760
21
205.749044
0
LINE
8
PERIMETER
10
153.284760
20
205.749044
11
153.284000
21
205.749000
0
LINE
8
PERIMETER
10
311.062000
20
205.749000
11
294.023157
21
207.148487
0
LINE
8
PERIMETER
10
294.023157
20
207.148487
11
276.963037
21
208.139571
0
LINE
8
PERIMETER
10
276.963037
20
208.139571
11
259.888970
21
208.722264
0
LINE
8
PERIMETER
10
259.888970
20
208.722264
11
242.808287
21
208.896579
0
LINE
8
PERIMETER
10
242.808287
20
208.896579
11
225.728318
21
208.662529
0
LINE
8
PERIMETER
10
225.728318
20
208.662529
11
208.656394
21
208.020127
0
LINE
8
PERIMETER
10
208.656394
20
208.020127
11
191.599844
21
206.969385
0
LINE
8
PERIMETER
10
191.599844
20
206.969385
11
174.566000
21
205.510316
0
LINE
8
PERIMETER
10
174.566000
20
205.510316
11
173.841017
21
205.590178
0
LINE
8
PERIMETER
10
173.841017
20
205.590178
11
173.209500
21
205.955097
0
LINE
8
PERIMETER
10
173.209500
20
205.955097
11
172.778282
21
206.543340
0
LINE
8
PERIMETER
10
172.778282
20
206.543340
11
172.620310
21
207.255396
0
LINE
8
PERIMETER
10
172.620310
20
207.255396
11
172.345713
21
213.080685
0
LINE
8
PERIMETER
10
172.345713
20
213.080685
11
171.654877
21
218.863839
0
LINE
8
PERIMETER
10
171.654877
20
218.863839
11
170.551275
21
224.582597
0
LINE
8
PERIMETER
10
170.551275
20
224.582597
11
169.038380
21
230.214696
0
LINE
8
PERIMETER
10
169.038380
20
230.214696
11
168.978431
21
230.990650
0
LINE
8
PERIMETER
10
168.978431
20
230.990650
11
169.256500
21
231.717545
0
LINE
8
PERIMETER
10
169.256500
20
231.717545
11
169.819029
21
232.255374
0
LINE
8
PERIMETER
10
169.819029
20
232.255374
11
170.557670
21
232.500546
0
LINE
8
PERIMETER
10
170.557670
20
232.500546
11
188.579148
21
234.073432
0
LINE
8
PERIMETER
10
188.579148
20
234.073432
11
206.625569
21
235.205969
0
LINE
8
PERIMETER
10
206.625569
20
235.205969
11
224.688876
21
235.898143
0
LINE
8
PERIMETER
10
224.688876
20
235.898143
11
242.761010
21
236.149939
0
LINE
8
PERIMETER
10
242.761010
20
236.149939
11
260.833914
21
235.961343
0
LINE
8
PERIMETER
10
260.833914
20
235.961343
11
278.899530
21
235.332341
0
LINE
8
PERIMETER
10
278.899530
20
235.332341
11
296.949801
21
234.262920
0
LINE
8
PERIMETER
10
296.949801
20
234.262920
11
314.976670
21
232.753064
0
LINE
8
PERIMETER
10
314.976670
20
232.753064
11
315.716164
21
232.510475
0
LINE
8
PERIMETER
10
315.716164
20
232.510475
11
316.280570
21
231.974615
0
LINE
8
PERIMETER
10
316.280570
20
231.974615
11
316.561178
21
231.248694
0
LINE
8
PERIMETER
10
316.561178
20
231.248694
11
316.503940
21
230.472534
0
LINE
8
PERIMETER
10
316.503940
20
230.472534
11
315.010764
21
224.835199
0
LINE
8
PERIMETER
10
315.010764
20
224.835199
11
313.927179
21
219.112637
0
LINE
8
PERIMETER
10
313.927179
20
219.112637
11
313.256579
21
213.327125
0
LINE
8
PERIMETER
10
313.256579
20
213.327125
11
313.002360
21
207.500934
0
LINE
8
PERIMETER
10
313.002360
20
207.500934
11
312.846882
21
206.788318
0
LINE
8
PERIMETER
10
312.846882
20
206.788318
11
312.417719
21
206.198562
0
LINE
8
PERIMETER
10
312.417719
20
206.198562
11
311.787471
21
205.831435
0
LINE
8
PERIMETER
10
311.787471
20
205.831435
11
311.062760
21
205.749044
0
LINE
8
PERIMETER
10
311.062760
20
205.749044
11
311.062000
21
205.749000
0
LINE
8
PERIMETER
10
153.284000
20
168.955000
11
136.245157
21
170.354488
0
LINE
8
PERIMETER
10
136.245157
20
170.354488
11
119.185037
21
171.345573
0
LINE
8
PERIMETER
10
119.185037
20
171.345573
11
102.110971
21
171.928267
0
LINE
8
PERIMETER
10
102.110971
20
171.928267
11
85.030288
21
172.102584
0
LINE
8
PERIMETER
10
85.030288
20
172.102584
11
67.950318
21
171.868535
0
LINE
8
PERIMETER
10
67.950318
20
171.868535
11
50.878394
21
171.226133
0
LINE
8
PERIMETER
10
50.878394
20
171.226133
11
33.821844
21
170.175392
0
LINE
8
PERIMETER
10
33.821844
20
170.175392
11
16.788000
21
168.716325
0
LINE
8
PERIMETER
10
16.788000
20
168.716325
11
16.063021
21
168.796186
0
LINE
8
PERIMETER
10
16.063021
20
168.796186
11
15.431507
21
169.161099
0
LINE
8
PERIMETER
10
15.431507
20
169.161099
11
15.000288
21
169.749335
0
LINE
8
PERIMETER
10
15.000288
20
169.749335
11
14.842310
21
170.461385
0
LINE
8
PERIMETER
10
14.842310
20
170.461385
11
14.567713
21
176.286674
0
LINE
8
PERIMETER
10
14.567713
20
176.286674
11
13.876877
21
182.069828
0
LINE
8
PERIMETER
10
13.876877
20
182.069828
11
12.773275
21
187.788586
0
LINE
8
PERIMETER
10
12.773275
20
187.788586
11
11.260380
21
193.420685
0
LINE
8
PERIMETER
10
11.260380
20
193.420685
11
11.200427
21
194.196642
0
LINE
8
PERIMETER
10
11.200427
20
194.196642
11
11.478495
21
194.923541
0
LINE
8
PERIMETER
10
11.478495
20
194.923541
11
12.041026
21
195.461373
0
LINE
8
PERIMETER
10
12.041026
20
195.461373
11
12.779670
21
195.706545
0
LINE
8
PERIMETER
10
12.779670
20
195.706545
11
30.801148
21
197.279430
0
LINE
8
PERIMETER
10
30.801148
20
197.279430
11
48.847570
21
198.411965
0
LINE
8
PERIMETER
10
48.847570
20
198.411965
11
66.910876
21
199.104137
0
LINE
8
PERIMETER
10
66.910876
20
199.104137
11
84.983010
21
199.355931
0
LINE
8
PERIMETER
10
84.983010
20
199.355931
11
103.055914
21
199.167333
0
LINE
8
PERIMETER
10
103.055914
20
199.167333
11
121.121530
21
198.538330
0
LINE
8
PERIMETER
10
121.121530
20
198.538330
11
139.171802
21
197.468906
0
LINE
8
PERIMETER
10
139.171802
20
197.468906
11
157.198670
21
195.959049
0
LINE
8
PERIMETER
10
157.198670
20
195.959049
11
157.938161
21
195.716461
0
LINE
8
PERIMETER
10
157.938161
20
195.716461
11
158.502566
21
195.180603
0
LINE
8
PERIMETER
10
158.502566
20
195.180603
11
158.783174
21
194.454686
0
LINE
8
PERIMETER
10
158.783174
20
194.454686
11
158.725940
21
193.678529
0
LINE
8
PERIMETER
10
158.725940
20
193.678529
11
157.232764
21
188.041194
0
LINE
8
PERIMETER
10
157.232764
20
188.041194
11
156.149179
21
182.318632
0
LINE
8
PERIMETER
10
156.149179
20
182.318632
11
155.478579
21
176.533120
0
LINE
8
PERIMETER
10
155.478579
20
176.533120
11
155.224360
21
170.706929
0
LINE
8
PERIMETER
10
155.224360
20
170.706929
11
155.068882
21
169.994313
0
LINE
8
PERIMETER
10
155.068882
20
169.994313
11
154.639719
21
169.404557
0
LINE
8
PERIMETER
10
154.639719
20
169.404557
11
154.009471
21
169.037430
0
LINE
8
PERIMETER
10
154.009471
20
169.037430
11
153.284760
21
168.955039
0
LINE
8
PERIMETER
10
153.284760
20
168.955039
11
153.284000
21
168.955000
0
LINE
8
PERIMETER
10
311.062000
20
168.955000
11
294.023157
21
170.354488
0
LINE
8
PERIMETER
10
294.023157
20
170.354488
11
276.963037
21
171.345573
0
LINE
8
PERIMETER
10
276.963037
20
171.345573
11
259.888971
21
171.928267
0
LINE
8
PERIMETER
10
259.888971
20
171.928267
11
242.808288
21
172.102584
0
LINE
8
PERIMETER
10
242.808288
20
172.102584
11
225.728318
21
171.868535
0
LINE
8
PERIMETER
10
225.728318
20
171.868535
11
208.656394
21
171.226133
0
LINE
8
PERIMETER
10
208.656394
20
171.226133
11
191.599844
21
170.175392
0
LINE
8
PERIMETER
10
191.599844
20
170.175392
11
174.566000
21
168.716325
0
LINE
8
PERIMETER
10
174.566000
20
168.716325
11
173.841021
21
168.796186
0
LINE
8
PERIMETER
10
173.841021
20
168.796186
11
173.209507
21
169.161099
0
LINE
8
PERIMETER
10
173.209507
20
169.161099
11
172.778288
21
169.749335
0
LINE
8
PERIMETER
10
172.778288
20
169.749335
11
172.620310
21
170.461385
0
LINE
8
PERIMETER
10
172.620310
20
170.461385
11
172.345713
21
176.286674
0
LINE
8
PERIMETER
10
172.345713
20
176.286674
11
171.654877
21
182.069828
0
LINE
8
PERIMETER
10
171.654877
20
182.069828
11
170.551275
21
187.788586
0
LINE
8
PERIMETER
10
170.551275
20
187.788586
11
169.038380
21
193.420685
0
LINE
8
PERIMETER
10
169.038380
20
193.420685
11
168.978427
21
194.196642
0
LINE
8
PERIMETER
10
168.978427
20
194.196642
11
169.256495
21
194.923541
0
LINE
8
PERIMETER
10
169.256495
20
194.923541
11
169.819026
21
195.461373
0
LINE
8
PERIMETER
10
169.819026
20
195.461373
11
170.557670
21
195.706545
0
LINE
8
PERIMETER
10
170.557670
20
195.706545
11
188.579148
21
197.279430
0
LINE
8
PERIMETER
10
188.579148
20
197.279430
11
206.625570
21
198.411965
0
LINE
8
PERIMETER
10
206.625570
20
198.411965
11
224.688876
21
199.104137
0
LINE
8
PERIMETER
10
224.688876
20
199.104137
11
242.761010
21
199.355931
0
LINE
8
PERIMETER
10
242.761010
20
199.355931
11
260.833914
21
199.167333
0
LINE
8
PERIMETER
10
260.833914
20
199.167333
11
278.899530
21
198.538330
0
LINE
8
PERIMETER
10
278.899530
20
198.538330
11
296.949802
21
197.468906
0
LINE
8
PERIMETER
10
296.949802
20
197.468906
11
314.976670
21
195.959049
0
LINE
8
PERIMETER
10
314.976670
20
195.959049
11
315.716161
21
195.716461
0
LINE
8
PERIMETER
10
315.716161
20
195.716461
11
316.280566
21
195.180603
0
LINE
8
PERIMETER
10
316.280566
20
195.180603
11
316.561174
21
194.454686
0
LINE
8
PERIMETER
10
316.561174
20
194.454686
11
316.503940
21
193.678529
0
LINE
8
PERIMETER
10
316.503940
20
193.678529
11
315.010764
21
188.041194
0
LINE
8
PERIMETER
10
315.010764
20
188.041194
11
313.927179
21
182.318632
0
LINE
8
PERIMETER
10
313.927179
20
182.318632
11
313.256579
21
176.533120
0
LINE
8
PERIMETER
10
313.256579
20
176.533120
11
313.002360
21
170.706929
0
LINE
8
PERIMETER
10
313.002360
20
170.706929
11
312.846882
21
169.994313
0
LINE
8
PERIMETER
10
312.846882
20
169.994313
11
312.417719
21
169.404557
0
LINE
8
PERIMETER
10
312.417719
20
169.404557
11
311.787471
21
169.037430
0
LINE
8
PERIMETER
10
311.787471
20
169.037430
11
311.062760
21
168.955039
0
LINE
8
PERIMETER
10
311.062760
20
168.955039
11
311.062000
21
168.955000
0
LINE
8
PERIMETER
10
153.284000
20
134.032000
11
136.245157
21
135.431488
0
LINE
8
PERIMETER
10
136.245157
20
135.431488
11
119.185037
21
136.422573
0
LINE
8
PERIMETER
10
119.185037
20
136.422573
11
102.110971
21
137.005267
0
LINE
8
PERIMETER
10
102.110971
20
137.005267
11
85.030288
21
137.179584
0
LINE
8
PERIMETER
10
85.030288
20
137.179584
11
67.950318
21
136.945535
0
LINE
8
PERIMETER
10
67.950318
20
136.945535
11
50.878394
21
136.303133
0
LINE
8
PERIMETER
10
50.878394
20
136.303133
11
33.821844
21
135.252392
0
LINE
8
PERIMETER
10
33.821844
20
135.252392
11
16.788000
21
133.793325
0
LINE
8
PERIMETER
10
16.788000
20
133.793325
11
16.063014
21
133.873188
0
LINE
8
PERIMETER
10
16.063014
20
133.873188
11
15.431496
21
134.238109
0
LINE
8
PERIMETER
10
15.431496
20
134.238109
11
15.000279
21
134.826356
0
LINE
8
PERIMETER
10
15.000279
20
134.826356
11
14.842310
21
135.538415
0
LINE
8
PERIMETER
10
14.842310
20
135.538415
11
14.567708
21
141.363678
0
LINE
8
PERIMETER
10
14.567708
20
141.363678
11
13.876870
21
147.146807
0
LINE
8
PERIMETER
10
13.876870
20
147.146807
11
12.773270
21
152.865540
0
LINE
8
PERIMETER
10
12.773270
20
152.865540
11
11.260380
21
158.497615
0
LINE
8
PERIMETER
10
11.260380
20
158.497615
11
11.200427
21
159.273572
0
LINE
8
PERIMETER
10
11.200427
20
159.273572
11
11.478495
21
160.000471
0
LINE
8
PERIMETER
10
11.478495
20
160.000471
11
12.041026
21
160.538303
0
LINE
8
PERIMETER
10
12.041026
20
160.538303
11
12.779670
21
160.783475
0
LINE
8
PERIMETER
10
12.779670
20
160.783475
11
30.801148
21
162.356360
0
LINE
8
PERIMETER
10
30.801148
20
162.356360
11
48.847570
21
163.488895
0
LINE
8
PERIMETER
10
48.847570
20
163.488895
11
66.910876
21
164.181067
0
LINE
8
PERIMETER
10
66.910876
20
164.181067
11
84.983010
21
164.432861
0
LINE
8
PERIMETER
10
84.983010
20
164.432861
11
103.055914
21
164.244263
0
LINE
8
PERIMETER
10
103.055914
20
164.244263
11
121.121530
21
163.615260
0
LINE
8
PERIMETER
10
121.121530
20
163.615260
11
139.171802
21
162.545836
0
LINE
8
PERIMETER
10
139.171802
20
162.545836
11
157.198670
21
161.035979
0
LINE
8
PERIMETER
10
157.198670
20
161.035979
11
157.938161
21
160.793391
0
LINE
8
PERIMETER
10
157.938161
20
160.793391
11
158.502566
21
160.257533
0
LINE
8
PERIMETER
10
158.502566
20
160.257533
11
158.783174
21
159.531616
0
LINE
8
PERIMETER
10
158.783174
20
159.531616
11
158.725940
21
158.755459
0
LINE
8
PERIMETER
10
158.725940
20
158.755459
11
157.232764
21
153.118124
0
LINE
8
PERIMETER
10
157.232764
20
153.118124
11
156.149179
21
147.395562
0
LINE
8
PERIMETER
10
156.149179
20
147.395562
11
155.478579
21
141.610050
0
LINE
8
PERIMETER
10
155.478579
20
141.610050
11
155.224360
21
135.783859
0
LINE
8
PERIMETER
10
155.224360
20
135.783859
11
155.068882
21
135.071243
0
LINE
8
PERIMETER
10
155.068882
20
135.071243
11
154.639719
21
134.481487
0
LINE
8
PERIMETER
10
154.639719
20
134.481487
11
154.009471
21
134.114360
0
LINE
8
PERIMETER
10
154.009471
20
134.114360
11
153.284760
21
134.031969
0
LINE
8
PERIMETER
10
153.284760
20
134.031969
11
153.284000
21
134.032000
0
LINE
8
PERIMETER
10
311.062000
20
134.032000
11
294.023157
21
135.431488
0
LINE
8
PERIMETER
10
294.023157
20
135.431488
11
276.963037
21
136.422573
0
LINE
8
PERIMETER
10
276.963037
20
136.422573
11
259.888971
21
137.005267
0
LINE
8
PERIMETER
10
259.888971
20
137.005267
11
242.808288
21
137.179584
0
LINE
8
PERIMETER
10
242.808288
20
137.179584
11
225.728318
21
136.945535
0
LINE
8
PERIMETER
10
225.728318
20
136.945535
11
208.656394
21
136.303133
0
LINE
8
PERIMETER
10
208.656394
20
136.303133
11
191.599844
21
135.252392
0
LINE
8
PERIMETER
10
191.599844
20
135.252392
11
174.566000
21
133.793325
0
LINE
8
PERIMETER
10
174.566000
20
133.793325
11
173.841014
21
133.873188
0
LINE
8
PERIMETER
10
173.841014
20
133.873188
11
173.209496
21
134.238109
0
LINE
8
PERIMETER
10
173.209496
20
134.238109
11
172.778279
21
134.826356
0
LINE
8
PERIMETER
10
172.778279
20
134.826356
11
172.620310
21
135.538415
0
LINE
8
PERIMETER
10
172.620310
20
135.538415
11
172.345708
21
141.363678
0
LINE
8
PERIMETER
10
172.345708
20
141.363678
11
171.654870
21
147.146807
0
LINE
8
PERIMETER
10
171.654870
20
147.146807
11
170.551270
21
152.865540
0
LINE
8
PERIMETER
10
170.551270
20
152.865540
11
169.038380
21
158.497615
0
LINE
8
PERIMETER
10
169.038380
20
158.497615
11
168.978427
21
159.273572
0
LINE
8
PERIMETER
10
168.978427
20
159.273572
11
169.256495
21
160.000471
0
LINE
8
PERIMETER
10
169.256495
20
160.000471
11
169.819026
21
160.538303
0
LINE
8
PERIMETER
10
169.819026
20
160.538303
11
170.557670
21
160.783475
0
LINE
8
PERIMETER
10
170.557670
20
160.783475
11
188.579148
21
162.356360
0
LINE
8
PERIMETER
10
188.579148
20
162.356360
11
206.625570
21
163.488895
0
LINE
8
PERIMETER
10
206.625570
20
163.488895
11
224.688876
21
164.181067
0
LINE
8
PERIMETER
10
224.688876
20
164.181067
11
242.761010
21
164.432861
0
LINE
8
PERIMETER
10
242.761010
20
164.432861
11
260.833914
21
164.244263
0
LINE
8
PERIMETER
10
260.833914
20
164.244263
11
278.899530
21
163.615260
0
LINE
8
PERIMETER
10
278.899530
20
163.615260
11
296.949802
21
162.545836
0
LINE
8
PERIMETER
10
296.949802
20
162.545836
11
314.976670
21
161.035979
0
LINE
8
PERIMETER
10
314.976670
20
161.035979
11
315.716161
21
160.793391
0
LINE
8
PERIMETER
10
315.716161
20
160.793391
11
316.280566
21
160.257533
0
LINE
8
PERIMETER
10
316.280566
20
160.257533
11
316.561174
21
159.531616
0
LINE
8
PERIMETER
10
316.561174
20
159.531616
11
316.503940
21
158.755459
0
LINE
8
PERIMETER
10
316.503940
20
158.755459
11
315.010764
21
153.118124
0
LINE
8
PERIMETER
10
315.010764
20
153.118124
11
313.927179
21
147.395562
0
LINE
8
PERIMETER
10
313.927179
20
147.395562
11
313.256579
21
141.610050
0
LINE
8
PERIMETER
10
313.256579
20
141.610050
11
313.002360
21
135.783859
0
LINE
8
PERIMETER
10
313.002360
20
135.783859
11
312.846882
21
135.071243
0
LINE
8
PERIMETER
10
312.846882
20
135.071243
11
312.417719
21
134.481487
0
LINE
8
PERIMETER
10
312.417719
20
134.481487
11
311.787471
21
134.114360
0
LINE
8
PERIMETER
10
311.787471
20
134.114360
11
311.062760
21
134.031969
0
LINE
8
PERIMETER
10
311.062760
20
134.031969
11
311.062000
21
134.032000
0
LINE
8
PERIMETER
10
153.284000
20
99.732600
11
136.245157
21
101.132085
0
LINE
8
PERIMETER
10
136.245157
20
101.132085
11
119.185037
21
102.123166
0
LINE
8
PERIMETER
10
119.185037
20
102.123166
11
102.110970
21
102.705857
0
LINE
8
PERIMETER
10
102.110970
20
102.705857
11
85.030287
21
102.880170
0
LINE
8
PERIMETER
10
85.030287
20
102.880170
11
67.950318
21
102.646117
0
LINE
8
PERIMETER
10
67.950318
20
102.646117
11
50.878393
21
102.003712
0
LINE
8
PERIMETER
10
50.878393
20
102.003712
11
33.821844
21
100.952968
0
LINE
8
PERIMETER
10
33.821844
20
100.952968
11
16.788000
21
99.493897
0
LINE
8
PERIMETER
10
16.788000
20
99.493897
11
16.063014
21
99.573760
0
LINE
8
PERIMETER
10
16.063014
20
99.573760
11
15.431496
21
99.938681
0
LINE
8
PERIMETER
10
15.431496
20
99.938681
11
15.000279
21
100.526928
0
LINE
8
PERIMETER
10
15.000279
20
100.526928
11
14.842310
21
101.238987
0
LINE
8
PERIMETER
10
14.842310
20
101.238987
11
14.567713
21
107.064276
0
LINE
8
PERIMETER
10
14.567713
20
107.064276
11
13.876877
21
112.847430
0
LINE
8
PERIMETER
10
13.876877
20
112.847430
11
12.773275
21
118.566188
0
LINE
8
PERIMETER
10
12.773275
20
118.566188
11
11.260380
21
124.198287
0
LINE
8
PERIMETER
10
11.260380
20
124.198287
11
11.200439
21
124.974236
0
LINE
8
PERIMETER
10
11.200439
20
124.974236
11
11.478510
21
125.701123
0
LINE
8
PERIMETER
10
11.478510
20
125.701123
11
12.041036
21
126.238946
0
LINE
8
PERIMETER
10
12.041036
20
126.238946
11
12.779670
21
126.484117
0
LINE
8
PERIMETER
10
12.779670
20
126.484117
11
30.801148
21
128.057005
0
LINE
8
PERIMETER
10
30.801148
20
128.057005
11
48.847569
21
129.189544
0
LINE
8
PERIMETER
10
48.847569
20
129.189544
11
66.910875
21
129.881719
0
LINE
8
PERIMETER
10
66.910875
20
129.881719
11
84.983009
21
130.133517
0
LINE
8
PERIMETER
10
84.983009
20
130.133517
11
103.055913
21
129.944923
0
LINE
8
PERIMETER
10
103.055913
20
129.944923
11
121.121530
21
129.315923
0
LINE
8
PERIMETER
10
121.121530
20
129.315923
11
139.171801
21
128.246503
0
LINE
8
PERIMETER
10
139.171801
20
128.246503
11
157.198670
21
126.736649
0
LINE
8
PERIMETER
10
157.198670
20
126.736649
11
157.938171
21
126.494059
0
LINE
8
PERIMETER
10
157.938171
20
126.494059
11
158.502580
21
125.958193
0
LINE
8
PERIMETER
10
158.502580
20
125.958193
11
158.783186
21
125.232265
0
LINE
8
PERIMETER
10
158.783186
20
125.232265
11
158.725940
21
124.456099
0
LINE
8
PERIMETER
10
158.725940
20
124.456099
11
157.232764
21
118.818764
0
LINE
8
PERIMETER
10
157.232764
20
118.818764
11
156.149179
21
113.096202
0
LINE
8
PERIMETER
10
156.149179
20
113.096202
11
155.478579
21
107.310690
0
LINE
8
PERIMETER
10
155.478579
20
107.310690
11
155.224360
21
101.484499
0
LINE
8
PERIMETER
10
155.224360
20
101.484499
11
155.068873
21
100.771893
0
LINE
8
PERIMETER
10
155.068873
20
100.771893
11
154.639708
21
100.182147
0
LINE
8
PERIMETER
10
154.639708
20
100.182147
11
154.009464
21
99.815027
0
LINE
8
PERIMETER
10
154.009464
20
99.815027
11
153.284760
21
99.732639
0
LINE
8
PERIMETER
10
153.284760
20
99.732639
11
153.284000
21
99.732600
0
LINE
8
PERIMETER
10
311.062000
20
99.732600
11
294.023157
21
101.132085
0
LINE
8
PERIMETER
10
294.023157
20
101.132085
11
276.963037
21
102.123166
0
LINE
8
PERIMETER
10
276.963037
20
102.123166
11
259.888970
21
102.705857
0
LINE
8
PERIMETER
10
259.888970
20
102.705857
11
242.808287
21
102.880170
0
LINE
8
PERIMETER
10
242.808287
20
102.880170
11
225.728318
21
102.646117
0
LINE
8
PERIMETER
10
225.728318
20
102.646117
11
208.656393
21
102.003712
0
LINE
8
PERIMETER
10
208.656393
20
102.003712
11
191.599844
21
100.952968
0
LINE
8
PERIMETER
10
191.599844
20
100.952968
11
174.566000
21
99.493897
0
LINE
8
PERIMETER
10
174.566000
20
99.493897
11
173.841014
21
99.573760
0
LINE
8
PERIMETER
10
173.841014
20
99.573760
11
173.209496
21
99.938681
0
LINE
8
PERIMETER
10
173.209496
20
99.938681
11
172.778279
21
100.526928
0
LINE
8
PERIMETER
10
172.778279
20
100.526928
11
172.620310
21
101.238987
0
LINE
8
PERIMETER
10
172.620310
20
101.238987
11
172.345713
21
107.064276
0
LINE
8
PERIMETER
10
172.345713
20
107.064276
11
171.654877
21
112.847430
0
LINE
8
PERIMETER
10
171.654877
20
112.847430
11
170.551275
21
118.566188
0
LINE
8
PERIMETER
10
170.551275
20
118.566188
11
169.038380
21
124.198287
0
LINE
8
PERIMETER
10
169.038380
20
124.198287
11
168.978439
21
124.974236
0
LINE
8
PERIMETER
10
168.978439
20
124.974236
11
169.256510
21
125.701123
0
LINE
8
PERIMETER
10
169.256510
20
125.701123
11
169.819036
21
126.238946
0
LINE
8
PERIMETER
10
169.819036
20
126.238946
11
170.557670
21
126.484117
0
LINE
8
PERIMETER
10
170.557670
20
126.484117
11
188.579148
21
128.057005
0
LINE
8
PERIMETER
10
188.579148
20
128.057005
11
206.625569
21
129.189544
0
LINE
8
PERIMETER
10
206.625569
20
129.189544
11
224.688875
21
129.881719
0
LINE
8
PERIMETER
10
224.688875
20
129.881719
11
242.761009
21
130.133517
0
LINE
8
PERIMETER
10
242.761009
20
130.133517
11
260.833913
21
129.944923
0
LINE
8
PERIMETER
10
260.833913
20
129.944923
11
278.899530
21
129.315923
0
LINE
8
PERIMETER
10
278.899530
20
129.315923
11
296.949801
21
128.246503
0
LINE
8
PERIMETER
10
296.949801
20
128.246503
11
314.976670
21
126.736649
0
LINE
8
PERIMETER
10
314.976670
20
126.736649
11
315.716171
21
126.494059
0
LINE
8
PERIMETER
10
315.716171
20
126.494059
11
316.280580
21
125.958193
0
LINE
8
PERIMETER
10
316.280580
20
125.958193
11
316.561186
21
125.232265
0
LINE
8
PERIMETER
10
316.561186
20
125.232265
11
316.503940
21
124.456099
0
LINE
8
PERIMETER
10
316.503940
20
124.456099
11
315.010764
21
118.818764
0
LINE
8
PERIMETER
10
315.010764
20
118.818764
11
313.927179
21
113.096202
0
LINE
8
PERIMETER
10
313.927179
20
113.096202
11
313.256579
21
107.310690
0
LINE
8
PERIMETER
10
313.256579
20
107.310690
11
313.002360
21
101.484499
0
LINE
8
PERIMETER
10
313.002360
20
101.484499
11
312.846873
21
100.771893
0
LINE
8
PERIMETER
10
312.846873
20
100.771893
11
312.417708
21
100.182147
0
LINE
8
PERIMETER
10
312.417708
20
100.182147
11
311.787464
21
99.815027
0
LINE
8
PERIMETER
10
311.787464
20
99.815027
11
311.062760
21
99.732639
0
LINE
8
PERIMETER
10
311.062760
20
99.732639
11
311.062000
21
99.732600
0
LINE
8
PERIMETER
10
153.284000
20
64.809400
11
136.245157
21
66.208885
0
LINE
8
PERIMETER
10
136.245157
20
66.208885
11
119.185037
21
67.199966
0
LINE
8
PERIMETER
10
119.185037
20
67.199966
11
102.110970
21
67.782657
0
LINE
8
PERIMETER
10
102.110970
20
67.782657
11
85.030287
21
67.956970
0
LINE
8
PERIMETER
10
85.030287
20
67.956970
11
67.950318
21
67.722917
0
LINE
8
PERIMETER
10
67.950318
20
67.722917
11
50.878393
21
67.080512
0
LINE
8
PERIMETER
10
50.878393
20
67.080512
11
33.821844
21
66.029768
0
LINE
8
PERIMETER
10
33.821844
20
66.029768
11
16.788000
21
64.570697
0
LINE
8
PERIMETER
10
16.788000
20
64.570697
11
16.063014
21
64.650560
0
LINE
8
PERIMETER
10
16.063014
20
64.650560
11
15.431496
21
65.015481
0
LINE
8
PERIMETER
10
15.431496
20
65.015481
11
15.000279
21
65.603728
0
LINE
8
PERIMETER
10
15.000279
20
65.603728
11
14.842310
21
66.315787
0
LINE
8
PERIMETER
10
14.842310
20
66.315787
11
14.567713
21
72.141076
0
LINE
8
PERIMETER
10
14.567713
20
72.141076
11
13.876877
21
77.924230
0
LINE
8
PERIMETER
10
13.876877
20
77.924230
11
12.773275
21
83.642988
0
LINE
8
PERIMETER
10
12.773275
20
83.642988
11
11.260380
21
89.275087
0
LINE
8
PERIMETER
10
11.260380
20
89.275087
11
11.200439
21
90.051036
0
LINE
8
PERIMETER
10
11.200439
20
90.051036
11
11.478510
21
90.777923
0
LINE
8
PERIMETER
10
11.478510
20
90.777923
11
12.041036
21
91.315746
0
LINE
8
PERIMETER
10
12.041036
20
91.315746
11
12.779670
21
91.560917
0
LINE
8
PERIMETER
10
12.779670
20
91.560917
11
30.801148
21
93.133805
0
LINE
8
PERIMETER
10
30.801148
20
93.133805
11
48.847569
21
94.266344
0
LINE
8
PERIMETER
10
48.847569
20
94.266344
11
66.910875
21
94.958519
0
LINE
8
PERIMETER
10
66.910875
20
94.958519
11
84.983009
21
95.210317
0
LINE
8
PERIMETER
10
84.983009
20
95.210317
11
103.055913
21
95.021723
0
LINE
8
PERIMETER
10
103.055913
20
95.021723
11
121.121530
21
94.392723
0
LINE
8
PERIMETER
10
121.121530
20
94.392723
11
139.171801
21
93.323303
0
LINE
8
PERIMETER
10
139.171801
20
93.323303
11
157.198670
21
91.813449
0
LINE
8
PERIMETER
10
157.198670
20
91.813449
11
157.938161
21
91.570861
0
LINE
8
PERIMETER
10
157.938161
20
91.570861
11
158.502566
21
91.035003
0
LINE
8
PERIMETER
10
158.502566
20
91.035003
11
158.783174
21
90.309086
0
LINE
8
PERIMETER
10
158.783174
20
90.309086
11
158.725940
21
89.532929
0
LINE
8
PERIMETER
10
158.725940
20
89.532929
11
157.232764
21
83.895594
0
LINE
8
PERIMETER
10
157.232764
20
83.895594
11
156.149179
21
78.173032
0
LINE
8
PERIMETER
10
156.149179
20
78.173032
11
155.478579
21
72.387520
0
LINE
8
PERIMETER
10
155.478579
20
72.387520
11
155.224360
21
66.561329
0
LINE
8
PERIMETER
10
155.224360
20
66.561329
11
155.068882
21
65.848713
0
LINE
8
PERIMETER
10
155.068882
20
65.848713
11
154.639719
21
65.258957
0
LINE
8
PERIMETER
10
154.639719
20
65.258957
11
154.009471
21
64.891830
0
LINE
8
PERIMETER
10
154.009471
20
64.891830
11
153.284760
21
64.809439
0
LINE
8
PERIMETER
10
153.284760
20
64.809439
11
153.284000
21
64.809400
0
LINE
8
PERIMETER
10
311.062000
20
64.809400
11
294.023157
21
66.208885
0
LINE
8
PERIMETER
10
294.023157
20
66.208885
11
276.963037
21
67.199966
0
LINE
8
PERIMETER
10
276.963037
20
67.199966
11
259.888970
21
67.782657
0
LINE
8
PERIMETER
10
259.888970
20
67.782657
11
242.808287
21
67.956970
0
LINE
8
PERIMETER
10
242.808287
20
67.956970
11
225.728318
21
67.722917
0
LINE
8
PERIMETER
10
225.728318
20
67.722917
11
208.656393
21
67.080512
0
LINE
8
PERIMETER
10
208.656393
20
67.080512
11
191.599844
21
66.029768
0
LINE
8
PERIMETER
10
191.599844
20
66.029768
11
174.566000
21
64.570697
0
LINE
8
PERIMETER
10
174.566000
20
64.570697
11
173.841014
21
64.650560
0
LINE
8
PERIMETER
10
173.841014
20
64.650560
11
173.209496
21
65.015481
0
LINE
8
PERIMETER
10
173.209496
20
65.015481
11
172.778279
21
65.603728
0
LINE
8
PERIMETER
10
172.778279
20
65.603728
11
172.620310
21
66.315787
0
LINE
8
PERIMETER
10
172.620310
20
66.315787
11
172.345713
21
72.141076
0
LINE
8
PERIMETER
10
172.345713
20
72.141076
11
171.654877
21
77.924230
0
LINE
8
PERIMETER
10
171.654877
20
77.924230
11
170.551275
21
83.642988
0
LINE
8
PERIMETER
10
170.551275
20
83.642988
11
169.038380
21
89.275087
0
LINE
8
PERIMETER
10
169.038380
20
89.275087
11
168.978439
21
90.051036
0
LINE
8
PERIMETER
10
168.978439
20
90.051036
11
169.256510
21
90.777923
0
LINE
8
PERIMETER
10
169.256510
20
90.777923
11
169.819036
21
91.315746
0
LINE
8
PERIMETER
10
169.819036
20
91.315746
11
170.557670
21
91.560917
0
LINE
8
PERIMETER
10
170.557670
20
91.560917
11
188.579148
21
93.133805
0
LINE
8
PERIMETER
10
188.579148
20
93.133805
11
206.625569
21
94.266344
0
LINE
8
PERIMETER
10
206.625569
20
94.266344
11
224.688875
21
94.958519
0
LINE
8
PERIMETER
10
224.688875
20
94.958519
11
242.761009
21
95.210317
0
LINE
8
PERIMETER
10
242.761009
20
95.210317
11
260.833913
21
95.021723
0
LINE
8
PERIMETER
10
260.833913
20
95.021723
11
278.899530
21
94.392723
0
LINE
8
PERIMETER
10
278.899530
20
94.392723
11
296.949801
21
93.323303
0
LINE
8
PERIMETER
10
296.949801
20
93.323303
11
314.976670
21
91.813449
0
LINE
8
PERIMETER
10
314.976670
20
91.813449
11
315.716161
21
91.570861
0
LINE
8
PERIMETER
10
315.716161
20
91.570861
11
316.280566
21
91.035003
0
LINE
8
PERIMETER
10
316.280566
20
91.035003
11
316.561174
21
90.309086
0
LINE
8
PERIMETER
10
316.561174
20
90.309086
11
316.503940
21
89.532929
0
LINE
8
PERIMETER
10
316.503940
20
89.532929
11
315.010764
21
83.895594
0
LINE
8
PERIMETER
10
315.010764
20
83.895594
11
313.927179
21
78.173032
0
LINE
8
PERIMETER
10
313.927179
20
78.173032
11
313.256579
21
72.387520
0
LINE
8
PERIMETER
10
313.256579
20
72.387520
11
313.002360
21
66.561329
0
LINE
8
PERIMETER
10
313.002360
20
66.561329
11
312.846882
21
65.848713
0
LINE
8
PERIMETER
10
312.846882
20
65.848713
11
312.417719
21
65.258957
0
LINE
8
PERIMETER
10
312.417719
20
65.258957
11
311.787471
21
64.891830
0
LINE
8
PERIMETER
10
311.787471
20
64.891830
11
311.062760
21
64.809439
0
LINE
8
PERIMETER
10
311.062760
20
64.809439
11
311.062000
21
64.809400
0
LINE
8
PERIMETER
10
153.284000
20
27.391700
11
136.245157
21
28.791185
0
LINE
8
PERIMETER
10
136.245157
20
28.791185
11
119.185037
21
29.782266
0
LINE
8
PERIMETER
10
119.185037
20
29.782266
11
102.110970
21
30.364957
0
LINE
8
PERIMETER
10
102.110970
20
30.364957
11
85.030287
21
30.539270
0
LINE
8
PERIMETER
10
85.030287
20
30.539270
11
67.950318
21
30.305217
0
LINE
8
PERIMETER
10
67.950318
20
30.305217
11
50.878393
21
29.662812
0
LINE
8
PERIMETER
10
50.878393
20
29.662812
11
33.821844
21
28.612068
0
LINE
8
PERIMETER
10
33.821844
20
28.612068
11
16.788000
21
27.152997
0
LINE
8
PERIMETER
10
16.788000
20
27.152997
11
16.063014
21
27.232860
0
LINE
8
PERIMETER
10
16.063014
20
27.232860
11
15.431496
21
27.597781
0
LINE
8
PERIMETER
10
15.431496
20
27.597781
11
15.000279
21
28.186028
0
LINE
8
PERIMETER
10
15.000279
20
28.186028
11
14.842310
21
28.898087
0
LINE
8
PERIMETER
10
14.842310
20
28.898087
11
14.567713
21
34.723376
0
LINE
8
PERIMETER
10
14.567713
20
34.723376
11
13.876877
21
40.506530
0
LINE
8
PERIMETER
10
13.876877
20
40.506530
11
12.773275
21
46.225288
0
LINE
8
PERIMETER
10
12.773275
20
46.225288
11
11.260380
21
51.857387
0
LINE
8
PERIMETER
10
11.260380
20
51.857387
11
11.200439
21
52.633336
0
LINE
8
PERIMETER
10
11.200439
20
52.633336
11
11.478510
21
53.360223
0
LINE
8
PERIMETER
10
11.478510
20
53.360223
11
12.041036
21
53.898046
0
LINE
8
PERIMETER
10
12.041036
20
53.898046
11
12.779670
21
54.143217
0
LINE
8
PERIMETER
10
12.779670
20
54.143217
11
30.801148
21
55.716105
0
LINE
8
PERIMETER
10
30.801148
20
55.716105
11
48.847569
21
56.848644
0
LINE
8
PERIMETER
10
48.847569
20
56.848644
11
66.910875
21
57.540819
0
LINE
8
PERIMETER
10
66.910875
20
57.540819
11
84.983009
21
57.792617
0
LINE
8
PERIMETER
10
84.983009
20
57.792617
11
103.055913
21
57.604023
0
LINE
8
PERIMETER
10
103.055913
20
57.604023
11
121.121530
21
56.975023
0
LINE
8
PERIMETER
10
121.121530
20
56.975023
11
139.171801
21
55.905603
0
LINE
8
PERIMETER
10
139.171801
20
55.905603
11
157.198670
21
54.395749
0
LINE
8
PERIMETER
10
157.198670
20
54.395749
11
157.938161
21
54.153161
0
LINE
8
PERIMETER
10
157.938161
20
54.153161
11
158.502566
21
53.617303
0
LINE
8
PERIMETER
10
158.502566
20
53.617303
11
158.783174
21
52.891386
0
LINE
8
PERIMETER
10
158.783174
20
52.891386
11
158.725940
21
52.115229
0
LINE
8
PERIMETER
10
158.725940
20
52.115229
11
157.232764
21
46.477894
0
LINE
8
PERIMETER
10
157.232764
20
46.477894
11
156.149179
21
40.755332
0
LINE
8
PERIMETER
10
156.149179
20
40.755332
11
155.478579
21
34.969820
0
LINE
8
PERIMETER
10
155.478579
20
34.969820
11
155.224360
21
29.143629
0
LINE
8
PERIMETER
10
155.224360
20
29.143629
11
155.068882
21
28.431013
0
LINE
8
PERIMETER
10
155.068882
20
28.431013
11
154.639719
21
27.841257
0
LINE
8
PERIMETER
10
154.639719
20
27.841257
11
154.009471
21
27.474130
0
LINE
8
PERIMETER
10
154.009471
20
27.474130
11
153.284760
21
27.391739
0
LINE
8
PERIMETER
10
153.284760
20
27.391739
11
153.284000
21
27.391700
0
LINE
8
PERIMETER
10
311.062000
20
27.391700
11
294.023157
21
28.791185
0
LINE
8
PERIMETER
10
294.023157
20
28.791185
11
276.963037
21
29.782266
0
LINE
8
PERIMETER
10
276.963037
20
29.782266
11
259.888970
21
30.364957
0
LINE
8
PERIMETER
10
259.888970
20
30.364957
11
242.808287
21
30.539270
0
LINE
8
PERIMETER
10
242.808287
20
30.539270
11
225.728318
21
30.305217
0
LINE
8
PERIMETER
10
225.728318
20
30.305217
11
208.656393
21
29.662812
0
LINE
8
PERIMETER
10
208.656393
20
29.662812
11
191.599844
21
28.612068
0
LINE
8
PERIMETER
10
191.599844
20
28.612068
11
174.566000
21
27.152997
0
LINE
8
PERIMETER
10
174.566000
20
27.152997
11
173.841014
21
27.232860
0
LINE
8
PERIMETER
10
173.841014
20
27.232860
11
173.209496
21
27.597781
0
LINE
8
PERIMETER
10
173.209496
20
27.597781
11
172.778279
21
28.186028
0
LINE
8
PERIMETER
10
172.778279
20
28.186028
11
172.620310
21
28.898087
0
LINE
8
PERIMETER
10
172.620310
20
28.898087
11
172.345713
21
34.723376
0
LINE
8
PERIMETER
10
172.345713
20
34.723376
11
171.654877
21
40.506530
0
LINE
8
PERIMETER
10
171.654877
20
40.506530
11
170.551275
21
46.225288
0
LINE
8
PERIMETER
10
170.551275
20
46.225288
11
169.038380
21
51.857387
0
LINE
8
PERIMETER
10
169.038380
20
51.857387
11
168.978439
21
52.633336
0
LINE
8
PERIMETER
10
168.978439
20
52.633336
11
169.256510
21
53.360223
0
LINE
8
PERIMETER
10
169.256510
20
53.360223
11
169.819036
21
53.898046
0
LINE
8
PERIMETER
10
169.819036
20
53.898046
11
170.557670
21
54.143217
0
LINE
8
PERIMETER
10
170.557670
20
54.143217
11
188.579148
21
55.716105
0
LINE
8
PERIMETER
10
188.579148
20
55.716105
11
206.625569
21
56.848644
0
LINE
8
PERIMETER
10
206.625569
20
56.848644
11
224.688875
21
57.540819
0
LINE
8
PERIMETER
10
224.688875
20
57.540819
11
242.761009
21
57.792617
0
LINE
8
PERIMETER
10
242.761009
20
57.792617
11
260.833913
21
57.604023
0
LINE
8
PERIMETER
10
260.833913
20
57.604023
11
278.899530
21
56.975023
0
LINE
8
PERIMETER
10
278.899530
20
56.975023
11
296.949801
21
55.905603
0
LINE
8
PERIMETER
10
296.949801
20
55.905603
11
314.976670
21
54.395749
0
LINE
8
PERIMETER
10
314.976670
20
54.395749
11
315.716161
21
54.153161
0
LINE
8
PERIMETER
10
315.716161
20
54.153161
11
316.280566
21
53.617303
0
LINE
8
PERIMETER
10
316.280566
20
53.617303
11
316.561174
21
52.891386
0
LINE
8
PERIMETER
10
316.561174
20
52.891386
11
316.503940
21
52.115229
0
LINE
8
PERIMETER
10
316.503940
20
52.115229
11
315.010764
21
46.477894
0
LINE
8
PERIMETER
10
315.010764
20
46.477894
11
313.927179
21
40.755332
0
LINE
8
PERIMETER
10
313.927179
20
40.755332
11
313.256579
21
34.969820
0
LINE
8
PERIMETER
10
313.256579
20
34.969820
11
313.002360
21
29.143629
0
LINE
8
PERIMETER
10
313.002360
20
29.143629
11
312.846882
21
28.431013
0
LINE
8
PERIMETER
10
312.846882
20
28.431013
11
312.417719
21
27.841257
0
LINE
8
PERIMETER
10
312.417719
20
27.841257
11
311.787471
21
27.474130
0
LINE
8
PERIMETER
10
311.787471
20
27.474130
11
311.062760
21
27.391739
0
LINE
8
PERIMETER
10
311.062760
20
27.391739
11
311.062000
21
27.391700
 0 
ENDSEC
 0 
EOF