<?xml version="1.0" encoding="UTF-8" standalone="no"?>
<svg
   xmlns:dc="http://purl.org/dc/elements/1.1/"
   xmlns:cc="http://creativecommons.org/ns#"
   xmlns:rdf="http://www.w3.org/1999/02/22-rdf-syntax-ns#"
   xmlns:svg="http://www.w3.org/2000/svg"
   xmlns="http://www.w3.org/2000/svg"
   xmlns:sodipodi="http://sodipodi.sourceforge.net/DTD/sodipodi-0.dtd"
   xmlns:inkscape="http://www.inkscape.org/namespaces/inkscape"
   viewBox="0 0 1152 1728.0001"
   width="12in"
   height="18in"
   version="1.1"
   id="svg9435"
   sodipodi:docname="led_windows.svg"
   inkscape:version="1.0.1 (c497b03c, 2020-09-10)">
  <metadata
     id="metadata9439">
    <rdf:RDF>
      <cc:Work
         rdf:about="">
        <dc:format>image/svg+xml</dc:format>
        <dc:type
           rdf:resource="http://purl.org/dc/dcmitype/StillImage" />
        <dc:title />
      </cc:Work>
    </rdf:RDF>
  </metadata>
  <sodipodi:namedview
     pagecolor="#ffffff"
     bordercolor="#666666"
     borderopacity="1"
     objecttolerance="10"
     gridtolerance="10"
     guidetolerance="10"
     inkscape:pageopacity="0"
     inkscape:pageshadow="2"
     inkscape:window-width="1600"
     inkscape:window-height="784"
     id="namedview9437"
     showgrid="false"
     units="in"
     inkscape:zoom="0.63999997"
     inkscape:cx="602.54568"
     inkscape:cy="1632.014"
     inkscape:window-x="0"
     inkscape:window-y="25"
     inkscape:window-maximized="1"
     inkscape:current-layer="g9431"
     inkscape:document-rotation="0" />
  <defs
     id="defs9423">
    <marker
       id="DistanceX"
       orient="auto"
       refX="0"
       refY="0"
       style="overflow:visible">
      <path
         d="M 3,-3 -3,3 M 0,-5 V 5"
         style="stroke:#000000;stroke-width:0.5"
         id="path9411" />
    </marker>
    <pattern
       id="Hatch"
       patternUnits="userSpaceOnUse"
       width="8"
       height="8"
       x="0"
       y="0">
      <path
         d="M8 4 l-4,4"
         stroke="#000000"
         stroke-width="0.25"
         linecap="square"
         id="path9414" />
      <path
         d="M6 2 l-4,4"
         stroke="#000000"
         stroke-width="0.25"
         linecap="square"
         id="path9416" />
      <path
         d="M4 0 l-4,4"
         stroke="#000000"
         stroke-width="0.25"
         linecap="square"
         id="path9418" />
    </pattern>
    <symbol
       id="*MODEL_SPACE" />
    <symbol
       id="*PAPER_SPACE" />
  </defs>
  <g
     inkscape:groupmode="layer"
     inkscape:label="0"
     id="g9425" />
  <g
     inkscape:groupmode="layer"
     inkscape:label="CUTOUTS"
     id="g9427" />
  <g
     inkscape:groupmode="layer"
     inkscape:label="PERIMETER"
     id="g9431">
    <path
       d="m 543.13217,133.07107 a 2531.7165,2531.7165 0 0 0 -483.649293,0.84573 6.283465,6.283465 0 0 1 -6.894196,-6.18336 287.71654,287.71654 0 0 0 -12.6919,-81.351767 6.283465,6.283465 0 0 1 5.3833,-8.09946 2628.2835,2628.2835 0 0 1 511.720289,-0.89475 6.283465,6.283465 0 0 1 5.4116,8.08062 287.71654,287.71654 0 0 0 -12.4072,81.395497 6.283465,6.283465 0 0 1 -6.8726,6.20749 z"
       style="fill:none;stroke:#0000ff"
       id="path9429" />
    <path
       d="m 1102.1884,133.07107 a 2531.7165,2531.7165 0 0 0 -483.64924,0.84573 6.283465,6.283465 0 0 1 -6.8942,-6.18336 287.71654,287.71654 0 0 0 -12.6919,-81.351767 6.283465,6.283465 0 0 1 5.3833,-8.09946 2628.2835,2628.2835 0 0 1 511.72024,-0.89475 6.283465,6.283465 0 0 1 5.4116,8.08062 287.71654,287.71654 0 0 0 -12.4072,81.395497 6.283465,6.283465 0 0 1 -6.8726,6.20749 z"
       style="fill:none;stroke:#0000ff"
       id="path9429-7" />
    <path
       d="m 543.13217,256.81476 a 2531.7165,2531.7165 0 0 0 -483.649296,0.84573 6.283465,6.283465 0 0 1 -6.894196,-6.18336 287.71654,287.71654 0 0 0 -12.6919,-81.35177 6.283465,6.283465 0 0 1 5.3833,-8.09946 2628.2835,2628.2835 0 0 1 511.720292,-0.89475 6.283465,6.283465 0 0 1 5.4116,8.08062 287.71654,287.71654 0 0 0 -12.4072,81.3955 6.283465,6.283465 0 0 1 -6.8726,6.20749 z"
       style="fill:none;stroke:#0000ff"
       id="path9429-9" />
    <path
       d="m 1102.1884,256.81476 a 2531.7165,2531.7165 0 0 0 -483.64924,0.84573 6.283465,6.283465 0 0 1 -6.8942,-6.18336 287.71654,287.71654 0 0 0 -12.6919,-81.35177 6.283465,6.283465 0 0 1 5.3833,-8.09946 2628.2835,2628.2835 0 0 1 511.72024,-0.89475 6.283465,6.283465 0 0 1 5.4116,8.08062 287.71654,287.71654 0 0 0 -12.4072,81.3955 6.283465,6.283465 0 0 1 -6.8726,6.20749 z"
       style="fill:none;stroke:#0000ff"
       id="path9429-7-8" />
    <path
       d="m 543.13217,378.34874 a 2531.7165,2531.7165 0 0 0 -483.64929,0.84573 6.283465,6.283465 0 0 1 -6.8942,-6.18336 287.71654,287.71654 0 0 0 -12.6919,-81.35177 6.283465,6.283465 0 0 1 5.3833,-8.09946 2628.2835,2628.2835 0 0 1 511.72029,-0.89475 6.283465,6.283465 0 0 1 5.4116,8.08062 287.71654,287.71654 0 0 0 -12.4072,81.3955 6.283465,6.283465 0 0 1 -6.8726,6.20749 z"
       style="fill:none;stroke:#0000ff"
       id="path9429-0" />
    <path
       d="m 1102.1884,378.34874 a 2531.7165,2531.7165 0 0 0 -483.64924,0.84573 6.283465,6.283465 0 0 1 -6.8942,-6.18336 287.71654,287.71654 0 0 0 -12.6919,-81.35177 6.283465,6.283465 0 0 1 5.3833,-8.09946 2628.2835,2628.2835 0 0 1 511.72024,-0.89475 6.283465,6.283465 0 0 1 5.4116,8.08062 287.71654,287.71654 0 0 0 -12.4072,81.3955 6.283465,6.283465 0 0 1 -6.8726,6.20749 z"
       style="fill:none;stroke:#0000ff"
       id="path9429-7-7" />
    <path
       d="m 543.13217,502.09243 a 2531.7165,2531.7165 0 0 0 -483.64929,0.84573 6.283465,6.283465 0 0 1 -6.8942,-6.18336 287.71654,287.71654 0 0 0 -12.6919,-81.35177 6.283465,6.283465 0 0 1 5.3833,-8.09946 2628.2835,2628.2835 0 0 1 511.72029,-0.89475 6.283465,6.283465 0 0 1 5.4116,8.08062 287.71654,287.71654 0 0 0 -12.4072,81.3955 6.283465,6.283465 0 0 1 -6.8726,6.20749 z"
       style="fill:none;stroke:#0000ff"
       id="path9429-9-5" />
    <path
       d="m 1102.1884,502.09243 a 2531.7165,2531.7165 0 0 0 -483.64924,0.84573 6.283465,6.283465 0 0 1 -6.8942,-6.18336 287.71654,287.71654 0 0 0 -12.6919,-81.35177 6.283465,6.283465 0 0 1 5.3833,-8.09946 2628.2835,2628.2835 0 0 1 511.72024,-0.89475 6.283465,6.283465 0 0 1 5.4116,8.08062 287.71654,287.71654 0 0 0 -12.4072,81.3955 6.283465,6.283465 0 0 1 -6.8726,6.20749 z"
       style="fill:none;stroke:#0000ff"
       id="path9429-7-8-8" />
    <path
       d="m 543.13217,629.94607 a 2531.7165,2531.7165 0 0 0 -483.64926,0.84573 6.283465,6.283465 0 0 1 -6.89419,-6.18336 287.71654,287.71654 0 0 0 -12.6919,-81.35177 6.283465,6.283465 0 0 1 5.3833,-8.09946 2628.2835,2628.2835 0 0 1 511.72025,-0.89475 6.283465,6.283465 0 0 1 5.4116,8.08062 287.71654,287.71654 0 0 0 -12.4072,81.3955 6.283465,6.283465 0 0 1 -6.8726,6.20749 z"
       style="fill:none;stroke:#0000ff"
       id="path9429-4" />
    <path
       d="m 1102.1885,629.94607 a 2531.7165,2531.7165 0 0 0 -483.64933,0.84573 6.283465,6.283465 0 0 1 -6.8942,-6.18336 287.71654,287.71654 0 0 0 -12.6919,-81.35177 6.283465,6.283465 0 0 1 5.3833,-8.09946 2628.2835,2628.2835 0 0 1 511.72033,-0.89475 6.283465,6.283465 0 0 1 5.4116,8.08062 287.71654,287.71654 0 0 0 -12.4072,81.3955 6.283465,6.283465 0 0 1 -6.8726,6.20749 z"
       style="fill:none;stroke:#0000ff"
       id="path9429-7-2" />
    <path
       d="m 543.13217,753.68976 a 2531.7165,2531.7165 0 0 0 -483.64926,0.84573 6.283465,6.283465 0 0 1 -6.8942,-6.18336 287.71654,287.71654 0 0 0 -12.6919,-81.35177 6.283465,6.283465 0 0 1 5.3833,-8.09946 2628.2835,2628.2835 0 0 1 511.72026,-0.89475 6.283465,6.283465 0 0 1 5.4116,8.08062 287.71654,287.71654 0 0 0 -12.4072,81.3955 6.283465,6.283465 0 0 1 -6.8726,6.20749 z"
       style="fill:none;stroke:#0000ff"
       id="path9429-9-50" />
    <path
       d="m 1102.1885,753.68976 a 2531.7165,2531.7165 0 0 0 -483.64933,0.84573 6.283465,6.283465 0 0 1 -6.8942,-6.18336 287.71654,287.71654 0 0 0 -12.6919,-81.35177 6.283465,6.283465 0 0 1 5.3833,-8.09946 2628.2835,2628.2835 0 0 1 511.72033,-0.89475 6.283465,6.283465 0 0 1 5.4116,8.08062 287.71654,287.71654 0 0 0 -12.4072,81.3955 6.283465,6.283465 0 0 1 -6.8726,6.20749 z"
       style="fill:none;stroke:#0000ff"
       id="path9429-7-8-7" />
    <path
       d="m 543.13217,875.22374 a 2531.7165,2531.7165 0 0 0 -483.64925,0.84573 6.283465,6.283465 0 0 1 -6.8942,-6.18336 287.71654,287.71654 0 0 0 -12.6919,-81.35177 6.283465,6.283465 0 0 1 5.3833,-8.09946 2628.2835,2628.2835 0 0 1 511.72025,-0.89475 6.283465,6.283465 0 0 1 5.4116,8.08062 287.71654,287.71654 0 0 0 -12.4072,81.3955 6.283465,6.283465 0 0 1 -6.8726,6.20749 z"
       style="fill:none;stroke:#0000ff"
       id="path9429-0-0" />
    <path
       d="m 1102.1885,875.22374 a 2531.7165,2531.7165 0 0 0 -483.64933,0.84573 6.283465,6.283465 0 0 1 -6.8942,-6.18336 287.71654,287.71654 0 0 0 -12.6919,-81.35177 6.283465,6.283465 0 0 1 5.3833,-8.09946 2628.2835,2628.2835 0 0 1 511.72033,-0.89475 6.283465,6.283465 0 0 1 5.4116,8.08062 287.71654,287.71654 0 0 0 -12.4072,81.3955 6.283465,6.283465 0 0 1 -6.8726,6.20749 z"
       style="fill:none;stroke:#0000ff"
       id="path9429-7-7-7" />
    <path
       d="m 543.13217,998.96743 a 2531.7165,2531.7165 0 0 0 -483.64925,0.84573 6.283465,6.283465 0 0 1 -6.8942,-6.18336 287.71654,287.71654 0 0 0 -12.6919,-81.35177 6.283465,6.283465 0 0 1 5.3833,-8.09946 2628.2835,2628.2835 0 0 1 511.72025,-0.89475 6.283465,6.283465 0 0 1 5.4116,8.08062 287.71654,287.71654 0 0 0 -12.4072,81.3955 6.283465,6.283465 0 0 1 -6.8726,6.20749 z"
       style="fill:none;stroke:#0000ff"
       id="path9429-9-5-6" />
    <path
       d="m 1102.1885,998.96743 a 2531.7165,2531.7165 0 0 0 -483.64933,0.84573 6.283465,6.283465 0 0 1 -6.8942,-6.18336 287.71654,287.71654 0 0 0 -12.6919,-81.35177 6.283465,6.283465 0 0 1 5.3833,-8.09946 2628.2835,2628.2835 0 0 1 511.72033,-0.89475 6.283465,6.283465 0 0 1 5.4116,8.08062 287.71654,287.71654 0 0 0 -12.4072,81.3955 6.283465,6.283465 0 0 1 -6.8726,6.20749 z"
       style="fill:none;stroke:#0000ff"
       id="path9429-7-8-8-8" />
    <path
       d="m 543.13217,1129.3403 a 2531.7165,2531.7165 0 0 0 -483.64929,0.8457 6.283465,6.283465 0 0 1 -6.89419,-6.1833 287.71654,287.71654 0 0 0 -12.6919,-81.3518 6.283465,6.283465 0 0 1 5.3833,-8.0995 2628.2835,2628.2835 0 0 1 511.72028,-0.8947 6.283465,6.283465 0 0 1 5.4116,8.0806 287.71654,287.71654 0 0 0 -12.4072,81.3955 6.283465,6.283465 0 0 1 -6.8726,6.2075 z"
       style="fill:none;stroke:#0000ff"
       id="path9429-6" />
    <path
       d="m 1102.1885,1129.3403 a 2531.7165,2531.7165 0 0 0 -483.64934,0.8457 6.283465,6.283465 0 0 1 -6.8942,-6.1833 287.71654,287.71654 0 0 0 -12.6919,-81.3518 6.283465,6.283465 0 0 1 5.3833,-8.0995 2628.2835,2628.2835 0 0 1 511.72034,-0.8947 6.283465,6.283465 0 0 1 5.4116,8.0806 287.71654,287.71654 0 0 0 -12.4072,81.3955 6.283465,6.283465 0 0 1 -6.8726,6.2075 z"
       style="fill:none;stroke:#0000ff"
       id="path9429-7-1" />
    <path
       d="m 543.13217,1253.084 a 2531.7165,2531.7165 0 0 0 -483.64929,0.8457 6.283465,6.283465 0 0 1 -6.8942,-6.1834 287.71654,287.71654 0 0 0 -12.6919,-81.3517 6.283465,6.283465 0 0 1 5.3833,-8.0995 2628.2835,2628.2835 0 0 1 511.72029,-0.8947 6.283465,6.283465 0 0 1 5.4116,8.0806 287.71654,287.71654 0 0 0 -12.4072,81.3955 6.283465,6.283465 0 0 1 -6.8726,6.2075 z"
       style="fill:none;stroke:#0000ff"
       id="path9429-9-6" />
    <path
       d="m 1102.1885,1253.084 a 2531.7165,2531.7165 0 0 0 -483.64934,0.8457 6.283465,6.283465 0 0 1 -6.8942,-6.1834 287.71654,287.71654 0 0 0 -12.6919,-81.3517 6.283465,6.283465 0 0 1 5.3833,-8.0995 2628.2835,2628.2835 0 0 1 511.72034,-0.8947 6.283465,6.283465 0 0 1 5.4116,8.0806 287.71654,287.71654 0 0 0 -12.4072,81.3955 6.283465,6.283465 0 0 1 -6.8726,6.2075 z"
       style="fill:none;stroke:#0000ff"
       id="path9429-7-8-1" />
    <path
       d="m 543.13217,1374.6179 a 2531.7165,2531.7165 0 0 0 -483.64928,0.8458 6.283465,6.283465 0 0 1 -6.8942,-6.1834 287.71654,287.71654 0 0 0 -12.6919,-81.3518 6.283465,6.283465 0 0 1 5.3833,-8.0994 2628.2835,2628.2835 0 0 1 511.72028,-0.8948 6.283465,6.283465 0 0 1 5.4116,8.0807 287.71654,287.71654 0 0 0 -12.4072,81.3955 6.283465,6.283465 0 0 1 -6.8726,6.2074 z"
       style="fill:none;stroke:#0000ff"
       id="path9429-0-4" />
    <path
       d="m 1102.1885,1374.6179 a 2531.7165,2531.7165 0 0 0 -483.64934,0.8458 6.283465,6.283465 0 0 1 -6.8942,-6.1834 287.71654,287.71654 0 0 0 -12.6919,-81.3518 6.283465,6.283465 0 0 1 5.3833,-8.0994 2628.2835,2628.2835 0 0 1 511.72034,-0.8948 6.283465,6.283465 0 0 1 5.4116,8.0807 287.71654,287.71654 0 0 0 -12.4072,81.3955 6.283465,6.283465 0 0 1 -6.8726,6.2074 z"
       style="fill:none;stroke:#0000ff"
       id="path9429-7-7-9" />
    <path
       d="m 543.13217,1498.3616 a 2531.7165,2531.7165 0 0 0 -483.64928,0.8458 6.283465,6.283465 0 0 1 -6.8942,-6.1834 287.71654,287.71654 0 0 0 -12.6919,-81.3518 6.283465,6.283465 0 0 1 5.3833,-8.0994 2628.2835,2628.2835 0 0 1 511.72028,-0.8948 6.283465,6.283465 0 0 1 5.4116,8.0806 287.71654,287.71654 0 0 0 -12.4072,81.3955 6.283465,6.283465 0 0 1 -6.8726,6.2075 z"
       style="fill:none;stroke:#0000ff"
       id="path9429-9-5-64" />
    <path
       d="m 1102.1885,1498.3616 a 2531.7165,2531.7165 0 0 0 -483.64934,0.8458 6.283465,6.283465 0 0 1 -6.8942,-6.1834 287.71654,287.71654 0 0 0 -12.6919,-81.3518 6.283465,6.283465 0 0 1 5.3833,-8.0994 2628.2835,2628.2835 0 0 1 511.72034,-0.8948 6.283465,6.283465 0 0 1 5.4116,8.0806 287.71654,287.71654 0 0 0 -12.4072,81.3955 6.283465,6.283465 0 0 1 -6.8726,6.2075 z"
       style="fill:none;stroke:#0000ff"
       id="path9429-7-8-8-2" />
    <path
       d="m 543.13217,1630.9441 a 2531.7165,2531.7165 0 0 0 -483.64928,0.8458 6.283465,6.283465 0 0 1 -6.8942,-6.1834 287.71654,287.71654 0 0 0 -12.6919,-81.3518 6.283465,6.283465 0 0 1 5.3833,-8.0994 2628.2835,2628.2835 0 0 1 511.72028,-0.8948 6.283465,6.283465 0 0 1 5.4116,8.0806 287.71654,287.71654 0 0 0 -12.4072,81.3955 6.283465,6.283465 0 0 1 -6.8726,6.2075 z"
       style="fill:none;stroke:#0000ff"
       id="path9429-9-5-64-8" />
    <path
       d="m 1102.1885,1630.9441 a 2531.7165,2531.7165 0 0 0 -483.64934,0.8458 6.283465,6.283465 0 0 1 -6.8942,-6.1834 287.71654,287.71654 0 0 0 -12.6919,-81.3518 6.283465,6.283465 0 0 1 5.3833,-8.0994 2628.2835,2628.2835 0 0 1 511.72034,-0.8948 6.283465,6.283465 0 0 1 5.4116,8.0806 287.71654,287.71654 0 0 0 -12.4072,81.3955 6.283465,6.283465 0 0 1 -6.8726,6.2075 z"
       style="fill:none;stroke:#0000ff"
       id="path9429-7-8-8-2-4" />
    <rect
       style="fill:none;stroke:#000000;stroke-width:0.303849;stroke-miterlimit:4;stroke-dasharray:none"
       id="rect3959"
       width="1151.6962"
       height="1727.6962"
       x="0.1519247"
       y="0.15192482" />
  </g>
  <desc
     id="desc9433">portal v7 - Body150.dxf - scale = 25.400000, origin = (0.000000, 0.000000), method = file</desc>
</svg>
