0
SECTION
2
HEADER
9
$INSUNITS
70
1
9
$ACADVER
1
AC1014
9
$HANDSEED
5
FFFF
0
ENDSEC
0
SECTION
2
TABLES
0
TABLE
2
VPORT
5
8
100
AcDbSymbolTable
0
ENDTAB
0
TABLE
2
LTYPE
5
5
100
AcDbSymbolTable
70
2
0
LTYPE
5
14
100
AcDbSymbolTableRecord
100
AcDbLinetypeTableRecord
2
BYBLOCK
70
0
0
LTYPE
5
15
100
AcDbSymbolTableRecord
100
AcDbLinetypeTableRecord
2
BYLAYER
70
0
0
ENDTAB
0
TABLE
2
LAYER
5
2
100
AcDbSymbolTable
70
3
0
LAYER
5
50
100
AcDbSymbolTableRecord
100
AcDbLayerTableRecord
2
0
70
0
6
CONTINUOUS
0
LAYER
5
51
100
AcDbSymbolTableRecord
100
AcDbLayerTableRecord
2
CUTOUTS
70
0
62
1
6
CONTINUOUS
0
LAYER
5
52
100
AcDbSymbolTableRecord
100
AcDbLayerTableRecord
2
PERIMETER
70
0
62
5
6
CONTINUOUS
0
ENDTAB
0
TABLE
2
STYLE
5
3
100
AcDbSymbolTable
70
1
0
STYLE
5
11
100
AcDbSymbolTableRecord
100
AcDbTextStyleTableRecord
2
STANDARD
70
0
0
ENDTAB
0
TABLE
2
VIEW
5
6
100
AcDbSymbolTable
0
ENDTAB
0
TABLE
2
UCS
5
7
100
AcDbSymbolTable
0
ENDTAB
0
TABLE
2
APPID
5
9
100
AcDbSymbolTable
70
1
0
APPID
5
12
100
AcDbSymbolTableRecord
100
AcDbRegAppTableRecord
2
ACAD
70
0
0
ENDTAB
0
TABLE
2
DIMSTYLE
5
A
100
AcDbSymbolTable
0
ENDTAB
0
TABLE
2
BLOCK_RECORD
5
1
100
AcDbSymbolTable
70
2
0
BLOCK_RECORD
5
1F
100
AcDbSymbolTableRecord
100
AcDbBlockTableRecord
2
*MODEL_SPACE
0
BLOCK_RECORD
5
1B
100
AcDbSymbolTableRecord
100
AcDbBlockTableRecord
2
*PAPER_SPACE
0
ENDTAB
0
ENDSEC
0
SECTION
2
BLOCKS
0
BLOCK
5
20
100
AcDbEntity
100
AcDbBlockBegin
2
*MODEL_SPACE
0
ENDBLK
5
21
100
AcDbEntity
100
AcDbBlockEnd
0
BLOCK
5
1C
100
AcDbEntity
100
AcDbBlockBegin
2
*PAPER_SPACE
0
ENDBLK
5
1D
100
AcDbEntity
100
AcDbBlockEnd
0
ENDSEC
0
SECTION
2
ENTITIES
0
LWPOLYLINE
5
100
100
AcDbEntity
8
CUTOUTS
100
AcDbPolyline
90
4
70
1
43
0.0
10
27.951129803529906
20
-25.002952755905508
10
27.951129803529906
20
-27.997047244094489
10
27.457035315340928
20
-27.997047244094489
10
27.457035315340928
20
-25.002952755905508
0
LWPOLYLINE
5
101
100
AcDbEntity
8
CUTOUTS
100
AcDbPolyline
90
4
70
1
43
0.0
10
26.457035315340928
20
-22.747047244094489
10
26.457035315340928
20
-19.752952755905508
10
26.951129803529909
20
-19.752952755905508
10
26.951129803529909
20
-22.747047244094485
0
LWPOLYLINE
5
102
100
AcDbEntity
8
CUTOUTS
100
AcDbPolyline
90
4
70
1
43
0.0
10
26.457035315340928
20
-26.247047244094489
10
26.457035315340928
20
-23.252952755905508
10
26.951129803529909
20
-23.252952755905508
10
26.951129803529909
20
-26.247047244094482
0
LWPOLYLINE
5
103
100
AcDbEntity
8
CUTOUTS
100
AcDbPolyline
90
4
70
1
43
0.0
10
25.951129803529909
20
-25.002952755905508
10
25.951129803529909
20
-27.997047244094489
10
25.457035315340928
20
-27.997047244094489
10
25.457035315340928
20
-25.002952755905508
0
LWPOLYLINE
5
104
100
AcDbEntity
8
CUTOUTS
100
AcDbPolyline
90
4
70
1
43
0.0
10
24.457035315340931
20
-26.247047244094489
10
24.457035315340931
20
-23.252952755905508
10
24.951129803529909
20
-23.252952755905508
10
24.951129803529909
20
-26.247047244094482
0
LWPOLYLINE
5
105
100
AcDbEntity
8
CUTOUTS
100
AcDbPolyline
90
4
70
1
43
0.0
10
24.457035315340935
20
-19.752952755905511
10
24.951129803529909
20
-19.752952755905511
10
24.951129803529909
20
-22.747047244094482
10
24.457035315340935
20
-22.747047244094485
0
LWPOLYLINE
5
106
100
AcDbEntity
8
CUTOUTS
100
AcDbPolyline
90
4
70
1
43
0.0
10
25.951129803529909
20
-21.502952755905508
10
25.951129803529909
20
-24.497047244094489
10
25.457035315340928
20
-24.497047244094489
10
25.457035315340928
20
-21.502952755905508
0
LWPOLYLINE
5
107
100
AcDbEntity
8
CUTOUTS
100
AcDbPolyline
90
4
70
1
43
0.0
10
27.951129803529906
20
-21.502952755905508
10
27.951129803529906
20
-24.497047244094489
10
27.457035315340928
20
-24.497047244094489
10
27.457035315340928
20
-21.502952755905508
0
LWPOLYLINE
5
108
100
AcDbEntity
8
PERIMETER
100
AcDbPolyline
90
24
70
1
43
0.0
10
25.457035315340931
20
-17.997047244094485
10
24.951129803529909
20
-17.997047244094485
10
24.951129803529909
20
-19.247047244094482
10
24.457035315340935
20
-19.247047244094485
10
24.457035315340935
20
-17.997047244094485
10
23.997047244094485
20
-17.997047244094485
10
23.997047244094492
20
-31.517447637795136
10
28.502952755905511
20
-31.517447637795136
10
28.502952755905511
20
-19.752952755905511
10
28.997047244094489
20
-19.752952755905511
10
28.997047244094489
20
-31.517447637795136
10
30.002952755905515
20
-31.517447637795136
10
30.002952755905508
20
-17.997047244094485
10
27.951129803529902
20
-17.997047244094485
10
27.951129803529902
20
-20.997047244094485
10
27.457035315340928
20
-20.997047244094485
10
27.457035315340928
20
-17.997047244094485
10
26.951129803529906
20
-17.997047244094485
10
26.951129803529906
20
-19.247047244094482
10
26.457035315340928
20
-19.247047244094485
10
26.457035315340928
20
-17.997047244094485
10
25.951129803529909
20
-17.997047244094485
10
25.951129803529909
20
-20.997047244094485
10
25.457035315340931
20
-20.997047244094485
0
ENDSEC
0
SECTION
2
OBJECTS
0
DICTIONARY
5
C
100
AcDbDictionary
3
ACAD_GROUP
350
D
3
ACAD_MLINESTYLE
350
17
0
DICTIONARY
5
D
100
AcDbDictionary
0
DICTIONARY
5
1A
330
C
100
AcDbDictionary
0
DICTIONARY
5
17
100
AcDbDictionary
0
ENDSEC
0
EOF
