0
SECTION
2
HEADER
9
$INSUNITS
70
1
9
$ACADVER
1
AC1014
9
$HANDSEED
5
FFFF
0
ENDSEC
0
SECTION
2
TABLES
0
TABLE
2
VPORT
5
8
100
AcDbSymbolTable
0
ENDTAB
0
TABLE
2
LTYPE
5
5
100
AcDbSymbolTable
70
2
0
LTYPE
5
14
100
AcDbSymbolTableRecord
100
AcDbLinetypeTableRecord
2
BYBLOCK
70
0
0
LTYPE
5
15
100
AcDbSymbolTableRecord
100
AcDbLinetypeTableRecord
2
BYLAYER
70
0
0
ENDTAB
0
TABLE
2
LAYER
5
2
100
AcDbSymbolTable
70
3
0
LAYER
5
50
100
AcDbSymbolTableRecord
100
AcDbLayerTableRecord
2
0
70
0
6
CONTINUOUS
0
LAYER
5
51
100
AcDbSymbolTableRecord
100
AcDbLayerTableRecord
2
CUTOUTS
70
0
62
1
6
CONTINUOUS
0
LAYER
5
52
100
AcDbSymbolTableRecord
100
AcDbLayerTableRecord
2
PERIMETER
70
0
62
5
6
CONTINUOUS
0
ENDTAB
0
TABLE
2
STYLE
5
3
100
AcDbSymbolTable
70
1
0
STYLE
5
11
100
AcDbSymbolTableRecord
100
AcDbTextStyleTableRecord
2
STANDARD
70
0
0
ENDTAB
0
TABLE
2
VIEW
5
6
100
AcDbSymbolTable
0
ENDTAB
0
TABLE
2
UCS
5
7
100
AcDbSymbolTable
0
ENDTAB
0
TABLE
2
APPID
5
9
100
AcDbSymbolTable
70
1
0
APPID
5
12
100
AcDbSymbolTableRecord
100
AcDbRegAppTableRecord
2
ACAD
70
0
0
ENDTAB
0
TABLE
2
DIMSTYLE
5
A
100
AcDbSymbolTable
0
ENDTAB
0
TABLE
2
BLOCK_RECORD
5
1
100
AcDbSymbolTable
70
2
0
BLOCK_RECORD
5
1F
100
AcDbSymbolTableRecord
100
AcDbBlockTableRecord
2
*MODEL_SPACE
0
BLOCK_RECORD
5
1B
100
AcDbSymbolTableRecord
100
AcDbBlockTableRecord
2
*PAPER_SPACE
0
ENDTAB
0
ENDSEC
0
SECTION
2
BLOCKS
0
BLOCK
5
20
100
AcDbEntity
100
AcDbBlockBegin
2
*MODEL_SPACE
0
ENDBLK
5
21
100
AcDbEntity
100
AcDbBlockEnd
0
BLOCK
5
1C
100
AcDbEntity
100
AcDbBlockBegin
2
*PAPER_SPACE
0
ENDBLK
5
1D
100
AcDbEntity
100
AcDbBlockEnd
0
ENDSEC
0
SECTION
2
ENTITIES
0
LWPOLYLINE
5
100
100
AcDbEntity
8
CUTOUTS
100
AcDbPolyline
90
4
70
1
43
0.0
10
33.997047451810474
20
-31.573169031766209
10
33.002952963621489
20
-31.573169024338533
10
33.002952963621489
20
-30.579074536149548
10
33.997047451810474
20
-30.579074543577224
0
LWPOLYLINE
5
101
100
AcDbEntity
8
CUTOUTS
100
AcDbPolyline
90
4
70
1
43
0.0
10
33.997047451810474
20
-33.573169031766213
10
33.002952963621489
20
-33.573169024338533
10
33.002952963621489
20
-32.579074536149548
10
33.997047451810474
20
-32.579074543577228
0
LWPOLYLINE
5
102
100
AcDbEntity
8
CUTOUTS
100
AcDbPolyline
90
4
70
1
43
0.0
10
33.997047451810474
20
-35.573169031766206
10
33.002952963621489
20
-35.573169024338533
10
33.002952963621489
20
-34.579074536149548
10
33.997047451810474
20
-34.579074543577221
0
LWPOLYLINE
5
103
100
AcDbEntity
8
PERIMETER
100
AcDbPolyline
90
26
70
1
43
0.0
10
33.747047244094489
20
-17.997047244094489
10
33.747047244094489
20
-19.124647218764203
10
31.201098115170289
20
-22.158791281296246
10
29.997047244094489
20
-22.158791281296246
10
29.997047244094489
20
-38.662063815318689
10
26.497047244094485
20
-38.662063815318689
10
26.497047244094489
20
-40.16609128648286
10
28.997047244094489
20
-43.145475267968408
10
28.997047244094489
20
-53.362374606371439
42
-0.024213599372444664
10
29.502952755911004
20
-56.197027685497403
10
29.50295275542917
20
-45.131841599937012
10
35.002952963621496
20
-38.577196502941185
10
35.002952963621496
20
-24.192828356878625
10
36.002952994938966
20
-23.001074715255353
10
36.002953000577129
20
-21.491887369703164
10
33.997047451810474
20
-23.882432546606264
10
33.997047451810474
20
-29.573169031766209
10
33.002952963621489
20
-29.573169024338533
10
33.002952963621503
20
-24.076335590477147
10
36.002953004278694
20
-20.501074715252155
10
36.002953009916858
20
-18.991887369703164
10
31.997047451810467
20
-23.765939775584698
10
31.997047451810467
20
-38.662063819043553
10
31.002952963621485
20
-38.662063815329724
10
31.002952963621485
20
-23.959842665623036
10
36.006332334054271
20
-17.997047244094489
0
ENDSEC
0
SECTION
2
OBJECTS
0
DICTIONARY
5
C
100
AcDbDictionary
3
ACAD_GROUP
350
D
3
ACAD_MLINESTYLE
350
17
0
DICTIONARY
5
D
100
AcDbDictionary
0
DICTIONARY
5
1A
330
C
100
AcDbDictionary
0
DICTIONARY
5
17
100
AcDbDictionary
0
ENDSEC
0
EOF
