  0
SECTION
  2
HEADER
  9
$ACADVER
  1
AC1014
  9
$HANDSEED
  5
FFFF
  9
$MEASUREMENT
 70
     1
  0
ENDSEC
  0
SECTION
  2
TABLES
  0
TABLE
  2
VPORT
  5
8
330
0
100
AcDbSymbolTable
 70
     4
  0
VPORT
  5
2E
330
8
100
AcDbSymbolTableRecord
100
AcDbViewportTableRecord
  2
*ACTIVE
 70
     0
 10
0.0
 20
0.0
 11
1.0
 21
1.0
 12
210.0
 22
148.5
 13
0.0
 23
0.0
 14
10.0
 24
10.0
 15
10.0
 25
10.0
 16
0.0
 26
0.0
 36
1.0
 17
0.0
 27
0.0
 37
0.0
 40
341.0
 41
1.24
 42
50.0
 43
0.0
 44
0.0
 50
0.0
 51
0.0
 71
     0
 72
   100
 73
     1
 74
     3
 75
     0
 76
     0
 77
     0
 78
     0
  0
ENDTAB
  0
TABLE
  2
LTYPE
  5
5
330
0
100
AcDbSymbolTable
 70
     1
  0
LTYPE
  5
14
330
5
100
AcDbSymbolTableRecord
100
AcDbLinetypeTableRecord
  2
BYBLOCK
 70
     0
  3

 72
    65
 73
     0
 40
0.0
  0
LTYPE
  5
15
330
5
100
AcDbSymbolTableRecord
100
AcDbLinetypeTableRecord
  2
BYLAYER
 70
     0
  3

 72
    65
 73
     0
 40
0.0
  0
LTYPE
  5
16
330
5
100
AcDbSymbolTableRecord
100
AcDbLinetypeTableRecord
  2
CONTINUOUS
 70
     0
  3
Solid line
 72
    65
 73
     0
 40
0.0
  0
ENDTAB
  0
TABLE
  2
LAYER
  5
2
100
AcDbSymbolTable
 70
2
  0
LAYER
  5
50
100
AcDbSymbolTableRecord
100
AcDbLayerTableRecord
  2
0
 70
0
  6
CONTINUOUS
  0
LAYER
  5
51
100
AcDbSymbolTableRecord
100
AcDbLayerTableRecord
  2
Layer_1
 70
0
  6
CONTINUOUS
  0
ENDTAB
  0
TABLE
  2
STYLE
  5
3
330
0
100
AcDbSymbolTable
 70
     1
  0
STYLE
  5
11
330
3
100
AcDbSymbolTableRecord
100
AcDbTextStyleTableRecord
  2
STANDARD
 70
     0
 40
0.0
 41
1.0
 50
0.0
 71
     0
 42
2.5
  3
txt
  4

  0
ENDTAB
  0
TABLE
  2
VIEW
  5
6
330
0
100
AcDbSymbolTable
 70
     0
  0
ENDTAB
  0
TABLE
  2
UCS
  5
7
330
0
100
AcDbSymbolTable
 70
     0
  0
ENDTAB
  0
TABLE
  2
APPID
  5
9
330
0
100
AcDbSymbolTable
 70
     2
  0
APPID
  5
12
330
9
100
AcDbSymbolTableRecord
100
AcDbRegAppTableRecord
  2
ACAD
 70
     0
  0
ENDTAB
  0
TABLE
  2
DIMSTYLE
  5
A
330
0
100
AcDbSymbolTable
 70
     1
  0
DIMSTYLE
105
27
330
A
100
AcDbSymbolTableRecord
100
AcDbDimStyleTableRecord
  2
ISO-25
 70
     0
  3

  4

  5

  6

  7

 40
1.0
 41
2.5
 42
0.625
 43
3.75
 44
1.25
 45
0.0
 46
0.0
 47
0.0
 48
0.0
140
2.5
141
2.5
142
0.0
143
0.03937007874016
144
1.0
145
0.0
146
1.0
147
0.625
 71
     0
 72
     0
 73
     0
 74
     0
 75
     0
 76
     0
 77
     1
 78
     8
170
     0
171
     3
172
     1
173
     0
174
     0
175
     0
176
     0
177
     0
178
     0
270
     2
271
     2
272
     2
273
     2
274
     3
340
11
275
     0
280
     0
281
     0
282
     0
283
     0
284
     8
285
     0
286
     0
287
     3
288
     0
  0
ENDTAB
  0
TABLE
  2
BLOCK_RECORD
  5
1
330
0
100
AcDbSymbolTable
 70
     1
  0
BLOCK_RECORD
  5
1F
330
1
100
AcDbSymbolTableRecord
100
AcDbBlockTableRecord
  2
*MODEL_SPACE
  0
BLOCK_RECORD
  5
1B
330
1
100
AcDbSymbolTableRecord
100
AcDbBlockTableRecord
  2
*PAPER_SPACE
  0
ENDTAB
  0
ENDSEC
  0
SECTION
  2
BLOCKS
  0
BLOCK
  5
20
330
1F
100
AcDbEntity
  8
0
100
AcDbBlockBegin
  2
*MODEL_SPACE
 70
     0
 10
0.0
 20
0.0
 30
0.0
  3
*MODEL_SPACE
  1

  0
ENDBLK
  5
21
330
1F
100
AcDbEntity
  8
0
100
AcDbBlockEnd
  0
BLOCK
  5
1C
330
1B
100
AcDbEntity
 67
     1
  8
0
100
AcDbBlockBegin
  2
*PAPER_SPACE
  1

  0
ENDBLK
  5
1D
330
1B
100
AcDbEntity
 67
     1
  8
0
100
AcDbBlockEnd
  0
ENDSEC
  0
SECTION
  2
ENTITIES
  0
SPLINE
  5
100
100
AcDbEntity
  8
Layer_1
 62
5
100
AcDbSpline
 70
8
 71
3
 72
8
 73
4
 74
0
 40
0
 40
0
 40
0
 40
0
 40
1
 40
1
 40
1
 40
1
 10
8.823217
 20
22.952503
 30
0.0
 10
8.991765
 20
23.245980
 30
0.0
 10
9.336553
 20
23.389487
 30
0.0
 10
9.663555
 20
23.302267
 30
0.0
  0
SPLINE
  5
101
100
AcDbEntity
  8
Layer_1
 62
5
100
AcDbSpline
 70
8
 71
3
 72
8
 73
4
 74
0
 40
0
 40
0
 40
0
 40
0
 40
1
 40
1
 40
1
 40
1
 10
9.663555
 20
23.302267
 30
0.0
 10
9.990556
 20
23.215046
 30
0.0
 10
10.218074
 20
22.918890
 30
0.0
 10
10.218074
 20
22.580456
 30
0.0
  0
SPLINE
  5
102
100
AcDbEntity
  8
Layer_1
 62
5
100
AcDbSpline
 70
8
 71
3
 72
8
 73
4
 74
0
 40
0
 40
0
 40
0
 40
0
 40
1
 40
1
 40
1
 40
1
 10
10.218074
 20
22.580456
 30
0.0
 10
10.218074
 20
22.242022
 30
0.0
 10
9.990556
 20
21.945865
 30
0.0
 10
9.663555
 20
21.858644
 30
0.0
  0
SPLINE
  5
103
100
AcDbEntity
  8
Layer_1
 62
5
100
AcDbSpline
 70
8
 71
3
 72
8
 73
4
 74
0
 40
0
 40
0
 40
0
 40
0
 40
1
 40
1
 40
1
 40
1
 10
9.663555
 20
21.858644
 30
0.0
 10
9.336553
 20
21.771424
 30
0.0
 10
8.991765
 20
21.914931
 30
0.0
 10
8.823217
 20
22.208409
 30
0.0
  0
LWPOLYLINE
  5
104
100
AcDbEntity
  8
Layer_1
 62
5
100
AcDbPolyline
 90
5
 70
0
 10
2.348192
 20
43.541063
 30
0.0
 10
5.598188
 20
39.667869
 30
0.0
 10
5.598188
 20
23.691219
 30
0.0
 10
6.218045
 20
22.952503
 30
0.0
 10
8.823217
 20
22.952503
 30
0.0
  0
SPLINE
  5
105
100
AcDbEntity
  8
Layer_1
 62
5
100
AcDbSpline
 70
8
 71
3
 72
8
 73
4
 74
0
 40
0
 40
0
 40
0
 40
0
 40
1
 40
1
 40
1
 40
1
 10
6.785715
 20
19.553467
 30
0.0
 10
7.118873
 20
19.612996
 30
0.0
 10
7.450431
 20
19.441117
 30
0.0
 10
7.593809
 20
19.134555
 30
0.0
  0
SPLINE
  5
106
100
AcDbEntity
  8
Layer_1
 62
5
100
AcDbSpline
 70
8
 71
3
 72
8
 73
4
 74
0
 40
0
 40
0
 40
0
 40
0
 40
1
 40
1
 40
1
 40
1
 10
7.593809
 20
19.134555
 30
0.0
 10
7.737187
 20
18.827993
 30
0.0
 10
7.656563
 20
18.463339
 30
0.0
 10
7.397308
 20
18.245797
 30
0.0
  0
SPLINE
  5
107
100
AcDbEntity
  8
Layer_1
 62
5
100
AcDbSpline
 70
8
 71
3
 72
8
 73
4
 74
0
 40
0
 40
0
 40
0
 40
0
 40
1
 40
1
 40
1
 40
1
 10
7.397308
 20
18.245797
 30
0.0
 10
7.138052
 20
18.028256
 30
0.0
 10
6.764938
 20
18.012179
 30
0.0
 10
6.487930
 20
18.206612
 30
0.0
  0
SPLINE
  5
108
100
AcDbEntity
  8
Layer_1
 62
5
100
AcDbSpline
 70
8
 71
3
 72
8
 73
4
 74
0
 40
0
 40
0
 40
0
 40
0
 40
1
 40
1
 40
1
 40
1
 10
6.487930
 20
18.206612
 30
0.0
 10
6.210923
 20
18.401046
 30
0.0
 10
6.099230
 20
18.757414
 30
0.0
 10
6.215706
 20
19.075173
 30
0.0
  0
LWPOLYLINE
  5
109
100
AcDbEntity
  8
Layer_1
 62
5
100
AcDbPolyline
 90
7
 70
0
 10
8.823217
 20
22.208409
 30
0.0
 10
5.871069
 20
22.208409
 30
0.0
 10
4.854095
 20
23.420390
 30
0.0
 10
4.854095
 20
28.619807
 30
0.0
 10
3.848191
 20
27.779732
 30
0.0
 10
3.848191
 20
23.054272
 30
0.0
 10
6.785715
 20
19.553467
 30
0.0
  0
SPLINE
  5
10a
100
AcDbEntity
  8
Layer_1
 62
5
100
AcDbSpline
 70
8
 71
3
 72
8
 73
4
 74
0
 40
0
 40
0
 40
0
 40
0
 40
1
 40
1
 40
1
 40
1
 10
4.708791
 20
12.984767
 30
0.0
 10
5.002269
 20
12.816219
 30
0.0
 10
5.145776
 20
12.471431
 30
0.0
 10
5.058556
 20
12.144429
 30
0.0
  0
SPLINE
  5
10b
100
AcDbEntity
  8
Layer_1
 62
5
100
AcDbSpline
 70
8
 71
3
 72
8
 73
4
 74
0
 40
0
 40
0
 40
0
 40
0
 40
1
 40
1
 40
1
 40
1
 10
5.058556
 20
12.144429
 30
0.0
 10
4.971335
 20
11.817427
 30
0.0
 10
4.675179
 20
11.589910
 30
0.0
 10
4.336745
 20
11.589910
 30
0.0
  0
SPLINE
  5
10c
100
AcDbEntity
  8
Layer_1
 62
5
100
AcDbSpline
 70
8
 71
3
 72
8
 73
4
 74
0
 40
0
 40
0
 40
0
 40
0
 40
1
 40
1
 40
1
 40
1
 10
4.336745
 20
11.589910
 30
0.0
 10
3.998311
 20
11.589910
 30
0.0
 10
3.702154
 20
11.817427
 30
0.0
 10
3.614933
 20
12.144429
 30
0.0
  0
SPLINE
  5
10d
100
AcDbEntity
  8
Layer_1
 62
5
100
AcDbSpline
 70
8
 71
3
 72
8
 73
4
 74
0
 40
0
 40
0
 40
0
 40
0
 40
1
 40
1
 40
1
 40
1
 10
3.614933
 20
12.144429
 30
0.0
 10
3.527713
 20
12.471431
 30
0.0
 10
3.671220
 20
12.816219
 30
0.0
 10
3.964698
 20
12.984767
 30
0.0
  0
LWPOLYLINE
  5
10e
100
AcDbEntity
  8
Layer_1
 62
5
100
AcDbPolyline
 90
9
 70
0
 10
6.215706
 20
19.075173
 30
0.0
 10
3.104098
 20
22.783443
 30
0.0
 10
3.104098
 20
28.127763
 30
0.0
 10
4.854095
 20
29.589262
 30
0.0
 10
4.854095
 20
30.899823
 30
0.0
 10
2.098193
 20
28.598249
 30
0.0
 10
2.098193
 20
22.417325
 30
0.0
 10
4.708791
 20
19.306135
 30
0.0
 10
4.708791
 20
12.984767
 30
0.0
  0
SPLINE
  5
10f
100
AcDbEntity
  8
Layer_1
 62
5
100
AcDbSpline
 70
8
 71
3
 72
8
 73
4
 74
0
 40
0
 40
0
 40
0
 40
0
 40
1
 40
1
 40
1
 40
1
 10
2.938216
 20
33.786141
 30
0.0
 10
2.996969
 20
33.452846
 30
0.0
 10
2.824321
 20
33.121688
 30
0.0
 10
2.517426
 20
32.979023
 30
0.0
  0
SPLINE
  5
110
100
AcDbEntity
  8
Layer_1
 62
5
100
AcDbSpline
 70
8
 71
3
 72
8
 73
4
 74
0
 40
0
 40
0
 40
0
 40
0
 40
1
 40
1
 40
1
 40
1
 10
2.517426
 20
32.979023
 30
0.0
 10
2.210531
 20
32.836358
 30
0.0
 10
1.846065
 20
32.917830
 30
0.0
 10
1.629127
 20
33.177590
 30
0.0
  0
SPLINE
  5
111
100
AcDbEntity
  8
Layer_1
 62
5
100
AcDbSpline
 70
8
 71
3
 72
8
 73
4
 74
0
 40
0
 40
0
 40
0
 40
0
 40
1
 40
1
 40
1
 40
1
 10
1.629127
 20
33.177590
 30
0.0
 10
1.412189
 20
33.437351
 30
0.0
 10
1.396980
 20
33.810502
 30
0.0
 10
1.592057
 20
34.087057
 30
0.0
  0
SPLINE
  5
112
100
AcDbEntity
  8
Layer_1
 62
5
100
AcDbSpline
 70
8
 71
3
 72
8
 73
4
 74
0
 40
0
 40
0
 40
0
 40
0
 40
1
 40
1
 40
1
 40
1
 10
1.592057
 20
34.087057
 30
0.0
 10
1.787135
 20
34.363611
 30
0.0
 10
2.143761
 20
34.474475
 30
0.0
 10
2.461248
 20
34.357260
 30
0.0
  0
LWPOLYLINE
  5
113
100
AcDbEntity
  8
Layer_1
 62
5
100
AcDbPolyline
 90
7
 70
0
 10
3.964698
 20
12.984767
 30
0.0
 10
3.964698
 20
19.035306
 30
0.0
 10
1.354100
 20
22.146496
 30
0.0
 10
1.354100
 20
28.946279
 30
0.0
 10
4.854095
 20
31.869278
 30
0.0
 10
4.854095
 20
35.386174
 30
0.0
 10
2.938216
 20
33.786141
 30
0.0
  0
SPLINE
  5
114
100
AcDbEntity
  8
Layer_1
 62
5
100
AcDbSpline
 70
8
 71
3
 72
8
 73
4
 74
0
 40
0
 40
0
 40
0
 40
0
 40
1
 40
1
 40
1
 40
1
 10
6.854093
 20
4.355957
 30
0.0
 10
6.853800
 20
10.678285
 30
0.0
 10
8.867866
 20
16.836277
 30
0.0
 10
12.604086
 20
21.936520
 30
0.0
  0
LWPOLYLINE
  5
115
100
AcDbEntity
  8
Layer_1
 62
5
100
AcDbPolyline
 90
12
 70
0
 10
2.461248
 20
34.357260
 30
0.0
 10
4.854095
 20
36.355630
 30
0.0
 10
4.854095
 20
38.230250
 30
0.0
 10
1.604099
 20
42.103444
 30
0.0
 10
1.604099
 20
46.360234
 30
0.0
 10
0.598195
 20
46.360234
 30
0.0
 10
0.598195
 20
23.055876
 30
0.0
 10
0.473195
 20
23.055876
 30
0.0
 10
0.473195
 20
11.805264
 30
0.0
 10
0.502796
 20
11.723937
 30
0.0
 10
6.755020
 20
4.272826
 30
0.0
 10
6.854093
 20
4.355957
 30
0.0
  0
LWPOLYLINE
  5
116
100
AcDbEntity
  8
Layer_1
 62
5
100
AcDbPolyline
 90
6
 70
0
 10
12.604086
 20
21.936520
 30
0.0
 10
12.604086
 20
25.695244
 30
0.0
 10
6.604093
 20
25.695244
 30
0.0
 10
6.604093
 20
46.360234
 30
0.0
 10
2.348192
 20
46.360234
 30
0.0
 10
2.348192
 20
43.541063
 30
0.0
  0
SPLINE
  5
117
100
AcDbEntity
  8
Layer_1
 62
5
100
AcDbSpline
 70
8
 71
3
 72
8
 73
4
 74
0
 40
0
 40
0
 40
0
 40
0
 40
1
 40
1
 40
1
 40
1
 10
13.431450
 20
15.964036
 30
0.0
 10
13.663419
 20
15.830813
 30
0.0
 10
13.806450
 20
15.583727
 30
0.0
 10
13.806450
 20
15.316225
 30
0.0
  0
SPLINE
  5
118
100
AcDbEntity
  8
Layer_1
 62
5
100
AcDbSpline
 70
8
 71
3
 72
8
 73
4
 74
0
 40
0
 40
0
 40
0
 40
0
 40
1
 40
1
 40
1
 40
1
 10
13.806450
 20
15.316225
 30
0.0
 10
13.806450
 20
15.048722
 30
0.0
 10
13.663419
 20
14.801636
 30
0.0
 10
13.431450
 20
14.668414
 30
0.0
  0
LWPOLYLINE
  5
119
100
AcDbEntity
  8
Layer_1
 62
5
100
AcDbPolyline
 90
4
 70
0
 10
15.187354
 20
8.763459
 30
0.0
 10
15.187354
 20
19.302953
 30
0.0
 10
13.431450
 20
17.349425
 30
0.0
 10
13.431450
 20
15.964036
 30
0.0
  0
SPLINE
  5
11a
100
AcDbEntity
  8
Layer_1
 62
5
100
AcDbSpline
 70
8
 71
3
 72
8
 73
4
 74
0
 40
0
 40
0
 40
0
 40
0
 40
1
 40
1
 40
1
 40
1
 10
13.431450
 20
13.741259
 30
0.0
 10
13.809060
 20
13.589384
 30
0.0
 10
14.056449
 20
13.223236
 30
0.0
 10
14.056449
 20
12.816228
 30
0.0
  0
SPLINE
  5
11b
100
AcDbEntity
  8
Layer_1
 62
5
100
AcDbSpline
 70
8
 71
3
 72
8
 73
4
 74
0
 40
0
 40
0
 40
0
 40
0
 40
1
 40
1
 40
1
 40
1
 10
14.056449
 20
12.816228
 30
0.0
 10
14.056449
 20
12.409220
 30
0.0
 10
13.809060
 20
12.043072
 30
0.0
 10
13.431450
 20
11.891197
 30
0.0
  0
LWPOLYLINE
  5
11c
100
AcDbEntity
  8
Layer_1
 62
5
100
AcDbPolyline
 90
2
 70
0
 10
13.431450
 20
14.668414
 30
0.0
 10
13.431450
 20
13.741259
 30
0.0
  0
SPLINE
  5
11d
100
AcDbEntity
  8
Layer_1
 62
5
100
AcDbSpline
 70
8
 71
3
 72
8
 73
4
 74
0
 40
0
 40
0
 40
0
 40
0
 40
1
 40
1
 40
1
 40
1
 10
13.431450
 20
11.006486
 30
0.0
 10
14.019454
 20
10.822689
 30
0.0
 10
14.385132
 20
10.237059
 30
0.0
 10
14.292169
 20
9.628054
 30
0.0
  0
SPLINE
  5
11e
100
AcDbEntity
  8
Layer_1
 62
5
100
AcDbSpline
 70
8
 71
3
 72
8
 73
4
 74
0
 40
0
 40
0
 40
0
 40
0
 40
1
 40
1
 40
1
 40
1
 10
14.292169
 20
9.628054
 30
0.0
 10
14.199206
 20
9.019049
 30
0.0
 10
13.675463
 20
8.569187
 30
0.0
 10
13.059403
 20
8.569187
 30
0.0
  0
SPLINE
  5
11f
100
AcDbEntity
  8
Layer_1
 62
5
100
AcDbSpline
 70
8
 71
3
 72
8
 73
4
 74
0
 40
0
 40
0
 40
0
 40
0
 40
1
 40
1
 40
1
 40
1
 10
13.059403
 20
8.569187
 30
0.0
 10
12.443344
 20
8.569187
 30
0.0
 10
11.919600
 20
9.019049
 30
0.0
 10
11.826638
 20
9.628054
 30
0.0
  0
SPLINE
  5
120
100
AcDbEntity
  8
Layer_1
 62
5
100
AcDbSpline
 70
8
 71
3
 72
8
 73
4
 74
0
 40
0
 40
0
 40
0
 40
0
 40
1
 40
1
 40
1
 40
1
 10
11.826638
 20
9.628054
 30
0.0
 10
11.733675
 20
10.237059
 30
0.0
 10
12.099353
 20
10.822689
 30
0.0
 10
12.687357
 20
11.006486
 30
0.0
  0
LWPOLYLINE
  5
121
100
AcDbEntity
  8
Layer_1
 62
5
100
AcDbPolyline
 90
2
 70
0
 10
13.431450
 20
11.891197
 30
0.0
 10
13.431450
 20
11.006486
 30
0.0
  0
SPLINE
  5
122
100
AcDbEntity
  8
Layer_1
 62
5
100
AcDbSpline
 70
8
 71
3
 72
8
 73
4
 74
0
 40
0
 40
0
 40
0
 40
0
 40
1
 40
1
 40
1
 40
1
 10
12.687357
 20
11.891197
 30
0.0
 10
12.309747
 20
12.043072
 30
0.0
 10
12.062358
 20
12.409220
 30
0.0
 10
12.062358
 20
12.816228
 30
0.0
  0
SPLINE
  5
123
100
AcDbEntity
  8
Layer_1
 62
5
100
AcDbSpline
 70
8
 71
3
 72
8
 73
4
 74
0
 40
0
 40
0
 40
0
 40
0
 40
1
 40
1
 40
1
 40
1
 10
12.062358
 20
12.816228
 30
0.0
 10
12.062358
 20
13.223236
 30
0.0
 10
12.309747
 20
13.589384
 30
0.0
 10
12.687357
 20
13.741259
 30
0.0
  0
LWPOLYLINE
  5
124
100
AcDbEntity
  8
Layer_1
 62
5
100
AcDbPolyline
 90
2
 70
0
 10
12.687357
 20
11.006486
 30
0.0
 10
12.687357
 20
11.891197
 30
0.0
  0
SPLINE
  5
125
100
AcDbEntity
  8
Layer_1
 62
5
100
AcDbSpline
 70
8
 71
3
 72
8
 73
4
 74
0
 40
0
 40
0
 40
0
 40
0
 40
1
 40
1
 40
1
 40
1
 10
12.687357
 20
14.668414
 30
0.0
 10
12.455388
 20
14.801636
 30
0.0
 10
12.312357
 20
15.048722
 30
0.0
 10
12.312357
 20
15.316225
 30
0.0
  0
SPLINE
  5
126
100
AcDbEntity
  8
Layer_1
 62
5
100
AcDbSpline
 70
8
 71
3
 72
8
 73
4
 74
0
 40
0
 40
0
 40
0
 40
0
 40
1
 40
1
 40
1
 40
1
 10
12.312357
 20
15.316225
 30
0.0
 10
12.312357
 20
15.583727
 30
0.0
 10
12.455388
 20
15.830813
 30
0.0
 10
12.687357
 20
15.964036
 30
0.0
  0
LWPOLYLINE
  5
127
100
AcDbEntity
  8
Layer_1
 62
5
100
AcDbPolyline
 90
2
 70
0
 10
12.687357
 20
13.741259
 30
0.0
 10
12.687357
 20
14.668414
 30
0.0
  0
LWPOLYLINE
  5
128
100
AcDbEntity
  8
Layer_1
 62
5
100
AcDbPolyline
 90
14
 70
0
 10
12.687357
 20
15.964036
 30
0.0
 10
12.687357
 20
17.634686
 30
0.0
 10
15.931447
 20
21.243895
 30
0.0
 10
15.931447
 20
8.478198
 30
0.0
 10
13.072781
 20
5.297792
 30
0.0
 10
10.931453
 20
5.297792
 30
0.0
 10
10.931453
 20
4.806867
 30
0.0
 10
16.937352
 20
4.806867
 30
0.0
 10
16.937352
 20
25.528420
 30
0.0
 10
10.961054
 20
18.406145
 30
0.0
 10
10.931453
 20
18.324818
 30
0.0
 10
10.931453
 20
6.087360
 30
0.0
 10
12.781977
 20
6.087360
 30
0.0
 10
15.187354
 20
8.763459
 30
0.0
  0
SPLINE
  5
129
100
AcDbEntity
  8
Layer_1
 62
5
100
AcDbSpline
 70
8
 71
3
 72
8
 73
4
 74
0
 40
0
 40
0
 40
0
 40
0
 40
1
 40
1
 40
1
 40
1
 10
15.176547
 20
28.792143
 30
0.0
 10
15.007999
 20
28.498666
 30
0.0
 10
14.663211
 20
28.355158
 30
0.0
 10
14.336209
 20
28.442379
 30
0.0
  0
SPLINE
  5
12a
100
AcDbEntity
  8
Layer_1
 62
5
100
AcDbSpline
 70
8
 71
3
 72
8
 73
4
 74
0
 40
0
 40
0
 40
0
 40
0
 40
1
 40
1
 40
1
 40
1
 10
14.336209
 20
28.442379
 30
0.0
 10
14.009207
 20
28.529599
 30
0.0
 10
13.781690
 20
28.825756
 30
0.0
 10
13.781690
 20
29.164190
 30
0.0
  0
SPLINE
  5
12b
100
AcDbEntity
  8
Layer_1
 62
5
100
AcDbSpline
 70
8
 71
3
 72
8
 73
4
 74
0
 40
0
 40
0
 40
0
 40
0
 40
1
 40
1
 40
1
 40
1
 10
13.781690
 20
29.164190
 30
0.0
 10
13.781690
 20
29.502624
 30
0.0
 10
14.009207
 20
29.798781
 30
0.0
 10
14.336209
 20
29.886001
 30
0.0
  0
SPLINE
  5
12c
100
AcDbEntity
  8
Layer_1
 62
5
100
AcDbSpline
 70
8
 71
3
 72
8
 73
4
 74
0
 40
0
 40
0
 40
0
 40
0
 40
1
 40
1
 40
1
 40
1
 10
14.336209
 20
29.886001
 30
0.0
 10
14.663211
 20
29.973222
 30
0.0
 10
15.007999
 20
29.829715
 30
0.0
 10
15.176547
 20
29.536237
 30
0.0
  0
LWPOLYLINE
  5
12d
100
AcDbEntity
  8
Layer_1
 62
5
100
AcDbPolyline
 90
5
 70
0
 10
21.651571
 20
8.203583
 30
0.0
 10
18.401575
 20
12.076777
 30
0.0
 10
18.401575
 20
28.053426
 30
0.0
 10
17.781719
 20
28.792143
 30
0.0
 10
15.176547
 20
28.792143
 30
0.0
  0
SPLINE
  5
12e
100
AcDbEntity
  8
Layer_1
 62
5
100
AcDbSpline
 70
8
 71
3
 72
8
 73
4
 74
0
 40
0
 40
0
 40
0
 40
0
 40
1
 40
1
 40
1
 40
1
 10
17.214049
 20
32.191178
 30
0.0
 10
16.880891
 20
32.131650
 30
0.0
 10
16.549333
 20
32.303528
 30
0.0
 10
16.405955
 20
32.610090
 30
0.0
  0
SPLINE
  5
12f
100
AcDbEntity
  8
Layer_1
 62
5
100
AcDbSpline
 70
8
 71
3
 72
8
 73
4
 74
0
 40
0
 40
0
 40
0
 40
0
 40
1
 40
1
 40
1
 40
1
 10
16.405955
 20
32.610090
 30
0.0
 10
16.262577
 20
32.916653
 30
0.0
 10
16.343200
 20
33.281307
 30
0.0
 10
16.602456
 20
33.498848
 30
0.0
  0
SPLINE
  5
130
100
AcDbEntity
  8
Layer_1
 62
5
100
AcDbSpline
 70
8
 71
3
 72
8
 73
4
 74
0
 40
0
 40
0
 40
0
 40
0
 40
1
 40
1
 40
1
 40
1
 10
16.602456
 20
33.498848
 30
0.0
 10
16.861711
 20
33.716390
 30
0.0
 10
17.234826
 20
33.732467
 30
0.0
 10
17.511834
 20
33.538033
 30
0.0
  0
SPLINE
  5
131
100
AcDbEntity
  8
Layer_1
 62
5
100
AcDbSpline
 70
8
 71
3
 72
8
 73
4
 74
0
 40
0
 40
0
 40
0
 40
0
 40
1
 40
1
 40
1
 40
1
 10
17.511834
 20
33.538033
 30
0.0
 10
17.788841
 20
33.343599
 30
0.0
 10
17.900534
 20
32.987232
 30
0.0
 10
17.784058
 20
32.669473
 30
0.0
  0
LWPOLYLINE
  5
132
100
AcDbEntity
  8
Layer_1
 62
5
100
AcDbPolyline
 90
7
 70
0
 10
15.176547
 20
29.536237
 30
0.0
 10
18.128695
 20
29.536237
 30
0.0
 10
19.145668
 20
28.324255
 30
0.0
 10
19.145668
 20
23.124839
 30
0.0
 10
20.151573
 20
23.964914
 30
0.0
 10
20.151573
 20
28.690374
 30
0.0
 10
17.214049
 20
32.191178
 30
0.0
  0
SPLINE
  5
133
100
AcDbEntity
  8
Layer_1
 62
5
100
AcDbSpline
 70
8
 71
3
 72
8
 73
4
 74
0
 40
0
 40
0
 40
0
 40
0
 40
1
 40
1
 40
1
 40
1
 10
19.290972
 20
38.759879
 30
0.0
 10
18.997495
 20
38.928427
 30
0.0
 10
18.853988
 20
39.273215
 30
0.0
 10
18.941208
 20
39.600217
 30
0.0
  0
SPLINE
  5
134
100
AcDbEntity
  8
Layer_1
 62
5
100
AcDbSpline
 70
8
 71
3
 72
8
 73
4
 74
0
 40
0
 40
0
 40
0
 40
0
 40
1
 40
1
 40
1
 40
1
 10
18.941208
 20
39.600217
 30
0.0
 10
19.028428
 20
39.927218
 30
0.0
 10
19.324585
 20
40.154736
 30
0.0
 10
19.663019
 20
40.154736
 30
0.0
  0
SPLINE
  5
135
100
AcDbEntity
  8
Layer_1
 62
5
100
AcDbSpline
 70
8
 71
3
 72
8
 73
4
 74
0
 40
0
 40
0
 40
0
 40
0
 40
1
 40
1
 40
1
 40
1
 10
19.663019
 20
40.154736
 30
0.0
 10
20.001453
 20
40.154736
 30
0.0
 10
20.297610
 20
39.927218
 30
0.0
 10
20.384830
 20
39.600217
 30
0.0
  0
SPLINE
  5
136
100
AcDbEntity
  8
Layer_1
 62
5
100
AcDbSpline
 70
8
 71
3
 72
8
 73
4
 74
0
 40
0
 40
0
 40
0
 40
0
 40
1
 40
1
 40
1
 40
1
 10
20.384830
 20
39.600217
 30
0.0
 10
20.472051
 20
39.273215
 30
0.0
 10
20.328544
 20
38.928427
 30
0.0
 10
20.035066
 20
38.759879
 30
0.0
  0
LWPOLYLINE
  5
137
100
AcDbEntity
  8
Layer_1
 62
5
100
AcDbPolyline
 90
9
 70
0
 10
17.784058
 20
32.669473
 30
0.0
 10
20.895666
 20
28.961202
 30
0.0
 10
20.895666
 20
23.616883
 30
0.0
 10
19.145668
 20
22.155384
 30
0.0
 10
19.145668
 20
20.844823
 30
0.0
 10
21.901571
 20
23.146397
 30
0.0
 10
21.901571
 20
29.327321
 30
0.0
 10
19.290972
 20
32.438510
 30
0.0
 10
19.290972
 20
38.759879
 30
0.0
  0
SPLINE
  5
138
100
AcDbEntity
  8
Layer_1
 62
5
100
AcDbSpline
 70
8
 71
3
 72
8
 73
4
 74
0
 40
0
 40
0
 40
0
 40
0
 40
1
 40
1
 40
1
 40
1
 10
21.061548
 20
17.958505
 30
0.0
 10
21.002795
 20
18.291800
 30
0.0
 10
21.175443
 20
18.622958
 30
0.0
 10
21.482338
 20
18.765623
 30
0.0
  0
SPLINE
  5
139
100
AcDbEntity
  8
Layer_1
 62
5
100
AcDbSpline
 70
8
 71
3
 72
8
 73
4
 74
0
 40
0
 40
0
 40
0
 40
0
 40
1
 40
1
 40
1
 40
1
 10
21.482338
 20
18.765623
 30
0.0
 10
21.789233
 20
18.908288
 30
0.0
 10
22.153699
 20
18.826816
 30
0.0
 10
22.370637
 20
18.567055
 30
0.0
  0
SPLINE
  5
13a
100
AcDbEntity
  8
Layer_1
 62
5
100
AcDbSpline
 70
8
 71
3
 72
8
 73
4
 74
0
 40
0
 40
0
 40
0
 40
0
 40
1
 40
1
 40
1
 40
1
 10
22.370637
 20
18.567055
 30
0.0
 10
22.587574
 20
18.307295
 30
0.0
 10
22.602784
 20
17.934143
 30
0.0
 10
22.407707
 20
17.657589
 30
0.0
  0
SPLINE
  5
13b
100
AcDbEntity
  8
Layer_1
 62
5
100
AcDbSpline
 70
8
 71
3
 72
8
 73
4
 74
0
 40
0
 40
0
 40
0
 40
0
 40
1
 40
1
 40
1
 40
1
 10
22.407707
 20
17.657589
 30
0.0
 10
22.212629
 20
17.381034
 30
0.0
 10
21.856003
 20
17.270171
 30
0.0
 10
21.538515
 20
17.387386
 30
0.0
  0
LWPOLYLINE
  5
13c
100
AcDbEntity
  8
Layer_1
 62
5
100
AcDbPolyline
 90
7
 70
0
 10
20.035066
 20
38.759879
 30
0.0
 10
20.035066
 20
32.709339
 30
0.0
 10
22.645664
 20
29.598149
 30
0.0
 10
22.645664
 20
22.798366
 30
0.0
 10
19.145668
 20
19.875368
 30
0.0
 10
19.145668
 20
16.358471
 30
0.0
 10
21.061548
 20
17.958505
 30
0.0
  0
SPLINE
  5
13d
100
AcDbEntity
  8
Layer_1
 62
5
100
AcDbSpline
 70
8
 71
3
 72
8
 73
4
 74
0
 40
0
 40
0
 40
0
 40
0
 40
1
 40
1
 40
1
 40
1
 10
17.145671
 20
47.388688
 30
0.0
 10
17.145964
 20
41.066361
 30
0.0
 10
15.131898
 20
34.908369
 30
0.0
 10
11.395678
 20
29.808125
 30
0.0
  0
LWPOLYLINE
  5
13e
100
AcDbEntity
  8
Layer_1
 62
5
100
AcDbPolyline
 90
12
 70
0
 10
21.538515
 20
17.387386
 30
0.0
 10
19.145668
 20
15.389015
 30
0.0
 10
19.145668
 20
13.514396
 30
0.0
 10
22.395665
 20
9.641202
 30
0.0
 10
22.395665
 20
5.384411
 30
0.0
 10
23.401569
 20
5.384411
 30
0.0
 10
23.401569
 20
28.688769
 30
0.0
 10
23.526569
 20
28.688769
 30
0.0
 10
23.526569
 20
39.939381
 30
0.0
 10
23.496968
 20
40.020708
 30
0.0
 10
17.244744
 20
47.471820
 30
0.0
 10
17.145671
 20
47.388688
 30
0.0
  0
LWPOLYLINE
  5
13f
100
AcDbEntity
  8
Layer_1
 62
5
100
AcDbPolyline
 90
6
 70
0
 10
11.395678
 20
29.808125
 30
0.0
 10
11.395678
 20
26.049402
 30
0.0
 10
17.395671
 20
26.049402
 30
0.0
 10
17.395671
 20
5.384411
 30
0.0
 10
21.651571
 20
5.384411
 30
0.0
 10
21.651571
 20
8.203583
 30
0.0
  0
SPLINE
  5
140
100
AcDbEntity
  8
Layer_1
 62
5
100
AcDbSpline
 70
8
 71
3
 72
8
 73
4
 74
0
 40
0
 40
0
 40
0
 40
0
 40
1
 40
1
 40
1
 40
1
 10
10.744573
 20
36.236515
 30
0.0
 10
10.512605
 20
36.369738
 30
0.0
 10
10.369574
 20
36.616824
 30
0.0
 10
10.369574
 20
36.884326
 30
0.0
  0
SPLINE
  5
141
100
AcDbEntity
  8
Layer_1
 62
5
100
AcDbSpline
 70
8
 71
3
 72
8
 73
4
 74
0
 40
0
 40
0
 40
0
 40
0
 40
1
 40
1
 40
1
 40
1
 10
10.369574
 20
36.884326
 30
0.0
 10
10.369574
 20
37.151829
 30
0.0
 10
10.512605
 20
37.398915
 30
0.0
 10
10.744573
 20
37.532138
 30
0.0
  0
LWPOLYLINE
  5
142
100
AcDbEntity
  8
Layer_1
 62
5
100
AcDbPolyline
 90
4
 70
0
 10
8.988670
 20
43.437093
 30
0.0
 10
8.988670
 20
32.897599
 30
0.0
 10
10.744573
 20
34.851126
 30
0.0
 10
10.744573
 20
36.236515
 30
0.0
  0
SPLINE
  5
143
100
AcDbEntity
  8
Layer_1
 62
5
100
AcDbSpline
 70
8
 71
3
 72
8
 73
4
 74
0
 40
0
 40
0
 40
0
 40
0
 40
1
 40
1
 40
1
 40
1
 10
10.744573
 20
38.459293
 30
0.0
 10
10.366963
 20
38.611167
 30
0.0
 10
10.119575
 20
38.977315
 30
0.0
 10
10.119575
 20
39.384323
 30
0.0
  0
SPLINE
  5
144
100
AcDbEntity
  8
Layer_1
 62
5
100
AcDbSpline
 70
8
 71
3
 72
8
 73
4
 74
0
 40
0
 40
0
 40
0
 40
0
 40
1
 40
1
 40
1
 40
1
 10
10.119575
 20
39.384323
 30
0.0
 10
10.119575
 20
39.791331
 30
0.0
 10
10.366963
 20
40.157479
 30
0.0
 10
10.744573
 20
40.309354
 30
0.0
  0
LWPOLYLINE
  5
145
100
AcDbEntity
  8
Layer_1
 62
5
100
AcDbPolyline
 90
2
 70
0
 10
10.744573
 20
37.532138
 30
0.0
 10
10.744573
 20
38.459293
 30
0.0
  0
SPLINE
  5
146
100
AcDbEntity
  8
Layer_1
 62
5
100
AcDbSpline
 70
8
 71
3
 72
8
 73
4
 74
0
 40
0
 40
0
 40
0
 40
0
 40
1
 40
1
 40
1
 40
1
 10
10.744573
 20
41.194065
 30
0.0
 10
10.156570
 20
41.377862
 30
0.0
 10
9.790891
 20
41.963492
 30
0.0
 10
9.883854
 20
42.572497
 30
0.0
  0
SPLINE
  5
147
100
AcDbEntity
  8
Layer_1
 62
5
100
AcDbSpline
 70
8
 71
3
 72
8
 73
4
 74
0
 40
0
 40
0
 40
0
 40
0
 40
1
 40
1
 40
1
 40
1
 10
9.883854
 20
42.572497
 30
0.0
 10
9.976817
 20
43.181502
 30
0.0
 10
10.500561
 20
43.631365
 30
0.0
 10
11.116620
 20
43.631365
 30
0.0
  0
SPLINE
  5
148
100
AcDbEntity
  8
Layer_1
 62
5
100
AcDbSpline
 70
8
 71
3
 72
8
 73
4
 74
0
 40
0
 40
0
 40
0
 40
0
 40
1
 40
1
 40
1
 40
1
 10
11.116620
 20
43.631365
 30
0.0
 10
11.732680
 20
43.631365
 30
0.0
 10
12.256423
 20
43.181502
 30
0.0
 10
12.349386
 20
42.572497
 30
0.0
  0
SPLINE
  5
149
100
AcDbEntity
  8
Layer_1
 62
5
100
AcDbSpline
 70
8
 71
3
 72
8
 73
4
 74
0
 40
0
 40
0
 40
0
 40
0
 40
1
 40
1
 40
1
 40
1
 10
12.349386
 20
42.572497
 30
0.0
 10
12.442349
 20
41.963492
 30
0.0
 10
12.076670
 20
41.377862
 30
0.0
 10
11.488667
 20
41.194065
 30
0.0
  0
LWPOLYLINE
  5
14a
100
AcDbEntity
  8
Layer_1
 62
5
100
AcDbPolyline
 90
2
 70
0
 10
10.744573
 20
40.309354
 30
0.0
 10
10.744573
 20
41.194065
 30
0.0
  0
SPLINE
  5
14b
100
AcDbEntity
  8
Layer_1
 62
5
100
AcDbSpline
 70
8
 71
3
 72
8
 73
4
 74
0
 40
0
 40
0
 40
0
 40
0
 40
1
 40
1
 40
1
 40
1
 10
11.488667
 20
40.309354
 30
0.0
 10
11.866277
 20
40.157479
 30
0.0
 10
12.113666
 20
39.791331
 30
0.0
 10
12.113666
 20
39.384323
 30
0.0
  0
SPLINE
  5
14c
100
AcDbEntity
  8
Layer_1
 62
5
100
AcDbSpline
 70
8
 71
3
 72
8
 73
4
 74
0
 40
0
 40
0
 40
0
 40
0
 40
1
 40
1
 40
1
 40
1
 10
12.113666
 20
39.384323
 30
0.0
 10
12.113666
 20
38.977315
 30
0.0
 10
11.866277
 20
38.611167
 30
0.0
 10
11.488667
 20
38.459293
 30
0.0
  0
LWPOLYLINE
  5
14d
100
AcDbEntity
  8
Layer_1
 62
5
100
AcDbPolyline
 90
2
 70
0
 10
11.488667
 20
41.194065
 30
0.0
 10
11.488667
 20
40.309354
 30
0.0
  0
SPLINE
  5
14e
100
AcDbEntity
  8
Layer_1
 62
5
100
AcDbSpline
 70
8
 71
3
 72
8
 73
4
 74
0
 40
0
 40
0
 40
0
 40
0
 40
1
 40
1
 40
1
 40
1
 10
11.488667
 20
37.532138
 30
0.0
 10
11.720635
 20
37.398915
 30
0.0
 10
11.863666
 20
37.151829
 30
0.0
 10
11.863666
 20
36.884326
 30
0.0
  0
SPLINE
  5
14f
100
AcDbEntity
  8
Layer_1
 62
5
100
AcDbSpline
 70
8
 71
3
 72
8
 73
4
 74
0
 40
0
 40
0
 40
0
 40
0
 40
1
 40
1
 40
1
 40
1
 10
11.863666
 20
36.884326
 30
0.0
 10
11.863666
 20
36.616824
 30
0.0
 10
11.720635
 20
36.369738
 30
0.0
 10
11.488667
 20
36.236515
 30
0.0
  0
LWPOLYLINE
  5
150
100
AcDbEntity
  8
Layer_1
 62
5
100
AcDbPolyline
 90
2
 70
0
 10
11.488667
 20
38.459293
 30
0.0
 10
11.488667
 20
37.532138
 30
0.0
  0
LWPOLYLINE
  5
151
100
AcDbEntity
  8
Layer_1
 62
5
100
AcDbPolyline
 90
14
 70
0
 10
11.488667
 20
36.236515
 30
0.0
 10
11.488667
 20
34.565865
 30
0.0
 10
8.244576
 20
30.956656
 30
0.0
 10
8.244576
 20
43.722354
 30
0.0
 10
11.103243
 20
46.902759
 30
0.0
 10
13.244571
 20
46.902759
 30
0.0
 10
13.244571
 20
47.393684
 30
0.0
 10
7.238672
 20
47.393684
 30
0.0
 10
7.238672
 20
26.672131
 30
0.0
 10
13.214970
 20
33.794406
 30
0.0
 10
13.244571
 20
33.875733
 30
0.0
 10
13.244571
 20
46.113191
 30
0.0
 10
11.394047
 20
46.113191
 30
0.0
 10
8.988670
 20
43.437093
 30
0.0
  0
ENDSEC
  0
SECTION
  2
OBJECTS
  0
DICTIONARY
  5
C
330
0
100
AcDbDictionary
  3
ACAD_GROUP
350
D
  3
ACAD_MLINESTYLE
350
17
  0
DICTIONARY
  5
D
330
C
100
AcDbDictionary
  0
DICTIONARY
  5
1A
330
C
100
AcDbDictionary
  0
DICTIONARY
  5
17
330
C
100
AcDbDictionary
  3
STANDARD
350
18
  0
DICTIONARY
  5
19
330
C
100
AcDbDictionary
  0
ENDSEC
  0
EOF
