0
SECTION
2
HEADER
9
$INSUNITS
70
1
9
$ACADVER
1
AC1014
9
$HANDSEED
5
FFFF
0
ENDSEC
0
SECTION
2
TABLES
0
TABLE
2
VPORT
5
8
100
AcDbSymbolTable
0
ENDTAB
0
TABLE
2
LTYPE
5
5
100
AcDbSymbolTable
70
2
0
LTYPE
5
14
100
AcDbSymbolTableRecord
100
AcDbLinetypeTableRecord
2
BYBLOCK
70
0
0
LTYPE
5
15
100
AcDbSymbolTableRecord
100
AcDbLinetypeTableRecord
2
BYLAYER
70
0
0
ENDTAB
0
TABLE
2
LAYER
5
2
100
AcDbSymbolTable
70
3
0
LAYER
5
50
100
AcDbSymbolTableRecord
100
AcDbLayerTableRecord
2
0
70
0
6
CONTINUOUS
0
LAYER
5
51
100
AcDbSymbolTableRecord
100
AcDbLayerTableRecord
2
CUTOUTS
70
0
62
1
6
CONTINUOUS
0
LAYER
5
52
100
AcDbSymbolTableRecord
100
AcDbLayerTableRecord
2
PERIMETER
70
0
62
5
6
CONTINUOUS
0
ENDTAB
0
TABLE
2
STYLE
5
3
100
AcDbSymbolTable
70
1
0
STYLE
5
11
100
AcDbSymbolTableRecord
100
AcDbTextStyleTableRecord
2
STANDARD
70
0
0
ENDTAB
0
TABLE
2
VIEW
5
6
100
AcDbSymbolTable
0
ENDTAB
0
TABLE
2
UCS
5
7
100
AcDbSymbolTable
0
ENDTAB
0
TABLE
2
APPID
5
9
100
AcDbSymbolTable
70
1
0
APPID
5
12
100
AcDbSymbolTableRecord
100
AcDbRegAppTableRecord
2
ACAD
70
0
0
ENDTAB
0
TABLE
2
DIMSTYLE
5
A
100
AcDbSymbolTable
0
ENDTAB
0
TABLE
2
BLOCK_RECORD
5
1
100
AcDbSymbolTable
70
2
0
BLOCK_RECORD
5
1F
100
AcDbSymbolTableRecord
100
AcDbBlockTableRecord
2
*MODEL_SPACE
0
BLOCK_RECORD
5
1B
100
AcDbSymbolTableRecord
100
AcDbBlockTableRecord
2
*PAPER_SPACE
0
ENDTAB
0
ENDSEC
0
SECTION
2
BLOCKS
0
BLOCK
5
20
100
AcDbEntity
100
AcDbBlockBegin
2
*MODEL_SPACE
0
ENDBLK
5
21
100
AcDbEntity
100
AcDbBlockEnd
0
BLOCK
5
1C
100
AcDbEntity
100
AcDbBlockBegin
2
*PAPER_SPACE
0
ENDBLK
5
1D
100
AcDbEntity
100
AcDbBlockEnd
0
ENDSEC
0
SECTION
2
ENTITIES
0
LWPOLYLINE
5
100
100
AcDbEntity
8
CUTOUTS
100
AcDbPolyline
90
4
70
1
43
0.0
10
-29.0366193548906
20
-25.807091207284653
10
-28.12489559856709
20
-25.810483173445395
10
-28.580760631575576
20
-26.600064572010012
10
-29.492484387899086
20
-26.59667260584926
0
LWPOLYLINE
5
101
100
AcDbEntity
8
CUTOUTS
100
AcDbPolyline
90
4
70
1
43
0.0
10
-27.681665190324605
20
-21.369545197534709
10
-27.225807448291381
20
-20.579976427309695
10
-26.314091964230226
20
-20.579973361491724
10
-26.769949706263446
20
-21.369542131716749
0
LWPOLYLINE
5
102
100
AcDbEntity
8
CUTOUTS
100
AcDbPolyline
90
4
70
1
43
0.0
10
-24.503758192572217
20
-23.461542125984089
10
-25.41547368987754
20
-23.461542125984089
10
-25.871331438530266
20
-22.671973344293782
10
-24.959615941224953
20
-22.671973344293601
0
LWPOLYLINE
5
103
100
AcDbEntity
8
CUTOUTS
100
AcDbPolyline
90
4
70
1
43
0.0
10
-29.037473689877544
20
-29.737542125984092
10
-29.493331438530266
20
-28.947973344293779
10
-28.58161594122495
20
-28.947973344293601
10
-28.125758192572217
20
-29.737542125984092
0
LWPOLYLINE
5
104
100
AcDbEntity
8
CUTOUTS
100
AcDbPolyline
90
4
70
1
43
0.0
10
-27.681665190324605
20
-27.645545197534716
10
-27.225807448291381
20
-26.855976427309692
10
-26.314091964230226
20
-26.855973361491724
10
-26.769949706263446
20
-27.645542131716752
0
LWPOLYLINE
5
105
100
AcDbEntity
8
CUTOUTS
100
AcDbPolyline
90
3
70
1
43
0.0
10
-24.73714362310281
20
-22.544023677135765
10
-24.501596625227034
20
-22.136044309244681
10
-24.501596625227034
20
-22.952003045026817
0
LWPOLYLINE
5
106
100
AcDbEntity
8
CUTOUTS
100
AcDbPolyline
90
4
70
1
43
0.0
10
-29.492484387899086
20
-28.688672605849256
10
-29.0366193548906
20
-27.899091207284648
10
-28.12489559856709
20
-27.90248317344539
10
-28.580760631575576
20
-28.692064572010008
0
LWPOLYLINE
5
107
100
AcDbEntity
8
CUTOUTS
100
AcDbPolyline
90
3
70
1
43
0.0
10
-24.501596625227034
20
-19.544044309244772
10
-24.501596625227034
20
-19.528582453449442
10
-24.492688852224216
20
-19.528615593821613
0
LWPOLYLINE
5
108
100
AcDbEntity
8
CUTOUTS
100
AcDbPolyline
90
3
70
1
43
0.0
10
-29.495493005875453
20
-29.456040423449842
10
-29.258853947762869
20
-29.865911295155986
10
-29.495493005875453
20
-30.275782166862129
0
LWPOLYLINE
5
109
100
AcDbEntity
8
CUTOUTS
100
AcDbPolyline
90
4
70
1
43
0.0
10
-26.092711696415609
20
-26.471480076846312
10
-26.548569445068349
20
-25.681911295155988
10
-26.092711696415609
20
-24.892342513465664
10
-25.636853947762877
20
-25.681911295155988
0
LWPOLYLINE
5
10A
100
AcDbEntity
8
CUTOUTS
100
AcDbPolyline
90
4
70
1
43
0.0
10
-24.503758192572214
20
-29.737542125984092
10
-25.41547368987754
20
-29.737542125984092
10
-25.871331438530266
20
-28.947973344293779
10
-24.95961594122495
20
-28.947973344293601
0
LWPOLYLINE
5
10B
100
AcDbEntity
8
CUTOUTS
100
AcDbPolyline
90
4
70
1
43
0.0
10
-24.503758192572214
20
-27.645542125984093
10
-25.41547368987754
20
-27.645542125984093
10
-25.871331438530266
20
-26.855973344293783
10
-24.95961594122495
20
-26.855973344293602
0
LWPOLYLINE
5
10C
100
AcDbEntity
8
CUTOUTS
100
AcDbPolyline
90
4
70
1
43
0.0
10
-26.092711696415609
20
-30.65548007684631
10
-26.548569445068349
20
-29.865911295155986
10
-26.092711696415609
20
-29.076342513465661
10
-25.636853947762877
20
-29.865911295155986
0
LWPOLYLINE
5
10D
100
AcDbEntity
8
CUTOUTS
100
AcDbPolyline
90
4
70
1
43
0.0
10
-26.769949699643952
20
-27.9024990565234
10
-26.314091944371803
20
-28.692067849678949
10
-27.225807454910843
20
-28.692070915496675
10
-27.681665210182999
20
-27.902502122341165
0
LWPOLYLINE
5
10E
100
AcDbEntity
8
CUTOUTS
100
AcDbPolyline
90
4
70
1
43
0.0
10
-26.769949706263446
20
-29.737542131716751
10
-27.681665190324605
20
-29.737545197534711
10
-27.225807448291381
20
-28.947976427309687
10
-26.314091964230226
20
-28.947973361491723
0
LWPOLYLINE
5
10F
100
AcDbEntity
8
CUTOUTS
100
AcDbPolyline
90
4
70
1
43
0.0
10
-29.492484387899086
20
-30.780672605849258
10
-29.0366193548906
20
-29.991091207284651
10
-28.12489559856709
20
-29.994483173445392
10
-28.580760631575576
20
-30.78406457201001
0
LWPOLYLINE
5
110
100
AcDbEntity
8
CUTOUTS
100
AcDbPolyline
90
4
70
1
43
0.0
10
-27.681665210182999
20
-29.994502122341167
10
-26.769949699643952
20
-29.994499056523399
10
-26.314091944371803
20
-30.784067849678951
10
-27.225807454910843
20
-30.784070915496677
0
LWPOLYLINE
5
111
100
AcDbEntity
8
CUTOUTS
100
AcDbPolyline
90
3
70
1
43
0.0
10
-24.73714362310281
20
-24.636023677135768
10
-24.501596625227034
20
-24.22804430924468
10
-24.501596625227034
20
-25.044003045026816
0
LWPOLYLINE
5
112
100
AcDbEntity
8
CUTOUTS
100
AcDbPolyline
90
4
70
1
43
0.0
10
-24.958760631575579
20
-28.692064572010008
10
-25.870484387899083
20
-28.688672605849256
10
-25.414619354890604
20
-27.899091207284648
10
-24.50289559856709
20
-27.90248317344539
0
LWPOLYLINE
5
113
100
AcDbEntity
8
CUTOUTS
100
AcDbPolyline
90
4
70
1
43
0.0
10
-24.50289559856709
20
-29.994483173445392
10
-24.958760631575579
20
-30.78406457201001
10
-25.870484387899083
20
-30.780672605849258
10
-25.414619354890604
20
-29.991091207284651
0
LWPOLYLINE
5
114
100
AcDbEntity
8
CUTOUTS
100
AcDbPolyline
90
4
70
1
43
0.0
10
-24.958760631575579
20
-26.600064572010012
10
-25.870484387899083
20
-26.59667260584926
10
-25.414619354890604
20
-25.807091207284653
10
-24.50289559856709
20
-25.810483173445395
0
LWPOLYLINE
5
115
100
AcDbEntity
8
CUTOUTS
100
AcDbPolyline
90
3
70
1
43
0.0
10
-24.737143623102813
20
-26.72802367713577
10
-24.501596625227034
20
-26.320044309244679
10
-24.501596625227034
20
-27.136003045026829
0
LWPOLYLINE
5
116
100
AcDbEntity
8
CUTOUTS
100
AcDbPolyline
90
3
70
1
43
0.0
10
-24.737143623102813
20
-28.820023677135765
10
-24.501596625227034
20
-28.412044309244674
10
-24.501596625227034
20
-29.228003045026824
0
LWPOLYLINE
5
117
100
AcDbEntity
8
CUTOUTS
100
AcDbPolyline
90
4
70
1
43
0.0
10
-26.092711696415609
20
-24.379480076846313
10
-26.548569445068349
20
-23.589911295155986
10
-26.092711696415609
20
-22.800342513465662
10
-25.636853947762877
20
-23.589911295155986
0
LWPOLYLINE
5
118
100
AcDbEntity
8
CUTOUTS
100
AcDbPolyline
90
4
70
1
43
0.0
10
-27.903285874450059
20
-25.425592458826081
10
-28.359143623102813
20
-24.636023677135768
10
-27.903285874450088
20
-23.846454895445437
10
-27.447428125797334
20
-24.63602367713575
0
LWPOLYLINE
5
119
100
AcDbEntity
8
CUTOUTS
100
AcDbPolyline
90
4
70
1
43
0.0
10
-27.447428125797334
20
-22.544023677135748
10
-27.903285874450059
20
-23.333592458826082
10
-28.35914362310281
20
-22.544023677135765
10
-27.903285874450088
20
-21.754454895445438
0
LWPOLYLINE
5
11A
100
AcDbEntity
8
CUTOUTS
100
AcDbPolyline
90
4
70
1
43
0.0
10
-27.681665190324605
20
-25.553545197534707
10
-27.225807448291388
20
-24.763976427309697
10
-26.314091964230226
20
-24.763973361491725
10
-26.769949706263446
20
-25.553542131716746
0
LWPOLYLINE
5
11B
100
AcDbEntity
8
CUTOUTS
100
AcDbPolyline
90
4
70
1
43
0.0
10
-26.769949699643952
20
-25.810499056523401
10
-26.314091944371803
20
-26.600067849678954
10
-27.225807454910843
20
-26.60007091549668
10
-27.681665210182999
20
-25.810502122341166
0
LWPOLYLINE
5
11C
100
AcDbEntity
8
CUTOUTS
100
AcDbPolyline
90
4
70
1
43
0.0
10
-25.636853947762877
20
-19.405911295155988
10
-26.092711696415609
20
-20.195480076846312
10
-26.548569445068349
20
-19.405911295155988
10
-26.092711696415609
20
-18.616342513465664
0
LWPOLYLINE
5
11D
100
AcDbEntity
8
CUTOUTS
100
AcDbPolyline
90
4
70
1
43
0.0
10
-25.636853947762877
20
-27.77391129515599
10
-26.092711696415609
20
-28.563480076846311
10
-26.548569445068349
20
-27.77391129515599
10
-26.092711696415609
20
-26.984342513465666
0
LWPOLYLINE
5
11E
100
AcDbEntity
8
CUTOUTS
100
AcDbPolyline
90
4
70
1
43
0.0
10
-29.037473689877544
20
-27.645542125984093
10
-29.493331438530266
20
-26.855973344293783
10
-28.58161594122495
20
-26.855973344293602
10
-28.125758192572217
20
-27.645542125984093
0
LWPOLYLINE
5
11F
100
AcDbEntity
8
CUTOUTS
100
AcDbPolyline
90
3
70
1
43
0.0
10
-24.737143623102813
20
-30.912023677135767
10
-24.501596625227034
20
-30.504044309244676
10
-24.501596625227034
20
-31.320003045026827
0
LWPOLYLINE
5
120
100
AcDbEntity
8
CUTOUTS
100
AcDbPolyline
90
3
70
1
43
0.0
10
-29.495493005875453
20
-25.272040423449845
10
-29.258853947762869
20
-25.681911295155988
10
-29.495493005875453
20
-26.091782166862131
0
LWPOLYLINE
5
121
100
AcDbEntity
8
CUTOUTS
100
AcDbPolyline
90
3
70
1
43
0.0
10
-29.495493005875453
20
-27.364040423449847
10
-29.258853947762869
20
-27.77391129515599
10
-29.495493005875453
20
-28.183782166862134
0
LWPOLYLINE
5
122
100
AcDbEntity
8
CUTOUTS
100
AcDbPolyline
90
4
70
1
43
0.0
10
-29.037473689877544
20
-25.553542125984087
10
-29.493331438530266
20
-24.763973344293785
10
-28.58161594122495
20
-24.763973344293603
10
-28.125758192572217
20
-25.553542125984087
0
LWPOLYLINE
5
123
100
AcDbEntity
8
CUTOUTS
100
AcDbPolyline
90
4
70
1
43
0.0
10
-27.903285874450059
20
-29.609592458826079
10
-28.35914362310281
20
-28.820023677135765
10
-27.903285874450088
20
-28.030454895445438
10
-27.447428125797334
20
-28.820023677135747
0
LWPOLYLINE
5
124
100
AcDbEntity
8
CUTOUTS
100
AcDbPolyline
90
3
70
1
43
0.0
10
-29.495493005875446
20
-23.180040423449856
10
-29.258853947762873
20
-23.589911295155986
10
-29.495493005875446
20
-23.999782166862119
0
LWPOLYLINE
5
125
100
AcDbEntity
8
CUTOUTS
100
AcDbPolyline
90
4
70
1
43
0.0
10
-29.037473689877544
20
-23.461542125984089
10
-29.493331438530266
20
-22.671973344293782
10
-28.58161594122495
20
-22.671973344293601
10
-28.125758192572217
20
-23.461542125984089
0
LWPOLYLINE
5
126
100
AcDbEntity
8
CUTOUTS
100
AcDbPolyline
90
4
70
1
43
0.0
10
-24.958760631575583
20
-22.416064572010008
10
-25.870484387899083
20
-22.412672605849256
10
-25.414619354890597
20
-21.623091207284649
10
-24.502895598567093
20
-21.62648317344539
0
LWPOLYLINE
5
127
100
AcDbEntity
8
CUTOUTS
100
AcDbPolyline
90
4
70
1
43
0.0
10
-24.958760631575583
20
-24.50806457201001
10
-25.870484387899083
20
-24.504672605849258
10
-25.414619354890597
20
-23.715091207284651
10
-24.502895598567093
20
-23.718483173445392
0
LWPOLYLINE
5
128
100
AcDbEntity
8
PERIMETER
100
AcDbPolyline
90
29
70
1
43
0.0
10
-26.314091964230226
20
-31.039973361491729
10
-26.58976186618516
20
-31.517447637795115
10
-26.294267633922743
20
-31.517447637795115
10
-26.092711696415609
20
-31.168342513465664
10
-25.891155758908475
20
-31.517447637795115
10
-25.595661526646087
20
-31.517447637795115
10
-25.871331438530273
20
-31.039973344293781
10
-24.959615941224953
20
-31.0399733442936
10
-24.683946029340721
20
-31.517447637795115
10
-23.997047244094485
20
-31.517447637795115
10
-23.997047244094485
20
-18.050959621072945
10
-24.02817356945566
20
-17.997047244094485
10
-30.002952755905515
20
-17.997047244094485
10
-30.002952755905515
20
-18.487973344293785
10
-28.581615941224957
20
-18.487973344293604
10
-28.125758192572217
20
-19.277542125984088
10
-30.002952755905515
20
-19.277542125984091
10
-30.002952755905515
20
-31.517447637795115
10
-29.217661526646083
20
-31.517447637795115
10
-29.493331438530266
20
-31.039973344293781
10
-28.58161594122495
20
-31.0399733442936
10
-28.305946029340724
20
-31.517447637795115
10
-28.009601936442195
20
-31.517447637795115
10
-28.359143623102813
20
-30.912023677135767
10
-27.903285874450088
20
-30.122454895445433
10
-27.447428125797327
20
-30.91202367713575
10
-27.796969812457931
20
-31.517447637795115
10
-27.501475580195486
20
-31.517447637795115
10
-27.225807448291388
20
-31.039976427309696
0
ENDSEC
0
SECTION
2
OBJECTS
0
DICTIONARY
5
C
100
AcDbDictionary
3
ACAD_GROUP
350
D
3
ACAD_MLINESTYLE
350
17
0
DICTIONARY
5
D
100
AcDbDictionary
0
DICTIONARY
5
1A
330
C
100
AcDbDictionary
0
DICTIONARY
5
17
100
AcDbDictionary
0
ENDSEC
0
EOF
