  0
SECTION
  2
HEADER
  9
$ACADVER
  1
AC1014
  9
$HANDSEED
  5
FFFF
  9
$MEASUREMENT
 70
     1
  0
ENDSEC
  0
SECTION
  2
TABLES
  0
TABLE
  2
VPORT
  5
8
330
0
100
AcDbSymbolTable
 70
     4
  0
VPORT
  5
2E
330
8
100
AcDbSymbolTableRecord
100
AcDbViewportTableRecord
  2
*ACTIVE
 70
     0
 10
0.0
 20
0.0
 11
1.0
 21
1.0
 12
210.0
 22
148.5
 13
0.0
 23
0.0
 14
10.0
 24
10.0
 15
10.0
 25
10.0
 16
0.0
 26
0.0
 36
1.0
 17
0.0
 27
0.0
 37
0.0
 40
341.0
 41
1.24
 42
50.0
 43
0.0
 44
0.0
 50
0.0
 51
0.0
 71
     0
 72
   100
 73
     1
 74
     3
 75
     0
 76
     0
 77
     0
 78
     0
  0
ENDTAB
  0
TABLE
  2
LTYPE
  5
5
330
0
100
AcDbSymbolTable
 70
     1
  0
LTYPE
  5
14
330
5
100
AcDbSymbolTableRecord
100
AcDbLinetypeTableRecord
  2
BYBLOCK
 70
     0
  3

 72
    65
 73
     0
 40
0.0
  0
LTYPE
  5
15
330
5
100
AcDbSymbolTableRecord
100
AcDbLinetypeTableRecord
  2
BYLAYER
 70
     0
  3

 72
    65
 73
     0
 40
0.0
  0
LTYPE
  5
16
330
5
100
AcDbSymbolTableRecord
100
AcDbLinetypeTableRecord
  2
CONTINUOUS
 70
     0
  3
Solid line
 72
    65
 73
     0
 40
0.0
  0
ENDTAB
  0
TABLE
  2
LAYER
  5
2
100
AcDbSymbolTable
 70
2
  0
LAYER
  5
50
100
AcDbSymbolTableRecord
100
AcDbLayerTableRecord
  2
0
 70
0
  6
CONTINUOUS
  0
LAYER
  5
51
100
AcDbSymbolTableRecord
100
AcDbLayerTableRecord
  2
Layer_1
 70
0
  6
CONTINUOUS
  0
ENDTAB
  0
TABLE
  2
STYLE
  5
3
330
0
100
AcDbSymbolTable
 70
     1
  0
STYLE
  5
11
330
3
100
AcDbSymbolTableRecord
100
AcDbTextStyleTableRecord
  2
STANDARD
 70
     0
 40
0.0
 41
1.0
 50
0.0
 71
     0
 42
2.5
  3
txt
  4

  0
ENDTAB
  0
TABLE
  2
VIEW
  5
6
330
0
100
AcDbSymbolTable
 70
     0
  0
ENDTAB
  0
TABLE
  2
UCS
  5
7
330
0
100
AcDbSymbolTable
 70
     0
  0
ENDTAB
  0
TABLE
  2
APPID
  5
9
330
0
100
AcDbSymbolTable
 70
     2
  0
APPID
  5
12
330
9
100
AcDbSymbolTableRecord
100
AcDbRegAppTableRecord
  2
ACAD
 70
     0
  0
ENDTAB
  0
TABLE
  2
DIMSTYLE
  5
A
330
0
100
AcDbSymbolTable
 70
     1
  0
DIMSTYLE
105
27
330
A
100
AcDbSymbolTableRecord
100
AcDbDimStyleTableRecord
  2
ISO-25
 70
     0
  3

  4

  5

  6

  7

 40
1.0
 41
2.5
 42
0.625
 43
3.75
 44
1.25
 45
0.0
 46
0.0
 47
0.0
 48
0.0
140
2.5
141
2.5
142
0.0
143
0.03937007874016
144
1.0
145
0.0
146
1.0
147
0.625
 71
     0
 72
     0
 73
     0
 74
     0
 75
     0
 76
     0
 77
     1
 78
     8
170
     0
171
     3
172
     1
173
     0
174
     0
175
     0
176
     0
177
     0
178
     0
270
     2
271
     2
272
     2
273
     2
274
     3
340
11
275
     0
280
     0
281
     0
282
     0
283
     0
284
     8
285
     0
286
     0
287
     3
288
     0
  0
ENDTAB
  0
TABLE
  2
BLOCK_RECORD
  5
1
330
0
100
AcDbSymbolTable
 70
     1
  0
BLOCK_RECORD
  5
1F
330
1
100
AcDbSymbolTableRecord
100
AcDbBlockTableRecord
  2
*MODEL_SPACE
  0
BLOCK_RECORD
  5
1B
330
1
100
AcDbSymbolTableRecord
100
AcDbBlockTableRecord
  2
*PAPER_SPACE
  0
ENDTAB
  0
ENDSEC
  0
SECTION
  2
BLOCKS
  0
BLOCK
  5
20
330
1F
100
AcDbEntity
  8
0
100
AcDbBlockBegin
  2
*MODEL_SPACE
 70
     0
 10
0.0
 20
0.0
 30
0.0
  3
*MODEL_SPACE
  1

  0
ENDBLK
  5
21
330
1F
100
AcDbEntity
  8
0
100
AcDbBlockEnd
  0
BLOCK
  5
1C
330
1B
100
AcDbEntity
 67
     1
  8
0
100
AcDbBlockBegin
  2
*PAPER_SPACE
  1

  0
ENDBLK
  5
1D
330
1B
100
AcDbEntity
 67
     1
  8
0
100
AcDbBlockEnd
  0
ENDSEC
  0
SECTION
  2
ENTITIES
  0
LWPOLYLINE
  5
100
100
AcDbEntity
  8
Layer_1
 62
7
100
AcDbPolyline
 90
4
 70
1
 10
1.444440
 20
39.903941
 30
0.0
 10
2.356163
 20
39.900548
 30
0.0
 10
1.900299
 20
39.110968
 30
0.0
 10
0.988576
 20
39.114359
 30
0.0
  0
LWPOLYLINE
  5
101
100
AcDbEntity
  8
Layer_1
 62
7
100
AcDbPolyline
 90
4
 70
1
 10
2.799393
 20
44.341481
 30
0.0
 10
3.255251
 20
45.131049
 30
0.0
 10
4.166965
 20
45.131052
 30
0.0
 10
3.711107
 20
44.341484
 30
0.0
  0
LWPOLYLINE
  5
102
100
AcDbEntity
  8
Layer_1
 62
7
100
AcDbPolyline
 90
4
 70
1
 10
5.977296
 20
42.249487
 30
0.0
 10
5.065582
 20
42.249487
 30
0.0
 10
4.609725
 20
43.039054
 30
0.0
 10
5.521439
 20
43.039054
 30
0.0
  0
LWPOLYLINE
  5
103
100
AcDbEntity
  8
Layer_1
 62
7
100
AcDbPolyline
 90
4
 70
1
 10
1.443586
 20
35.973495
 30
0.0
 10
0.987730
 20
36.763062
 30
0.0
 10
1.899444
 20
36.763062
 30
0.0
 10
2.355301
 20
35.973495
 30
0.0
  0
LWPOLYLINE
  5
104
100
AcDbEntity
  8
Layer_1
 62
7
100
AcDbPolyline
 90
4
 70
1
 10
2.799393
 20
38.065489
 30
0.0
 10
3.255251
 20
38.855057
 30
0.0
 10
4.166965
 20
38.855060
 30
0.0
 10
3.711107
 20
38.065492
 30
0.0
  0
LWPOLYLINE
  5
105
100
AcDbEntity
  8
Layer_1
 62
7
100
AcDbPolyline
 90
3
 70
1
 10
5.743911
 20
43.167003
 30
0.0
 10
5.979458
 20
43.574983
 30
0.0
 10
5.979458
 20
42.759025
 30
0.0
  0
LWPOLYLINE
  5
106
100
AcDbEntity
  8
Layer_1
 62
7
100
AcDbPolyline
 90
4
 70
1
 10
0.988576
 20
37.022362
 30
0.0
 10
1.444440
 20
37.811943
 30
0.0
 10
2.356163
 20
37.808551
 30
0.0
 10
1.900299
 20
37.018970
 30
0.0
  0
LWPOLYLINE
  5
107
100
AcDbEntity
  8
Layer_1
 62
7
100
AcDbPolyline
 90
3
 70
1
 10
5.979458
 20
46.166980
 30
0.0
 10
5.979458
 20
46.182441
 30
0.0
 10
5.988366
 20
46.182441
 30
0.0
  0
LWPOLYLINE
  5
108
100
AcDbEntity
  8
Layer_1
 62
7
100
AcDbPolyline
 90
3
 70
1
 10
0.985568
 20
36.254995
 30
0.0
 10
1.222206
 20
35.845125
 30
0.0
 10
0.985568
 20
35.435255
 30
0.0
  0
LWPOLYLINE
  5
109
100
AcDbEntity
  8
Layer_1
 62
7
100
AcDbPolyline
 90
4
 70
1
 10
4.388345
 20
39.239552
 30
0.0
 10
3.932487
 20
40.029120
 30
0.0
 10
4.388345
 20
40.818687
 30
0.0
 10
4.844202
 20
40.029120
 30
0.0
  0
LWPOLYLINE
  5
10a
100
AcDbEntity
  8
Layer_1
 62
7
100
AcDbPolyline
 90
4
 70
1
 10
5.977296
 20
35.973495
 30
0.0
 10
5.065582
 20
35.973495
 30
0.0
 10
4.609725
 20
36.763062
 30
0.0
 10
5.521439
 20
36.763062
 30
0.0
  0
LWPOLYLINE
  5
10b
100
AcDbEntity
  8
Layer_1
 62
7
100
AcDbPolyline
 90
4
 70
1
 10
5.977296
 20
38.065492
 30
0.0
 10
5.065582
 20
38.065492
 30
0.0
 10
4.609725
 20
38.855060
 30
0.0
 10
5.521439
 20
38.855060
 30
0.0
  0
LWPOLYLINE
  5
10c
100
AcDbEntity
  8
Layer_1
 62
7
100
AcDbPolyline
 90
4
 70
1
 10
4.388345
 20
35.055557
 30
0.0
 10
3.932487
 20
35.845125
 30
0.0
 10
4.388345
 20
36.634693
 30
0.0
 10
4.844202
 20
35.845125
 30
0.0
  0
LWPOLYLINE
  5
10d
100
AcDbEntity
  8
Layer_1
 62
7
100
AcDbPolyline
 90
4
 70
1
 10
3.711107
 20
37.808535
 30
0.0
 10
4.166965
 20
37.018967
 30
0.0
 10
3.255251
 20
37.018964
 30
0.0
 10
2.799393
 20
37.808532
 30
0.0
  0
LWPOLYLINE
  5
10e
100
AcDbEntity
  8
Layer_1
 62
7
100
AcDbPolyline
 90
4
 70
1
 10
3.711107
 20
35.973495
 30
0.0
 10
2.799393
 20
35.973492
 30
0.0
 10
3.255251
 20
36.763059
 30
0.0
 10
4.166965
 20
36.763062
 30
0.0
  0
LWPOLYLINE
  5
10f
100
AcDbEntity
  8
Layer_1
 62
7
100
AcDbPolyline
 90
4
 70
1
 10
0.988576
 20
34.930365
 30
0.0
 10
1.444440
 20
35.719946
 30
0.0
 10
2.356163
 20
35.716553
 30
0.0
 10
1.900299
 20
34.926973
 30
0.0
  0
LWPOLYLINE
  5
110
100
AcDbEntity
  8
Layer_1
 62
7
100
AcDbPolyline
 90
4
 70
1
 10
2.799393
 20
35.716535
 30
0.0
 10
3.711107
 20
35.716538
 30
0.0
 10
4.166965
 20
34.926970
 30
0.0
 10
3.255251
 20
34.926967
 30
0.0
  0
LWPOLYLINE
  5
111
100
AcDbEntity
  8
Layer_1
 62
7
100
AcDbPolyline
 90
3
 70
1
 10
5.743911
 20
41.075006
 30
0.0
 10
5.979458
 20
41.482986
 30
0.0
 10
5.979458
 20
40.667027
 30
0.0
  0
LWPOLYLINE
  5
112
100
AcDbEntity
  8
Layer_1
 62
7
100
AcDbPolyline
 90
4
 70
1
 10
5.522295
 20
37.018970
 30
0.0
 10
4.610572
 20
37.022362
 30
0.0
 10
5.066436
 20
37.811943
 30
0.0
 10
5.978159
 20
37.808551
 30
0.0
  0
LWPOLYLINE
  5
113
100
AcDbEntity
  8
Layer_1
 62
7
100
AcDbPolyline
 90
4
 70
1
 10
5.978159
 20
35.716553
 30
0.0
 10
5.522295
 20
34.926973
 30
0.0
 10
4.610572
 20
34.930365
 30
0.0
 10
5.066436
 20
35.719946
 30
0.0
  0
LWPOLYLINE
  5
114
100
AcDbEntity
  8
Layer_1
 62
7
100
AcDbPolyline
 90
4
 70
1
 10
5.522295
 20
39.110968
 30
0.0
 10
4.610572
 20
39.114359
 30
0.0
 10
5.066436
 20
39.903941
 30
0.0
 10
5.978159
 20
39.900548
 30
0.0
  0
LWPOLYLINE
  5
115
100
AcDbEntity
  8
Layer_1
 62
7
100
AcDbPolyline
 90
3
 70
1
 10
5.743911
 20
38.983009
 30
0.0
 10
5.979458
 20
39.390988
 30
0.0
 10
5.979458
 20
38.575030
 30
0.0
  0
LWPOLYLINE
  5
116
100
AcDbEntity
  8
Layer_1
 62
7
100
AcDbPolyline
 90
3
 70
1
 10
5.743911
 20
36.891011
 30
0.0
 10
5.979458
 20
37.298991
 30
0.0
 10
5.979458
 20
36.483033
 30
0.0
  0
LWPOLYLINE
  5
117
100
AcDbEntity
  8
Layer_1
 62
7
100
AcDbPolyline
 90
4
 70
1
 10
4.388345
 20
41.331549
 30
0.0
 10
3.932487
 20
42.121117
 30
0.0
 10
4.388345
 20
42.910685
 30
0.0
 10
4.844202
 20
42.121117
 30
0.0
  0
LWPOLYLINE
  5
118
100
AcDbEntity
  8
Layer_1
 62
7
100
AcDbPolyline
 90
4
 70
1
 10
2.577773
 20
40.285438
 30
0.0
 10
2.121916
 20
41.075006
 30
0.0
 10
2.577773
 20
41.864574
 30
0.0
 10
3.033630
 20
41.075006
 30
0.0
  0
LWPOLYLINE
  5
119
100
AcDbEntity
  8
Layer_1
 62
7
100
AcDbPolyline
 90
4
 70
1
 10
3.033630
 20
43.167003
 30
0.0
 10
2.577773
 20
42.377436
 30
0.0
 10
2.121916
 20
43.167003
 30
0.0
 10
2.577773
 20
43.956571
 30
0.0
  0
LWPOLYLINE
  5
11a
100
AcDbEntity
  8
Layer_1
 62
7
100
AcDbPolyline
 90
4
 70
1
 10
2.799393
 20
40.157486
 30
0.0
 10
3.255251
 20
40.947054
 30
0.0
 10
4.166965
 20
40.947057
 30
0.0
 10
3.711107
 20
40.157489
 30
0.0
  0
LWPOLYLINE
  5
11b
100
AcDbEntity
  8
Layer_1
 62
7
100
AcDbPolyline
 90
4
 70
1
 10
3.711107
 20
39.900532
 30
0.0
 10
4.166965
 20
39.110965
 30
0.0
 10
3.255251
 20
39.110962
 30
0.0
 10
2.799393
 20
39.900529
 30
0.0
  0
LWPOLYLINE
  5
11c
100
AcDbEntity
  8
Layer_1
 62
7
100
AcDbPolyline
 90
4
 70
1
 10
4.844202
 20
46.305112
 30
0.0
 10
4.388345
 20
45.515544
 30
0.0
 10
3.932487
 20
46.305112
 30
0.0
 10
4.388345
 20
47.094680
 30
0.0
  0
LWPOLYLINE
  5
11d
100
AcDbEntity
  8
Layer_1
 62
7
100
AcDbPolyline
 90
4
 70
1
 10
4.844202
 20
37.937122
 30
0.0
 10
4.388345
 20
37.147555
 30
0.0
 10
3.932487
 20
37.937122
 30
0.0
 10
4.388345
 20
38.726690
 30
0.0
  0
LWPOLYLINE
  5
11e
100
AcDbEntity
  8
Layer_1
 62
7
100
AcDbPolyline
 90
4
 70
1
 10
1.443586
 20
38.065492
 30
0.0
 10
0.987730
 20
38.855060
 30
0.0
 10
1.899444
 20
38.855060
 30
0.0
 10
2.355301
 20
38.065492
 30
0.0
  0
LWPOLYLINE
  5
11f
100
AcDbEntity
  8
Layer_1
 62
7
100
AcDbPolyline
 90
3
 70
1
 10
5.743911
 20
34.799014
 30
0.0
 10
5.979458
 20
35.206994
 30
0.0
 10
5.979458
 20
34.391035
 30
0.0
  0
LWPOLYLINE
  5
120
100
AcDbEntity
  8
Layer_1
 62
7
100
AcDbPolyline
 90
3
 70
1
 10
0.985568
 20
40.438990
 30
0.0
 10
1.222206
 20
40.029120
 30
0.0
 10
0.985568
 20
39.619249
 30
0.0
  0
LWPOLYLINE
  5
121
100
AcDbEntity
  8
Layer_1
 62
7
100
AcDbPolyline
 90
3
 70
1
 10
0.985568
 20
38.346993
 30
0.0
 10
1.222206
 20
37.937122
 30
0.0
 10
0.985568
 20
37.527252
 30
0.0
  0
LWPOLYLINE
  5
122
100
AcDbEntity
  8
Layer_1
 62
7
100
AcDbPolyline
 90
4
 70
1
 10
1.443586
 20
40.157489
 30
0.0
 10
0.987730
 20
40.947057
 30
0.0
 10
1.899444
 20
40.947057
 30
0.0
 10
2.355301
 20
40.157489
 30
0.0
  0
LWPOLYLINE
  5
123
100
AcDbEntity
  8
Layer_1
 62
7
100
AcDbPolyline
 90
4
 70
1
 10
2.577773
 20
36.101443
 30
0.0
 10
2.121916
 20
36.891011
 30
0.0
 10
2.577773
 20
37.680579
 30
0.0
 10
3.033630
 20
36.891011
 30
0.0
  0
LWPOLYLINE
  5
124
100
AcDbEntity
  8
Layer_1
 62
7
100
AcDbPolyline
 90
3
 70
1
 10
0.985568
 20
42.530987
 30
0.0
 10
1.222206
 20
42.121117
 30
0.0
 10
0.985568
 20
41.711247
 30
0.0
  0
LWPOLYLINE
  5
125
100
AcDbEntity
  8
Layer_1
 62
7
100
AcDbPolyline
 90
4
 70
1
 10
1.443586
 20
42.249487
 30
0.0
 10
0.987730
 20
43.039054
 30
0.0
 10
1.899444
 20
43.039054
 30
0.0
 10
2.355301
 20
42.249487
 30
0.0
  0
LWPOLYLINE
  5
126
100
AcDbEntity
  8
Layer_1
 62
7
100
AcDbPolyline
 90
4
 70
1
 10
5.522295
 20
43.294962
 30
0.0
 10
4.610572
 20
43.298354
 30
0.0
 10
5.066436
 20
44.087935
 30
0.0
 10
5.978159
 20
44.084543
 30
0.0
  0
LWPOLYLINE
  5
127
100
AcDbEntity
  8
Layer_1
 62
7
100
AcDbPolyline
 90
4
 70
1
 10
5.522295
 20
41.202965
 30
0.0
 10
4.610572
 20
41.206357
 30
0.0
 10
5.066436
 20
41.995938
 30
0.0
 10
5.978159
 20
41.992545
 30
0.0
  0
LWPOLYLINE
  5
128
100
AcDbEntity
  8
Layer_1
 62
7
100
AcDbPolyline
 90
29
 70
1
 10
4.166965
 20
34.671065
 30
0.0
 10
3.891296
 20
34.193591
 30
0.0
 10
4.186789
 20
34.193591
 30
0.0
 10
4.388345
 20
34.542695
 30
0.0
 10
4.589900
 20
34.193591
 30
0.0
 10
4.885394
 20
34.193591
 30
0.0
 10
4.609725
 20
34.671065
 30
0.0
 10
5.521439
 20
34.671065
 30
0.0
 10
5.797109
 20
34.193591
 30
0.0
 10
6.484007
 20
34.193591
 30
0.0
 10
6.484007
 20
47.660062
 30
0.0
 10
6.452880
 20
47.713975
 30
0.0
 10
0.478108
 20
47.713975
 30
0.0
 10
0.478108
 20
47.223049
 30
0.0
 10
1.899444
 20
47.223049
 30
0.0
 10
2.355301
 20
46.433481
 30
0.0
 10
0.478108
 20
46.433481
 30
0.0
 10
0.478108
 20
34.193591
 30
0.0
 10
1.263399
 20
34.193591
 30
0.0
 10
0.987730
 20
34.671065
 30
0.0
 10
1.899444
 20
34.671065
 30
0.0
 10
2.175113
 20
34.193591
 30
0.0
 10
2.471457
 20
34.193591
 30
0.0
 10
2.121916
 20
34.799014
 30
0.0
 10
2.577773
 20
35.588582
 30
0.0
 10
3.033630
 20
34.799014
 30
0.0
 10
2.684089
 20
34.193591
 30
0.0
 10
2.979582
 20
34.193591
 30
0.0
 10
3.255251
 20
34.671062
 30
0.0
  0
LWPOLYLINE
  5
129
100
AcDbEntity
  8
Layer_1
 62
7
100
AcDbPolyline
 90
3
 70
1
 10
21.282166
 20
42.423722
 30
0.0
 10
21.691745
 20
42.187253
 30
0.0
 10
20.872589
 20
42.187253
 30
0.0
  0
LWPOLYLINE
  5
12a
100
AcDbEntity
  8
Layer_1
 62
7
100
AcDbPolyline
 90
4
 70
1
 10
22.199796
 20
44.456337
 30
0.0
 10
21.410119
 20
44.000416
 30
0.0
 10
21.410119
 20
44.912257
 30
0.0
 10
22.199796
 20
45.368177
 30
0.0
  0
LWPOLYLINE
  5
12b
100
AcDbEntity
  8
Layer_1
 62
7
100
AcDbPolyline
 90
4
 70
1
 10
16.180541
 20
43.101255
 30
0.0
 10
16.970219
 20
43.557175
 30
0.0
 10
16.970219
 20
42.645335
 30
0.0
 10
16.180541
 20
42.189414
 30
0.0
  0
LWPOLYLINE
  5
12c
100
AcDbEntity
  8
Layer_1
 62
7
100
AcDbPolyline
 90
4
 70
1
 10
21.410119
 20
42.645343
 30
0.0
 10
21.410119
 20
43.557184
 30
0.0
 10
22.199796
 20
43.101263
 30
0.0
 10
22.199796
 20
42.189423
 30
0.0
  0
LWPOLYLINE
  5
12d
100
AcDbEntity
  8
Layer_1
 62
7
100
AcDbPolyline
 90
3
 70
1
 10
19.190169
 20
42.423722
 30
0.0
 10
19.599748
 20
42.187253
 30
0.0
 10
18.780591
 20
42.187253
 30
0.0
  0
LWPOLYLINE
  5
12e
100
AcDbEntity
  8
Layer_1
 62
7
100
AcDbPolyline
 90
4
 70
1
 10
18.272539
 20
46.723250
 30
0.0
 10
19.062216
 20
47.179171
 30
0.0
 10
19.062216
 20
46.267330
 30
0.0
 10
18.272539
 20
45.811410
 30
0.0
  0
LWPOLYLINE
  5
12f
100
AcDbEntity
  8
Layer_1
 62
7
100
AcDbPolyline
 90
4
 70
1
 10
20.364536
 20
42.189414
 30
0.0
 10
20.364536
 20
43.101255
 30
0.0
 10
21.154213
 20
43.557175
 30
0.0
 10
21.154213
 20
42.645335
 30
0.0
  0
LWPOLYLINE
  5
130
100
AcDbEntity
  8
Layer_1
 62
7
100
AcDbPolyline
 90
4
 70
1
 10
18.272539
 20
43.101255
 30
0.0
 10
19.062216
 20
43.557175
 30
0.0
 10
19.062216
 20
42.645335
 30
0.0
 10
18.272539
 20
42.189414
 30
0.0
  0
LWPOLYLINE
  5
131
100
AcDbEntity
  8
Layer_1
 62
7
100
AcDbPolyline
 90
3
 70
1
 10
18.554150
 20
47.181332
 30
0.0
 10
18.144587
 20
46.944871
 30
0.0
 10
17.735023
 20
47.181332
 30
0.0
  0
LWPOLYLINE
  5
132
100
AcDbEntity
  8
Layer_1
 62
7
100
AcDbPolyline
 90
4
 70
1
 10
21.282166
 20
45.133877
 30
0.0
 10
20.492489
 20
45.589798
 30
0.0
 10
21.282166
 20
46.045718
 30
0.0
 10
22.071843
 20
45.589798
 30
0.0
  0
LWPOLYLINE
  5
133
100
AcDbEntity
  8
Layer_1
 62
7
100
AcDbPolyline
 90
4
 70
1
 10
17.098172
 20
46.045718
 30
0.0
 10
17.887849
 20
45.589798
 30
0.0
 10
17.098172
 20
45.133877
 30
0.0
 10
16.308494
 20
45.589798
 30
0.0
  0
LWPOLYLINE
  5
134
100
AcDbEntity
  8
Layer_1
 62
7
100
AcDbPolyline
 90
4
 70
1
 10
15.923804
 20
45.368177
 30
0.0
 10
15.923804
 20
44.456337
 30
0.0
 10
15.134127
 20
44.000416
 30
0.0
 10
15.134127
 20
44.912257
 30
0.0
  0
LWPOLYLINE
  5
135
100
AcDbEntity
  8
Layer_1
 62
7
100
AcDbPolyline
 90
4
 70
1
 10
16.970219
 20
44.912257
 30
0.0
 10
16.970219
 20
44.000416
 30
0.0
 10
16.180541
 20
44.456337
 30
0.0
 10
16.180541
 20
45.368177
 30
0.0
  0
LWPOLYLINE
  5
136
100
AcDbEntity
  8
Layer_1
 62
7
100
AcDbPolyline
 90
4
 70
1
 10
18.144587
 20
43.322875
 30
0.0
 10
17.354909
 20
43.778796
 30
0.0
 10
18.144587
 20
44.234716
 30
0.0
 10
18.934264
 20
43.778796
 30
0.0
  0
LWPOLYLINE
  5
137
100
AcDbEntity
  8
Layer_1
 62
7
100
AcDbPolyline
 90
4
 70
1
 10
17.226125
 20
44.000416
 30
0.0
 10
17.226125
 20
44.912257
 30
0.0
 10
18.015802
 20
45.368177
 30
0.0
 10
18.015802
 20
44.456337
 30
0.0
  0
LWPOLYLINE
  5
138
100
AcDbEntity
  8
Layer_1
 62
7
100
AcDbPolyline
 90
4
 70
1
 10
20.107799
 20
45.811418
 30
0.0
 10
19.318122
 20
46.267338
 30
0.0
 10
19.318122
 20
47.179179
 30
0.0
 10
20.107799
 20
46.723259
 30
0.0
  0
LWPOLYLINE
  5
139
100
AcDbEntity
  8
Layer_1
 62
7
100
AcDbPolyline
 90
4
 70
1
 10
20.364536
 20
46.723250
 30
0.0
 10
21.154213
 20
47.179171
 30
0.0
 10
21.154213
 20
46.267330
 30
0.0
 10
20.364536
 20
45.811410
 30
0.0
  0
LWPOLYLINE
  5
13a
100
AcDbEntity
  8
Layer_1
 62
7
100
AcDbPolyline
 90
3
 70
1
 10
15.006174
 20
42.423722
 30
0.0
 10
15.415753
 20
42.187253
 30
0.0
 10
14.596597
 20
42.187253
 30
0.0
  0
LWPOLYLINE
  5
13b
100
AcDbEntity
  8
Layer_1
 62
7
100
AcDbPolyline
 90
4
 70
1
 10
22.199796
 20
45.811418
 30
0.0
 10
21.410119
 20
46.267338
 30
0.0
 10
21.410119
 20
47.179179
 30
0.0
 10
22.199796
 20
46.723259
 30
0.0
  0
LWPOLYLINE
  5
13c
100
AcDbEntity
  8
Layer_1
 62
7
100
AcDbPolyline
 90
3
 70
1
 10
17.098172
 20
42.423722
 30
0.0
 10
17.507750
 20
42.187253
 30
0.0
 10
16.688594
 20
42.187253
 30
0.0
  0
LWPOLYLINE
  5
13d
100
AcDbEntity
  8
Layer_1
 62
7
100
AcDbPolyline
 90
3
 70
1
 10
14.088544
 20
47.018744
 30
0.0
 10
14.088544
 20
47.181332
 30
0.0
 10
14.370155
 20
47.181332
 30
0.0
  0
LWPOLYLINE
  5
13e
100
AcDbEntity
  8
Layer_1
 62
7
100
AcDbPolyline
 90
3
 70
1
 10
20.646147
 20
47.181332
 30
0.0
 10
20.236584
 20
46.944871
 30
0.0
 10
19.827020
 20
47.181332
 30
0.0
  0
LWPOLYLINE
  5
13f
100
AcDbEntity
  8
Layer_1
 62
7
100
AcDbPolyline
 90
3
 70
1
 10
22.738145
 20
47.181332
 30
0.0
 10
22.328582
 20
46.944871
 30
0.0
 10
21.919018
 20
47.181332
 30
0.0
  0
LWPOLYLINE
  5
140
100
AcDbEntity
  8
Layer_1
 62
7
100
AcDbPolyline
 90
3
 70
1
 10
14.088544
 20
44.160842
 30
0.0
 10
14.750269
 20
43.778796
 30
0.0
 10
14.088544
 20
43.396748
 30
0.0
  0
LWPOLYLINE
  5
141
100
AcDbEntity
  8
Layer_1
 62
7
100
AcDbPolyline
 90
4
 70
1
 10
14.088544
 20
43.101255
 30
0.0
 10
14.878221
 20
43.557175
 30
0.0
 10
14.878221
 20
42.645335
 30
0.0
 10
14.088544
 20
42.189414
 30
0.0
  0
LWPOLYLINE
  5
142
100
AcDbEntity
  8
Layer_1
 62
7
100
AcDbPolyline
 90
4
 70
1
 10
14.088544
 20
45.368177
 30
0.0
 10
14.878221
 20
44.912257
 30
0.0
 10
14.878221
 20
44.000416
 30
0.0
 10
14.088544
 20
44.456337
 30
0.0
  0
LWPOLYLINE
  5
143
100
AcDbEntity
  8
Layer_1
 62
7
100
AcDbPolyline
 90
4
 70
1
 10
14.088544
 20
45.811410
 30
0.0
 10
14.088544
 20
46.723250
 30
0.0
 10
14.878221
 20
47.179171
 30
0.0
 10
14.878221
 20
46.267330
 30
0.0
  0
LWPOLYLINE
  5
144
100
AcDbEntity
  8
Layer_1
 62
7
100
AcDbPolyline
 90
4
 70
1
 10
15.134127
 20
42.645343
 30
0.0
 10
15.134127
 20
43.557184
 30
0.0
 10
15.923804
 20
43.101263
 30
0.0
 10
15.923804
 20
42.189423
 30
0.0
  0
LWPOLYLINE
  5
145
100
AcDbEntity
  8
Layer_1
 62
7
100
AcDbPolyline
 90
4
 70
1
 10
19.190169
 20
46.045718
 30
0.0
 10
19.979846
 20
45.589798
 30
0.0
 10
19.190169
 20
45.133877
 30
0.0
 10
18.400492
 20
45.589798
 30
0.0
  0
LWPOLYLINE
  5
146
100
AcDbEntity
  8
Layer_1
 62
7
100
AcDbPolyline
 90
4
 70
1
 10
19.446906
 20
43.778796
 30
0.0
 10
20.236584
 20
44.234716
 30
0.0
 10
21.026261
 20
43.778796
 30
0.0
 10
20.236584
 20
43.322875
 30
0.0
  0
LWPOLYLINE
  5
147
100
AcDbEntity
  8
Layer_1
 62
7
100
AcDbPolyline
 90
4
 70
1
 10
20.107799
 20
42.189423
 30
0.0
 10
19.318122
 20
42.645343
 30
0.0
 10
19.318122
 20
43.557184
 30
0.0
 10
20.107799
 20
43.101263
 30
0.0
  0
LWPOLYLINE
  5
148
100
AcDbEntity
  8
Layer_1
 62
7
100
AcDbPolyline
 90
4
 70
1
 10
19.062216
 20
44.912257
 30
0.0
 10
19.062216
 20
44.000416
 30
0.0
 10
18.272539
 20
44.456337
 30
0.0
 10
18.272539
 20
45.368177
 30
0.0
  0
LWPOLYLINE
  5
149
100
AcDbEntity
  8
Layer_1
 62
7
100
AcDbPolyline
 90
4
 70
1
 10
19.318122
 20
44.000416
 30
0.0
 10
19.318122
 20
44.912257
 30
0.0
 10
20.107799
 20
45.368177
 30
0.0
 10
20.107799
 20
44.456337
 30
0.0
  0
LWPOLYLINE
  5
14a
100
AcDbEntity
  8
Layer_1
 62
7
100
AcDbPolyline
 90
4
 70
1
 10
18.015802
 20
45.811418
 30
0.0
 10
17.226125
 20
46.267338
 30
0.0
 10
17.226125
 20
47.179179
 30
0.0
 10
18.015802
 20
46.723259
 30
0.0
  0
LWPOLYLINE
  5
14b
100
AcDbEntity
  8
Layer_1
 62
7
100
AcDbPolyline
 90
3
 70
1
 10
16.462153
 20
47.181332
 30
0.0
 10
16.052590
 20
46.944871
 30
0.0
 10
15.643025
 20
47.181332
 30
0.0
  0
LWPOLYLINE
  5
14c
100
AcDbEntity
  8
Layer_1
 62
7
100
AcDbPolyline
 90
4
 70
1
 10
16.180541
 20
46.723250
 30
0.0
 10
16.970219
 20
47.179171
 30
0.0
 10
16.970219
 20
46.267330
 30
0.0
 10
16.180541
 20
45.811410
 30
0.0
  0
LWPOLYLINE
  5
14d
100
AcDbEntity
  8
Layer_1
 62
7
100
AcDbPolyline
 90
4
 70
1
 10
15.795851
 20
45.589798
 30
0.0
 10
15.006174
 20
45.133877
 30
0.0
 10
14.216497
 20
45.589798
 30
0.0
 10
15.006174
 20
46.045718
 30
0.0
  0
LWPOLYLINE
  5
14e
100
AcDbEntity
  8
Layer_1
 62
7
100
AcDbPolyline
 90
4
 70
1
 10
15.262911
 20
43.778796
 30
0.0
 10
16.052590
 20
44.234716
 30
0.0
 10
16.842267
 20
43.778796
 30
0.0
 10
16.052590
 20
43.322875
 30
0.0
  0
LWPOLYLINE
  5
14f
100
AcDbEntity
  8
Layer_1
 62
7
100
AcDbPolyline
 90
4
 70
1
 10
21.154213
 20
44.912257
 30
0.0
 10
21.154213
 20
44.000416
 30
0.0
 10
20.364536
 20
44.456337
 30
0.0
 10
20.364536
 20
45.368177
 30
0.0
  0
LWPOLYLINE
  5
150
100
AcDbEntity
  8
Layer_1
 62
7
100
AcDbPolyline
 90
4
 70
1
 10
17.226125
 20
42.645343
 30
0.0
 10
17.226125
 20
43.557184
 30
0.0
 10
18.015802
 20
43.101263
 30
0.0
 10
18.015802
 20
42.189423
 30
0.0
  0
LWPOLYLINE
  5
151
100
AcDbEntity
  8
Layer_1
 62
7
100
AcDbPolyline
 90
4
 70
1
 10
15.923804
 20
45.811418
 30
0.0
 10
15.134127
 20
46.267338
 30
0.0
 10
15.134127
 20
47.179179
 30
0.0
 10
15.923804
 20
46.723259
 30
0.0
  0
LWPOLYLINE
  5
152
100
AcDbEntity
  8
Layer_1
 62
7
100
AcDbPolyline
 90
30
 70
1
 10
22.456534
 20
45.368177
 30
0.0
 10
22.774529
 20
45.184583
 30
0.0
 10
22.774529
 20
45.480077
 30
0.0
 10
22.584487
 20
45.589798
 30
0.0
 10
22.774529
 20
45.699518
 30
0.0
 10
22.774529
 20
45.995003
 30
0.0
 10
22.456534
 20
45.811410
 30
0.0
 10
22.456534
 20
46.723250
 30
0.0
 10
22.774529
 20
46.906845
 30
0.0
 10
22.774529
 20
47.224293
 30
0.0
 10
22.774528
 20
47.687246
 30
0.0
 10
13.655257
 20
47.687246
 30
0.0
 10
13.514640
 20
47.606060
 30
0.0
 10
13.514640
 20
47.195523
 30
0.0
 10
13.528989
 20
47.187238
 30
0.0
 10
13.514640
 20
47.187238
 30
0.0
 10
13.514640
 20
41.681347
 30
0.0
 10
22.774528
 20
41.681347
 30
0.0
 10
22.774528
 20
42.144300
 30
0.0
 10
22.774529
 20
42.373009
 30
0.0
 10
22.456534
 20
42.189414
 30
0.0
 10
22.456534
 20
43.101255
 30
0.0
 10
22.774529
 20
43.284849
 30
0.0
 10
22.774529
 20
43.580343
 30
0.0
 10
22.328582
 20
43.322875
 30
0.0
 10
21.538903
 20
43.778796
 30
0.0
 10
22.328582
 20
44.234716
 30
0.0
 10
22.774529
 20
43.977249
 30
0.0
 10
22.774529
 20
44.272742
 30
0.0
 10
22.456534
 20
44.456337
 30
0.0
  0
LWPOLYLINE
  5
153
100
AcDbEntity
  8
Layer_1
 62
7
100
AcDbPolyline
 90
4
 70
1
 10
7.881448
 20
39.850004
 30
0.0
 10
8.793171
 20
39.846611
 30
0.0
 10
8.337307
 20
39.057031
 30
0.0
 10
7.425584
 20
39.060422
 30
0.0
  0
LWPOLYLINE
  5
154
100
AcDbEntity
  8
Layer_1
 62
7
100
AcDbPolyline
 90
4
 70
1
 10
9.236401
 20
44.287544
 30
0.0
 10
9.692259
 20
45.077112
 30
0.0
 10
10.603973
 20
45.077115
 30
0.0
 10
10.148115
 20
44.287547
 30
0.0
  0
LWPOLYLINE
  5
155
100
AcDbEntity
  8
Layer_1
 62
7
100
AcDbPolyline
 90
4
 70
1
 10
12.414304
 20
42.195550
 30
0.0
 10
11.502590
 20
42.195550
 30
0.0
 10
11.046733
 20
42.985117
 30
0.0
 10
11.958447
 20
42.985117
 30
0.0
  0
LWPOLYLINE
  5
156
100
AcDbEntity
  8
Layer_1
 62
7
100
AcDbPolyline
 90
4
 70
1
 10
7.880594
 20
35.919558
 30
0.0
 10
7.424737
 20
36.709125
 30
0.0
 10
8.336452
 20
36.709125
 30
0.0
 10
8.792309
 20
35.919558
 30
0.0
  0
LWPOLYLINE
  5
157
100
AcDbEntity
  8
Layer_1
 62
7
100
AcDbPolyline
 90
4
 70
1
 10
9.236401
 20
38.011552
 30
0.0
 10
9.692259
 20
38.801120
 30
0.0
 10
10.603973
 20
38.801123
 30
0.0
 10
10.148115
 20
38.011555
 30
0.0
  0
LWPOLYLINE
  5
158
100
AcDbEntity
  8
Layer_1
 62
7
100
AcDbPolyline
 90
3
 70
1
 10
12.180919
 20
43.113066
 30
0.0
 10
12.416465
 20
43.521046
 30
0.0
 10
12.416465
 20
42.705088
 30
0.0
  0
LWPOLYLINE
  5
159
100
AcDbEntity
  8
Layer_1
 62
7
100
AcDbPolyline
 90
4
 70
1
 10
7.425584
 20
36.968425
 30
0.0
 10
7.881448
 20
37.758006
 30
0.0
 10
8.793171
 20
37.754614
 30
0.0
 10
8.337307
 20
36.965033
 30
0.0
  0
LWPOLYLINE
  5
15a
100
AcDbEntity
  8
Layer_1
 62
7
100
AcDbPolyline
 90
3
 70
1
 10
12.416465
 20
46.113043
 30
0.0
 10
12.416465
 20
46.128504
 30
0.0
 10
12.425374
 20
46.128504
 30
0.0
  0
LWPOLYLINE
  5
15b
100
AcDbEntity
  8
Layer_1
 62
7
100
AcDbPolyline
 90
3
 70
1
 10
7.422576
 20
36.201058
 30
0.0
 10
7.659214
 20
35.791188
 30
0.0
 10
7.422576
 20
35.381318
 30
0.0
  0
LWPOLYLINE
  5
15c
100
AcDbEntity
  8
Layer_1
 62
7
100
AcDbPolyline
 90
4
 70
1
 10
10.825353
 20
39.185615
 30
0.0
 10
10.369495
 20
39.975183
 30
0.0
 10
10.825353
 20
40.764750
 30
0.0
 10
11.281210
 20
39.975183
 30
0.0
  0
LWPOLYLINE
  5
15d
100
AcDbEntity
  8
Layer_1
 62
7
100
AcDbPolyline
 90
4
 70
1
 10
12.414304
 20
35.919558
 30
0.0
 10
11.502590
 20
35.919558
 30
0.0
 10
11.046733
 20
36.709125
 30
0.0
 10
11.958447
 20
36.709125
 30
0.0
  0
LWPOLYLINE
  5
15e
100
AcDbEntity
  8
Layer_1
 62
7
100
AcDbPolyline
 90
4
 70
1
 10
12.414304
 20
38.011555
 30
0.0
 10
11.502590
 20
38.011555
 30
0.0
 10
11.046733
 20
38.801123
 30
0.0
 10
11.958447
 20
38.801123
 30
0.0
  0
LWPOLYLINE
  5
15f
100
AcDbEntity
  8
Layer_1
 62
7
100
AcDbPolyline
 90
4
 70
1
 10
10.825353
 20
35.001620
 30
0.0
 10
10.369495
 20
35.791188
 30
0.0
 10
10.825353
 20
36.580756
 30
0.0
 10
11.281210
 20
35.791188
 30
0.0
  0
LWPOLYLINE
  5
160
100
AcDbEntity
  8
Layer_1
 62
7
100
AcDbPolyline
 90
4
 70
1
 10
10.148115
 20
37.754598
 30
0.0
 10
10.603973
 20
36.965030
 30
0.0
 10
9.692259
 20
36.965027
 30
0.0
 10
9.236401
 20
37.754595
 30
0.0
  0
LWPOLYLINE
  5
161
100
AcDbEntity
  8
Layer_1
 62
7
100
AcDbPolyline
 90
4
 70
1
 10
10.148115
 20
35.919558
 30
0.0
 10
9.236401
 20
35.919554
 30
0.0
 10
9.692259
 20
36.709122
 30
0.0
 10
10.603973
 20
36.709125
 30
0.0
  0
LWPOLYLINE
  5
162
100
AcDbEntity
  8
Layer_1
 62
7
100
AcDbPolyline
 90
4
 70
1
 10
7.425584
 20
34.876428
 30
0.0
 10
7.881448
 20
35.666009
 30
0.0
 10
8.793171
 20
35.662616
 30
0.0
 10
8.337307
 20
34.873036
 30
0.0
  0
LWPOLYLINE
  5
163
100
AcDbEntity
  8
Layer_1
 62
7
100
AcDbPolyline
 90
4
 70
1
 10
9.236401
 20
35.662598
 30
0.0
 10
10.148115
 20
35.662601
 30
0.0
 10
10.603973
 20
34.873033
 30
0.0
 10
9.692259
 20
34.873030
 30
0.0
  0
LWPOLYLINE
  5
164
100
AcDbEntity
  8
Layer_1
 62
7
100
AcDbPolyline
 90
3
 70
1
 10
12.180919
 20
41.021069
 30
0.0
 10
12.416465
 20
41.429049
 30
0.0
 10
12.416465
 20
40.613090
 30
0.0
  0
LWPOLYLINE
  5
165
100
AcDbEntity
  8
Layer_1
 62
7
100
AcDbPolyline
 90
4
 70
1
 10
11.959303
 20
36.965033
 30
0.0
 10
11.047580
 20
36.968425
 30
0.0
 10
11.503444
 20
37.758006
 30
0.0
 10
12.415167
 20
37.754614
 30
0.0
  0
LWPOLYLINE
  5
166
100
AcDbEntity
  8
Layer_1
 62
7
100
AcDbPolyline
 90
4
 70
1
 10
12.415167
 20
35.662616
 30
0.0
 10
11.959303
 20
34.873036
 30
0.0
 10
11.047580
 20
34.876428
 30
0.0
 10
11.503444
 20
35.666009
 30
0.0
  0
LWPOLYLINE
  5
167
100
AcDbEntity
  8
Layer_1
 62
7
100
AcDbPolyline
 90
4
 70
1
 10
11.959303
 20
39.057031
 30
0.0
 10
11.047580
 20
39.060422
 30
0.0
 10
11.503444
 20
39.850004
 30
0.0
 10
12.415167
 20
39.846611
 30
0.0
  0
LWPOLYLINE
  5
168
100
AcDbEntity
  8
Layer_1
 62
7
100
AcDbPolyline
 90
3
 70
1
 10
12.180919
 20
38.929072
 30
0.0
 10
12.416465
 20
39.337051
 30
0.0
 10
12.416465
 20
38.521093
 30
0.0
  0
LWPOLYLINE
  5
169
100
AcDbEntity
  8
Layer_1
 62
7
100
AcDbPolyline
 90
3
 70
1
 10
12.180919
 20
36.837074
 30
0.0
 10
12.416465
 20
37.245054
 30
0.0
 10
12.416465
 20
36.429096
 30
0.0
  0
LWPOLYLINE
  5
16a
100
AcDbEntity
  8
Layer_1
 62
7
100
AcDbPolyline
 90
4
 70
1
 10
10.825353
 20
41.277612
 30
0.0
 10
10.369495
 20
42.067180
 30
0.0
 10
10.825353
 20
42.856748
 30
0.0
 10
11.281210
 20
42.067180
 30
0.0
  0
LWPOLYLINE
  5
16b
100
AcDbEntity
  8
Layer_1
 62
7
100
AcDbPolyline
 90
4
 70
1
 10
9.014781
 20
40.231501
 30
0.0
 10
8.558923
 20
41.021069
 30
0.0
 10
9.014781
 20
41.810637
 30
0.0
 10
9.470638
 20
41.021069
 30
0.0
  0
LWPOLYLINE
  5
16c
100
AcDbEntity
  8
Layer_1
 62
7
100
AcDbPolyline
 90
4
 70
1
 10
9.470638
 20
43.113066
 30
0.0
 10
9.014781
 20
42.323499
 30
0.0
 10
8.558923
 20
43.113066
 30
0.0
 10
9.014781
 20
43.902634
 30
0.0
  0
LWPOLYLINE
  5
16d
100
AcDbEntity
  8
Layer_1
 62
7
100
AcDbPolyline
 90
4
 70
1
 10
9.236401
 20
40.103549
 30
0.0
 10
9.692259
 20
40.893117
 30
0.0
 10
10.603973
 20
40.893120
 30
0.0
 10
10.148115
 20
40.103552
 30
0.0
  0
LWPOLYLINE
  5
16e
100
AcDbEntity
  8
Layer_1
 62
7
100
AcDbPolyline
 90
4
 70
1
 10
10.148115
 20
39.846595
 30
0.0
 10
10.603973
 20
39.057028
 30
0.0
 10
9.692259
 20
39.057024
 30
0.0
 10
9.236401
 20
39.846592
 30
0.0
  0
LWPOLYLINE
  5
16f
100
AcDbEntity
  8
Layer_1
 62
7
100
AcDbPolyline
 90
4
 70
1
 10
11.281210
 20
46.251175
 30
0.0
 10
10.825353
 20
45.461607
 30
0.0
 10
10.369495
 20
46.251175
 30
0.0
 10
10.825353
 20
47.040743
 30
0.0
  0
LWPOLYLINE
  5
170
100
AcDbEntity
  8
Layer_1
 62
7
100
AcDbPolyline
 90
4
 70
1
 10
11.281210
 20
37.883185
 30
0.0
 10
10.825353
 20
37.093618
 30
0.0
 10
10.369495
 20
37.883185
 30
0.0
 10
10.825353
 20
38.672753
 30
0.0
  0
LWPOLYLINE
  5
171
100
AcDbEntity
  8
Layer_1
 62
7
100
AcDbPolyline
 90
4
 70
1
 10
7.880594
 20
38.011555
 30
0.0
 10
7.424737
 20
38.801123
 30
0.0
 10
8.336452
 20
38.801123
 30
0.0
 10
8.792309
 20
38.011555
 30
0.0
  0
LWPOLYLINE
  5
172
100
AcDbEntity
  8
Layer_1
 62
7
100
AcDbPolyline
 90
3
 70
1
 10
12.180919
 20
34.745077
 30
0.0
 10
12.416465
 20
35.153056
 30
0.0
 10
12.416465
 20
34.337098
 30
0.0
  0
LWPOLYLINE
  5
173
100
AcDbEntity
  8
Layer_1
 62
7
100
AcDbPolyline
 90
3
 70
1
 10
7.422576
 20
40.385053
 30
0.0
 10
7.659214
 20
39.975183
 30
0.0
 10
7.422576
 20
39.565312
 30
0.0
  0
LWPOLYLINE
  5
174
100
AcDbEntity
  8
Layer_1
 62
7
100
AcDbPolyline
 90
3
 70
1
 10
7.422576
 20
38.293056
 30
0.0
 10
7.659214
 20
37.883185
 30
0.0
 10
7.422576
 20
37.473315
 30
0.0
  0
LWPOLYLINE
  5
175
100
AcDbEntity
  8
Layer_1
 62
7
100
AcDbPolyline
 90
4
 70
1
 10
7.880594
 20
40.103552
 30
0.0
 10
7.424737
 20
40.893120
 30
0.0
 10
8.336452
 20
40.893120
 30
0.0
 10
8.792309
 20
40.103552
 30
0.0
  0
LWPOLYLINE
  5
176
100
AcDbEntity
  8
Layer_1
 62
7
100
AcDbPolyline
 90
4
 70
1
 10
9.014781
 20
36.047506
 30
0.0
 10
8.558923
 20
36.837074
 30
0.0
 10
9.014781
 20
37.626642
 30
0.0
 10
9.470638
 20
36.837074
 30
0.0
  0
LWPOLYLINE
  5
177
100
AcDbEntity
  8
Layer_1
 62
7
100
AcDbPolyline
 90
3
 70
1
 10
7.422576
 20
42.477050
 30
0.0
 10
7.659214
 20
42.067180
 30
0.0
 10
7.422576
 20
41.657310
 30
0.0
  0
LWPOLYLINE
  5
178
100
AcDbEntity
  8
Layer_1
 62
7
100
AcDbPolyline
 90
4
 70
1
 10
7.880594
 20
42.195550
 30
0.0
 10
7.424737
 20
42.985117
 30
0.0
 10
8.336452
 20
42.985117
 30
0.0
 10
8.792309
 20
42.195550
 30
0.0
  0
LWPOLYLINE
  5
179
100
AcDbEntity
  8
Layer_1
 62
7
100
AcDbPolyline
 90
4
 70
1
 10
11.959303
 20
43.241025
 30
0.0
 10
11.047580
 20
43.244417
 30
0.0
 10
11.503444
 20
44.033998
 30
0.0
 10
12.415167
 20
44.030606
 30
0.0
  0
LWPOLYLINE
  5
17a
100
AcDbEntity
  8
Layer_1
 62
7
100
AcDbPolyline
 90
4
 70
1
 10
11.959303
 20
41.149028
 30
0.0
 10
11.047580
 20
41.152420
 30
0.0
 10
11.503444
 20
41.942001
 30
0.0
 10
12.415167
 20
41.938608
 30
0.0
  0
LWPOLYLINE
  5
17b
100
AcDbEntity
  8
Layer_1
 62
7
100
AcDbPolyline
 90
29
 70
1
 10
10.603973
 20
34.617128
 30
0.0
 10
10.328304
 20
34.139654
 30
0.0
 10
10.623797
 20
34.139654
 30
0.0
 10
10.825353
 20
34.488758
 30
0.0
 10
11.026908
 20
34.139654
 30
0.0
 10
11.322402
 20
34.139654
 30
0.0
 10
11.046733
 20
34.617128
 30
0.0
 10
11.958447
 20
34.617128
 30
0.0
 10
12.234117
 20
34.139654
 30
0.0
 10
12.921015
 20
34.139654
 30
0.0
 10
12.921015
 20
47.606125
 30
0.0
 10
12.889888
 20
47.660038
 30
0.0
 10
6.915116
 20
47.660038
 30
0.0
 10
6.915116
 20
47.169112
 30
0.0
 10
8.336452
 20
47.169112
 30
0.0
 10
8.792309
 20
46.379544
 30
0.0
 10
6.915116
 20
46.379544
 30
0.0
 10
6.915116
 20
34.139654
 30
0.0
 10
7.700407
 20
34.139654
 30
0.0
 10
7.424737
 20
34.617128
 30
0.0
 10
8.336452
 20
34.617128
 30
0.0
 10
8.612121
 20
34.139654
 30
0.0
 10
8.908465
 20
34.139654
 30
0.0
 10
8.558923
 20
34.745077
 30
0.0
 10
9.014781
 20
35.534645
 30
0.0
 10
9.470638
 20
34.745077
 30
0.0
 10
9.121097
 20
34.139654
 30
0.0
 10
9.416590
 20
34.139654
 30
0.0
 10
9.692259
 20
34.617125
 30
0.0
  0
LWPOLYLINE
  5
17c
100
AcDbEntity
  8
Layer_1
 62
7
100
AcDbPolyline
 90
3
 70
1
 10
21.282166
 20
35.227345
 30
0.0
 10
21.691745
 20
34.990875
 30
0.0
 10
20.872589
 20
34.990875
 30
0.0
  0
LWPOLYLINE
  5
17d
100
AcDbEntity
  8
Layer_1
 62
7
100
AcDbPolyline
 90
4
 70
1
 10
22.199796
 20
37.259959
 30
0.0
 10
21.410119
 20
36.804038
 30
0.0
 10
21.410119
 20
37.715879
 30
0.0
 10
22.199796
 20
38.171799
 30
0.0
  0
LWPOLYLINE
  5
17e
100
AcDbEntity
  8
Layer_1
 62
7
100
AcDbPolyline
 90
4
 70
1
 10
16.180541
 20
35.904877
 30
0.0
 10
16.970219
 20
36.360797
 30
0.0
 10
16.970219
 20
35.448957
 30
0.0
 10
16.180541
 20
34.993036
 30
0.0
  0
LWPOLYLINE
  5
17f
100
AcDbEntity
  8
Layer_1
 62
7
100
AcDbPolyline
 90
4
 70
1
 10
21.410119
 20
35.448965
 30
0.0
 10
21.410119
 20
36.360806
 30
0.0
 10
22.199796
 20
35.904885
 30
0.0
 10
22.199796
 20
34.993045
 30
0.0
  0
LWPOLYLINE
  5
180
100
AcDbEntity
  8
Layer_1
 62
7
100
AcDbPolyline
 90
3
 70
1
 10
19.190169
 20
35.227345
 30
0.0
 10
19.599748
 20
34.990875
 30
0.0
 10
18.780591
 20
34.990875
 30
0.0
  0
LWPOLYLINE
  5
181
100
AcDbEntity
  8
Layer_1
 62
7
100
AcDbPolyline
 90
4
 70
1
 10
18.272539
 20
39.526872
 30
0.0
 10
19.062216
 20
39.982793
 30
0.0
 10
19.062216
 20
39.070952
 30
0.0
 10
18.272539
 20
38.615032
 30
0.0
  0
LWPOLYLINE
  5
182
100
AcDbEntity
  8
Layer_1
 62
7
100
AcDbPolyline
 90
4
 70
1
 10
20.364536
 20
34.993036
 30
0.0
 10
20.364536
 20
35.904877
 30
0.0
 10
21.154213
 20
36.360797
 30
0.0
 10
21.154213
 20
35.448957
 30
0.0
  0
LWPOLYLINE
  5
183
100
AcDbEntity
  8
Layer_1
 62
7
100
AcDbPolyline
 90
4
 70
1
 10
18.272539
 20
35.904877
 30
0.0
 10
19.062216
 20
36.360797
 30
0.0
 10
19.062216
 20
35.448957
 30
0.0
 10
18.272539
 20
34.993036
 30
0.0
  0
LWPOLYLINE
  5
184
100
AcDbEntity
  8
Layer_1
 62
7
100
AcDbPolyline
 90
3
 70
1
 10
18.554150
 20
39.984954
 30
0.0
 10
18.144587
 20
39.748493
 30
0.0
 10
17.735023
 20
39.984954
 30
0.0
  0
LWPOLYLINE
  5
185
100
AcDbEntity
  8
Layer_1
 62
7
100
AcDbPolyline
 90
4
 70
1
 10
21.282166
 20
37.937499
 30
0.0
 10
20.492489
 20
38.393420
 30
0.0
 10
21.282166
 20
38.849340
 30
0.0
 10
22.071843
 20
38.393420
 30
0.0
  0
LWPOLYLINE
  5
186
100
AcDbEntity
  8
Layer_1
 62
7
100
AcDbPolyline
 90
4
 70
1
 10
17.098172
 20
38.849340
 30
0.0
 10
17.887849
 20
38.393420
 30
0.0
 10
17.098172
 20
37.937499
 30
0.0
 10
16.308494
 20
38.393420
 30
0.0
  0
LWPOLYLINE
  5
187
100
AcDbEntity
  8
Layer_1
 62
7
100
AcDbPolyline
 90
4
 70
1
 10
15.923804
 20
38.171799
 30
0.0
 10
15.923804
 20
37.259959
 30
0.0
 10
15.134127
 20
36.804038
 30
0.0
 10
15.134127
 20
37.715879
 30
0.0
  0
LWPOLYLINE
  5
188
100
AcDbEntity
  8
Layer_1
 62
7
100
AcDbPolyline
 90
4
 70
1
 10
16.970219
 20
37.715879
 30
0.0
 10
16.970219
 20
36.804038
 30
0.0
 10
16.180541
 20
37.259959
 30
0.0
 10
16.180541
 20
38.171799
 30
0.0
  0
LWPOLYLINE
  5
189
100
AcDbEntity
  8
Layer_1
 62
7
100
AcDbPolyline
 90
4
 70
1
 10
18.144587
 20
36.126498
 30
0.0
 10
17.354909
 20
36.582418
 30
0.0
 10
18.144587
 20
37.038338
 30
0.0
 10
18.934264
 20
36.582418
 30
0.0
  0
LWPOLYLINE
  5
18a
100
AcDbEntity
  8
Layer_1
 62
7
100
AcDbPolyline
 90
4
 70
1
 10
17.226125
 20
36.804038
 30
0.0
 10
17.226125
 20
37.715879
 30
0.0
 10
18.015802
 20
38.171799
 30
0.0
 10
18.015802
 20
37.259959
 30
0.0
  0
LWPOLYLINE
  5
18b
100
AcDbEntity
  8
Layer_1
 62
7
100
AcDbPolyline
 90
4
 70
1
 10
20.107799
 20
38.615040
 30
0.0
 10
19.318122
 20
39.070960
 30
0.0
 10
19.318122
 20
39.982801
 30
0.0
 10
20.107799
 20
39.526881
 30
0.0
  0
LWPOLYLINE
  5
18c
100
AcDbEntity
  8
Layer_1
 62
7
100
AcDbPolyline
 90
4
 70
1
 10
20.364536
 20
39.526872
 30
0.0
 10
21.154213
 20
39.982793
 30
0.0
 10
21.154213
 20
39.070952
 30
0.0
 10
20.364536
 20
38.615032
 30
0.0
  0
LWPOLYLINE
  5
18d
100
AcDbEntity
  8
Layer_1
 62
7
100
AcDbPolyline
 90
3
 70
1
 10
15.006174
 20
35.227345
 30
0.0
 10
15.415753
 20
34.990875
 30
0.0
 10
14.596597
 20
34.990875
 30
0.0
  0
LWPOLYLINE
  5
18e
100
AcDbEntity
  8
Layer_1
 62
7
100
AcDbPolyline
 90
4
 70
1
 10
22.199796
 20
38.615040
 30
0.0
 10
21.410119
 20
39.070960
 30
0.0
 10
21.410119
 20
39.982801
 30
0.0
 10
22.199796
 20
39.526881
 30
0.0
  0
LWPOLYLINE
  5
18f
100
AcDbEntity
  8
Layer_1
 62
7
100
AcDbPolyline
 90
3
 70
1
 10
17.098172
 20
35.227345
 30
0.0
 10
17.507750
 20
34.990875
 30
0.0
 10
16.688594
 20
34.990875
 30
0.0
  0
LWPOLYLINE
  5
190
100
AcDbEntity
  8
Layer_1
 62
7
100
AcDbPolyline
 90
3
 70
1
 10
14.088544
 20
39.822366
 30
0.0
 10
14.088544
 20
39.984954
 30
0.0
 10
14.370155
 20
39.984954
 30
0.0
  0
LWPOLYLINE
  5
191
100
AcDbEntity
  8
Layer_1
 62
7
100
AcDbPolyline
 90
3
 70
1
 10
20.646147
 20
39.984954
 30
0.0
 10
20.236584
 20
39.748493
 30
0.0
 10
19.827020
 20
39.984954
 30
0.0
  0
LWPOLYLINE
  5
192
100
AcDbEntity
  8
Layer_1
 62
7
100
AcDbPolyline
 90
3
 70
1
 10
22.738145
 20
39.984954
 30
0.0
 10
22.328582
 20
39.748493
 30
0.0
 10
21.919018
 20
39.984954
 30
0.0
  0
LWPOLYLINE
  5
193
100
AcDbEntity
  8
Layer_1
 62
7
100
AcDbPolyline
 90
3
 70
1
 10
14.088544
 20
36.964464
 30
0.0
 10
14.750269
 20
36.582418
 30
0.0
 10
14.088544
 20
36.200370
 30
0.0
  0
LWPOLYLINE
  5
194
100
AcDbEntity
  8
Layer_1
 62
7
100
AcDbPolyline
 90
4
 70
1
 10
14.088544
 20
35.904877
 30
0.0
 10
14.878221
 20
36.360797
 30
0.0
 10
14.878221
 20
35.448957
 30
0.0
 10
14.088544
 20
34.993036
 30
0.0
  0
LWPOLYLINE
  5
195
100
AcDbEntity
  8
Layer_1
 62
7
100
AcDbPolyline
 90
4
 70
1
 10
14.088544
 20
38.171799
 30
0.0
 10
14.878221
 20
37.715879
 30
0.0
 10
14.878221
 20
36.804038
 30
0.0
 10
14.088544
 20
37.259959
 30
0.0
  0
LWPOLYLINE
  5
196
100
AcDbEntity
  8
Layer_1
 62
7
100
AcDbPolyline
 90
4
 70
1
 10
14.088544
 20
38.615032
 30
0.0
 10
14.088544
 20
39.526872
 30
0.0
 10
14.878221
 20
39.982793
 30
0.0
 10
14.878221
 20
39.070952
 30
0.0
  0
LWPOLYLINE
  5
197
100
AcDbEntity
  8
Layer_1
 62
7
100
AcDbPolyline
 90
4
 70
1
 10
15.134127
 20
35.448965
 30
0.0
 10
15.134127
 20
36.360806
 30
0.0
 10
15.923804
 20
35.904885
 30
0.0
 10
15.923804
 20
34.993045
 30
0.0
  0
LWPOLYLINE
  5
198
100
AcDbEntity
  8
Layer_1
 62
7
100
AcDbPolyline
 90
4
 70
1
 10
19.190169
 20
38.849340
 30
0.0
 10
19.979846
 20
38.393420
 30
0.0
 10
19.190169
 20
37.937499
 30
0.0
 10
18.400492
 20
38.393420
 30
0.0
  0
LWPOLYLINE
  5
199
100
AcDbEntity
  8
Layer_1
 62
7
100
AcDbPolyline
 90
4
 70
1
 10
19.446906
 20
36.582418
 30
0.0
 10
20.236584
 20
37.038338
 30
0.0
 10
21.026261
 20
36.582418
 30
0.0
 10
20.236584
 20
36.126498
 30
0.0
  0
LWPOLYLINE
  5
19a
100
AcDbEntity
  8
Layer_1
 62
7
100
AcDbPolyline
 90
4
 70
1
 10
20.107799
 20
34.993045
 30
0.0
 10
19.318122
 20
35.448965
 30
0.0
 10
19.318122
 20
36.360806
 30
0.0
 10
20.107799
 20
35.904885
 30
0.0
  0
LWPOLYLINE
  5
19b
100
AcDbEntity
  8
Layer_1
 62
7
100
AcDbPolyline
 90
4
 70
1
 10
19.062216
 20
37.715879
 30
0.0
 10
19.062216
 20
36.804038
 30
0.0
 10
18.272539
 20
37.259959
 30
0.0
 10
18.272539
 20
38.171799
 30
0.0
  0
LWPOLYLINE
  5
19c
100
AcDbEntity
  8
Layer_1
 62
7
100
AcDbPolyline
 90
4
 70
1
 10
19.318122
 20
36.804038
 30
0.0
 10
19.318122
 20
37.715879
 30
0.0
 10
20.107799
 20
38.171799
 30
0.0
 10
20.107799
 20
37.259959
 30
0.0
  0
LWPOLYLINE
  5
19d
100
AcDbEntity
  8
Layer_1
 62
7
100
AcDbPolyline
 90
4
 70
1
 10
18.015802
 20
38.615040
 30
0.0
 10
17.226125
 20
39.070960
 30
0.0
 10
17.226125
 20
39.982801
 30
0.0
 10
18.015802
 20
39.526881
 30
0.0
  0
LWPOLYLINE
  5
19e
100
AcDbEntity
  8
Layer_1
 62
7
100
AcDbPolyline
 90
3
 70
1
 10
16.462153
 20
39.984954
 30
0.0
 10
16.052590
 20
39.748493
 30
0.0
 10
15.643025
 20
39.984954
 30
0.0
  0
LWPOLYLINE
  5
19f
100
AcDbEntity
  8
Layer_1
 62
7
100
AcDbPolyline
 90
4
 70
1
 10
16.180541
 20
39.526872
 30
0.0
 10
16.970219
 20
39.982793
 30
0.0
 10
16.970219
 20
39.070952
 30
0.0
 10
16.180541
 20
38.615032
 30
0.0
  0
LWPOLYLINE
  5
1a0
100
AcDbEntity
  8
Layer_1
 62
7
100
AcDbPolyline
 90
4
 70
1
 10
15.795851
 20
38.393420
 30
0.0
 10
15.006174
 20
37.937499
 30
0.0
 10
14.216497
 20
38.393420
 30
0.0
 10
15.006174
 20
38.849340
 30
0.0
  0
LWPOLYLINE
  5
1a1
100
AcDbEntity
  8
Layer_1
 62
7
100
AcDbPolyline
 90
4
 70
1
 10
15.262911
 20
36.582418
 30
0.0
 10
16.052590
 20
37.038338
 30
0.0
 10
16.842267
 20
36.582418
 30
0.0
 10
16.052590
 20
36.126498
 30
0.0
  0
LWPOLYLINE
  5
1a2
100
AcDbEntity
  8
Layer_1
 62
7
100
AcDbPolyline
 90
4
 70
1
 10
21.154213
 20
37.715879
 30
0.0
 10
21.154213
 20
36.804038
 30
0.0
 10
20.364536
 20
37.259959
 30
0.0
 10
20.364536
 20
38.171799
 30
0.0
  0
LWPOLYLINE
  5
1a3
100
AcDbEntity
  8
Layer_1
 62
7
100
AcDbPolyline
 90
4
 70
1
 10
17.226125
 20
35.448965
 30
0.0
 10
17.226125
 20
36.360806
 30
0.0
 10
18.015802
 20
35.904885
 30
0.0
 10
18.015802
 20
34.993045
 30
0.0
  0
LWPOLYLINE
  5
1a4
100
AcDbEntity
  8
Layer_1
 62
7
100
AcDbPolyline
 90
4
 70
1
 10
15.923804
 20
38.615040
 30
0.0
 10
15.134127
 20
39.070960
 30
0.0
 10
15.134127
 20
39.982801
 30
0.0
 10
15.923804
 20
39.526881
 30
0.0
  0
LWPOLYLINE
  5
1a5
100
AcDbEntity
  8
Layer_1
 62
7
100
AcDbPolyline
 90
30
 70
1
 10
22.456534
 20
38.171799
 30
0.0
 10
22.774529
 20
37.988205
 30
0.0
 10
22.774529
 20
38.283699
 30
0.0
 10
22.584487
 20
38.393420
 30
0.0
 10
22.774529
 20
38.503140
 30
0.0
 10
22.774529
 20
38.798625
 30
0.0
 10
22.456534
 20
38.615032
 30
0.0
 10
22.456534
 20
39.526872
 30
0.0
 10
22.774529
 20
39.710467
 30
0.0
 10
22.774529
 20
40.027916
 30
0.0
 10
22.774528
 20
40.490868
 30
0.0
 10
13.655257
 20
40.490868
 30
0.0
 10
13.514640
 20
40.409682
 30
0.0
 10
13.514640
 20
39.999145
 30
0.0
 10
13.528989
 20
39.990860
 30
0.0
 10
13.514640
 20
39.990860
 30
0.0
 10
13.514640
 20
34.484969
 30
0.0
 10
22.774528
 20
34.484969
 30
0.0
 10
22.774528
 20
34.947922
 30
0.0
 10
22.774529
 20
35.176631
 30
0.0
 10
22.456534
 20
34.993036
 30
0.0
 10
22.456534
 20
35.904877
 30
0.0
 10
22.774529
 20
36.088472
 30
0.0
 10
22.774529
 20
36.383965
 30
0.0
 10
22.328582
 20
36.126498
 30
0.0
 10
21.538903
 20
36.582418
 30
0.0
 10
22.328582
 20
37.038338
 30
0.0
 10
22.774529
 20
36.780871
 30
0.0
 10
22.774529
 20
37.076364
 30
0.0
 10
22.456534
 20
37.259959
 30
0.0
  0
ENDSEC
  0
SECTION
  2
OBJECTS
  0
DICTIONARY
  5
C
330
0
100
AcDbDictionary
  3
ACAD_GROUP
350
D
  3
ACAD_MLINESTYLE
350
17
  0
DICTIONARY
  5
D
330
C
100
AcDbDictionary
  0
DICTIONARY
  5
1A
330
C
100
AcDbDictionary
  0
DICTIONARY
  5
17
330
C
100
AcDbDictionary
  3
STANDARD
350
18
  0
DICTIONARY
  5
19
330
C
100
AcDbDictionary
  0
ENDSEC
  0
EOF
