  0
SECTION
  2
HEADER
  9
$ACADVER
  1
AC1014
  9
$HANDSEED
  5
FFFF
  9
$MEASUREMENT
 70
     1
  0
ENDSEC
  0
SECTION
  2
TABLES
  0
TABLE
  2
VPORT
  5
8
330
0
100
AcDbSymbolTable
 70
     4
  0
VPORT
  5
2E
330
8
100
AcDbSymbolTableRecord
100
AcDbViewportTableRecord
  2
*ACTIVE
 70
     0
 10
0.0
 20
0.0
 11
1.0
 21
1.0
 12
210.0
 22
148.5
 13
0.0
 23
0.0
 14
10.0
 24
10.0
 15
10.0
 25
10.0
 16
0.0
 26
0.0
 36
1.0
 17
0.0
 27
0.0
 37
0.0
 40
341.0
 41
1.24
 42
50.0
 43
0.0
 44
0.0
 50
0.0
 51
0.0
 71
     0
 72
   100
 73
     1
 74
     3
 75
     0
 76
     0
 77
     0
 78
     0
  0
ENDTAB
  0
TABLE
  2
LTYPE
  5
5
330
0
100
AcDbSymbolTable
 70
     1
  0
LTYPE
  5
14
330
5
100
AcDbSymbolTableRecord
100
AcDbLinetypeTableRecord
  2
BYBLOCK
 70
     0
  3

 72
    65
 73
     0
 40
0.0
  0
LTYPE
  5
15
330
5
100
AcDbSymbolTableRecord
100
AcDbLinetypeTableRecord
  2
BYLAYER
 70
     0
  3

 72
    65
 73
     0
 40
0.0
  0
LTYPE
  5
16
330
5
100
AcDbSymbolTableRecord
100
AcDbLinetypeTableRecord
  2
CONTINUOUS
 70
     0
  3
Solid line
 72
    65
 73
     0
 40
0.0
  0
ENDTAB
  0
TABLE
  2
LAYER
  5
2
100
AcDbSymbolTable
 70
3
  0
LAYER
  5
50
100
AcDbSymbolTableRecord
100
AcDbLayerTableRecord
  2
0
 70
0
  6
CONTINUOUS
  0
LAYER
  5
51
100
AcDbSymbolTableRecord
100
AcDbLayerTableRecord
  2
CUTOUTS
 70
0
  6
CONTINUOUS
  0
LAYER
  5
52
100
AcDbSymbolTableRecord
100
AcDbLayerTableRecord
  2
PERIMETER
 70
0
  6
CONTINUOUS
  0
ENDTAB
  0
TABLE
  2
STYLE
  5
3
330
0
100
AcDbSymbolTable
 70
     1
  0
STYLE
  5
11
330
3
100
AcDbSymbolTableRecord
100
AcDbTextStyleTableRecord
  2
STANDARD
 70
     0
 40
0.0
 41
1.0
 50
0.0
 71
     0
 42
2.5
  3
txt
  4

  0
ENDTAB
  0
TABLE
  2
VIEW
  5
6
330
0
100
AcDbSymbolTable
 70
     0
  0
ENDTAB
  0
TABLE
  2
UCS
  5
7
330
0
100
AcDbSymbolTable
 70
     0
  0
ENDTAB
  0
TABLE
  2
APPID
  5
9
330
0
100
AcDbSymbolTable
 70
     2
  0
APPID
  5
12
330
9
100
AcDbSymbolTableRecord
100
AcDbRegAppTableRecord
  2
ACAD
 70
     0
  0
ENDTAB
  0
TABLE
  2
DIMSTYLE
  5
A
330
0
100
AcDbSymbolTable
 70
     1
  0
DIMSTYLE
105
27
330
A
100
AcDbSymbolTableRecord
100
AcDbDimStyleTableRecord
  2
ISO-25
 70
     0
  3

  4

  5

  6

  7

 40
1.0
 41
2.5
 42
0.625
 43
3.75
 44
1.25
 45
0.0
 46
0.0
 47
0.0
 48
0.0
140
2.5
141
2.5
142
0.0
143
0.03937007874016
144
1.0
145
0.0
146
1.0
147
0.625
 71
     0
 72
     0
 73
     0
 74
     0
 75
     0
 76
     0
 77
     1
 78
     8
170
     0
171
     3
172
     1
173
     0
174
     0
175
     0
176
     0
177
     0
178
     0
270
     2
271
     2
272
     2
273
     2
274
     3
340
11
275
     0
280
     0
281
     0
282
     0
283
     0
284
     8
285
     0
286
     0
287
     3
288
     0
  0
ENDTAB
  0
TABLE
  2
BLOCK_RECORD
  5
1
330
0
100
AcDbSymbolTable
 70
     1
  0
BLOCK_RECORD
  5
1F
330
1
100
AcDbSymbolTableRecord
100
AcDbBlockTableRecord
  2
*MODEL_SPACE
  0
BLOCK_RECORD
  5
1B
330
1
100
AcDbSymbolTableRecord
100
AcDbBlockTableRecord
  2
*PAPER_SPACE
  0
ENDTAB
  0
ENDSEC
  0
SECTION
  2
BLOCKS
  0
BLOCK
  5
20
330
1F
100
AcDbEntity
  8
0
100
AcDbBlockBegin
  2
*MODEL_SPACE
 70
     0
 10
0.0
 20
0.0
 30
0.0
  3
*MODEL_SPACE
  1

  0
ENDBLK
  5
21
330
1F
100
AcDbEntity
  8
0
100
AcDbBlockEnd
  0
BLOCK
  5
1C
330
1B
100
AcDbEntity
 67
     1
  8
0
100
AcDbBlockBegin
  2
*PAPER_SPACE
  1

  0
ENDBLK
  5
1D
330
1B
100
AcDbEntity
 67
     1
  8
0
100
AcDbBlockEnd
  0
ENDSEC
  0
SECTION
  2
ENTITIES
  0
SPLINE
  5
100
100
AcDbEntity
  8
PERIMETER
 62
7
100
AcDbSpline
 70
8
 71
3
 72
8
 73
4
 74
0
 40
0
 40
0
 40
0
 40
0
 40
1
 40
1
 40
1
 40
1
 10
7.136070
 20
13.085598
 30
0.0
 10
4.485729
 20
15.214630
 30
0.0
 10
2.219947
 20
17.782216
 30
0.0
 10
0.437151
 20
20.676819
 30
0.0
  0
LWPOLYLINE
  5
101
100
AcDbEntity
  8
PERIMETER
 62
7
100
AcDbPolyline
 90
6
 70
0
 10
0.437151
 20
20.676819
 30
0.0
 10
2.348267
 20
13.544439
 30
0.0
 10
5.534203
 20
11.313622
 30
0.0
 10
6.171344
 20
8.935778
 30
0.0
 10
8.108901
 20
9.454945
 30
0.0
 10
7.136070
 20
13.085598
 30
0.0
  0
LWPOLYLINE
  5
102
100
AcDbEntity
  8
PERIMETER
 62
7
100
AcDbPolyline
 90
1
 70
1
 10
0.437151
 20
20.676819
 30
0.0
  0
SPLINE
  5
103
100
AcDbEntity
  8
PERIMETER
 62
7
100
AcDbSpline
 70
8
 71
3
 72
8
 73
4
 74
0
 40
0
 40
0
 40
0
 40
0
 40
1
 40
1
 40
1
 40
1
 10
14.271296
 20
16.767320
 30
0.0
 10
13.942183
 20
16.688436
 30
0.0
 10
13.601152
 20
16.840657
 30
0.0
 10
13.440115
 20
17.138322
 30
0.0
  0
SPLINE
  5
104
100
AcDbEntity
  8
PERIMETER
 62
7
100
AcDbSpline
 70
8
 71
3
 72
8
 73
4
 74
0
 40
0
 40
0
 40
0
 40
0
 40
1
 40
1
 40
1
 40
1
 10
13.440115
 20
17.138322
 30
0.0
 10
13.279077
 20
17.435988
 30
0.0
 10
13.338266
 20
17.804729
 30
0.0
 10
13.584375
 20
18.037040
 30
0.0
  0
SPLINE
  5
105
100
AcDbEntity
  8
PERIMETER
 62
7
100
AcDbSpline
 70
8
 71
3
 72
8
 73
4
 74
0
 40
0
 40
0
 40
0
 40
0
 40
1
 40
1
 40
1
 40
1
 10
13.584375
 20
18.037040
 30
0.0
 10
13.830483
 20
18.269352
 30
0.0
 10
14.202022
 20
18.307193
 30
0.0
 10
14.489913
 20
18.129269
 30
0.0
  0
SPLINE
  5
106
100
AcDbEntity
  8
PERIMETER
 62
7
100
AcDbSpline
 70
8
 71
3
 72
8
 73
4
 74
0
 40
0
 40
0
 40
0
 40
0
 40
1
 40
1
 40
1
 40
1
 10
14.489913
 20
18.129269
 30
0.0
 10
14.777803
 20
17.951345
 30
0.0
 10
14.910118
 20
17.602108
 30
0.0
 10
14.812399
 20
17.278089
 30
0.0
  0
LWPOLYLINE
  5
107
100
AcDbEntity
  8
PERIMETER
 62
7
100
AcDbPolyline
 90
13
 70
0
 10
15.757256
 20
13.193809
 30
0.0
 10
15.757256
 20
12.069315
 30
0.0
 10
17.819755
 20
9.611324
 30
0.0
 10
17.819755
 20
9.167991
 30
0.0
 10
18.825661
 20
9.167991
 30
0.0
 10
18.825661
 20
18.897170
 30
0.0
 10
12.694756
 20
18.897170
 30
0.0
 10
12.694756
 20
9.167991
 30
0.0
 10
16.763161
 20
9.167991
 30
0.0
 10
16.763161
 20
9.712918
 30
0.0
 10
15.013161
 20
11.798487
 30
0.0
 10
15.013161
 20
15.981396
 30
0.0
 10
14.271296
 20
16.767320
 30
0.0
  0
SPLINE
  5
108
100
AcDbEntity
  8
PERIMETER
 62
7
100
AcDbSpline
 70
8
 71
3
 72
8
 73
4
 74
0
 40
0
 40
0
 40
0
 40
0
 40
1
 40
1
 40
1
 40
1
 10
16.464083
 20
14.884249
 30
0.0
 10
16.385199
 20
15.213362
 30
0.0
 10
16.537420
 20
15.554393
 30
0.0
 10
16.835085
 20
15.715430
 30
0.0
  0
SPLINE
  5
109
100
AcDbEntity
  8
PERIMETER
 62
7
100
AcDbSpline
 70
8
 71
3
 72
8
 73
4
 74
0
 40
0
 40
0
 40
0
 40
0
 40
1
 40
1
 40
1
 40
1
 10
16.835085
 20
15.715430
 30
0.0
 10
17.132751
 20
15.876468
 30
0.0
 10
17.501492
 20
15.817278
 30
0.0
 10
17.733804
 20
15.571170
 30
0.0
  0
SPLINE
  5
10a
100
AcDbEntity
  8
PERIMETER
 62
7
100
AcDbSpline
 70
8
 71
3
 72
8
 73
4
 74
0
 40
0
 40
0
 40
0
 40
0
 40
1
 40
1
 40
1
 40
1
 10
17.733804
 20
15.571170
 30
0.0
 10
17.966115
 20
15.325061
 30
0.0
 10
18.003956
 20
14.953522
 30
0.0
 10
17.826032
 20
14.665631
 30
0.0
  0
SPLINE
  5
10b
100
AcDbEntity
  8
PERIMETER
 62
7
100
AcDbSpline
 70
8
 71
3
 72
8
 73
4
 74
0
 40
0
 40
0
 40
0
 40
0
 40
1
 40
1
 40
1
 40
1
 10
17.826032
 20
14.665631
 30
0.0
 10
17.648107
 20
14.377741
 30
0.0
 10
17.298871
 20
14.245426
 30
0.0
 10
16.974851
 20
14.343146
 30
0.0
  0
LWPOLYLINE
  5
10c
100
AcDbEntity
  8
PERIMETER
 62
7
100
AcDbPolyline
 90
4
 70
0
 10
14.812399
 20
17.278089
 30
0.0
 10
15.757256
 20
16.277117
 30
0.0
 10
15.757256
 20
14.217047
 30
0.0
 10
16.464083
 20
14.884249
 30
0.0
  0
LWPOLYLINE
  5
10d
100
AcDbEntity
  8
PERIMETER
 62
7
100
AcDbPolyline
 90
2
 70
0
 10
16.974851
 20
14.343146
 30
0.0
 10
15.757256
 20
13.193809
 30
0.0
  0
LWPOLYLINE
  5
10e
100
AcDbEntity
  8
PERIMETER
 62
7
100
AcDbPolyline
 90
6
 70
1
 10
9.915769
 20
28.322555
 30
0.0
 10
9.915769
 20
45.132849
 30
0.0
 10
6.784864
 20
45.132849
 30
0.0
 10
6.784864
 20
43.626943
 30
0.0
 10
8.909863
 20
43.626943
 30
0.0
 10
8.909863
 20
28.322555
 30
0.0
  0
LWPOLYLINE
  5
10f
100
AcDbEntity
  8
PERIMETER
 62
7
100
AcDbPolyline
 90
14
 70
1
 10
11.892747
 20
47.545141
 30
0.0
 10
6.761843
 20
47.545141
 30
0.0
 10
6.761843
 20
46.039234
 30
0.0
 10
10.886842
 20
46.039234
 30
0.0
 10
10.886842
 20
27.240752
 30
0.0
 10
7.892748
 20
27.240752
 30
0.0
 10
7.892748
 20
42.545141
 30
0.0
 10
6.761843
 20
42.545141
 30
0.0
 10
6.761843
 20
13.987695
 30
0.0
 10
7.830248
 20
13.987695
 30
0.0
 10
7.830248
 20
19.987695
 30
0.0
 10
8.575761
 20
19.987695
 30
0.0
 10
8.575761
 20
26.234847
 30
0.0
 10
11.892747
 20
26.234847
 30
0.0
  0
LWPOLYLINE
  5
110
100
AcDbEntity
  8
PERIMETER
 62
7
100
AcDbPolyline
 90
4
 70
1
 10
21.703859
 20
33.084342
 30
0.0
 10
21.703859
 20
30.090248
 30
0.0
 10
21.209765
 20
30.090248
 30
0.0
 10
21.209765
 20
33.084342
 30
0.0
  0
LWPOLYLINE
  5
111
100
AcDbEntity
  8
PERIMETER
 62
7
100
AcDbPolyline
 90
4
 70
1
 10
20.209765
 20
35.340248
 30
0.0
 10
20.209765
 20
38.334342
 30
0.0
 10
20.703859
 20
38.334342
 30
0.0
 10
20.703859
 20
35.340248
 30
0.0
  0
LWPOLYLINE
  5
112
100
AcDbEntity
  8
PERIMETER
 62
7
100
AcDbPolyline
 90
4
 70
1
 10
20.209765
 20
31.840248
 30
0.0
 10
20.209765
 20
34.834342
 30
0.0
 10
20.703859
 20
34.834342
 30
0.0
 10
20.703859
 20
31.840248
 30
0.0
  0
LWPOLYLINE
  5
113
100
AcDbEntity
  8
PERIMETER
 62
7
100
AcDbPolyline
 90
4
 70
1
 10
19.703859
 20
33.084342
 30
0.0
 10
19.703859
 20
30.090248
 30
0.0
 10
19.209765
 20
30.090248
 30
0.0
 10
19.209765
 20
33.084342
 30
0.0
  0
LWPOLYLINE
  5
114
100
AcDbEntity
  8
PERIMETER
 62
7
100
AcDbPolyline
 90
4
 70
1
 10
18.209765
 20
31.840248
 30
0.0
 10
18.209765
 20
34.834342
 30
0.0
 10
18.703859
 20
34.834342
 30
0.0
 10
18.703859
 20
31.840248
 30
0.0
  0
LWPOLYLINE
  5
115
100
AcDbEntity
  8
PERIMETER
 62
7
100
AcDbPolyline
 90
4
 70
1
 10
18.209765
 20
38.334342
 30
0.0
 10
18.703859
 20
38.334342
 30
0.0
 10
18.703859
 20
35.340248
 30
0.0
 10
18.209765
 20
35.340248
 30
0.0
  0
LWPOLYLINE
  5
116
100
AcDbEntity
  8
PERIMETER
 62
7
100
AcDbPolyline
 90
4
 70
1
 10
19.703859
 20
36.584342
 30
0.0
 10
19.703859
 20
33.590248
 30
0.0
 10
19.209765
 20
33.590248
 30
0.0
 10
19.209765
 20
36.584342
 30
0.0
  0
LWPOLYLINE
  5
117
100
AcDbEntity
  8
PERIMETER
 62
7
100
AcDbPolyline
 90
4
 70
1
 10
21.703859
 20
36.584342
 30
0.0
 10
21.703859
 20
33.590248
 30
0.0
 10
21.209765
 20
33.590248
 30
0.0
 10
21.209765
 20
36.584342
 30
0.0
  0
LWPOLYLINE
  5
118
100
AcDbEntity
  8
PERIMETER
 62
7
100
AcDbPolyline
 90
24
 70
1
 10
19.209765
 20
40.090248
 30
0.0
 10
18.703859
 20
40.090248
 30
0.0
 10
18.703859
 20
38.840248
 30
0.0
 10
18.209765
 20
38.840248
 30
0.0
 10
18.209765
 20
40.090248
 30
0.0
 10
17.749776
 20
40.090248
 30
0.0
 10
17.749776
 20
26.569847
 30
0.0
 10
22.255682
 20
26.569847
 30
0.0
 10
22.255682
 20
38.334342
 30
0.0
 10
22.749776
 20
38.334342
 30
0.0
 10
22.749776
 20
26.569847
 30
0.0
 10
23.755682
 20
26.569847
 30
0.0
 10
23.755682
 20
40.090248
 30
0.0
 10
21.703859
 20
40.090248
 30
0.0
 10
21.703859
 20
37.090248
 30
0.0
 10
21.209765
 20
37.090248
 30
0.0
 10
21.209765
 20
40.090248
 30
0.0
 10
20.703859
 20
40.090248
 30
0.0
 10
20.703859
 20
38.840248
 30
0.0
 10
20.209765
 20
38.840248
 30
0.0
 10
20.209765
 20
40.090248
 30
0.0
 10
19.703859
 20
40.090248
 30
0.0
 10
19.703859
 20
37.090248
 30
0.0
 10
19.209765
 20
37.090248
 30
0.0
  0
LWPOLYLINE
  5
119
100
AcDbEntity
  8
PERIMETER
 62
7
100
AcDbPolyline
 90
6
 70
1
 10
8.655484
 20
12.708366
 30
0.0
 10
8.655484
 20
9.431877
 30
0.0
 10
6.155484
 20
6.452493
 30
0.0
 10
6.155484
 20
3.448466
 30
0.0
 10
10.661391
 20
3.448466
 30
0.0
 10
10.661391
 20
12.708366
 30
0.0
  0
LWPOLYLINE
  5
11a
100
AcDbEntity
  8
PERIMETER
 62
7
100
AcDbPolyline
 90
6
 70
1
 10
18.452961
 20
46.714026
 30
0.0
 10
21.432346
 20
44.214026
 30
0.0
 10
23.751136
 20
44.214026
 30
0.0
 10
23.751136
 20
47.719932
 30
0.0
 10
14.491236
 20
47.719932
 30
0.0
 10
14.491236
 20
46.714026
 30
0.0
  0
SPLINE
  5
11b
100
AcDbEntity
  8
PERIMETER
 62
7
100
AcDbSpline
 70
8
 71
3
 72
8
 73
4
 74
0
 40
0
 40
0
 40
0
 40
0
 40
1
 40
1
 40
1
 40
1
 10
3.808086
 20
37.234618
 30
0.0
 10
4.141244
 20
37.294146
 30
0.0
 10
4.472803
 20
37.122268
 30
0.0
 10
4.616182
 20
36.815705
 30
0.0
  0
SPLINE
  5
11c
100
AcDbEntity
  8
PERIMETER
 62
7
100
AcDbSpline
 70
8
 71
3
 72
8
 73
4
 74
0
 40
0
 40
0
 40
0
 40
0
 40
1
 40
1
 40
1
 40
1
 10
4.616182
 20
36.815705
 30
0.0
 10
4.759560
 20
36.509143
 30
0.0
 10
4.678936
 20
36.144488
 30
0.0
 10
4.419680
 20
35.926946
 30
0.0
  0
SPLINE
  5
11d
100
AcDbEntity
  8
PERIMETER
 62
7
100
AcDbSpline
 70
8
 71
3
 72
8
 73
4
 74
0
 40
0
 40
0
 40
0
 40
0
 40
1
 40
1
 40
1
 40
1
 10
4.419680
 20
35.926946
 30
0.0
 10
4.160424
 20
35.709405
 30
0.0
 10
3.787309
 20
35.693327
 30
0.0
 10
3.510301
 20
35.887761
 30
0.0
  0
SPLINE
  5
11e
100
AcDbEntity
  8
PERIMETER
 62
7
100
AcDbSpline
 70
8
 71
3
 72
8
 73
4
 74
0
 40
0
 40
0
 40
0
 40
0
 40
1
 40
1
 40
1
 40
1
 10
3.510301
 20
35.887761
 30
0.0
 10
3.233293
 20
36.082195
 30
0.0
 10
3.121601
 20
36.438563
 30
0.0
 10
3.238077
 20
36.756323
 30
0.0
  0
LWPOLYLINE
  5
11f
100
AcDbEntity
  8
PERIMETER
 62
7
100
AcDbPolyline
 90
4
 70
0
 10
4.394725
 20
43.396906
 30
0.0
 10
2.439342
 20
41.066572
 30
0.0
 10
2.439342
 20
38.865825
 30
0.0
 10
3.808086
 20
37.234618
 30
0.0
  0
SPLINE
  5
120
100
AcDbEntity
  8
PERIMETER
 62
7
100
AcDbSpline
 70
8
 71
3
 72
8
 73
4
 74
0
 40
0
 40
0
 40
0
 40
0
 40
1
 40
1
 40
1
 40
1
 10
4.465934
 20
33.085235
 30
0.0
 10
4.799092
 20
33.144764
 30
0.0
 10
5.130651
 20
32.972886
 30
0.0
 10
5.274030
 20
32.666323
 30
0.0
  0
SPLINE
  5
121
100
AcDbEntity
  8
PERIMETER
 62
7
100
AcDbSpline
 70
8
 71
3
 72
8
 73
4
 74
0
 40
0
 40
0
 40
0
 40
0
 40
1
 40
1
 40
1
 40
1
 10
5.274030
 20
32.666323
 30
0.0
 10
5.417408
 20
32.359760
 30
0.0
 10
5.336784
 20
31.995106
 30
0.0
 10
5.077528
 20
31.777564
 30
0.0
  0
SPLINE
  5
122
100
AcDbEntity
  8
PERIMETER
 62
7
100
AcDbSpline
 70
8
 71
3
 72
8
 73
4
 74
0
 40
0
 40
0
 40
0
 40
0
 40
1
 40
1
 40
1
 40
1
 10
5.077528
 20
31.777564
 30
0.0
 10
4.818272
 20
31.560022
 30
0.0
 10
4.445157
 20
31.543945
 30
0.0
 10
4.168149
 20
31.738379
 30
0.0
  0
SPLINE
  5
123
100
AcDbEntity
  8
PERIMETER
 62
7
100
AcDbSpline
 70
8
 71
3
 72
8
 73
4
 74
0
 40
0
 40
0
 40
0
 40
0
 40
1
 40
1
 40
1
 40
1
 10
4.168149
 20
31.738379
 30
0.0
 10
3.891141
 20
31.932813
 30
0.0
 10
3.779449
 20
32.289181
 30
0.0
 10
3.895925
 20
32.606941
 30
0.0
  0
LWPOLYLINE
  5
124
100
AcDbEntity
  8
PERIMETER
 62
7
100
AcDbPolyline
 90
4
 70
0
 10
3.238077
 20
36.756323
 30
0.0
 10
2.439342
 20
37.708219
 30
0.0
 10
2.439342
 20
35.500434
 30
0.0
 10
4.465934
 20
33.085235
 30
0.0
  0
LWPOLYLINE
  5
125
100
AcDbEntity
  8
PERIMETER
 62
7
100
AcDbPolyline
 90
13
 70
0
 10
3.895925
 20
32.606941
 30
0.0
 10
1.695248
 20
35.229606
 30
0.0
 10
1.695248
 20
41.337400
 30
0.0
 10
4.047749
 20
44.141001
 30
0.0
 10
6.445248
 20
44.141001
 30
0.0
 10
6.445248
 20
47.558651
 30
0.0
 10
0.439342
 20
47.558651
 30
0.0
 10
0.439342
 20
34.040682
 30
0.0
 10
0.468943
 20
33.959355
 30
0.0
 10
6.419528
 20
26.867723
 30
0.0
 10
6.445248
 20
26.889304
 30
0.0
 10
6.445248
 20
43.396906
 30
0.0
 10
4.394725
 20
43.396906
 30
0.0
  0
LWPOLYLINE
  5
126
100
AcDbEntity
  8
PERIMETER
 62
7
100
AcDbPolyline
 90
5
 70
1
 10
12.445589
 20
43.052285
 30
0.0
 10
13.302663
 20
43.052285
 30
0.0
 10
15.451495
 20
45.613164
 30
0.0
 10
15.451495
 20
46.469935
 30
0.0
 10
12.445589
 20
46.469935
 30
0.0
  0
LWPOLYLINE
  5
127
100
AcDbEntity
  8
PERIMETER
 62
7
100
AcDbPolyline
 90
4
 70
1
 10
16.397985
 20
32.932355
 30
0.0
 10
15.403891
 20
32.932355
 30
0.0
 10
15.403891
 20
33.926450
 30
0.0
 10
16.397985
 20
33.926450
 30
0.0
  0
LWPOLYLINE
  5
128
100
AcDbEntity
  8
PERIMETER
 62
7
100
AcDbPolyline
 90
4
 70
1
 10
16.397985
 20
30.932355
 30
0.0
 10
15.403891
 20
30.932355
 30
0.0
 10
15.403891
 20
31.926450
 30
0.0
 10
16.397985
 20
31.926450
 30
0.0
  0
LWPOLYLINE
  5
129
100
AcDbEntity
  8
PERIMETER
 62
7
100
AcDbPolyline
 90
4
 70
1
 10
16.397985
 20
28.932355
 30
0.0
 10
15.403891
 20
28.932355
 30
0.0
 10
15.403891
 20
29.926450
 30
0.0
 10
16.397985
 20
29.926450
 30
0.0
  0
SPLINE
  5
12a
100
AcDbEntity
  8
PERIMETER
 62
7
100
AcDbSpline
 70
8
 71
3
 72
8
 73
4
 74
0
 40
0
 40
0
 40
0
 40
0
 40
1
 40
1
 40
1
 40
1
 10
11.397984
 20
11.143150
 30
0.0
 10
11.612279
 20
10.206986
 30
0.0
 10
11.781112
 20
9.260994
 30
0.0
 10
11.903891
 20
8.308497
 30
0.0
  0
LWPOLYLINE
  5
12b
100
AcDbEntity
  8
PERIMETER
 62
7
100
AcDbPolyline
 90
9
 70
0
 10
16.147984
 20
46.508477
 30
0.0
 10
16.147984
 20
45.380877
 30
0.0
 10
13.602035
 20
42.346733
 30
0.0
 10
12.397984
 20
42.346733
 30
0.0
 10
12.397984
 20
25.843460
 30
0.0
 10
8.897984
 20
25.843460
 30
0.0
 10
8.897984
 20
24.339433
 30
0.0
 10
11.397984
 20
21.360049
 30
0.0
 10
11.397984
 20
11.143150
 30
0.0
  0
LWPOLYLINE
  5
12c
100
AcDbEntity
  8
PERIMETER
 62
7
100
AcDbPolyline
 90
18
 70
0
 10
11.903891
 20
8.308497
 30
0.0
 10
11.903891
 20
19.373682
 30
0.0
 10
17.403891
 20
25.928328
 30
0.0
 10
17.403891
 20
40.312696
 30
0.0
 10
18.403891
 20
41.504449
 30
0.0
 10
18.403891
 20
43.013636
 30
0.0
 10
16.397985
 20
40.623092
 30
0.0
 10
16.397985
 20
34.932355
 30
0.0
 10
15.403891
 20
34.932355
 30
0.0
 10
15.403891
 20
40.429189
 30
0.0
 10
18.403891
 20
44.004449
 30
0.0
 10
18.403891
 20
45.513636
 30
0.0
 10
14.397985
 20
40.739584
 30
0.0
 10
14.397985
 20
25.843460
 30
0.0
 10
13.403891
 20
25.843460
 30
0.0
 10
13.403891
 20
40.545681
 30
0.0
 10
18.407270
 20
46.508477
 30
0.0
 10
16.147984
 20
46.508477
 30
0.0
  0
LWPOLYLINE
  5
12d
100
AcDbEntity
  8
PERIMETER
 62
7
100
AcDbPolyline
 90
4
 70
1
 10
5.437151
 20
23.149628
 30
0.0
 10
5.437151
 20
23.640441
 30
0.0
 10
0.943056
 20
28.996295
 30
0.0
 10
0.943056
 20
28.505482
 30
0.0
  0
LWPOLYLINE
  5
12e
100
AcDbEntity
  8
PERIMETER
 62
7
100
AcDbPolyline
 90
4
 70
1
 10
5.437151
 20
17.149628
 30
0.0
 10
5.437151
 20
17.640441
 30
0.0
 10
0.943056
 20
22.996295
 30
0.0
 10
0.943056
 20
22.505482
 30
0.0
  0
LWPOLYLINE
  5
12f
100
AcDbEntity
  8
PERIMETER
 62
7
100
AcDbPolyline
 90
4
 70
1
 10
0.943056
 20
25.505482
 30
0.0
 10
5.437151
 20
20.149628
 30
0.0
 10
5.437151
 20
20.640441
 30
0.0
 10
0.943056
 20
25.996295
 30
0.0
  0
LWPOLYLINE
  5
130
100
AcDbEntity
  8
PERIMETER
 62
7
100
AcDbPolyline
 90
4
 70
1
 10
5.437151
 20
25.149628
 30
0.0
 10
5.437151
 20
25.640441
 30
0.0
 10
0.943056
 20
30.996295
 30
0.0
 10
0.943056
 20
30.505482
 30
0.0
  0
LWPOLYLINE
  5
131
100
AcDbEntity
  8
PERIMETER
 62
7
100
AcDbPolyline
 90
4
 70
1
 10
5.437151
 20
24.149628
 30
0.0
 10
5.437151
 20
24.640441
 30
0.0
 10
0.943056
 20
29.996295
 30
0.0
 10
0.943056
 20
29.505482
 30
0.0
  0
LWPOLYLINE
  5
132
100
AcDbEntity
  8
PERIMETER
 62
7
100
AcDbPolyline
 90
4
 70
1
 10
5.437151
 20
22.149628
 30
0.0
 10
5.437151
 20
22.640441
 30
0.0
 10
0.943056
 20
27.996295
 30
0.0
 10
0.943056
 20
27.505482
 30
0.0
  0
LWPOLYLINE
  5
133
100
AcDbEntity
  8
PERIMETER
 62
7
100
AcDbPolyline
 90
4
 70
1
 10
5.437151
 20
19.149628
 30
0.0
 10
5.437151
 20
19.640441
 30
0.0
 10
0.943056
 20
24.996295
 30
0.0
 10
0.943056
 20
24.505482
 30
0.0
  0
LWPOLYLINE
  5
134
100
AcDbEntity
  8
PERIMETER
 62
7
100
AcDbPolyline
 90
4
 70
1
 10
5.437151
 20
26.149628
 30
0.0
 10
5.437151
 20
26.640441
 30
0.0
 10
0.943056
 20
31.996295
 30
0.0
 10
0.943056
 20
31.505482
 30
0.0
  0
LWPOLYLINE
  5
135
100
AcDbEntity
  8
PERIMETER
 62
7
100
AcDbPolyline
 90
4
 70
1
 10
5.437151
 20
21.149628
 30
0.0
 10
5.437151
 20
21.640441
 30
0.0
 10
0.943056
 20
26.996295
 30
0.0
 10
0.943056
 20
26.505482
 30
0.0
  0
LWPOLYLINE
  5
136
100
AcDbEntity
  8
PERIMETER
 62
7
100
AcDbPolyline
 90
4
 70
1
 10
5.437151
 20
16.149628
 30
0.0
 10
5.437151
 20
16.640441
 30
0.0
 10
0.943056
 20
21.996295
 30
0.0
 10
0.943056
 20
21.505482
 30
0.0
  0
LWPOLYLINE
  5
137
100
AcDbEntity
  8
PERIMETER
 62
7
100
AcDbPolyline
 90
4
 70
1
 10
5.437151
 20
18.149628
 30
0.0
 10
5.437151
 20
18.640441
 30
0.0
 10
0.943056
 20
23.996295
 30
0.0
 10
0.943056
 20
23.505482
 30
0.0
  0
SPLINE
  5
138
100
AcDbEntity
  8
PERIMETER
 62
7
100
AcDbSpline
 70
8
 71
3
 72
8
 73
4
 74
0
 40
0
 40
0
 40
0
 40
0
 40
1
 40
1
 40
1
 40
1
 10
23.717156
 20
40.750742
 30
0.0
 10
23.744382
 20
40.751352
 30
0.0
 10
23.768385
 20
40.768756
 30
0.0
 10
23.777428
 20
40.794444
 30
0.0
  0
SPLINE
  5
139
100
AcDbEntity
  8
PERIMETER
 62
7
100
AcDbSpline
 70
8
 71
3
 72
8
 73
4
 74
0
 40
0
 40
0
 40
0
 40
0
 40
1
 40
1
 40
1
 40
1
 10
23.777428
 20
40.794444
 30
0.0
 10
23.786471
 20
40.820131
 30
0.0
 10
23.778664
 20
40.848734
 30
0.0
 10
23.757824
 20
40.866265
 30
0.0
  0
SPLINE
  5
13a
100
AcDbEntity
  8
PERIMETER
 62
7
100
AcDbSpline
 70
8
 71
3
 72
8
 73
4
 74
0
 40
0
 40
0
 40
0
 40
0
 40
1
 40
1
 40
1
 40
1
 10
23.757824
 20
40.866265
 30
0.0
 10
22.084048
 20
42.274332
 30
0.0
 10
20.606913
 20
43.900764
 30
0.0
 10
19.366008
 20
45.701968
 30
0.0
  0
SPLINE
  5
13b
100
AcDbEntity
  8
PERIMETER
 62
7
100
AcDbSpline
 70
8
 71
3
 72
8
 73
4
 74
0
 40
0
 40
0
 40
0
 40
0
 40
1
 40
1
 40
1
 40
1
 10
19.366008
 20
45.701968
 30
0.0
 10
19.350559
 20
45.724394
 30
0.0
 10
19.322838
 20
45.734911
 30
0.0
 10
19.296401
 20
45.728375
 30
0.0
  0
SPLINE
  5
13c
100
AcDbEntity
  8
PERIMETER
 62
7
100
AcDbSpline
 70
8
 71
3
 72
8
 73
4
 74
0
 40
0
 40
0
 40
0
 40
0
 40
1
 40
1
 40
1
 40
1
 10
19.296401
 20
45.728375
 30
0.0
 10
19.269965
 20
45.721840
 30
0.0
 10
19.250336
 20
45.699619
 30
0.0
 10
19.247115
 20
45.672578
 30
0.0
  0
SPLINE
  5
13d
100
AcDbEntity
  8
PERIMETER
 62
7
100
AcDbSpline
 70
8
 71
3
 72
8
 73
4
 74
0
 40
0
 40
0
 40
0
 40
0
 40
1
 40
1
 40
1
 40
1
 10
19.247115
 20
45.672578
 30
0.0
 10
19.227165
 20
45.505110
 30
0.0
 10
19.193115
 20
45.339626
 30
0.0
 10
19.145327
 20
45.177886
 30
0.0
  0
SPLINE
  5
13e
100
AcDbEntity
  8
PERIMETER
 62
7
100
AcDbSpline
 70
8
 71
3
 72
8
 73
4
 74
0
 40
0
 40
0
 40
0
 40
0
 40
1
 40
1
 40
1
 40
1
 10
19.145327
 20
45.177886
 30
0.0
 10
19.139636
 20
45.158623
 30
0.0
 10
19.143104
 20
45.137813
 30
0.0
 10
19.154736
 20
45.121437
 30
0.0
  0
SPLINE
  5
13f
100
AcDbEntity
  8
PERIMETER
 62
7
100
AcDbSpline
 70
8
 71
3
 72
8
 73
4
 74
0
 40
0
 40
0
 40
0
 40
0
 40
1
 40
1
 40
1
 40
1
 10
19.154736
 20
45.121437
 30
0.0
 10
19.683304
 20
44.377315
 30
0.0
 10
20.252321
 20
43.662770
 30
0.0
 10
20.859221
 20
42.981026
 30
0.0
  0
LWPOLYLINE
  5
140
100
AcDbEntity
  8
PERIMETER
 62
7
100
AcDbPolyline
 90
4
 70
1
 10
0.437151
 20
33.386258
 30
0.0
 10
5.943057
 20
26.824575
 30
0.0
 10
5.943057
 20
14.759665
 30
0.0
 10
0.437151
 20
21.321347
 30
0.0
  0
SPLINE
  5
141
100
AcDbEntity
  8
PERIMETER
 62
7
100
AcDbSpline
 70
8
 71
3
 72
8
 73
4
 74
0
 40
0
 40
0
 40
0
 40
0
 40
1
 40
1
 40
1
 40
1
 10
20.490212
 20
42.652450
 30
0.0
 10
19.955039
 20
43.253619
 30
0.0
 10
19.448703
 20
43.879852
 30
0.0
 10
18.972914
 20
44.529035
 30
0.0
  0
SPLINE
  5
142
100
AcDbEntity
  8
PERIMETER
 62
7
100
AcDbSpline
 70
8
 71
3
 72
8
 73
4
 74
0
 40
0
 40
0
 40
0
 40
0
 40
1
 40
1
 40
1
 40
1
 10
18.972914
 20
44.529035
 30
0.0
 10
18.959855
 20
44.546853
 30
0.0
 10
18.938689
 20
44.556881
 30
0.0
 10
18.916629
 20
44.555702
 30
0.0
  0
SPLINE
  5
143
100
AcDbEntity
  8
PERIMETER
 62
7
100
AcDbSpline
 70
8
 71
3
 72
8
 73
4
 74
0
 40
0
 40
0
 40
0
 40
0
 40
1
 40
1
 40
1
 40
1
 10
18.916629
 20
44.555702
 30
0.0
 10
18.894569
 20
44.554523
 30
0.0
 10
18.874592
 20
44.542296
 30
0.0
 10
18.863507
 20
44.523187
 30
0.0
  0
SPLINE
  5
144
100
AcDbEntity
  8
PERIMETER
 62
7
100
AcDbSpline
 70
8
 71
3
 72
8
 73
4
 74
0
 40
0
 40
0
 40
0
 40
0
 40
1
 40
1
 40
1
 40
1
 10
18.863507
 20
44.523187
 30
0.0
 10
18.798211
 20
44.410634
 30
0.0
 10
18.725656
 20
44.302453
 30
0.0
 10
18.646300
 20
44.199330
 30
0.0
  0
SPLINE
  5
145
100
AcDbEntity
  8
PERIMETER
 62
7
100
AcDbSpline
 70
8
 71
3
 72
8
 73
4
 74
0
 40
0
 40
0
 40
0
 40
0
 40
1
 40
1
 40
1
 40
1
 10
18.646300
 20
44.199330
 30
0.0
 10
18.628461
 20
44.176149
 30
0.0
 10
18.628169
 20
44.143946
 30
0.0
 10
18.645583
 20
44.120445
 30
0.0
  0
SPLINE
  5
146
100
AcDbEntity
  8
PERIMETER
 62
7
100
AcDbSpline
 70
8
 71
3
 72
8
 73
4
 74
0
 40
0
 40
0
 40
0
 40
0
 40
1
 40
1
 40
1
 40
1
 10
18.645583
 20
44.120445
 30
0.0
 10
19.672068
 20
42.735171
 30
0.0
 10
20.834104
 20
41.455687
 30
0.0
 10
22.114451
 20
40.300972
 30
0.0
  0
SPLINE
  5
147
100
AcDbEntity
  8
PERIMETER
 62
7
100
AcDbSpline
 70
8
 71
3
 72
8
 73
4
 74
0
 40
0
 40
0
 40
0
 40
0
 40
1
 40
1
 40
1
 40
1
 10
22.114451
 20
40.300972
 30
0.0
 10
22.136173
 20
40.281383
 30
0.0
 10
22.168255
 20
40.278583
 30
0.0
 10
22.193041
 20
40.294114
 30
0.0
  0
SPLINE
  5
148
100
AcDbEntity
  8
PERIMETER
 62
7
100
AcDbSpline
 70
8
 71
3
 72
8
 73
4
 74
0
 40
0
 40
0
 40
0
 40
0
 40
1
 40
1
 40
1
 40
1
 10
22.193041
 20
40.294114
 30
0.0
 10
22.303305
 20
40.363205
 30
0.0
 10
22.417951
 20
40.425041
 30
0.0
 10
22.536251
 20
40.479231
 30
0.0
  0
SPLINE
  5
149
100
AcDbEntity
  8
PERIMETER
 62
7
100
AcDbSpline
 70
8
 71
3
 72
8
 73
4
 74
0
 40
0
 40
0
 40
0
 40
0
 40
1
 40
1
 40
1
 40
1
 10
22.536251
 20
40.479231
 30
0.0
 10
22.556336
 20
40.488431
 30
0.0
 10
22.570425
 20
40.507142
 30
0.0
 10
22.573716
 20
40.528987
 30
0.0
  0
SPLINE
  5
14a
100
AcDbEntity
  8
PERIMETER
 62
7
100
AcDbSpline
 70
8
 71
3
 72
8
 73
4
 74
0
 40
0
 40
0
 40
0
 40
0
 40
1
 40
1
 40
1
 40
1
 10
22.573716
 20
40.528987
 30
0.0
 10
22.577007
 20
40.550832
 30
0.0
 10
22.569057
 20
40.572864
 30
0.0
 10
22.552574
 20
40.587573
 30
0.0
  0
SPLINE
  5
14b
100
AcDbEntity
  8
PERIMETER
 62
7
100
AcDbSpline
 70
8
 71
3
 72
8
 73
4
 74
0
 40
0
 40
0
 40
0
 40
0
 40
1
 40
1
 40
1
 40
1
 10
22.552574
 20
40.587573
 30
0.0
 10
21.952058
 20
41.123479
 30
0.0
 10
21.377319
 20
41.687587
 30
0.0
 10
20.830296
 20
42.277994
 30
0.0
  0
LWPOLYLINE
  5
14c
100
AcDbEntity
  8
PERIMETER
 62
7
100
AcDbPolyline
 90
2
 70
0
 10
20.859221
 20
42.981026
 30
0.0
 10
20.490212
 20
42.652450
 30
0.0
  0
SPLINE
  5
14d
100
AcDbEntity
  8
PERIMETER
 62
7
100
AcDbSpline
 70
8
 71
3
 72
8
 73
4
 74
0
 40
0
 40
0
 40
0
 40
0
 40
1
 40
1
 40
1
 40
1
 10
21.192776
 20
42.613759
 30
0.0
 10
21.813116
 20
41.944223
 30
0.0
 10
22.469743
 20
41.309245
 30
0.0
 10
23.159693
 20
40.711692
 30
0.0
  0
SPLINE
  5
14e
100
AcDbEntity
  8
PERIMETER
 62
7
100
AcDbSpline
 70
8
 71
3
 72
8
 73
4
 74
0
 40
0
 40
0
 40
0
 40
0
 40
1
 40
1
 40
1
 40
1
 10
23.159693
 20
40.711692
 30
0.0
 10
23.174877
 20
40.698541
 30
0.0
 10
23.195258
 20
40.693091
 30
0.0
 10
23.214979
 20
40.696907
 30
0.0
  0
SPLINE
  5
14f
100
AcDbEntity
  8
PERIMETER
 62
7
100
AcDbSpline
 70
8
 71
3
 72
8
 73
4
 74
0
 40
0
 40
0
 40
0
 40
0
 40
1
 40
1
 40
1
 40
1
 10
23.214979
 20
40.696907
 30
0.0
 10
23.380559
 20
40.728949
 30
0.0
 10
23.548547
 20
40.746958
 30
0.0
 10
23.717156
 20
40.750742
 30
0.0
  0
LWPOLYLINE
  5
150
100
AcDbEntity
  8
PERIMETER
 62
7
100
AcDbPolyline
 90
2
 70
0
 10
20.830296
 20
42.277994
 30
0.0
 10
21.192776
 20
42.613759
 30
0.0
  0
SPLINE
  5
151
100
AcDbEntity
  8
PERIMETER
 62
7
100
AcDbSpline
 70
8
 71
3
 72
8
 73
4
 74
0
 40
0
 40
0
 40
0
 40
0
 40
1
 40
1
 40
1
 40
1
 10
23.611196
 20
16.292814
 30
0.0
 10
23.631867
 20
16.275085
 30
0.0
 10
23.661356
 20
16.272007
 30
0.0
 10
23.685242
 20
16.285086
 30
0.0
  0
SPLINE
  5
152
100
AcDbEntity
  8
PERIMETER
 62
7
100
AcDbSpline
 70
8
 71
3
 72
8
 73
4
 74
0
 40
0
 40
0
 40
0
 40
0
 40
1
 40
1
 40
1
 40
1
 10
23.685242
 20
16.285086
 30
0.0
 10
23.709129
 20
16.298165
 30
0.0
 10
23.722421
 20
16.324668
 30
0.0
 10
23.718619
 20
16.351633
 30
0.0
  0
SPLINE
  5
153
100
AcDbEntity
  8
PERIMETER
 62
7
100
AcDbSpline
 70
8
 71
3
 72
8
 73
4
 74
0
 40
0
 40
0
 40
0
 40
0
 40
1
 40
1
 40
1
 40
1
 10
23.718619
 20
16.351633
 30
0.0
 10
23.413290
 20
18.517495
 30
0.0
 10
23.400156
 20
20.714548
 30
0.0
 10
23.679568
 20
22.883905
 30
0.0
  0
SPLINE
  5
154
100
AcDbEntity
  8
PERIMETER
 62
7
100
AcDbSpline
 70
8
 71
3
 72
8
 73
4
 74
0
 40
0
 40
0
 40
0
 40
0
 40
1
 40
1
 40
1
 40
1
 10
23.679568
 20
22.883905
 30
0.0
 10
23.683047
 20
22.910915
 30
0.0
 10
23.669439
 20
22.937256
 30
0.0
 10
23.645398
 20
22.950048
 30
0.0
  0
SPLINE
  5
155
100
AcDbEntity
  8
PERIMETER
 62
7
100
AcDbSpline
 70
8
 71
3
 72
8
 73
4
 74
0
 40
0
 40
0
 40
0
 40
0
 40
1
 40
1
 40
1
 40
1
 10
23.645398
 20
22.950048
 30
0.0
 10
23.621357
 20
22.962841
 30
0.0
 10
23.591908
 20
22.959412
 30
0.0
 10
23.571450
 20
22.941437
 30
0.0
  0
SPLINE
  5
156
100
AcDbEntity
  8
PERIMETER
 62
7
100
AcDbSpline
 70
8
 71
3
 72
8
 73
4
 74
0
 40
0
 40
0
 40
0
 40
0
 40
1
 40
1
 40
1
 40
1
 10
23.571450
 20
22.941437
 30
0.0
 10
23.444754
 20
22.830120
 30
0.0
 10
23.308888
 20
22.729696
 30
0.0
 10
23.165299
 20
22.641234
 30
0.0
  0
SPLINE
  5
157
100
AcDbEntity
  8
PERIMETER
 62
7
100
AcDbSpline
 70
8
 71
3
 72
8
 73
4
 74
0
 40
0
 40
0
 40
0
 40
0
 40
1
 40
1
 40
1
 40
1
 10
23.165299
 20
22.641234
 30
0.0
 10
23.148197
 20
22.630698
 30
0.0
 10
23.136880
 20
22.612893
 30
0.0
 10
23.134601
 20
22.592936
 30
0.0
  0
SPLINE
  5
158
100
AcDbEntity
  8
PERIMETER
 62
7
100
AcDbSpline
 70
8
 71
3
 72
8
 73
4
 74
0
 40
0
 40
0
 40
0
 40
0
 40
1
 40
1
 40
1
 40
1
 10
23.134601
 20
22.592936
 30
0.0
 10
23.031017
 20
21.686089
 30
0.0
 10
22.977292
 20
20.774239
 30
0.0
 10
22.973670
 20
19.861502
 30
0.0
  0
LWPOLYLINE
  5
159
100
AcDbEntity
  8
PERIMETER
 62
7
100
AcDbPolyline
 90
1
 70
1
 10
23.717156
 20
40.750742
 30
0.0
  0
SPLINE
  5
15a
100
AcDbEntity
  8
PERIMETER
 62
7
100
AcDbSpline
 70
8
 71
3
 72
8
 73
4
 74
0
 40
0
 40
0
 40
0
 40
0
 40
1
 40
1
 40
1
 40
1
 10
22.479579
 20
19.863404
 30
0.0
 10
22.482771
 20
20.668267
 30
0.0
 10
22.524166
 20
21.472525
 30
0.0
 10
22.603624
 20
22.273462
 30
0.0
  0
SPLINE
  5
15b
100
AcDbEntity
  8
PERIMETER
 62
7
100
AcDbSpline
 70
8
 71
3
 72
8
 73
4
 74
0
 40
0
 40
0
 40
0
 40
0
 40
1
 40
1
 40
1
 40
1
 10
22.603624
 20
22.273462
 30
0.0
 10
22.605804
 20
22.295446
 30
0.0
 10
22.596749
 20
22.317046
 30
0.0
 10
22.579543
 20
22.330902
 30
0.0
  0
SPLINE
  5
15c
100
AcDbEntity
  8
PERIMETER
 62
7
100
AcDbSpline
 70
8
 71
3
 72
8
 73
4
 74
0
 40
0
 40
0
 40
0
 40
0
 40
1
 40
1
 40
1
 40
1
 10
22.579543
 20
22.330902
 30
0.0
 10
22.562337
 20
22.344757
 30
0.0
 10
22.539302
 20
22.348999
 30
0.0
 10
22.518289
 20
22.342181
 30
0.0
  0
SPLINE
  5
15d
100
AcDbEntity
  8
PERIMETER
 62
7
100
AcDbSpline
 70
8
 71
3
 72
8
 73
4
 74
0
 40
0
 40
0
 40
0
 40
0
 40
1
 40
1
 40
1
 40
1
 10
22.518289
 20
22.342181
 30
0.0
 10
22.394520
 20
22.302020
 30
0.0
 10
22.268267
 20
22.269962
 30
0.0
 10
22.140332
 20
22.246210
 30
0.0
  0
SPLINE
  5
15e
100
AcDbEntity
  8
PERIMETER
 62
7
100
AcDbSpline
 70
8
 71
3
 72
8
 73
4
 74
0
 40
0
 40
0
 40
0
 40
0
 40
1
 40
1
 40
1
 40
1
 10
22.140332
 20
22.246210
 30
0.0
 10
22.111573
 20
22.240871
 30
0.0
 10
22.089847
 20
22.217099
 30
0.0
 10
22.087113
 20
22.187977
 30
0.0
  0
SPLINE
  5
15f
100
AcDbEntity
  8
PERIMETER
 62
7
100
AcDbSpline
 70
8
 71
3
 72
8
 73
4
 74
0
 40
0
 40
0
 40
0
 40
0
 40
1
 40
1
 40
1
 40
1
 10
22.087113
 20
22.187977
 30
0.0
 10
21.925905
 20
20.471391
 30
0.0
 10
21.936237
 20
18.743009
 30
0.0
 10
22.117957
 20
17.028473
 30
0.0
  0
SPLINE
  5
160
100
AcDbEntity
  8
PERIMETER
 62
7
100
AcDbSpline
 70
8
 71
3
 72
8
 73
4
 74
0
 40
0
 40
0
 40
0
 40
0
 40
1
 40
1
 40
1
 40
1
 10
22.117957
 20
17.028473
 30
0.0
 10
22.121040
 20
16.999386
 30
0.0
 10
22.143048
 20
16.975875
 30
0.0
 10
22.171869
 20
16.970880
 30
0.0
  0
SPLINE
  5
161
100
AcDbEntity
  8
PERIMETER
 62
7
100
AcDbSpline
 70
8
 71
3
 72
8
 73
4
 74
0
 40
0
 40
0
 40
0
 40
0
 40
1
 40
1
 40
1
 40
1
 10
22.171869
 20
16.970880
 30
0.0
 10
22.300079
 20
16.948660
 30
0.0
 10
22.426706
 20
16.918114
 30
0.0
 10
22.550946
 20
16.879435
 30
0.0
  0
SPLINE
  5
162
100
AcDbEntity
  8
PERIMETER
 62
7
100
AcDbSpline
 70
8
 71
3
 72
8
 73
4
 74
0
 40
0
 40
0
 40
0
 40
0
 40
1
 40
1
 40
1
 40
1
 10
22.550946
 20
16.879435
 30
0.0
 10
22.572039
 20
16.872868
 30
0.0
 10
22.595021
 20
16.877385
 30
0.0
 10
22.612061
 20
16.891446
 30
0.0
  0
SPLINE
  5
163
100
AcDbEntity
  8
PERIMETER
 62
7
100
AcDbSpline
 70
8
 71
3
 72
8
 73
4
 74
0
 40
0
 40
0
 40
0
 40
0
 40
1
 40
1
 40
1
 40
1
 10
22.612061
 20
16.891446
 30
0.0
 10
22.629100
 20
16.905506
 30
0.0
 10
22.637897
 20
16.927214
 30
0.0
 10
22.635453
 20
16.949170
 30
0.0
  0
SPLINE
  5
164
100
AcDbEntity
  8
PERIMETER
 62
7
100
AcDbSpline
 70
8
 71
3
 72
8
 73
4
 74
0
 40
0
 40
0
 40
0
 40
0
 40
1
 40
1
 40
1
 40
1
 10
22.635453
 20
16.949170
 30
0.0
 10
22.546425
 20
17.749100
 30
0.0
 10
22.495418
 20
18.552805
 30
0.0
 10
22.482603
 20
19.357572
 30
0.0
  0
LWPOLYLINE
  5
165
100
AcDbEntity
  8
PERIMETER
 62
7
100
AcDbPolyline
 90
2
 70
0
 10
22.973670
 20
19.861502
 30
0.0
 10
22.479579
 20
19.863404
 30
0.0
  0
SPLINE
  5
166
100
AcDbEntity
  8
PERIMETER
 62
7
100
AcDbSpline
 70
8
 71
3
 72
8
 73
4
 74
0
 40
0
 40
0
 40
0
 40
0
 40
1
 40
1
 40
1
 40
1
 10
22.976636
 20
19.365382
 30
0.0
 10
22.991170
 20
18.452753
 30
0.0
 10
23.055793
 20
17.541611
 30
0.0
 10
23.170212
 20
16.636067
 30
0.0
  0
SPLINE
  5
167
100
AcDbEntity
  8
PERIMETER
 62
7
100
AcDbSpline
 70
8
 71
3
 72
8
 73
4
 74
0
 40
0
 40
0
 40
0
 40
0
 40
1
 40
1
 40
1
 40
1
 10
23.170212
 20
16.636067
 30
0.0
 10
23.172729
 20
16.616139
 30
0.0
 10
23.184258
 20
16.598470
 30
0.0
 10
23.201485
 20
16.588139
 30
0.0
  0
SPLINE
  5
168
100
AcDbEntity
  8
PERIMETER
 62
7
100
AcDbSpline
 70
8
 71
3
 72
8
 73
4
 74
0
 40
0
 40
0
 40
0
 40
0
 40
1
 40
1
 40
1
 40
1
 10
23.201485
 20
16.588139
 30
0.0
 10
23.346121
 20
16.501400
 30
0.0
 10
23.483178
 20
16.402608
 30
0.0
 10
23.611196
 20
16.292814
 30
0.0
  0
LWPOLYLINE
  5
169
100
AcDbEntity
  8
PERIMETER
 62
7
100
AcDbPolyline
 90
2
 70
0
 10
22.482603
 20
19.357572
 30
0.0
 10
22.976636
 20
19.365382
 30
0.0
  0
LWPOLYLINE
  5
16a
100
AcDbEntity
  8
PERIMETER
 62
7
100
AcDbPolyline
 90
1
 70
1
 10
23.611196
 20
16.292814
 30
0.0
  0
SPLINE
  5
16b
100
AcDbEntity
  8
PERIMETER
 62
7
100
AcDbSpline
 70
8
 71
3
 72
8
 73
4
 74
0
 40
0
 40
0
 40
0
 40
0
 40
1
 40
1
 40
1
 40
1
 10
10.254289
 20
18.429597
 30
0.0
 10
10.267825
 20
17.903756
 30
0.0
 10
10.266957
 20
17.377643
 30
0.0
 10
10.251686
 20
16.851849
 30
0.0
  0
LWPOLYLINE
  5
16c
100
AcDbEntity
  8
PERIMETER
 62
7
100
AcDbPolyline
 90
2
 70
0
 10
9.760359
 20
18.416832
 30
0.0
 10
10.254289
 20
18.429597
 30
0.0
  0
SPLINE
  5
16d
100
AcDbEntity
  8
PERIMETER
 62
7
100
AcDbSpline
 70
8
 71
3
 72
8
 73
4
 74
0
 40
0
 40
0
 40
0
 40
0
 40
1
 40
1
 40
1
 40
1
 10
9.757801
 20
16.866245
 30
0.0
 10
9.772808
 20
17.382987
 30
0.0
 10
9.773661
 20
17.900043
 30
0.0
 10
9.760359
 20
18.416832
 30
0.0
  0
LWPOLYLINE
  5
16e
100
AcDbEntity
  8
PERIMETER
 62
7
100
AcDbPolyline
 90
2
 70
0
 10
10.251686
 20
16.851849
 30
0.0
 10
9.757801
 20
16.866245
 30
0.0
  0
SPLINE
  5
16f
100
AcDbEntity
  8
PERIMETER
 62
7
100
AcDbSpline
 70
8
 71
3
 72
8
 73
4
 74
0
 40
0
 40
0
 40
0
 40
0
 40
1
 40
1
 40
1
 40
1
 10
10.055427
 20
21.316043
 30
0.0
 10
10.043849
 20
21.302122
 30
0.0
 10
10.038554
 20
21.284027
 30
0.0
 10
10.040802
 20
21.266061
 30
0.0
  0
SPLINE
  5
170
100
AcDbEntity
  8
PERIMETER
 62
7
100
AcDbSpline
 70
8
 71
3
 72
8
 73
4
 74
0
 40
0
 40
0
 40
0
 40
0
 40
1
 40
1
 40
1
 40
1
 10
10.040802
 20
21.266061
 30
0.0
 10
10.137309
 20
20.494986
 30
0.0
 10
10.202578
 20
19.720323
 30
0.0
 10
10.236449
 20
18.943971
 30
0.0
  0
LWPOLYLINE
  5
171
100
AcDbEntity
  8
PERIMETER
 62
7
100
AcDbPolyline
 90
1
 70
1
 10
9.760359
 20
18.416832
 30
0.0
  0
SPLINE
  5
172
100
AcDbEntity
  8
PERIMETER
 62
7
100
AcDbSpline
 70
8
 71
3
 72
8
 73
4
 74
0
 40
0
 40
0
 40
0
 40
0
 40
1
 40
1
 40
1
 40
1
 10
9.742822
 20
18.922485
 30
0.0
 10
9.716146
 20
19.533876
 30
0.0
 10
9.669657
 20
20.144243
 30
0.0
 10
9.603428
 20
20.752622
 30
0.0
  0
SPLINE
  5
173
100
AcDbEntity
  8
PERIMETER
 62
7
100
AcDbSpline
 70
8
 71
3
 72
8
 73
4
 74
0
 40
0
 40
0
 40
0
 40
0
 40
1
 40
1
 40
1
 40
1
 10
9.603428
 20
20.752622
 30
0.0
 10
9.600908
 20
20.775765
 30
0.0
 10
9.586286
 20
20.795827
 30
0.0
 10
9.565026
 20
20.805312
 30
0.0
  0
SPLINE
  5
174
100
AcDbEntity
  8
PERIMETER
 62
7
100
AcDbSpline
 70
8
 71
3
 72
8
 73
4
 74
0
 40
0
 40
0
 40
0
 40
0
 40
1
 40
1
 40
1
 40
1
 10
9.565026
 20
20.805312
 30
0.0
 10
9.543766
 20
20.814796
 30
0.0
 10
9.519068
 20
20.812275
 30
0.0
 10
9.500163
 20
20.798689
 30
0.0
  0
SPLINE
  5
175
100
AcDbEntity
  8
PERIMETER
 62
7
100
AcDbSpline
 70
8
 71
3
 72
8
 73
4
 74
0
 40
0
 40
0
 40
0
 40
0
 40
1
 40
1
 40
1
 40
1
 10
9.500163
 20
20.798689
 30
0.0
 10
9.389722
 20
20.719324
 30
0.0
 10
9.274007
 20
20.647568
 30
0.0
 10
9.153819
 20
20.583918
 30
0.0
  0
SPLINE
  5
176
100
AcDbEntity
  8
PERIMETER
 62
7
100
AcDbSpline
 70
8
 71
3
 72
8
 73
4
 74
0
 40
0
 40
0
 40
0
 40
0
 40
1
 40
1
 40
1
 40
1
 10
9.153819
 20
20.583918
 30
0.0
 10
9.130263
 20
20.571444
 30
0.0
 10
9.116625
 20
20.545930
 30
0.0
 10
9.119339
 20
20.519413
 30
0.0
  0
SPLINE
  5
177
100
AcDbEntity
  8
PERIMETER
 62
7
100
AcDbSpline
 70
8
 71
3
 72
8
 73
4
 74
0
 40
0
 40
0
 40
0
 40
0
 40
1
 40
1
 40
1
 40
1
 10
9.119339
 20
20.519413
 30
0.0
 10
9.315115
 20
18.606369
 30
0.0
 10
9.311933
 20
16.678178
 30
0.0
 10
9.109845
 20
14.765790
 30
0.0
  0
SPLINE
  5
178
100
AcDbEntity
  8
PERIMETER
 62
7
100
AcDbSpline
 70
8
 71
3
 72
8
 73
4
 74
0
 40
0
 40
0
 40
0
 40
0
 40
1
 40
1
 40
1
 40
1
 10
9.109845
 20
14.765790
 30
0.0
 10
9.107044
 20
14.739282
 30
0.0
 10
9.120598
 20
14.713724
 30
0.0
 10
9.144113
 20
14.701171
 30
0.0
  0
SPLINE
  5
179
100
AcDbEntity
  8
PERIMETER
 62
7
100
AcDbSpline
 70
8
 71
3
 72
8
 73
4
 74
0
 40
0
 40
0
 40
0
 40
0
 40
1
 40
1
 40
1
 40
1
 10
9.144113
 20
14.701171
 30
0.0
 10
9.264090
 20
14.637126
 30
0.0
 10
9.379568
 20
14.564988
 30
0.0
 10
9.489747
 20
14.485258
 30
0.0
  0
SPLINE
  5
17a
100
AcDbEntity
  8
PERIMETER
 62
7
100
AcDbSpline
 70
8
 71
3
 72
8
 73
4
 74
0
 40
0
 40
0
 40
0
 40
0
 40
1
 40
1
 40
1
 40
1
 10
9.489747
 20
14.485258
 30
0.0
 10
9.508607
 20
14.471611
 30
0.0
 10
9.533296
 20
14.469008
 30
0.0
 10
9.554587
 20
14.478422
 30
0.0
  0
SPLINE
  5
17b
100
AcDbEntity
  8
PERIMETER
 62
7
100
AcDbSpline
 70
8
 71
3
 72
8
 73
4
 74
0
 40
0
 40
0
 40
0
 40
0
 40
1
 40
1
 40
1
 40
1
 10
9.554587
 20
14.478422
 30
0.0
 10
9.575878
 20
14.487837
 30
0.0
 10
9.590566
 20
14.507851
 30
0.0
 10
9.593162
 20
14.530986
 30
0.0
  0
SPLINE
  5
17c
100
AcDbEntity
  8
PERIMETER
 62
7
100
AcDbSpline
 70
8
 71
3
 72
8
 73
4
 74
0
 40
0
 40
0
 40
0
 40
0
 40
1
 40
1
 40
1
 40
1
 10
9.593162
 20
14.530986
 30
0.0
 10
9.661399
 20
15.139143
 30
0.0
 10
9.709902
 20
15.749352
 30
0.0
 10
9.738595
 20
16.360653
 30
0.0
  0
LWPOLYLINE
  5
17d
100
AcDbEntity
  8
PERIMETER
 62
7
100
AcDbPolyline
 90
2
 70
0
 10
10.236449
 20
18.943971
 30
0.0
 10
9.742822
 20
18.922485
 30
0.0
  0
SPLINE
  5
17e
100
AcDbEntity
  8
PERIMETER
 62
7
100
AcDbSpline
 70
8
 71
3
 72
8
 73
4
 74
0
 40
0
 40
0
 40
0
 40
0
 40
1
 40
1
 40
1
 40
1
 10
10.232148
 20
16.337538
 30
0.0
 10
10.195715
 20
15.561303
 30
0.0
 10
10.127891
 20
14.786859
 30
0.0
 10
10.028841
 20
14.016107
 30
0.0
  0
SPLINE
  5
17f
100
AcDbEntity
  8
PERIMETER
 62
7
100
AcDbSpline
 70
8
 71
3
 72
8
 73
4
 74
0
 40
0
 40
0
 40
0
 40
0
 40
1
 40
1
 40
1
 40
1
 10
10.028841
 20
14.016107
 30
0.0
 10
10.026533
 20
13.998148
 30
0.0
 10
10.031767
 20
13.980035
 30
0.0
 10
10.043299
 20
13.966076
 30
0.0
  0
SPLINE
  5
180
100
AcDbEntity
  8
PERIMETER
 62
7
100
AcDbSpline
 70
8
 71
3
 72
8
 73
4
 74
0
 40
0
 40
0
 40
0
 40
0
 40
1
 40
1
 40
1
 40
1
 10
10.043299
 20
13.966076
 30
0.0
 10
10.159866
 20
13.824978
 30
0.0
 10
10.263262
 20
13.673498
 30
0.0
 10
10.352194
 20
13.513536
 30
0.0
  0
SPLINE
  5
181
100
AcDbEntity
  8
PERIMETER
 62
7
100
AcDbSpline
 70
8
 71
3
 72
8
 73
4
 74
0
 40
0
 40
0
 40
0
 40
0
 40
1
 40
1
 40
1
 40
1
 10
10.352194
 20
13.513536
 30
0.0
 10
10.365848
 20
13.488976
 30
0.0
 10
10.393655
 20
13.475872
 30
0.0
 10
10.421288
 20
13.480976
 30
0.0
  0
SPLINE
  5
182
100
AcDbEntity
  8
PERIMETER
 62
7
100
AcDbSpline
 70
8
 71
3
 72
8
 73
4
 74
0
 40
0
 40
0
 40
0
 40
0
 40
1
 40
1
 40
1
 40
1
 10
10.421288
 20
13.480976
 30
0.0
 10
10.448922
 20
13.486079
 30
0.0
 10
10.470213
 20
13.508252
 30
0.0
 10
10.474193
 20
13.536069
 30
0.0
  0
SPLINE
  5
183
100
AcDbEntity
  8
PERIMETER
 62
7
100
AcDbSpline
 70
8
 71
3
 72
8
 73
4
 74
0
 40
0
 40
0
 40
0
 40
0
 40
1
 40
1
 40
1
 40
1
 10
10.474193
 20
13.536069
 30
0.0
 10
10.863658
 20
16.258078
 30
0.0
 10
10.868217
 20
19.021346
 30
0.0
 10
10.487736
 20
21.744625
 30
0.0
  0
SPLINE
  5
184
100
AcDbEntity
  8
PERIMETER
 62
7
100
AcDbSpline
 70
8
 71
3
 72
8
 73
4
 74
0
 40
0
 40
0
 40
0
 40
0
 40
1
 40
1
 40
1
 40
1
 10
10.487736
 20
21.744625
 30
0.0
 10
10.483847
 20
21.772455
 30
0.0
 10
10.462629
 20
21.794698
 30
0.0
 10
10.435013
 20
21.799893
 30
0.0
  0
SPLINE
  5
185
100
AcDbEntity
  8
PERIMETER
 62
7
100
AcDbSpline
 70
8
 71
3
 72
8
 73
4
 74
0
 40
0
 40
0
 40
0
 40
0
 40
1
 40
1
 40
1
 40
1
 10
10.435013
 20
21.799893
 30
0.0
 10
10.407397
 20
21.805088
 30
0.0
 10
10.379547
 20
21.792076
 30
0.0
 10
10.365812
 20
21.767561
 30
0.0
  0
SPLINE
  5
186
100
AcDbEntity
  8
PERIMETER
 62
7
100
AcDbSpline
 70
8
 71
3
 72
8
 73
4
 74
0
 40
0
 40
0
 40
0
 40
0
 40
1
 40
1
 40
1
 40
1
 10
10.365812
 20
21.767561
 30
0.0
 10
10.276353
 20
21.607894
 30
0.0
 10
10.172458
 20
21.456756
 30
0.0
 10
10.055427
 20
21.316043
 30
0.0
  0
LWPOLYLINE
  5
187
100
AcDbEntity
  8
PERIMETER
 62
7
100
AcDbPolyline
 90
2
 70
0
 10
9.738595
 20
16.360653
 30
0.0
 10
10.232148
 20
16.337538
 30
0.0
  0
SPLINE
  5
188
100
AcDbEntity
  8
PERIMETER
 62
7
100
AcDbSpline
 70
8
 71
3
 72
8
 73
4
 74
0
 40
0
 40
0
 40
0
 40
0
 40
1
 40
1
 40
1
 40
1
 10
22.059429
 20
16.663436
 30
0.0
 10
22.038758
 20
16.681165
 30
0.0
 10
22.009269
 20
16.684243
 30
0.0
 10
21.985383
 20
16.671164
 30
0.0
  0
SPLINE
  5
189
100
AcDbEntity
  8
PERIMETER
 62
7
100
AcDbSpline
 70
8
 71
3
 72
8
 73
4
 74
0
 40
0
 40
0
 40
0
 40
0
 40
1
 40
1
 40
1
 40
1
 10
21.985383
 20
16.671164
 30
0.0
 10
21.961496
 20
16.658085
 30
0.0
 10
21.948204
 20
16.631582
 30
0.0
 10
21.952006
 20
16.604617
 30
0.0
  0
SPLINE
  5
18a
100
AcDbEntity
  8
PERIMETER
 62
7
100
AcDbSpline
 70
8
 71
3
 72
8
 73
4
 74
0
 40
0
 40
0
 40
0
 40
0
 40
1
 40
1
 40
1
 40
1
 10
21.952006
 20
16.604617
 30
0.0
 10
22.257335
 20
14.438755
 30
0.0
 10
22.270469
 20
12.241702
 30
0.0
 10
21.991057
 20
10.072345
 30
0.0
  0
SPLINE
  5
18b
100
AcDbEntity
  8
PERIMETER
 62
7
100
AcDbSpline
 70
8
 71
3
 72
8
 73
4
 74
0
 40
0
 40
0
 40
0
 40
0
 40
1
 40
1
 40
1
 40
1
 10
21.991057
 20
10.072345
 30
0.0
 10
21.987578
 20
10.045335
 30
0.0
 10
22.001186
 20
10.018994
 30
0.0
 10
22.025227
 20
10.006202
 30
0.0
  0
SPLINE
  5
18c
100
AcDbEntity
  8
PERIMETER
 62
7
100
AcDbSpline
 70
8
 71
3
 72
8
 73
4
 74
0
 40
0
 40
0
 40
0
 40
0
 40
1
 40
1
 40
1
 40
1
 10
22.025227
 20
10.006202
 30
0.0
 10
22.049268
 20
9.993409
 30
0.0
 10
22.078717
 20
9.996838
 30
0.0
 10
22.099175
 20
10.014813
 30
0.0
  0
SPLINE
  5
18d
100
AcDbEntity
  8
PERIMETER
 62
7
100
AcDbSpline
 70
8
 71
3
 72
8
 73
4
 74
0
 40
0
 40
0
 40
0
 40
0
 40
1
 40
1
 40
1
 40
1
 10
22.099175
 20
10.014813
 30
0.0
 10
22.225871
 20
10.126130
 30
0.0
 10
22.361737
 20
10.226554
 30
0.0
 10
22.505326
 20
10.315016
 30
0.0
  0
SPLINE
  5
18e
100
AcDbEntity
  8
PERIMETER
 62
7
100
AcDbSpline
 70
8
 71
3
 72
8
 73
4
 74
0
 40
0
 40
0
 40
0
 40
0
 40
1
 40
1
 40
1
 40
1
 10
22.505326
 20
10.315016
 30
0.0
 10
22.522428
 20
10.325552
 30
0.0
 10
22.533745
 20
10.343357
 30
0.0
 10
22.536024
 20
10.363314
 30
0.0
  0
SPLINE
  5
18f
100
AcDbEntity
  8
PERIMETER
 62
7
100
AcDbSpline
 70
8
 71
3
 72
8
 73
4
 74
0
 40
0
 40
0
 40
0
 40
0
 40
1
 40
1
 40
1
 40
1
 10
22.536024
 20
10.363314
 30
0.0
 10
22.639608
 20
11.270161
 30
0.0
 10
22.693333
 20
12.182011
 30
0.0
 10
22.696955
 20
13.094748
 30
0.0
  0
LWPOLYLINE
  5
190
100
AcDbEntity
  8
PERIMETER
 62
7
100
AcDbPolyline
 90
1
 70
1
 10
10.055427
 20
21.316043
 30
0.0
  0
SPLINE
  5
191
100
AcDbEntity
  8
PERIMETER
 62
7
100
AcDbSpline
 70
8
 71
3
 72
8
 73
4
 74
0
 40
0
 40
0
 40
0
 40
0
 40
1
 40
1
 40
1
 40
1
 10
23.191046
 20
13.092846
 30
0.0
 10
23.187854
 20
12.287983
 30
0.0
 10
23.146459
 20
11.483725
 30
0.0
 10
23.067001
 20
10.682788
 30
0.0
  0
SPLINE
  5
192
100
AcDbEntity
  8
PERIMETER
 62
7
100
AcDbSpline
 70
8
 71
3
 72
8
 73
4
 74
0
 40
0
 40
0
 40
0
 40
0
 40
1
 40
1
 40
1
 40
1
 10
23.067001
 20
10.682788
 30
0.0
 10
23.064821
 20
10.660804
 30
0.0
 10
23.073876
 20
10.639204
 30
0.0
 10
23.091082
 20
10.625348
 30
0.0
  0
SPLINE
  5
193
100
AcDbEntity
  8
PERIMETER
 62
7
100
AcDbSpline
 70
8
 71
3
 72
8
 73
4
 74
0
 40
0
 40
0
 40
0
 40
0
 40
1
 40
1
 40
1
 40
1
 10
23.091082
 20
10.625348
 30
0.0
 10
23.108288
 20
10.611493
 30
0.0
 10
23.131323
 20
10.607251
 30
0.0
 10
23.152336
 20
10.614069
 30
0.0
  0
SPLINE
  5
194
100
AcDbEntity
  8
PERIMETER
 62
7
100
AcDbSpline
 70
8
 71
3
 72
8
 73
4
 74
0
 40
0
 40
0
 40
0
 40
0
 40
1
 40
1
 40
1
 40
1
 10
23.152336
 20
10.614069
 30
0.0
 10
23.276105
 20
10.654230
 30
0.0
 10
23.402358
 20
10.686288
 30
0.0
 10
23.530293
 20
10.710040
 30
0.0
  0
SPLINE
  5
195
100
AcDbEntity
  8
PERIMETER
 62
7
100
AcDbSpline
 70
8
 71
3
 72
8
 73
4
 74
0
 40
0
 40
0
 40
0
 40
0
 40
1
 40
1
 40
1
 40
1
 10
23.530293
 20
10.710040
 30
0.0
 10
23.559052
 20
10.715379
 30
0.0
 10
23.580778
 20
10.739151
 30
0.0
 10
23.583512
 20
10.768273
 30
0.0
  0
SPLINE
  5
196
100
AcDbEntity
  8
PERIMETER
 62
7
100
AcDbSpline
 70
8
 71
3
 72
8
 73
4
 74
0
 40
0
 40
0
 40
0
 40
0
 40
1
 40
1
 40
1
 40
1
 10
23.583512
 20
10.768273
 30
0.0
 10
23.744720
 20
12.484859
 30
0.0
 10
23.734388
 20
14.213241
 30
0.0
 10
23.552668
 20
15.927777
 30
0.0
  0
SPLINE
  5
197
100
AcDbEntity
  8
PERIMETER
 62
7
100
AcDbSpline
 70
8
 71
3
 72
8
 73
4
 74
0
 40
0
 40
0
 40
0
 40
0
 40
1
 40
1
 40
1
 40
1
 10
23.552668
 20
15.927777
 30
0.0
 10
23.549585
 20
15.956864
 30
0.0
 10
23.527577
 20
15.980375
 30
0.0
 10
23.498756
 20
15.985370
 30
0.0
  0
SPLINE
  5
198
100
AcDbEntity
  8
PERIMETER
 62
7
100
AcDbSpline
 70
8
 71
3
 72
8
 73
4
 74
0
 40
0
 40
0
 40
0
 40
0
 40
1
 40
1
 40
1
 40
1
 10
23.498756
 20
15.985370
 30
0.0
 10
23.370546
 20
16.007590
 30
0.0
 10
23.243919
 20
16.038136
 30
0.0
 10
23.119679
 20
16.076815
 30
0.0
  0
SPLINE
  5
199
100
AcDbEntity
  8
PERIMETER
 62
7
100
AcDbSpline
 70
8
 71
3
 72
8
 73
4
 74
0
 40
0
 40
0
 40
0
 40
0
 40
1
 40
1
 40
1
 40
1
 10
23.119679
 20
16.076815
 30
0.0
 10
23.098586
 20
16.083382
 30
0.0
 10
23.075604
 20
16.078865
 30
0.0
 10
23.058564
 20
16.064804
 30
0.0
  0
SPLINE
  5
19a
100
AcDbEntity
  8
PERIMETER
 62
7
100
AcDbSpline
 70
8
 71
3
 72
8
 73
4
 74
0
 40
0
 40
0
 40
0
 40
0
 40
1
 40
1
 40
1
 40
1
 10
23.058564
 20
16.064804
 30
0.0
 10
23.041525
 20
16.050744
 30
0.0
 10
23.032728
 20
16.029036
 30
0.0
 10
23.035172
 20
16.007080
 30
0.0
  0
SPLINE
  5
19b
100
AcDbEntity
  8
PERIMETER
 62
7
100
AcDbSpline
 70
8
 71
3
 72
8
 73
4
 74
0
 40
0
 40
0
 40
0
 40
0
 40
1
 40
1
 40
1
 40
1
 10
23.035172
 20
16.007080
 30
0.0
 10
23.124200
 20
15.207150
 30
0.0
 10
23.175207
 20
14.403445
 30
0.0
 10
23.188022
 20
13.598678
 30
0.0
  0
LWPOLYLINE
  5
19c
100
AcDbEntity
  8
PERIMETER
 62
7
100
AcDbPolyline
 90
2
 70
0
 10
22.696955
 20
13.094748
 30
0.0
 10
23.191046
 20
13.092846
 30
0.0
  0
SPLINE
  5
19d
100
AcDbEntity
  8
PERIMETER
 62
7
100
AcDbSpline
 70
8
 71
3
 72
8
 73
4
 74
0
 40
0
 40
0
 40
0
 40
0
 40
1
 40
1
 40
1
 40
1
 10
22.693989
 20
13.590868
 30
0.0
 10
22.679455
 20
14.503497
 30
0.0
 10
22.614832
 20
15.414639
 30
0.0
 10
22.500413
 20
16.320183
 30
0.0
  0
SPLINE
  5
19e
100
AcDbEntity
  8
PERIMETER
 62
7
100
AcDbSpline
 70
8
 71
3
 72
8
 73
4
 74
0
 40
0
 40
0
 40
0
 40
0
 40
1
 40
1
 40
1
 40
1
 10
22.500413
 20
16.320183
 30
0.0
 10
22.497896
 20
16.340111
 30
0.0
 10
22.486367
 20
16.357780
 30
0.0
 10
22.469140
 20
16.368111
 30
0.0
  0
SPLINE
  5
19f
100
AcDbEntity
  8
PERIMETER
 62
7
100
AcDbSpline
 70
8
 71
3
 72
8
 73
4
 74
0
 40
0
 40
0
 40
0
 40
0
 40
1
 40
1
 40
1
 40
1
 10
22.469140
 20
16.368111
 30
0.0
 10
22.324504
 20
16.454850
 30
0.0
 10
22.187447
 20
16.553642
 30
0.0
 10
22.059429
 20
16.663436
 30
0.0
  0
LWPOLYLINE
  5
1a0
100
AcDbEntity
  8
PERIMETER
 62
7
100
AcDbPolyline
 90
2
 70
0
 10
23.188022
 20
13.598678
 30
0.0
 10
22.693989
 20
13.590868
 30
0.0
  0
LWPOLYLINE
  5
1a1
100
AcDbEntity
  8
PERIMETER
 62
7
100
AcDbPolyline
 90
1
 70
1
 10
22.059429
 20
16.663436
 30
0.0
  0
SPLINE
  5
1a2
100
AcDbEntity
  8
PERIMETER
 62
7
100
AcDbSpline
 70
8
 71
3
 72
8
 73
4
 74
0
 40
0
 40
0
 40
0
 40
0
 40
1
 40
1
 40
1
 40
1
 10
17.472382
 20
23.438570
 30
0.0
 10
17.199222
 20
22.989042
 30
0.0
 10
16.913802
 20
22.547079
 30
0.0
 10
16.616442
 20
22.113178
 30
0.0
  0
LWPOLYLINE
  5
1a3
100
AcDbEntity
  8
PERIMETER
 62
7
100
AcDbPolyline
 90
2
 70
0
 10
17.050106
 20
23.695110
 30
0.0
 10
17.472382
 20
23.438570
 30
0.0
  0
SPLINE
  5
1a4
100
AcDbEntity
  8
PERIMETER
 62
7
100
AcDbSpline
 70
8
 71
3
 72
8
 73
4
 74
0
 40
0
 40
0
 40
0
 40
0
 40
1
 40
1
 40
1
 40
1
 10
16.208902
 20
22.392535
 30
0.0
 10
16.501141
 20
22.818966
 30
0.0
 10
16.781648
 20
23.253321
 30
0.0
 10
17.050106
 20
23.695110
 30
0.0
  0
LWPOLYLINE
  5
1a5
100
AcDbEntity
  8
PERIMETER
 62
7
100
AcDbPolyline
 90
2
 70
0
 10
16.616442
 20
22.113178
 30
0.0
 10
16.208902
 20
22.392535
 30
0.0
  0
SPLINE
  5
1a6
100
AcDbEntity
  8
PERIMETER
 62
7
100
AcDbSpline
 70
8
 71
3
 72
8
 73
4
 74
0
 40
0
 40
0
 40
0
 40
0
 40
1
 40
1
 40
1
 40
1
 10
18.867062
 20
25.973523
 30
0.0
 10
18.849792
 20
25.968082
 30
0.0
 10
18.835549
 20
25.955730
 30
0.0
 10
18.827718
 20
25.939405
 30
0.0
  0
SPLINE
  5
1a7
100
AcDbEntity
  8
PERIMETER
 62
7
100
AcDbSpline
 70
8
 71
3
 72
8
 73
4
 74
0
 40
0
 40
0
 40
0
 40
0
 40
1
 40
1
 40
1
 40
1
 10
18.827718
 20
25.939405
 30
0.0
 10
18.491630
 20
25.238751
 30
0.0
 10
18.127332
 20
24.551982
 30
0.0
 10
17.735717
 20
23.880784
 30
0.0
  0
LWPOLYLINE
  5
1a8
100
AcDbEntity
  8
PERIMETER
 62
7
100
AcDbPolyline
 90
1
 70
1
 10
17.050106
 20
23.695110
 30
0.0
  0
SPLINE
  5
1a9
100
AcDbEntity
  8
PERIMETER
 62
7
100
AcDbSpline
 70
8
 71
3
 72
8
 73
4
 74
0
 40
0
 40
0
 40
0
 40
0
 40
1
 40
1
 40
1
 40
1
 10
17.308977
 20
24.129827
 30
0.0
 10
17.617380
 20
24.658409
 30
0.0
 10
17.908567
 20
25.196850
 30
0.0
 10
18.182077
 20
25.744302
 30
0.0
  0
SPLINE
  5
1aa
100
AcDbEntity
  8
PERIMETER
 62
7
100
AcDbSpline
 70
8
 71
3
 72
8
 73
4
 74
0
 40
0
 40
0
 40
0
 40
0
 40
1
 40
1
 40
1
 40
1
 10
18.182077
 20
25.744302
 30
0.0
 10
18.192481
 20
25.765127
 30
0.0
 10
18.191041
 20
25.789912
 30
0.0
 10
18.178295
 20
25.809392
 30
0.0
  0
SPLINE
  5
1ab
100
AcDbEntity
  8
PERIMETER
 62
7
100
AcDbSpline
 70
8
 71
3
 72
8
 73
4
 74
0
 40
0
 40
0
 40
0
 40
0
 40
1
 40
1
 40
1
 40
1
 10
18.178295
 20
25.809392
 30
0.0
 10
18.165548
 20
25.828872
 30
0.0
 10
18.143414
 20
25.840116
 30
0.0
 10
18.120165
 20
25.838921
 30
0.0
  0
SPLINE
  5
1ac
100
AcDbEntity
  8
PERIMETER
 62
7
100
AcDbSpline
 70
8
 71
3
 72
8
 73
4
 74
0
 40
0
 40
0
 40
0
 40
0
 40
1
 40
1
 40
1
 40
1
 10
18.120165
 20
25.838921
 30
0.0
 10
17.984344
 20
25.831941
 30
0.0
 10
17.848205
 20
25.834213
 30
0.0
 10
17.712692
 20
25.845724
 30
0.0
  0
SPLINE
  5
1ad
100
AcDbEntity
  8
PERIMETER
 62
7
100
AcDbSpline
 70
8
 71
3
 72
8
 73
4
 74
0
 40
0
 40
0
 40
0
 40
0
 40
1
 40
1
 40
1
 40
1
 10
17.712692
 20
25.845724
 30
0.0
 10
17.686132
 20
25.847980
 30
0.0
 10
17.660857
 20
25.833904
 30
0.0
 10
17.648790
 20
25.810136
 30
0.0
  0
SPLINE
  5
1ae
100
AcDbEntity
  8
PERIMETER
 62
7
100
AcDbSpline
 70
8
 71
3
 72
8
 73
4
 74
0
 40
0
 40
0
 40
0
 40
0
 40
1
 40
1
 40
1
 40
1
 10
17.648790
 20
25.810136
 30
0.0
 10
16.778242
 20
24.095431
 30
0.0
 10
15.732184
 20
22.475648
 30
0.0
 10
14.527409
 20
20.976788
 30
0.0
  0
SPLINE
  5
1af
100
AcDbEntity
  8
PERIMETER
 62
7
100
AcDbSpline
 70
8
 71
3
 72
8
 73
4
 74
0
 40
0
 40
0
 40
0
 40
0
 40
1
 40
1
 40
1
 40
1
 10
14.527409
 20
20.976788
 30
0.0
 10
14.510709
 20
20.956012
 30
0.0
 10
14.508277
 20
20.927184
 30
0.0
 10
14.521259
 20
20.903904
 30
0.0
  0
SPLINE
  5
1b0
100
AcDbEntity
  8
PERIMETER
 62
7
100
AcDbSpline
 70
8
 71
3
 72
8
 73
4
 74
0
 40
0
 40
0
 40
0
 40
0
 40
1
 40
1
 40
1
 40
1
 10
14.521259
 20
20.903904
 30
0.0
 10
14.587497
 20
20.785123
 30
0.0
 10
14.645573
 20
20.661972
 30
0.0
 10
14.695084
 20
20.535303
 30
0.0
  0
SPLINE
  5
1b1
100
AcDbEntity
  8
PERIMETER
 62
7
100
AcDbSpline
 70
8
 71
3
 72
8
 73
4
 74
0
 40
0
 40
0
 40
0
 40
0
 40
1
 40
1
 40
1
 40
1
 10
14.695084
 20
20.535303
 30
0.0
 10
14.703559
 20
20.513621
 30
0.0
 10
14.722913
 20
20.498073
 30
0.0
 10
14.745912
 20
20.494468
 30
0.0
  0
SPLINE
  5
1b2
100
AcDbEntity
  8
PERIMETER
 62
7
100
AcDbSpline
 70
8
 71
3
 72
8
 73
4
 74
0
 40
0
 40
0
 40
0
 40
0
 40
1
 40
1
 40
1
 40
1
 10
14.745912
 20
20.494468
 30
0.0
 10
14.768911
 20
20.490864
 30
0.0
 10
14.792093
 20
20.499747
 30
0.0
 10
14.806795
 20
20.517798
 30
0.0
  0
SPLINE
  5
1b3
100
AcDbEntity
  8
PERIMETER
 62
7
100
AcDbSpline
 70
8
 71
3
 72
8
 73
4
 74
0
 40
0
 40
0
 40
0
 40
0
 40
1
 40
1
 40
1
 40
1
 10
14.806795
 20
20.517798
 30
0.0
 10
15.193264
 20
20.992301
 30
0.0
 10
15.564249
 20
21.479208
 30
0.0
 10
15.919164
 20
21.977752
 30
0.0
  0
LWPOLYLINE
  5
1b4
100
AcDbEntity
  8
PERIMETER
 62
7
100
AcDbPolyline
 90
2
 70
0
 10
17.735717
 20
23.880784
 30
0.0
 10
17.308977
 20
24.129827
 30
0.0
  0
SPLINE
  5
1b5
100
AcDbEntity
  8
PERIMETER
 62
7
100
AcDbSpline
 70
8
 71
3
 72
8
 73
4
 74
0
 40
0
 40
0
 40
0
 40
0
 40
1
 40
1
 40
1
 40
1
 10
16.321709
 20
21.691243
 30
0.0
 10
15.871034
 20
21.058185
 30
0.0
 10
15.394930
 20
20.443621
 30
0.0
 10
14.894566
 20
19.849058
 30
0.0
  0
SPLINE
  5
1b6
100
AcDbEntity
  8
PERIMETER
 62
7
100
AcDbSpline
 70
8
 71
3
 72
8
 73
4
 74
0
 40
0
 40
0
 40
0
 40
0
 40
1
 40
1
 40
1
 40
1
 10
14.894566
 20
19.849058
 30
0.0
 10
14.882907
 20
19.835205
 30
0.0
 10
14.877508
 20
19.817141
 30
0.0
 10
14.879652
 20
19.799162
 30
0.0
  0
SPLINE
  5
1b7
100
AcDbEntity
  8
PERIMETER
 62
7
100
AcDbSpline
 70
8
 71
3
 72
8
 73
4
 74
0
 40
0
 40
0
 40
0
 40
0
 40
1
 40
1
 40
1
 40
1
 10
14.879652
 20
19.799162
 30
0.0
 10
14.901327
 20
19.617429
 30
0.0
 10
14.906309
 20
19.434093
 30
0.0
 10
14.894537
 20
19.251451
 30
0.0
  0
SPLINE
  5
1b8
100
AcDbEntity
  8
PERIMETER
 62
7
100
AcDbSpline
 70
8
 71
3
 72
8
 73
4
 74
0
 40
0
 40
0
 40
0
 40
0
 40
1
 40
1
 40
1
 40
1
 10
14.894537
 20
19.251451
 30
0.0
 10
14.892729
 20
19.223408
 30
0.0
 10
14.909023
 20
19.197341
 30
0.0
 10
14.935023
 20
19.186681
 30
0.0
  0
SPLINE
  5
1b9
100
AcDbEntity
  8
PERIMETER
 62
7
100
AcDbSpline
 70
8
 71
3
 72
8
 73
4
 74
0
 40
0
 40
0
 40
0
 40
0
 40
1
 40
1
 40
1
 40
1
 10
14.935023
 20
19.186681
 30
0.0
 10
14.961023
 20
19.176020
 30
0.0
 10
14.990926
 20
19.183144
 30
0.0
 10
15.009325
 20
19.204384
 30
0.0
  0
SPLINE
  5
1ba
100
AcDbEntity
  8
PERIMETER
 62
7
100
AcDbSpline
 70
8
 71
3
 72
8
 73
4
 74
0
 40
0
 40
0
 40
0
 40
0
 40
1
 40
1
 40
1
 40
1
 10
15.009325
 20
19.204384
 30
0.0
 10
16.809777
 20
21.282699
 30
0.0
 10
18.308869
 20
23.603990
 30
0.0
 10
19.462525
 20
26.100007
 30
0.0
  0
SPLINE
  5
1bb
100
AcDbEntity
  8
PERIMETER
 62
7
100
AcDbSpline
 70
8
 71
3
 72
8
 73
4
 74
0
 40
0
 40
0
 40
0
 40
0
 40
1
 40
1
 40
1
 40
1
 10
19.462525
 20
26.100007
 30
0.0
 10
19.474314
 20
26.125514
 30
0.0
 10
19.468507
 20
26.155701
 30
0.0
 10
19.448094
 20
26.175013
 30
0.0
  0
SPLINE
  5
1bc
100
AcDbEntity
  8
PERIMETER
 62
7
100
AcDbSpline
 70
8
 71
3
 72
8
 73
4
 74
0
 40
0
 40
0
 40
0
 40
0
 40
1
 40
1
 40
1
 40
1
 10
19.448094
 20
26.175013
 30
0.0
 10
19.427682
 20
26.194326
 30
0.0
 10
19.397220
 20
26.198454
 30
0.0
 10
19.372404
 20
26.185270
 30
0.0
  0
SPLINE
  5
1bd
100
AcDbEntity
  8
PERIMETER
 62
7
100
AcDbSpline
 70
8
 71
3
 72
8
 73
4
 74
0
 40
0
 40
0
 40
0
 40
0
 40
1
 40
1
 40
1
 40
1
 10
19.372404
 20
26.185270
 30
0.0
 10
19.210776
 20
26.099406
 30
0.0
 10
19.041621
 20
26.028528
 30
0.0
 10
18.867062
 20
25.973523
 30
0.0
  0
LWPOLYLINE
  5
1be
100
AcDbEntity
  8
PERIMETER
 62
7
100
AcDbPolyline
 90
2
 70
0
 10
15.919164
 20
21.977752
 30
0.0
 10
16.321709
 20
21.691243
 30
0.0
  0
LWPOLYLINE
  5
1bf
100
AcDbEntity
  8
PERIMETER
 62
7
100
AcDbPolyline
 90
1
 70
1
 10
18.867062
 20
25.973523
 30
0.0
  0
SPLINE
  5
1c0
100
AcDbEntity
  8
PERIMETER
 62
7
100
AcDbSpline
 70
8
 71
3
 72
8
 73
4
 74
0
 40
0
 40
0
 40
0
 40
0
 40
1
 40
1
 40
1
 40
1
 10
23.126580
 20
6.977826
 30
0.0
 10
23.140116
 20
6.451985
 30
0.0
 10
23.139248
 20
5.925872
 30
0.0
 10
23.123977
 20
5.400079
 30
0.0
  0
LWPOLYLINE
  5
1c1
100
AcDbEntity
  8
PERIMETER
 62
7
100
AcDbPolyline
 90
2
 70
0
 10
22.632651
 20
6.965061
 30
0.0
 10
23.126580
 20
6.977826
 30
0.0
  0
SPLINE
  5
1c2
100
AcDbEntity
  8
PERIMETER
 62
7
100
AcDbSpline
 70
8
 71
3
 72
8
 73
4
 74
0
 40
0
 40
0
 40
0
 40
0
 40
1
 40
1
 40
1
 40
1
 10
22.630093
 20
5.414474
 30
0.0
 10
22.645100
 20
5.931216
 30
0.0
 10
22.645953
 20
6.448272
 30
0.0
 10
22.632651
 20
6.965061
 30
0.0
  0
LWPOLYLINE
  5
1c3
100
AcDbEntity
  8
PERIMETER
 62
7
100
AcDbPolyline
 90
2
 70
0
 10
23.123977
 20
5.400079
 30
0.0
 10
22.630093
 20
5.414474
 30
0.0
  0
SPLINE
  5
1c4
100
AcDbEntity
  8
PERIMETER
 62
7
100
AcDbSpline
 70
8
 71
3
 72
8
 73
4
 74
0
 40
0
 40
0
 40
0
 40
0
 40
1
 40
1
 40
1
 40
1
 10
22.927718
 20
9.864272
 30
0.0
 10
22.916140
 20
9.850351
 30
0.0
 10
22.910846
 20
9.832256
 30
0.0
 10
22.913094
 20
9.814290
 30
0.0
  0
SPLINE
  5
1c5
100
AcDbEntity
  8
PERIMETER
 62
7
100
AcDbSpline
 70
8
 71
3
 72
8
 73
4
 74
0
 40
0
 40
0
 40
0
 40
0
 40
1
 40
1
 40
1
 40
1
 10
22.913094
 20
9.814290
 30
0.0
 10
23.009600
 20
9.043215
 30
0.0
 10
23.074869
 20
8.268552
 30
0.0
 10
23.108741
 20
7.492200
 30
0.0
  0
LWPOLYLINE
  5
1c6
100
AcDbEntity
  8
PERIMETER
 62
7
100
AcDbPolyline
 90
1
 70
1
 10
22.632651
 20
6.965061
 30
0.0
  0
SPLINE
  5
1c7
100
AcDbEntity
  8
PERIMETER
 62
7
100
AcDbSpline
 70
8
 71
3
 72
8
 73
4
 74
0
 40
0
 40
0
 40
0
 40
0
 40
1
 40
1
 40
1
 40
1
 10
22.615114
 20
7.470714
 30
0.0
 10
22.588438
 20
8.082106
 30
0.0
 10
22.541949
 20
8.692472
 30
0.0
 10
22.475719
 20
9.300851
 30
0.0
  0
SPLINE
  5
1c8
100
AcDbEntity
  8
PERIMETER
 62
7
100
AcDbSpline
 70
8
 71
3
 72
8
 73
4
 74
0
 40
0
 40
0
 40
0
 40
0
 40
1
 40
1
 40
1
 40
1
 10
22.475719
 20
9.300851
 30
0.0
 10
22.473200
 20
9.323994
 30
0.0
 10
22.458577
 20
9.344057
 30
0.0
 10
22.437317
 20
9.353541
 30
0.0
  0
SPLINE
  5
1c9
100
AcDbEntity
  8
PERIMETER
 62
7
100
AcDbSpline
 70
8
 71
3
 72
8
 73
4
 74
0
 40
0
 40
0
 40
0
 40
0
 40
1
 40
1
 40
1
 40
1
 10
22.437317
 20
9.353541
 30
0.0
 10
22.416057
 20
9.363025
 30
0.0
 10
22.391360
 20
9.360504
 30
0.0
 10
22.372455
 20
9.346919
 30
0.0
  0
SPLINE
  5
1ca
100
AcDbEntity
  8
PERIMETER
 62
7
100
AcDbSpline
 70
8
 71
3
 72
8
 73
4
 74
0
 40
0
 40
0
 40
0
 40
0
 40
1
 40
1
 40
1
 40
1
 10
22.372455
 20
9.346919
 30
0.0
 10
22.262014
 20
9.267553
 30
0.0
 10
22.146298
 20
9.195797
 30
0.0
 10
22.026111
 20
9.132148
 30
0.0
  0
SPLINE
  5
1cb
100
AcDbEntity
  8
PERIMETER
 62
7
100
AcDbSpline
 70
8
 71
3
 72
8
 73
4
 74
0
 40
0
 40
0
 40
0
 40
0
 40
1
 40
1
 40
1
 40
1
 10
22.026111
 20
9.132148
 30
0.0
 10
22.002555
 20
9.119673
 30
0.0
 10
21.988917
 20
9.094159
 30
0.0
 10
21.991630
 20
9.067642
 30
0.0
  0
SPLINE
  5
1cc
100
AcDbEntity
  8
PERIMETER
 62
7
100
AcDbSpline
 70
8
 71
3
 72
8
 73
4
 74
0
 40
0
 40
0
 40
0
 40
0
 40
1
 40
1
 40
1
 40
1
 10
21.991630
 20
9.067642
 30
0.0
 10
22.187407
 20
7.154598
 30
0.0
 10
22.184225
 20
5.226407
 30
0.0
 10
21.982137
 20
3.314019
 30
0.0
  0
SPLINE
  5
1cd
100
AcDbEntity
  8
PERIMETER
 62
7
100
AcDbSpline
 70
8
 71
3
 72
8
 73
4
 74
0
 40
0
 40
0
 40
0
 40
0
 40
1
 40
1
 40
1
 40
1
 10
21.982137
 20
3.314019
 30
0.0
 10
21.979336
 20
3.287512
 30
0.0
 10
21.992890
 20
3.261953
 30
0.0
 10
22.016404
 20
3.249400
 30
0.0
  0
SPLINE
  5
1ce
100
AcDbEntity
  8
PERIMETER
 62
7
100
AcDbSpline
 70
8
 71
3
 72
8
 73
4
 74
0
 40
0
 40
0
 40
0
 40
0
 40
1
 40
1
 40
1
 40
1
 10
22.016404
 20
3.249400
 30
0.0
 10
22.136381
 20
3.185355
 30
0.0
 10
22.251859
 20
3.113217
 30
0.0
 10
22.362039
 20
3.033487
 30
0.0
  0
SPLINE
  5
1cf
100
AcDbEntity
  8
PERIMETER
 62
7
100
AcDbSpline
 70
8
 71
3
 72
8
 73
4
 74
0
 40
0
 40
0
 40
0
 40
0
 40
1
 40
1
 40
1
 40
1
 10
22.362039
 20
3.033487
 30
0.0
 10
22.380898
 20
3.019840
 30
0.0
 10
22.405588
 20
3.017237
 30
0.0
 10
22.426879
 20
3.026651
 30
0.0
  0
SPLINE
  5
1d0
100
AcDbEntity
  8
PERIMETER
 62
7
100
AcDbSpline
 70
8
 71
3
 72
8
 73
4
 74
0
 40
0
 40
0
 40
0
 40
0
 40
1
 40
1
 40
1
 40
1
 10
22.426879
 20
3.026651
 30
0.0
 10
22.448170
 20
3.036066
 30
0.0
 10
22.462858
 20
3.056080
 30
0.0
 10
22.465454
 20
3.079215
 30
0.0
  0
SPLINE
  5
1d1
100
AcDbEntity
  8
PERIMETER
 62
7
100
AcDbSpline
 70
8
 71
3
 72
8
 73
4
 74
0
 40
0
 40
0
 40
0
 40
0
 40
1
 40
1
 40
1
 40
1
 10
22.465454
 20
3.079215
 30
0.0
 10
22.533691
 20
3.687372
 30
0.0
 10
22.582194
 20
4.297581
 30
0.0
 10
22.610886
 20
4.908882
 30
0.0
  0
LWPOLYLINE
  5
1d2
100
AcDbEntity
  8
PERIMETER
 62
7
100
AcDbPolyline
 90
2
 70
0
 10
23.108741
 20
7.492200
 30
0.0
 10
22.615114
 20
7.470714
 30
0.0
  0
SPLINE
  5
1d3
100
AcDbEntity
  8
PERIMETER
 62
7
100
AcDbSpline
 70
8
 71
3
 72
8
 73
4
 74
0
 40
0
 40
0
 40
0
 40
0
 40
1
 40
1
 40
1
 40
1
 10
23.104440
 20
4.885768
 30
0.0
 10
23.068007
 20
4.109532
 30
0.0
 10
23.000182
 20
3.335088
 30
0.0
 10
22.901133
 20
2.564336
 30
0.0
  0
SPLINE
  5
1d4
100
AcDbEntity
  8
PERIMETER
 62
7
100
AcDbSpline
 70
8
 71
3
 72
8
 73
4
 74
0
 40
0
 40
0
 40
0
 40
0
 40
1
 40
1
 40
1
 40
1
 10
22.901133
 20
2.564336
 30
0.0
 10
22.898824
 20
2.546377
 30
0.0
 10
22.904059
 20
2.528265
 30
0.0
 10
22.915591
 20
2.514305
 30
0.0
  0
SPLINE
  5
1d5
100
AcDbEntity
  8
PERIMETER
 62
7
100
AcDbSpline
 70
8
 71
3
 72
8
 73
4
 74
0
 40
0
 40
0
 40
0
 40
0
 40
1
 40
1
 40
1
 40
1
 10
22.915591
 20
2.514305
 30
0.0
 10
23.032157
 20
2.373207
 30
0.0
 10
23.135554
 20
2.221727
 30
0.0
 10
23.224485
 20
2.061765
 30
0.0
  0
SPLINE
  5
1d6
100
AcDbEntity
  8
PERIMETER
 62
7
100
AcDbSpline
 70
8
 71
3
 72
8
 73
4
 74
0
 40
0
 40
0
 40
0
 40
0
 40
1
 40
1
 40
1
 40
1
 10
23.224485
 20
2.061765
 30
0.0
 10
23.238139
 20
2.037205
 30
0.0
 10
23.265947
 20
2.024101
 30
0.0
 10
23.293580
 20
2.029205
 30
0.0
  0
SPLINE
  5
1d7
100
AcDbEntity
  8
PERIMETER
 62
7
100
AcDbSpline
 70
8
 71
3
 72
8
 73
4
 74
0
 40
0
 40
0
 40
0
 40
0
 40
1
 40
1
 40
1
 40
1
 10
23.293580
 20
2.029205
 30
0.0
 10
23.321213
 20
2.034309
 30
0.0
 10
23.342505
 20
2.056481
 30
0.0
 10
23.346485
 20
2.084299
 30
0.0
  0
SPLINE
  5
1d8
100
AcDbEntity
  8
PERIMETER
 62
7
100
AcDbSpline
 70
8
 71
3
 72
8
 73
4
 74
0
 40
0
 40
0
 40
0
 40
0
 40
1
 40
1
 40
1
 40
1
 10
23.346485
 20
2.084299
 30
0.0
 10
23.735950
 20
4.806308
 30
0.0
 10
23.740509
 20
7.569575
 30
0.0
 10
23.360027
 20
10.292854
 30
0.0
  0
SPLINE
  5
1d9
100
AcDbEntity
  8
PERIMETER
 62
7
100
AcDbSpline
 70
8
 71
3
 72
8
 73
4
 74
0
 40
0
 40
0
 40
0
 40
0
 40
1
 40
1
 40
1
 40
1
 10
23.360027
 20
10.292854
 30
0.0
 10
23.356139
 20
10.320684
 30
0.0
 10
23.334921
 20
10.342927
 30
0.0
 10
23.307305
 20
10.348122
 30
0.0
  0
SPLINE
  5
1da
100
AcDbEntity
  8
PERIMETER
 62
7
100
AcDbSpline
 70
8
 71
3
 72
8
 73
4
 74
0
 40
0
 40
0
 40
0
 40
0
 40
1
 40
1
 40
1
 40
1
 10
23.307305
 20
10.348122
 30
0.0
 10
23.279689
 20
10.353317
 30
0.0
 10
23.251839
 20
10.340305
 30
0.0
 10
23.238103
 20
10.315791
 30
0.0
  0
SPLINE
  5
1db
100
AcDbEntity
  8
PERIMETER
 62
7
100
AcDbSpline
 70
8
 71
3
 72
8
 73
4
 74
0
 40
0
 40
0
 40
0
 40
0
 40
1
 40
1
 40
1
 40
1
 10
23.238103
 20
10.315791
 30
0.0
 10
23.148645
 20
10.156123
 30
0.0
 10
23.044749
 20
10.004985
 30
0.0
 10
22.927718
 20
9.864272
 30
0.0
  0
LWPOLYLINE
  5
1dc
100
AcDbEntity
  8
PERIMETER
 62
7
100
AcDbPolyline
 90
2
 70
0
 10
22.610886
 20
4.908882
 30
0.0
 10
23.104440
 20
4.885768
 30
0.0
  0
SPLINE
  5
1dd
100
AcDbEntity
  8
PERIMETER
 62
7
100
AcDbSpline
 70
8
 71
3
 72
8
 73
4
 74
0
 40
0
 40
0
 40
0
 40
0
 40
1
 40
1
 40
1
 40
1
 10
3.778301
 20
10.264996
 30
0.0
 10
3.756380
 20
10.281154
 30
0.0
 10
3.726744
 20
10.282050
 30
0.0
 10
3.703887
 20
10.267246
 30
0.0
  0
SPLINE
  5
1de
100
AcDbEntity
  8
PERIMETER
 62
7
100
AcDbSpline
 70
8
 71
3
 72
8
 73
4
 74
0
 40
0
 40
0
 40
0
 40
0
 40
1
 40
1
 40
1
 40
1
 10
3.703887
 20
10.267246
 30
0.0
 10
3.681029
 20
10.252442
 30
0.0
 10
3.669726
 20
10.225032
 30
0.0
 10
3.675505
 20
10.198420
 30
0.0
  0
SPLINE
  5
1df
100
AcDbEntity
  8
PERIMETER
 62
7
100
AcDbSpline
 70
8
 71
3
 72
8
 73
4
 74
0
 40
0
 40
0
 40
0
 40
0
 40
1
 40
1
 40
1
 40
1
 10
3.675505
 20
10.198420
 30
0.0
 10
4.139619
 20
8.060948
 30
0.0
 10
4.314631
 20
5.870837
 30
0.0
 10
4.195852
 20
3.686787
 30
0.0
  0
SPLINE
  5
1e0
100
AcDbEntity
  8
PERIMETER
 62
7
100
AcDbSpline
 70
8
 71
3
 72
8
 73
4
 74
0
 40
0
 40
0
 40
0
 40
0
 40
1
 40
1
 40
1
 40
1
 10
4.195852
 20
3.686787
 30
0.0
 10
4.194372
 20
3.659594
 30
0.0
 10
4.209885
 20
3.634327
 30
0.0
 10
4.234803
 20
3.623341
 30
0.0
  0
SPLINE
  5
1e1
100
AcDbEntity
  8
PERIMETER
 62
7
100
AcDbSpline
 70
8
 71
3
 72
8
 73
4
 74
0
 40
0
 40
0
 40
0
 40
0
 40
1
 40
1
 40
1
 40
1
 10
4.234803
 20
3.623341
 30
0.0
 10
4.259721
 20
3.612355
 30
0.0
 10
4.288838
 20
3.617946
 30
0.0
 10
4.307915
 20
3.637379
 30
0.0
  0
SPLINE
  5
1e2
100
AcDbEntity
  8
PERIMETER
 62
7
100
AcDbSpline
 70
8
 71
3
 72
8
 73
4
 74
0
 40
0
 40
0
 40
0
 40
0
 40
1
 40
1
 40
1
 40
1
 10
4.307915
 20
3.637379
 30
0.0
 10
4.426063
 20
3.757731
 30
0.0
 10
4.554159
 20
3.867895
 30
0.0
 10
4.690838
 20
3.966698
 30
0.0
  0
SPLINE
  5
1e3
100
AcDbEntity
  8
PERIMETER
 62
7
100
AcDbSpline
 70
8
 71
3
 72
8
 73
4
 74
0
 40
0
 40
0
 40
0
 40
0
 40
1
 40
1
 40
1
 40
1
 10
4.690838
 20
3.966698
 30
0.0
 10
4.707117
 20
3.978466
 30
0.0
 10
4.717091
 20
3.997056
 30
0.0
 10
4.717894
 20
4.017127
 30
0.0
  0
SPLINE
  5
1e4
100
AcDbEntity
  8
PERIMETER
 62
7
100
AcDbSpline
 70
8
 71
3
 72
8
 73
4
 74
0
 40
0
 40
0
 40
0
 40
0
 40
1
 40
1
 40
1
 40
1
 10
4.717894
 20
4.017127
 30
0.0
 10
4.754365
 20
4.929142
 30
0.0
 10
4.740744
 20
5.842472
 30
0.0
 10
4.677091
 20
6.752994
 30
0.0
  0
LWPOLYLINE
  5
1e5
100
AcDbEntity
  8
PERIMETER
 62
7
100
AcDbPolyline
 90
1
 70
1
 10
22.927718
 20
9.864272
 30
0.0
  0
SPLINE
  5
1e6
100
AcDbEntity
  8
PERIMETER
 62
7
100
AcDbSpline
 70
8
 71
3
 72
8
 73
4
 74
0
 40
0
 40
0
 40
0
 40
0
 40
1
 40
1
 40
1
 40
1
 10
5.169979
 20
6.787509
 30
0.0
 10
5.226111
 20
5.984600
 30
0.0
 10
5.244099
 20
5.179478
 30
0.0
 10
5.223883
 20
4.374863
 30
0.0
  0
SPLINE
  5
1e7
100
AcDbEntity
  8
PERIMETER
 62
7
100
AcDbSpline
 70
8
 71
3
 72
8
 73
4
 74
0
 40
0
 40
0
 40
0
 40
0
 40
1
 40
1
 40
1
 40
1
 10
5.223883
 20
4.374863
 30
0.0
 10
5.223329
 20
4.352778
 30
0.0
 10
5.233951
 20
4.331904
 30
0.0
 10
5.252132
 20
4.319354
 30
0.0
  0
SPLINE
  5
1e8
100
AcDbEntity
  8
PERIMETER
 62
7
100
AcDbSpline
 70
8
 71
3
 72
8
 73
4
 74
0
 40
0
 40
0
 40
0
 40
0
 40
1
 40
1
 40
1
 40
1
 10
5.252132
 20
4.319354
 30
0.0
 10
5.270312
 20
4.306804
 30
0.0
 10
5.293597
 20
4.304272
 30
0.0
 10
5.314050
 20
4.312620
 30
0.0
  0
SPLINE
  5
1e9
100
AcDbEntity
  8
PERIMETER
 62
7
100
AcDbSpline
 70
8
 71
3
 72
8
 73
4
 74
0
 40
0
 40
0
 40
0
 40
0
 40
1
 40
1
 40
1
 40
1
 10
5.314050
 20
4.312620
 30
0.0
 10
5.434523
 20
4.361793
 30
0.0
 10
5.558070
 20
4.403068
 30
0.0
 10
5.683907
 20
4.436183
 30
0.0
  0
SPLINE
  5
1ea
100
AcDbEntity
  8
PERIMETER
 62
7
100
AcDbSpline
 70
8
 71
3
 72
8
 73
4
 74
0
 40
0
 40
0
 40
0
 40
0
 40
1
 40
1
 40
1
 40
1
 10
5.683907
 20
4.436183
 30
0.0
 10
5.712194
 20
4.443627
 30
0.0
 10
5.732109
 20
4.468936
 30
0.0
 10
5.732690
 20
4.498180
 30
0.0
  0
SPLINE
  5
1eb
100
AcDbEntity
  8
PERIMETER
 62
7
100
AcDbSpline
 70
8
 71
3
 72
8
 73
4
 74
0
 40
0
 40
0
 40
0
 40
0
 40
1
 40
1
 40
1
 40
1
 10
5.732690
 20
4.498180
 30
0.0
 10
5.766954
 20
6.221979
 30
0.0
 10
5.629275
 20
7.944901
 30
0.0
 10
5.321695
 20
9.641383
 30
0.0
  0
SPLINE
  5
1ec
100
AcDbEntity
  8
PERIMETER
 62
7
100
AcDbSpline
 70
8
 71
3
 72
8
 73
4
 74
0
 40
0
 40
0
 40
0
 40
0
 40
1
 40
1
 40
1
 40
1
 10
5.321695
 20
9.641383
 30
0.0
 10
5.316477
 20
9.670164
 30
0.0
 10
5.292796
 20
9.691989
 30
0.0
 10
5.263686
 20
9.694846
 30
0.0
  0
SPLINE
  5
1ed
100
AcDbEntity
  8
PERIMETER
 62
7
100
AcDbSpline
 70
8
 71
3
 72
8
 73
4
 74
0
 40
0
 40
0
 40
0
 40
0
 40
1
 40
1
 40
1
 40
1
 10
5.263686
 20
9.694846
 30
0.0
 10
5.134187
 20
9.707557
 30
0.0
 10
5.005653
 20
9.728688
 30
0.0
 10
4.878900
 20
9.758105
 30
0.0
  0
SPLINE
  5
1ee
100
AcDbEntity
  8
PERIMETER
 62
7
100
AcDbSpline
 70
8
 71
3
 72
8
 73
4
 74
0
 40
0
 40
0
 40
0
 40
0
 40
1
 40
1
 40
1
 40
1
 10
4.878900
 20
9.758105
 30
0.0
 10
4.857381
 20
9.763100
 30
0.0
 10
4.834794
 20
9.756902
 30
0.0
 10
4.818837
 20
9.741624
 30
0.0
  0
SPLINE
  5
1ef
100
AcDbEntity
  8
PERIMETER
 62
7
100
AcDbSpline
 70
8
 71
3
 72
8
 73
4
 74
0
 40
0
 40
0
 40
0
 40
0
 40
1
 40
1
 40
1
 40
1
 10
4.818837
 20
9.741624
 30
0.0
 10
4.802880
 20
9.726346
 30
0.0
 10
4.795707
 20
9.704049
 30
0.0
 10
4.799762
 20
9.682333
 30
0.0
  0
SPLINE
  5
1f0
100
AcDbEntity
  8
PERIMETER
 62
7
100
AcDbSpline
 70
8
 71
3
 72
8
 73
4
 74
0
 40
0
 40
0
 40
0
 40
0
 40
1
 40
1
 40
1
 40
1
 10
4.799762
 20
9.682333
 30
0.0
 10
4.947499
 20
8.891139
 30
0.0
 10
5.057598
 20
8.093378
 30
0.0
 10
5.129686
 20
7.291743
 30
0.0
  0
LWPOLYLINE
  5
1f1
100
AcDbEntity
  8
PERIMETER
 62
7
100
AcDbPolyline
 90
2
 70
0
 10
4.677091
 20
6.752994
 30
0.0
 10
5.169979
 20
6.787509
 30
0.0
  0
SPLINE
  5
1f2
100
AcDbEntity
  8
PERIMETER
 62
7
100
AcDbSpline
 70
8
 71
3
 72
8
 73
4
 74
0
 40
0
 40
0
 40
0
 40
0
 40
1
 40
1
 40
1
 40
1
 10
4.637571
 20
7.247547
 30
0.0
 10
4.555820
 20
8.156623
 30
0.0
 10
4.424226
 20
9.060525
 30
0.0
 10
4.243383
 20
9.955175
 30
0.0
  0
SPLINE
  5
1f3
100
AcDbEntity
  8
PERIMETER
 62
7
100
AcDbSpline
 70
8
 71
3
 72
8
 73
4
 74
0
 40
0
 40
0
 40
0
 40
0
 40
1
 40
1
 40
1
 40
1
 10
4.243383
 20
9.955175
 30
0.0
 10
4.239403
 20
9.974864
 30
0.0
 10
4.226604
 20
9.991635
 30
0.0
 10
4.208663
 20
10.000668
 30
0.0
  0
SPLINE
  5
1f4
100
AcDbEntity
  8
PERIMETER
 62
7
100
AcDbSpline
 70
8
 71
3
 72
8
 73
4
 74
0
 40
0
 40
0
 40
0
 40
0
 40
1
 40
1
 40
1
 40
1
 10
4.208663
 20
10.000668
 30
0.0
 10
4.058027
 20
10.076512
 30
0.0
 10
3.914062
 20
10.164935
 30
0.0
 10
3.778301
 20
10.264996
 30
0.0
  0
LWPOLYLINE
  5
1f5
100
AcDbEntity
  8
PERIMETER
 62
7
100
AcDbPolyline
 90
2
 70
0
 10
5.129686
 20
7.291743
 30
0.0
 10
4.637571
 20
7.247547
 30
0.0
  0
LWPOLYLINE
  5
1f6
100
AcDbEntity
  8
PERIMETER
 62
7
100
AcDbPolyline
 90
1
 70
1
 10
3.778301
 20
10.264996
 30
0.0
  0
SPLINE
  5
1f7
100
AcDbEntity
  8
PERIMETER
 62
7
100
AcDbSpline
 70
8
 71
3
 72
8
 73
4
 74
0
 40
0
 40
0
 40
0
 40
0
 40
1
 40
1
 40
1
 40
1
 10
20.478107
 20
8.763632
 30
0.0
 10
20.464571
 20
9.289473
 30
0.0
 10
20.465439
 20
9.815586
 30
0.0
 10
20.480710
 20
10.341380
 30
0.0
  0
LWPOLYLINE
  5
1f8
100
AcDbEntity
  8
PERIMETER
 62
7
100
AcDbPolyline
 90
2
 70
0
 10
20.972037
 20
8.776397
 30
0.0
 10
20.478107
 20
8.763632
 30
0.0
  0
SPLINE
  5
1f9
100
AcDbEntity
  8
PERIMETER
 62
7
100
AcDbSpline
 70
8
 71
3
 72
8
 73
4
 74
0
 40
0
 40
0
 40
0
 40
0
 40
1
 40
1
 40
1
 40
1
 10
20.974595
 20
10.326984
 30
0.0
 10
20.959588
 20
9.810242
 30
0.0
 10
20.958735
 20
9.293186
 30
0.0
 10
20.972037
 20
8.776397
 30
0.0
  0
LWPOLYLINE
  5
1fa
100
AcDbEntity
  8
PERIMETER
 62
7
100
AcDbPolyline
 90
2
 70
0
 10
20.480710
 20
10.341380
 30
0.0
 10
20.974595
 20
10.326984
 30
0.0
  0
SPLINE
  5
1fb
100
AcDbEntity
  8
PERIMETER
 62
7
100
AcDbSpline
 70
8
 71
3
 72
8
 73
4
 74
0
 40
0
 40
0
 40
0
 40
0
 40
1
 40
1
 40
1
 40
1
 10
20.676969
 20
5.877187
 30
0.0
 10
20.688547
 20
5.891107
 30
0.0
 10
20.693842
 20
5.909202
 30
0.0
 10
20.691593
 20
5.927168
 30
0.0
  0
SPLINE
  5
1fc
100
AcDbEntity
  8
PERIMETER
 62
7
100
AcDbSpline
 70
8
 71
3
 72
8
 73
4
 74
0
 40
0
 40
0
 40
0
 40
0
 40
1
 40
1
 40
1
 40
1
 10
20.691593
 20
5.927168
 30
0.0
 10
20.595087
 20
6.698243
 30
0.0
 10
20.529818
 20
7.472907
 30
0.0
 10
20.495947
 20
8.249259
 30
0.0
  0
LWPOLYLINE
  5
1fd
100
AcDbEntity
  8
PERIMETER
 62
7
100
AcDbPolyline
 90
1
 70
1
 10
20.972037
 20
8.776397
 30
0.0
  0
SPLINE
  5
1fe
100
AcDbEntity
  8
PERIMETER
 62
7
100
AcDbSpline
 70
8
 71
3
 72
8
 73
4
 74
0
 40
0
 40
0
 40
0
 40
0
 40
1
 40
1
 40
1
 40
1
 10
20.989574
 20
8.270744
 30
0.0
 10
21.016249
 20
7.659353
 30
0.0
 10
21.062739
 20
7.048987
 30
0.0
 10
21.128968
 20
6.440607
 30
0.0
  0
SPLINE
  5
1ff
100
AcDbEntity
  8
PERIMETER
 62
7
100
AcDbSpline
 70
8
 71
3
 72
8
 73
4
 74
0
 40
0
 40
0
 40
0
 40
0
 40
1
 40
1
 40
1
 40
1
 10
21.128968
 20
6.440607
 30
0.0
 10
21.131488
 20
6.417465
 30
0.0
 10
21.146110
 20
6.397402
 30
0.0
 10
21.167370
 20
6.387917
 30
0.0
  0
SPLINE
  5
200
100
AcDbEntity
  8
PERIMETER
 62
7
100
AcDbSpline
 70
8
 71
3
 72
8
 73
4
 74
0
 40
0
 40
0
 40
0
 40
0
 40
1
 40
1
 40
1
 40
1
 10
21.167370
 20
6.387917
 30
0.0
 10
21.188630
 20
6.378433
 30
0.0
 10
21.213328
 20
6.380955
 30
0.0
 10
21.232232
 20
6.394540
 30
0.0
  0
SPLINE
  5
201
100
AcDbEntity
  8
PERIMETER
 62
7
100
AcDbSpline
 70
8
 71
3
 72
8
 73
4
 74
0
 40
0
 40
0
 40
0
 40
0
 40
1
 40
1
 40
1
 40
1
 10
21.232232
 20
6.394540
 30
0.0
 10
21.342674
 20
6.473905
 30
0.0
 10
21.458389
 20
6.545662
 30
0.0
 10
21.578577
 20
6.609311
 30
0.0
  0
SPLINE
  5
202
100
AcDbEntity
  8
PERIMETER
 62
7
100
AcDbSpline
 70
8
 71
3
 72
8
 73
4
 74
0
 40
0
 40
0
 40
0
 40
0
 40
1
 40
1
 40
1
 40
1
 10
21.578577
 20
6.609311
 30
0.0
 10
21.602133
 20
6.621786
 30
0.0
 10
21.615771
 20
6.647300
 30
0.0
 10
21.613057
 20
6.673817
 30
0.0
  0
SPLINE
  5
203
100
AcDbEntity
  8
PERIMETER
 62
7
100
AcDbSpline
 70
8
 71
3
 72
8
 73
4
 74
0
 40
0
 40
0
 40
0
 40
0
 40
1
 40
1
 40
1
 40
1
 10
21.613057
 20
6.673817
 30
0.0
 10
21.417281
 20
8.586860
 30
0.0
 10
21.420462
 20
10.515052
 30
0.0
 10
21.622550
 20
12.427439
 30
0.0
  0
SPLINE
  5
204
100
AcDbEntity
  8
PERIMETER
 62
7
100
AcDbSpline
 70
8
 71
3
 72
8
 73
4
 74
0
 40
0
 40
0
 40
0
 40
0
 40
1
 40
1
 40
1
 40
1
 10
21.622550
 20
12.427439
 30
0.0
 10
21.625352
 20
12.453947
 30
0.0
 10
21.611798
 20
12.479506
 30
0.0
 10
21.588283
 20
12.492058
 30
0.0
  0
SPLINE
  5
205
100
AcDbEntity
  8
PERIMETER
 62
7
100
AcDbSpline
 70
8
 71
3
 72
8
 73
4
 74
0
 40
0
 40
0
 40
0
 40
0
 40
1
 40
1
 40
1
 40
1
 10
21.588283
 20
12.492058
 30
0.0
 10
21.468306
 20
12.556104
 30
0.0
 10
21.352828
 20
12.628241
 30
0.0
 10
21.242649
 20
12.707971
 30
0.0
  0
SPLINE
  5
206
100
AcDbEntity
  8
PERIMETER
 62
7
100
AcDbSpline
 70
8
 71
3
 72
8
 73
4
 74
0
 40
0
 40
0
 40
0
 40
0
 40
1
 40
1
 40
1
 40
1
 10
21.242649
 20
12.707971
 30
0.0
 10
21.223789
 20
12.721618
 30
0.0
 10
21.199100
 20
12.724221
 30
0.0
 10
21.177809
 20
12.714807
 30
0.0
  0
SPLINE
  5
207
100
AcDbEntity
  8
PERIMETER
 62
7
100
AcDbSpline
 70
8
 71
3
 72
8
 73
4
 74
0
 40
0
 40
0
 40
0
 40
0
 40
1
 40
1
 40
1
 40
1
 10
21.177809
 20
12.714807
 30
0.0
 10
21.156518
 20
12.705393
 30
0.0
 10
21.141829
 20
12.685378
 30
0.0
 10
21.139234
 20
12.662244
 30
0.0
  0
SPLINE
  5
208
100
AcDbEntity
  8
PERIMETER
 62
7
100
AcDbSpline
 70
8
 71
3
 72
8
 73
4
 74
0
 40
0
 40
0
 40
0
 40
0
 40
1
 40
1
 40
1
 40
1
 10
21.139234
 20
12.662244
 30
0.0
 10
21.070997
 20
12.054086
 30
0.0
 10
21.022494
 20
11.443877
 30
0.0
 10
20.993801
 20
10.832577
 30
0.0
  0
LWPOLYLINE
  5
209
100
AcDbEntity
  8
PERIMETER
 62
7
100
AcDbPolyline
 90
2
 70
0
 10
20.495947
 20
8.249259
 30
0.0
 10
20.989574
 20
8.270744
 30
0.0
  0
SPLINE
  5
20a
100
AcDbEntity
  8
PERIMETER
 62
7
100
AcDbSpline
 70
8
 71
3
 72
8
 73
4
 74
0
 40
0
 40
0
 40
0
 40
0
 40
1
 40
1
 40
1
 40
1
 10
20.500248
 20
10.855691
 30
0.0
 10
20.536681
 20
11.631927
 30
0.0
 10
20.604505
 20
12.406371
 30
0.0
 10
20.703555
 20
13.177123
 30
0.0
  0
SPLINE
  5
20b
100
AcDbEntity
  8
PERIMETER
 62
7
100
AcDbSpline
 70
8
 71
3
 72
8
 73
4
 74
0
 40
0
 40
0
 40
0
 40
0
 40
1
 40
1
 40
1
 40
1
 10
20.703555
 20
13.177123
 30
0.0
 10
20.705863
 20
13.195081
 30
0.0
 10
20.700629
 20
13.213194
 30
0.0
 10
20.689097
 20
13.227153
 30
0.0
  0
SPLINE
  5
20c
100
AcDbEntity
  8
PERIMETER
 62
7
100
AcDbSpline
 70
8
 71
3
 72
8
 73
4
 74
0
 40
0
 40
0
 40
0
 40
0
 40
1
 40
1
 40
1
 40
1
 10
20.689097
 20
13.227153
 30
0.0
 10
20.572530
 20
13.368251
 30
0.0
 10
20.469133
 20
13.519731
 30
0.0
 10
20.380202
 20
13.679693
 30
0.0
  0
SPLINE
  5
20d
100
AcDbEntity
  8
PERIMETER
 62
7
100
AcDbSpline
 70
8
 71
3
 72
8
 73
4
 74
0
 40
0
 40
0
 40
0
 40
0
 40
1
 40
1
 40
1
 40
1
 10
20.380202
 20
13.679693
 30
0.0
 10
20.366548
 20
13.704253
 30
0.0
 10
20.338741
 20
13.717357
 30
0.0
 10
20.311107
 20
13.712254
 30
0.0
  0
SPLINE
  5
20e
100
AcDbEntity
  8
PERIMETER
 62
7
100
AcDbSpline
 70
8
 71
3
 72
8
 73
4
 74
0
 40
0
 40
0
 40
0
 40
0
 40
1
 40
1
 40
1
 40
1
 10
20.311107
 20
13.712254
 30
0.0
 10
20.283474
 20
13.707150
 30
0.0
 10
20.262182
 20
13.684977
 30
0.0
 10
20.258203
 20
13.657160
 30
0.0
  0
SPLINE
  5
20f
100
AcDbEntity
  8
PERIMETER
 62
7
100
AcDbSpline
 70
8
 71
3
 72
8
 73
4
 74
0
 40
0
 40
0
 40
0
 40
0
 40
1
 40
1
 40
1
 40
1
 10
20.258203
 20
13.657160
 30
0.0
 10
19.868738
 20
10.935151
 30
0.0
 10
19.864179
 20
8.171883
 30
0.0
 10
20.244660
 20
5.448604
 30
0.0
  0
SPLINE
  5
210
100
AcDbEntity
  8
PERIMETER
 62
7
100
AcDbSpline
 70
8
 71
3
 72
8
 73
4
 74
0
 40
0
 40
0
 40
0
 40
0
 40
1
 40
1
 40
1
 40
1
 10
20.244660
 20
5.448604
 30
0.0
 10
20.248548
 20
5.420774
 30
0.0
 10
20.269767
 20
5.398531
 30
0.0
 10
20.297383
 20
5.393336
 30
0.0
  0
SPLINE
  5
211
100
AcDbEntity
  8
PERIMETER
 62
7
100
AcDbSpline
 70
8
 71
3
 72
8
 73
4
 74
0
 40
0
 40
0
 40
0
 40
0
 40
1
 40
1
 40
1
 40
1
 10
20.297383
 20
5.393336
 30
0.0
 10
20.324999
 20
5.388141
 30
0.0
 10
20.352849
 20
5.401153
 30
0.0
 10
20.366584
 20
5.425668
 30
0.0
  0
SPLINE
  5
212
100
AcDbEntity
  8
PERIMETER
 62
7
100
AcDbSpline
 70
8
 71
3
 72
8
 73
4
 74
0
 40
0
 40
0
 40
0
 40
0
 40
1
 40
1
 40
1
 40
1
 10
20.366584
 20
5.425668
 30
0.0
 10
20.456042
 20
5.585335
 30
0.0
 10
20.559938
 20
5.736473
 30
0.0
 10
20.676969
 20
5.877187
 30
0.0
  0
LWPOLYLINE
  5
213
100
AcDbEntity
  8
PERIMETER
 62
7
100
AcDbPolyline
 90
2
 70
0
 10
20.993801
 20
10.832577
 30
0.0
 10
20.500248
 20
10.855691
 30
0.0
  0
SPLINE
  5
214
100
AcDbEntity
  8
PERIMETER
 62
7
100
AcDbSpline
 70
8
 71
3
 72
8
 73
4
 74
0
 40
0
 40
0
 40
0
 40
0
 40
1
 40
1
 40
1
 40
1
 10
4.297606
 20
0.717346
 30
0.0
 10
4.279877
 20
0.696675
 30
0.0
 10
4.276799
 20
0.667186
 30
0.0
 10
4.289878
 20
0.643299
 30
0.0
  0
SPLINE
  5
215
100
AcDbEntity
  8
PERIMETER
 62
7
100
AcDbSpline
 70
8
 71
3
 72
8
 73
4
 74
0
 40
0
 40
0
 40
0
 40
0
 40
1
 40
1
 40
1
 40
1
 10
4.289878
 20
0.643299
 30
0.0
 10
4.302957
 20
0.619413
 30
0.0
 10
4.329459
 20
0.606121
 30
0.0
 10
4.356425
 20
0.609922
 30
0.0
  0
SPLINE
  5
216
100
AcDbEntity
  8
PERIMETER
 62
7
100
AcDbSpline
 70
8
 71
3
 72
8
 73
4
 74
0
 40
0
 40
0
 40
0
 40
0
 40
1
 40
1
 40
1
 40
1
 10
4.356425
 20
0.609922
 30
0.0
 10
6.522287
 20
0.915252
 30
0.0
 10
8.719340
 20
0.928386
 30
0.0
 10
10.888697
 20
0.648974
 30
0.0
  0
SPLINE
  5
217
100
AcDbEntity
  8
PERIMETER
 62
7
100
AcDbSpline
 70
8
 71
3
 72
8
 73
4
 74
0
 40
0
 40
0
 40
0
 40
0
 40
1
 40
1
 40
1
 40
1
 10
10.888697
 20
0.648974
 30
0.0
 10
10.915706
 20
0.645495
 30
0.0
 10
10.942048
 20
0.659103
 30
0.0
 10
10.954840
 20
0.683144
 30
0.0
  0
SPLINE
  5
218
100
AcDbEntity
  8
PERIMETER
 62
7
100
AcDbSpline
 70
8
 71
3
 72
8
 73
4
 74
0
 40
0
 40
0
 40
0
 40
0
 40
1
 40
1
 40
1
 40
1
 10
10.954840
 20
0.683144
 30
0.0
 10
10.967633
 20
0.707184
 30
0.0
 10
10.964203
 20
0.736634
 30
0.0
 10
10.946229
 20
0.757092
 30
0.0
  0
SPLINE
  5
219
100
AcDbEntity
  8
PERIMETER
 62
7
100
AcDbSpline
 70
8
 71
3
 72
8
 73
4
 74
0
 40
0
 40
0
 40
0
 40
0
 40
1
 40
1
 40
1
 40
1
 10
10.946229
 20
0.757092
 30
0.0
 10
10.834912
 20
0.883788
 30
0.0
 10
10.734487
 20
1.019654
 30
0.0
 10
10.646025
 20
1.163243
 30
0.0
  0
SPLINE
  5
21a
100
AcDbEntity
  8
PERIMETER
 62
7
100
AcDbSpline
 70
8
 71
3
 72
8
 73
4
 74
0
 40
0
 40
0
 40
0
 40
0
 40
1
 40
1
 40
1
 40
1
 10
10.646025
 20
1.163243
 30
0.0
 10
10.635489
 20
1.180345
 30
0.0
 10
10.617684
 20
1.191661
 30
0.0
 10
10.597728
 20
1.193941
 30
0.0
  0
SPLINE
  5
21b
100
AcDbEntity
  8
PERIMETER
 62
7
100
AcDbSpline
 70
8
 71
3
 72
8
 73
4
 74
0
 40
0
 40
0
 40
0
 40
0
 40
1
 40
1
 40
1
 40
1
 10
10.597728
 20
1.193941
 30
0.0
 10
9.690880
 20
1.297525
 30
0.0
 10
8.779031
 20
1.351249
 30
0.0
 10
7.866294
 20
1.354872
 30
0.0
  0
LWPOLYLINE
  5
21c
100
AcDbEntity
  8
PERIMETER
 62
7
100
AcDbPolyline
 90
1
 70
1
 10
20.676969
 20
5.877187
 30
0.0
  0
SPLINE
  5
21d
100
AcDbEntity
  8
PERIMETER
 62
7
100
AcDbSpline
 70
8
 71
3
 72
8
 73
4
 74
0
 40
0
 40
0
 40
0
 40
0
 40
1
 40
1
 40
1
 40
1
 10
7.868196
 20
1.848963
 30
0.0
 10
8.673059
 20
1.845771
 30
0.0
 10
9.477316
 20
1.804376
 30
0.0
 10
10.278254
 20
1.724918
 30
0.0
  0
SPLINE
  5
21e
100
AcDbEntity
  8
PERIMETER
 62
7
100
AcDbSpline
 70
8
 71
3
 72
8
 73
4
 74
0
 40
0
 40
0
 40
0
 40
0
 40
1
 40
1
 40
1
 40
1
 10
10.278254
 20
1.724918
 30
0.0
 10
10.300237
 20
1.722737
 30
0.0
 10
10.321838
 20
1.731793
 30
0.0
 10
10.335693
 20
1.748999
 30
0.0
  0
SPLINE
  5
21f
100
AcDbEntity
  8
PERIMETER
 62
7
100
AcDbSpline
 70
8
 71
3
 72
8
 73
4
 74
0
 40
0
 40
0
 40
0
 40
0
 40
1
 40
1
 40
1
 40
1
 10
10.335693
 20
1.748999
 30
0.0
 10
10.349549
 20
1.766205
 30
0.0
 10
10.353791
 20
1.789240
 30
0.0
 10
10.346972
 20
1.810253
 30
0.0
  0
SPLINE
  5
220
100
AcDbEntity
  8
PERIMETER
 62
7
100
AcDbSpline
 70
8
 71
3
 72
8
 73
4
 74
0
 40
0
 40
0
 40
0
 40
0
 40
1
 40
1
 40
1
 40
1
 10
10.346972
 20
1.810253
 30
0.0
 10
10.306811
 20
1.934021
 30
0.0
 10
10.274754
 20
2.060275
 30
0.0
 10
10.251002
 20
2.188210
 30
0.0
  0
SPLINE
  5
221
100
AcDbEntity
  8
PERIMETER
 62
7
100
AcDbSpline
 70
8
 71
3
 72
8
 73
4
 74
0
 40
0
 40
0
 40
0
 40
0
 40
1
 40
1
 40
1
 40
1
 10
10.251002
 20
2.188210
 30
0.0
 10
10.245663
 20
2.216969
 30
0.0
 10
10.221891
 20
2.238694
 30
0.0
 10
10.192768
 20
2.241429
 30
0.0
  0
SPLINE
  5
222
100
AcDbEntity
  8
PERIMETER
 62
7
100
AcDbSpline
 70
8
 71
3
 72
8
 73
4
 74
0
 40
0
 40
0
 40
0
 40
0
 40
1
 40
1
 40
1
 40
1
 10
10.192768
 20
2.241429
 30
0.0
 10
8.476183
 20
2.402637
 30
0.0
 10
6.747801
 20
2.392304
 30
0.0
 10
5.033265
 20
2.210585
 30
0.0
  0
SPLINE
  5
223
100
AcDbEntity
  8
PERIMETER
 62
7
100
AcDbSpline
 70
8
 71
3
 72
8
 73
4
 74
0
 40
0
 40
0
 40
0
 40
0
 40
1
 40
1
 40
1
 40
1
 10
5.033265
 20
2.210585
 30
0.0
 10
5.004177
 20
2.207502
 30
0.0
 10
4.980667
 20
2.185494
 30
0.0
 10
4.975672
 20
2.156673
 30
0.0
  0
SPLINE
  5
224
100
AcDbEntity
  8
PERIMETER
 62
7
100
AcDbSpline
 70
8
 71
3
 72
8
 73
4
 74
0
 40
0
 40
0
 40
0
 40
0
 40
1
 40
1
 40
1
 40
1
 10
4.975672
 20
2.156673
 30
0.0
 10
4.953452
 20
2.028463
 30
0.0
 10
4.922906
 20
1.901836
 30
0.0
 10
4.884227
 20
1.777596
 30
0.0
  0
SPLINE
  5
225
100
AcDbEntity
  8
PERIMETER
 62
7
100
AcDbSpline
 70
8
 71
3
 72
8
 73
4
 74
0
 40
0
 40
0
 40
0
 40
0
 40
1
 40
1
 40
1
 40
1
 10
4.884227
 20
1.777596
 30
0.0
 10
4.877660
 20
1.756503
 30
0.0
 10
4.882177
 20
1.733520
 30
0.0
 10
4.896238
 20
1.716481
 30
0.0
  0
SPLINE
  5
226
100
AcDbEntity
  8
PERIMETER
 62
7
100
AcDbSpline
 70
8
 71
3
 72
8
 73
4
 74
0
 40
0
 40
0
 40
0
 40
0
 40
1
 40
1
 40
1
 40
1
 10
4.896238
 20
1.716481
 30
0.0
 10
4.910298
 20
1.699442
 30
0.0
 10
4.932006
 20
1.690645
 30
0.0
 10
4.953962
 20
1.693089
 30
0.0
  0
SPLINE
  5
227
100
AcDbEntity
  8
PERIMETER
 62
7
100
AcDbSpline
 70
8
 71
3
 72
8
 73
4
 74
0
 40
0
 40
0
 40
0
 40
0
 40
1
 40
1
 40
1
 40
1
 10
4.953962
 20
1.693089
 30
0.0
 10
5.753892
 20
1.782117
 30
0.0
 10
6.557597
 20
1.833124
 30
0.0
 10
7.362364
 20
1.845939
 30
0.0
  0
LWPOLYLINE
  5
228
100
AcDbEntity
  8
PERIMETER
 62
7
100
AcDbPolyline
 90
2
 70
0
 10
7.866294
 20
1.354872
 30
0.0
 10
7.868196
 20
1.848963
 30
0.0
  0
SPLINE
  5
229
100
AcDbEntity
  8
PERIMETER
 62
7
100
AcDbSpline
 70
8
 71
3
 72
8
 73
4
 74
0
 40
0
 40
0
 40
0
 40
0
 40
1
 40
1
 40
1
 40
1
 10
7.370173
 20
1.351906
 30
0.0
 10
6.457545
 20
1.337371
 30
0.0
 10
5.546403
 20
1.272749
 30
0.0
 10
4.640859
 20
1.158330
 30
0.0
  0
SPLINE
  5
22a
100
AcDbEntity
  8
PERIMETER
 62
7
100
AcDbSpline
 70
8
 71
3
 72
8
 73
4
 74
0
 40
0
 40
0
 40
0
 40
0
 40
1
 40
1
 40
1
 40
1
 10
4.640859
 20
1.158330
 30
0.0
 10
4.620930
 20
1.155812
 30
0.0
 10
4.603262
 20
1.144283
 30
0.0
 10
4.592931
 20
1.127057
 30
0.0
  0
SPLINE
  5
22b
100
AcDbEntity
  8
PERIMETER
 62
7
100
AcDbSpline
 70
8
 71
3
 72
8
 73
4
 74
0
 40
0
 40
0
 40
0
 40
0
 40
1
 40
1
 40
1
 40
1
 10
4.592931
 20
1.127057
 30
0.0
 10
4.506192
 20
0.982420
 30
0.0
 10
4.407400
 20
0.845363
 30
0.0
 10
4.297606
 20
0.717346
 30
0.0
  0
LWPOLYLINE
  5
22c
100
AcDbEntity
  8
PERIMETER
 62
7
100
AcDbPolyline
 90
2
 70
0
 10
7.362364
 20
1.845939
 30
0.0
 10
7.370173
 20
1.351906
 30
0.0
  0
LWPOLYLINE
  5
22d
100
AcDbEntity
  8
PERIMETER
 62
7
100
AcDbPolyline
 90
1
 70
1
 10
4.297606
 20
0.717346
 30
0.0
  0
SPLINE
  5
22e
100
AcDbEntity
  8
PERIMETER
 62
7
100
AcDbSpline
 70
8
 71
3
 72
8
 73
4
 74
0
 40
0
 40
0
 40
0
 40
0
 40
1
 40
1
 40
1
 40
1
 10
19.721340
 20
23.438570
 30
0.0
 10
19.448180
 20
22.989042
 30
0.0
 10
19.162760
 20
22.547079
 30
0.0
 10
18.865400
 20
22.113178
 30
0.0
  0
LWPOLYLINE
  5
22f
100
AcDbEntity
  8
PERIMETER
 62
7
100
AcDbPolyline
 90
2
 70
0
 10
19.299064
 20
23.695110
 30
0.0
 10
19.721340
 20
23.438570
 30
0.0
  0
SPLINE
  5
230
100
AcDbEntity
  8
PERIMETER
 62
7
100
AcDbSpline
 70
8
 71
3
 72
8
 73
4
 74
0
 40
0
 40
0
 40
0
 40
0
 40
1
 40
1
 40
1
 40
1
 10
18.457860
 20
22.392535
 30
0.0
 10
18.750100
 20
22.818966
 30
0.0
 10
19.030606
 20
23.253321
 30
0.0
 10
19.299064
 20
23.695110
 30
0.0
  0
LWPOLYLINE
  5
231
100
AcDbEntity
  8
PERIMETER
 62
7
100
AcDbPolyline
 90
2
 70
0
 10
18.865400
 20
22.113178
 30
0.0
 10
18.457860
 20
22.392535
 30
0.0
  0
SPLINE
  5
232
100
AcDbEntity
  8
PERIMETER
 62
7
100
AcDbSpline
 70
8
 71
3
 72
8
 73
4
 74
0
 40
0
 40
0
 40
0
 40
0
 40
1
 40
1
 40
1
 40
1
 10
21.116020
 20
25.973523
 30
0.0
 10
21.098751
 20
25.968082
 30
0.0
 10
21.084507
 20
25.955730
 30
0.0
 10
21.076676
 20
25.939405
 30
0.0
  0
SPLINE
  5
233
100
AcDbEntity
  8
PERIMETER
 62
7
100
AcDbSpline
 70
8
 71
3
 72
8
 73
4
 74
0
 40
0
 40
0
 40
0
 40
0
 40
1
 40
1
 40
1
 40
1
 10
21.076676
 20
25.939405
 30
0.0
 10
20.740589
 20
25.238751
 30
0.0
 10
20.376291
 20
24.551982
 30
0.0
 10
19.984676
 20
23.880784
 30
0.0
  0
LWPOLYLINE
  5
234
100
AcDbEntity
  8
PERIMETER
 62
7
100
AcDbPolyline
 90
1
 70
1
 10
19.299064
 20
23.695110
 30
0.0
  0
SPLINE
  5
235
100
AcDbEntity
  8
PERIMETER
 62
7
100
AcDbSpline
 70
8
 71
3
 72
8
 73
4
 74
0
 40
0
 40
0
 40
0
 40
0
 40
1
 40
1
 40
1
 40
1
 10
19.557935
 20
24.129827
 30
0.0
 10
19.866339
 20
24.658409
 30
0.0
 10
20.157525
 20
25.196850
 30
0.0
 10
20.431035
 20
25.744302
 30
0.0
  0
SPLINE
  5
236
100
AcDbEntity
  8
PERIMETER
 62
7
100
AcDbSpline
 70
8
 71
3
 72
8
 73
4
 74
0
 40
0
 40
0
 40
0
 40
0
 40
1
 40
1
 40
1
 40
1
 10
20.431035
 20
25.744302
 30
0.0
 10
20.441439
 20
25.765127
 30
0.0
 10
20.439999
 20
25.789912
 30
0.0
 10
20.427253
 20
25.809392
 30
0.0
  0
SPLINE
  5
237
100
AcDbEntity
  8
PERIMETER
 62
7
100
AcDbSpline
 70
8
 71
3
 72
8
 73
4
 74
0
 40
0
 40
0
 40
0
 40
0
 40
1
 40
1
 40
1
 40
1
 10
20.427253
 20
25.809392
 30
0.0
 10
20.414507
 20
25.828872
 30
0.0
 10
20.392373
 20
25.840116
 30
0.0
 10
20.369124
 20
25.838921
 30
0.0
  0
SPLINE
  5
238
100
AcDbEntity
  8
PERIMETER
 62
7
100
AcDbSpline
 70
8
 71
3
 72
8
 73
4
 74
0
 40
0
 40
0
 40
0
 40
0
 40
1
 40
1
 40
1
 40
1
 10
20.369124
 20
25.838921
 30
0.0
 10
20.233302
 20
25.831941
 30
0.0
 10
20.097163
 20
25.834213
 30
0.0
 10
19.961650
 20
25.845724
 30
0.0
  0
SPLINE
  5
239
100
AcDbEntity
  8
PERIMETER
 62
7
100
AcDbSpline
 70
8
 71
3
 72
8
 73
4
 74
0
 40
0
 40
0
 40
0
 40
0
 40
1
 40
1
 40
1
 40
1
 10
19.961650
 20
25.845724
 30
0.0
 10
19.935090
 20
25.847980
 30
0.0
 10
19.909815
 20
25.833904
 30
0.0
 10
19.897749
 20
25.810136
 30
0.0
  0
SPLINE
  5
23a
100
AcDbEntity
  8
PERIMETER
 62
7
100
AcDbSpline
 70
8
 71
3
 72
8
 73
4
 74
0
 40
0
 40
0
 40
0
 40
0
 40
1
 40
1
 40
1
 40
1
 10
19.897749
 20
25.810136
 30
0.0
 10
19.027200
 20
24.095431
 30
0.0
 10
17.981143
 20
22.475648
 30
0.0
 10
16.776367
 20
20.976788
 30
0.0
  0
SPLINE
  5
23b
100
AcDbEntity
  8
PERIMETER
 62
7
100
AcDbSpline
 70
8
 71
3
 72
8
 73
4
 74
0
 40
0
 40
0
 40
0
 40
0
 40
1
 40
1
 40
1
 40
1
 10
16.776367
 20
20.976788
 30
0.0
 10
16.759668
 20
20.956012
 30
0.0
 10
16.757235
 20
20.927184
 30
0.0
 10
16.770217
 20
20.903904
 30
0.0
  0
SPLINE
  5
23c
100
AcDbEntity
  8
PERIMETER
 62
7
100
AcDbSpline
 70
8
 71
3
 72
8
 73
4
 74
0
 40
0
 40
0
 40
0
 40
0
 40
1
 40
1
 40
1
 40
1
 10
16.770217
 20
20.903904
 30
0.0
 10
16.836455
 20
20.785123
 30
0.0
 10
16.894531
 20
20.661972
 30
0.0
 10
16.944042
 20
20.535303
 30
0.0
  0
SPLINE
  5
23d
100
AcDbEntity
  8
PERIMETER
 62
7
100
AcDbSpline
 70
8
 71
3
 72
8
 73
4
 74
0
 40
0
 40
0
 40
0
 40
0
 40
1
 40
1
 40
1
 40
1
 10
16.944042
 20
20.535303
 30
0.0
 10
16.952517
 20
20.513621
 30
0.0
 10
16.971871
 20
20.498073
 30
0.0
 10
16.994870
 20
20.494468
 30
0.0
  0
SPLINE
  5
23e
100
AcDbEntity
  8
PERIMETER
 62
7
100
AcDbSpline
 70
8
 71
3
 72
8
 73
4
 74
0
 40
0
 40
0
 40
0
 40
0
 40
1
 40
1
 40
1
 40
1
 10
16.994870
 20
20.494468
 30
0.0
 10
17.017869
 20
20.490864
 30
0.0
 10
17.041052
 20
20.499747
 30
0.0
 10
17.055753
 20
20.517798
 30
0.0
  0
SPLINE
  5
23f
100
AcDbEntity
  8
PERIMETER
 62
7
100
AcDbSpline
 70
8
 71
3
 72
8
 73
4
 74
0
 40
0
 40
0
 40
0
 40
0
 40
1
 40
1
 40
1
 40
1
 10
17.055753
 20
20.517798
 30
0.0
 10
17.442222
 20
20.992301
 30
0.0
 10
17.813207
 20
21.479208
 30
0.0
 10
18.168123
 20
21.977752
 30
0.0
  0
LWPOLYLINE
  5
240
100
AcDbEntity
  8
PERIMETER
 62
7
100
AcDbPolyline
 90
2
 70
0
 10
19.984676
 20
23.880784
 30
0.0
 10
19.557935
 20
24.129827
 30
0.0
  0
SPLINE
  5
241
100
AcDbEntity
  8
PERIMETER
 62
7
100
AcDbSpline
 70
8
 71
3
 72
8
 73
4
 74
0
 40
0
 40
0
 40
0
 40
0
 40
1
 40
1
 40
1
 40
1
 10
18.570667
 20
21.691243
 30
0.0
 10
18.119992
 20
21.058185
 30
0.0
 10
17.643889
 20
20.443621
 30
0.0
 10
17.143524
 20
19.849058
 30
0.0
  0
SPLINE
  5
242
100
AcDbEntity
  8
PERIMETER
 62
7
100
AcDbSpline
 70
8
 71
3
 72
8
 73
4
 74
0
 40
0
 40
0
 40
0
 40
0
 40
1
 40
1
 40
1
 40
1
 10
17.143524
 20
19.849058
 30
0.0
 10
17.131865
 20
19.835205
 30
0.0
 10
17.126466
 20
19.817141
 30
0.0
 10
17.128610
 20
19.799162
 30
0.0
  0
SPLINE
  5
243
100
AcDbEntity
  8
PERIMETER
 62
7
100
AcDbSpline
 70
8
 71
3
 72
8
 73
4
 74
0
 40
0
 40
0
 40
0
 40
0
 40
1
 40
1
 40
1
 40
1
 10
17.128610
 20
19.799162
 30
0.0
 10
17.150285
 20
19.617429
 30
0.0
 10
17.155268
 20
19.434093
 30
0.0
 10
17.143496
 20
19.251451
 30
0.0
  0
SPLINE
  5
244
100
AcDbEntity
  8
PERIMETER
 62
7
100
AcDbSpline
 70
8
 71
3
 72
8
 73
4
 74
0
 40
0
 40
0
 40
0
 40
0
 40
1
 40
1
 40
1
 40
1
 10
17.143496
 20
19.251451
 30
0.0
 10
17.141688
 20
19.223408
 30
0.0
 10
17.157981
 20
19.197341
 30
0.0
 10
17.183981
 20
19.186681
 30
0.0
  0
SPLINE
  5
245
100
AcDbEntity
  8
PERIMETER
 62
7
100
AcDbSpline
 70
8
 71
3
 72
8
 73
4
 74
0
 40
0
 40
0
 40
0
 40
0
 40
1
 40
1
 40
1
 40
1
 10
17.183981
 20
19.186681
 30
0.0
 10
17.209981
 20
19.176020
 30
0.0
 10
17.239884
 20
19.183144
 30
0.0
 10
17.258284
 20
19.204384
 30
0.0
  0
SPLINE
  5
246
100
AcDbEntity
  8
PERIMETER
 62
7
100
AcDbSpline
 70
8
 71
3
 72
8
 73
4
 74
0
 40
0
 40
0
 40
0
 40
0
 40
1
 40
1
 40
1
 40
1
 10
17.258284
 20
19.204384
 30
0.0
 10
19.058735
 20
21.282699
 30
0.0
 10
20.557827
 20
23.603990
 30
0.0
 10
21.711483
 20
26.100007
 30
0.0
  0
SPLINE
  5
247
100
AcDbEntity
  8
PERIMETER
 62
7
100
AcDbSpline
 70
8
 71
3
 72
8
 73
4
 74
0
 40
0
 40
0
 40
0
 40
0
 40
1
 40
1
 40
1
 40
1
 10
21.711483
 20
26.100007
 30
0.0
 10
21.723273
 20
26.125514
 30
0.0
 10
21.717465
 20
26.155701
 30
0.0
 10
21.697053
 20
26.175013
 30
0.0
  0
SPLINE
  5
248
100
AcDbEntity
  8
PERIMETER
 62
7
100
AcDbSpline
 70
8
 71
3
 72
8
 73
4
 74
0
 40
0
 40
0
 40
0
 40
0
 40
1
 40
1
 40
1
 40
1
 10
21.697053
 20
26.175013
 30
0.0
 10
21.676640
 20
26.194326
 30
0.0
 10
21.646179
 20
26.198454
 30
0.0
 10
21.621363
 20
26.185270
 30
0.0
  0
SPLINE
  5
249
100
AcDbEntity
  8
PERIMETER
 62
7
100
AcDbSpline
 70
8
 71
3
 72
8
 73
4
 74
0
 40
0
 40
0
 40
0
 40
0
 40
1
 40
1
 40
1
 40
1
 10
21.621363
 20
26.185270
 30
0.0
 10
21.459734
 20
26.099406
 30
0.0
 10
21.290580
 20
26.028528
 30
0.0
 10
21.116020
 20
25.973523
 30
0.0
  0
LWPOLYLINE
  5
24a
100
AcDbEntity
  8
PERIMETER
 62
7
100
AcDbPolyline
 90
2
 70
0
 10
18.168123
 20
21.977752
 30
0.0
 10
18.570667
 20
21.691243
 30
0.0
  0
LWPOLYLINE
  5
24b
100
AcDbEntity
  8
PERIMETER
 62
7
100
AcDbPolyline
 90
1
 70
1
 10
21.116020
 20
25.973523
 30
0.0
  0
SPLINE
  5
24c
100
AcDbEntity
  8
PERIMETER
 62
7
100
AcDbSpline
 70
8
 71
3
 72
8
 73
4
 74
0
 40
0
 40
0
 40
0
 40
0
 40
1
 40
1
 40
1
 40
1
 10
21.911027
 20
23.438570
 30
0.0
 10
21.637867
 20
22.989042
 30
0.0
 10
21.352447
 20
22.547079
 30
0.0
 10
21.055088
 20
22.113178
 30
0.0
  0
LWPOLYLINE
  5
24d
100
AcDbEntity
  8
PERIMETER
 62
7
100
AcDbPolyline
 90
2
 70
0
 10
21.488752
 20
23.695110
 30
0.0
 10
21.911027
 20
23.438570
 30
0.0
  0
SPLINE
  5
24e
100
AcDbEntity
  8
PERIMETER
 62
7
100
AcDbSpline
 70
8
 71
3
 72
8
 73
4
 74
0
 40
0
 40
0
 40
0
 40
0
 40
1
 40
1
 40
1
 40
1
 10
20.647547
 20
22.392535
 30
0.0
 10
20.939787
 20
22.818966
 30
0.0
 10
21.220294
 20
23.253321
 30
0.0
 10
21.488752
 20
23.695110
 30
0.0
  0
LWPOLYLINE
  5
24f
100
AcDbEntity
  8
PERIMETER
 62
7
100
AcDbPolyline
 90
2
 70
0
 10
21.055088
 20
22.113178
 30
0.0
 10
20.647547
 20
22.392535
 30
0.0
  0
SPLINE
  5
250
100
AcDbEntity
  8
PERIMETER
 62
7
100
AcDbSpline
 70
8
 71
3
 72
8
 73
4
 74
0
 40
0
 40
0
 40
0
 40
0
 40
1
 40
1
 40
1
 40
1
 10
23.305708
 20
25.973523
 30
0.0
 10
23.288438
 20
25.968082
 30
0.0
 10
23.274194
 20
25.955730
 30
0.0
 10
23.266363
 20
25.939405
 30
0.0
  0
SPLINE
  5
251
100
AcDbEntity
  8
PERIMETER
 62
7
100
AcDbSpline
 70
8
 71
3
 72
8
 73
4
 74
0
 40
0
 40
0
 40
0
 40
0
 40
1
 40
1
 40
1
 40
1
 10
23.266363
 20
25.939405
 30
0.0
 10
22.930276
 20
25.238751
 30
0.0
 10
22.565978
 20
24.551982
 30
0.0
 10
22.174363
 20
23.880784
 30
0.0
  0
LWPOLYLINE
  5
252
100
AcDbEntity
  8
PERIMETER
 62
7
100
AcDbPolyline
 90
1
 70
1
 10
21.488752
 20
23.695110
 30
0.0
  0
SPLINE
  5
253
100
AcDbEntity
  8
PERIMETER
 62
7
100
AcDbSpline
 70
8
 71
3
 72
8
 73
4
 74
0
 40
0
 40
0
 40
0
 40
0
 40
1
 40
1
 40
1
 40
1
 10
21.747623
 20
24.129827
 30
0.0
 10
22.056026
 20
24.658409
 30
0.0
 10
22.347212
 20
25.196850
 30
0.0
 10
22.620723
 20
25.744302
 30
0.0
  0
SPLINE
  5
254
100
AcDbEntity
  8
PERIMETER
 62
7
100
AcDbSpline
 70
8
 71
3
 72
8
 73
4
 74
0
 40
0
 40
0
 40
0
 40
0
 40
1
 40
1
 40
1
 40
1
 10
22.620723
 20
25.744302
 30
0.0
 10
22.631127
 20
25.765127
 30
0.0
 10
22.629687
 20
25.789912
 30
0.0
 10
22.616940
 20
25.809392
 30
0.0
  0
SPLINE
  5
255
100
AcDbEntity
  8
PERIMETER
 62
7
100
AcDbSpline
 70
8
 71
3
 72
8
 73
4
 74
0
 40
0
 40
0
 40
0
 40
0
 40
1
 40
1
 40
1
 40
1
 10
22.616940
 20
25.809392
 30
0.0
 10
22.604194
 20
25.828872
 30
0.0
 10
22.582060
 20
25.840116
 30
0.0
 10
22.558811
 20
25.838921
 30
0.0
  0
SPLINE
  5
256
100
AcDbEntity
  8
PERIMETER
 62
7
100
AcDbSpline
 70
8
 71
3
 72
8
 73
4
 74
0
 40
0
 40
0
 40
0
 40
0
 40
1
 40
1
 40
1
 40
1
 10
22.558811
 20
25.838921
 30
0.0
 10
22.422990
 20
25.831941
 30
0.0
 10
22.286851
 20
25.834213
 30
0.0
 10
22.151338
 20
25.845724
 30
0.0
  0
SPLINE
  5
257
100
AcDbEntity
  8
PERIMETER
 62
7
100
AcDbSpline
 70
8
 71
3
 72
8
 73
4
 74
0
 40
0
 40
0
 40
0
 40
0
 40
1
 40
1
 40
1
 40
1
 10
22.151338
 20
25.845724
 30
0.0
 10
22.124778
 20
25.847980
 30
0.0
 10
22.099503
 20
25.833904
 30
0.0
 10
22.087436
 20
25.810136
 30
0.0
  0
SPLINE
  5
258
100
AcDbEntity
  8
PERIMETER
 62
7
100
AcDbSpline
 70
8
 71
3
 72
8
 73
4
 74
0
 40
0
 40
0
 40
0
 40
0
 40
1
 40
1
 40
1
 40
1
 10
22.087436
 20
25.810136
 30
0.0
 10
21.216888
 20
24.095431
 30
0.0
 10
20.170830
 20
22.475648
 30
0.0
 10
18.966055
 20
20.976788
 30
0.0
  0
SPLINE
  5
259
100
AcDbEntity
  8
PERIMETER
 62
7
100
AcDbSpline
 70
8
 71
3
 72
8
 73
4
 74
0
 40
0
 40
0
 40
0
 40
0
 40
1
 40
1
 40
1
 40
1
 10
18.966055
 20
20.976788
 30
0.0
 10
18.949355
 20
20.956012
 30
0.0
 10
18.946923
 20
20.927184
 30
0.0
 10
18.959905
 20
20.903904
 30
0.0
  0
SPLINE
  5
25a
100
AcDbEntity
  8
PERIMETER
 62
7
100
AcDbSpline
 70
8
 71
3
 72
8
 73
4
 74
0
 40
0
 40
0
 40
0
 40
0
 40
1
 40
1
 40
1
 40
1
 10
18.959905
 20
20.903904
 30
0.0
 10
19.026143
 20
20.785123
 30
0.0
 10
19.084218
 20
20.661972
 30
0.0
 10
19.133730
 20
20.535303
 30
0.0
  0
SPLINE
  5
25b
100
AcDbEntity
  8
PERIMETER
 62
7
100
AcDbSpline
 70
8
 71
3
 72
8
 73
4
 74
0
 40
0
 40
0
 40
0
 40
0
 40
1
 40
1
 40
1
 40
1
 10
19.133730
 20
20.535303
 30
0.0
 10
19.142205
 20
20.513621
 30
0.0
 10
19.161559
 20
20.498073
 30
0.0
 10
19.184558
 20
20.494468
 30
0.0
  0
SPLINE
  5
25c
100
AcDbEntity
  8
PERIMETER
 62
7
100
AcDbSpline
 70
8
 71
3
 72
8
 73
4
 74
0
 40
0
 40
0
 40
0
 40
0
 40
1
 40
1
 40
1
 40
1
 10
19.184558
 20
20.494468
 30
0.0
 10
19.207557
 20
20.490864
 30
0.0
 10
19.230739
 20
20.499747
 30
0.0
 10
19.245441
 20
20.517798
 30
0.0
  0
SPLINE
  5
25d
100
AcDbEntity
  8
PERIMETER
 62
7
100
AcDbSpline
 70
8
 71
3
 72
8
 73
4
 74
0
 40
0
 40
0
 40
0
 40
0
 40
1
 40
1
 40
1
 40
1
 10
19.245441
 20
20.517798
 30
0.0
 10
19.631910
 20
20.992301
 30
0.0
 10
20.002894
 20
21.479208
 30
0.0
 10
20.357810
 20
21.977752
 30
0.0
  0
LWPOLYLINE
  5
25e
100
AcDbEntity
  8
PERIMETER
 62
7
100
AcDbPolyline
 90
2
 70
0
 10
22.174363
 20
23.880784
 30
0.0
 10
21.747623
 20
24.129827
 30
0.0
  0
SPLINE
  5
25f
100
AcDbEntity
  8
PERIMETER
 62
7
100
AcDbSpline
 70
8
 71
3
 72
8
 73
4
 74
0
 40
0
 40
0
 40
0
 40
0
 40
1
 40
1
 40
1
 40
1
 10
20.760354
 20
21.691243
 30
0.0
 10
20.309680
 20
21.058185
 30
0.0
 10
19.833576
 20
20.443621
 30
0.0
 10
19.333212
 20
19.849058
 30
0.0
  0
SPLINE
  5
260
100
AcDbEntity
  8
PERIMETER
 62
7
100
AcDbSpline
 70
8
 71
3
 72
8
 73
4
 74
0
 40
0
 40
0
 40
0
 40
0
 40
1
 40
1
 40
1
 40
1
 10
19.333212
 20
19.849058
 30
0.0
 10
19.321553
 20
19.835205
 30
0.0
 10
19.316154
 20
19.817141
 30
0.0
 10
19.318298
 20
19.799162
 30
0.0
  0
SPLINE
  5
261
100
AcDbEntity
  8
PERIMETER
 62
7
100
AcDbSpline
 70
8
 71
3
 72
8
 73
4
 74
0
 40
0
 40
0
 40
0
 40
0
 40
1
 40
1
 40
1
 40
1
 10
19.318298
 20
19.799162
 30
0.0
 10
19.339973
 20
19.617429
 30
0.0
 10
19.344955
 20
19.434093
 30
0.0
 10
19.333183
 20
19.251451
 30
0.0
  0
SPLINE
  5
262
100
AcDbEntity
  8
PERIMETER
 62
7
100
AcDbSpline
 70
8
 71
3
 72
8
 73
4
 74
0
 40
0
 40
0
 40
0
 40
0
 40
1
 40
1
 40
1
 40
1
 10
19.333183
 20
19.251451
 30
0.0
 10
19.331375
 20
19.223408
 30
0.0
 10
19.347669
 20
19.197341
 30
0.0
 10
19.373669
 20
19.186681
 30
0.0
  0
SPLINE
  5
263
100
AcDbEntity
  8
PERIMETER
 62
7
100
AcDbSpline
 70
8
 71
3
 72
8
 73
4
 74
0
 40
0
 40
0
 40
0
 40
0
 40
1
 40
1
 40
1
 40
1
 10
19.373669
 20
19.186681
 30
0.0
 10
19.399669
 20
19.176020
 30
0.0
 10
19.429572
 20
19.183144
 30
0.0
 10
19.447971
 20
19.204384
 30
0.0
  0
SPLINE
  5
264
100
AcDbEntity
  8
PERIMETER
 62
7
100
AcDbSpline
 70
8
 71
3
 72
8
 73
4
 74
0
 40
0
 40
0
 40
0
 40
0
 40
1
 40
1
 40
1
 40
1
 10
19.447971
 20
19.204384
 30
0.0
 10
21.248423
 20
21.282699
 30
0.0
 10
22.747515
 20
23.603990
 30
0.0
 10
23.901170
 20
26.100007
 30
0.0
  0
SPLINE
  5
265
100
AcDbEntity
  8
PERIMETER
 62
7
100
AcDbSpline
 70
8
 71
3
 72
8
 73
4
 74
0
 40
0
 40
0
 40
0
 40
0
 40
1
 40
1
 40
1
 40
1
 10
23.901170
 20
26.100007
 30
0.0
 10
23.912960
 20
26.125514
 30
0.0
 10
23.907153
 20
26.155701
 30
0.0
 10
23.886740
 20
26.175013
 30
0.0
  0
SPLINE
  5
266
100
AcDbEntity
  8
PERIMETER
 62
7
100
AcDbSpline
 70
8
 71
3
 72
8
 73
4
 74
0
 40
0
 40
0
 40
0
 40
0
 40
1
 40
1
 40
1
 40
1
 10
23.886740
 20
26.175013
 30
0.0
 10
23.866328
 20
26.194326
 30
0.0
 10
23.835866
 20
26.198454
 30
0.0
 10
23.811050
 20
26.185270
 30
0.0
  0
SPLINE
  5
267
100
AcDbEntity
  8
PERIMETER
 62
7
100
AcDbSpline
 70
8
 71
3
 72
8
 73
4
 74
0
 40
0
 40
0
 40
0
 40
0
 40
1
 40
1
 40
1
 40
1
 10
23.811050
 20
26.185270
 30
0.0
 10
23.649421
 20
26.099406
 30
0.0
 10
23.480267
 20
26.028528
 30
0.0
 10
23.305708
 20
25.973523
 30
0.0
  0
LWPOLYLINE
  5
268
100
AcDbEntity
  8
PERIMETER
 62
7
100
AcDbPolyline
 90
2
 70
0
 10
20.357810
 20
21.977752
 30
0.0
 10
20.760354
 20
21.691243
 30
0.0
  0
LWPOLYLINE
  5
269
100
AcDbEntity
  8
PERIMETER
 62
7
100
AcDbPolyline
 90
1
 70
1
 10
23.305708
 20
25.973523
 30
0.0
  0
SPLINE
  5
26a
100
AcDbEntity
  8
PERIMETER
 62
7
100
AcDbSpline
 70
8
 71
3
 72
8
 73
4
 74
0
 40
0
 40
0
 40
0
 40
0
 40
1
 40
1
 40
1
 40
1
 10
21.597238
 20
13.426772
 30
0.0
 10
21.617909
 20
13.409043
 30
0.0
 10
21.647398
 20
13.405965
 30
0.0
 10
21.671284
 20
13.419044
 30
0.0
  0
SPLINE
  5
26b
100
AcDbEntity
  8
PERIMETER
 62
7
100
AcDbSpline
 70
8
 71
3
 72
8
 73
4
 74
0
 40
0
 40
0
 40
0
 40
0
 40
1
 40
1
 40
1
 40
1
 10
21.671284
 20
13.419044
 30
0.0
 10
21.695170
 20
13.432123
 30
0.0
 10
21.708463
 20
13.458626
 30
0.0
 10
21.704661
 20
13.485592
 30
0.0
  0
SPLINE
  5
26c
100
AcDbEntity
  8
PERIMETER
 62
7
100
AcDbSpline
 70
8
 71
3
 72
8
 73
4
 74
0
 40
0
 40
0
 40
0
 40
0
 40
1
 40
1
 40
1
 40
1
 10
21.704661
 20
13.485592
 30
0.0
 10
21.399332
 20
15.651453
 30
0.0
 10
21.386197
 20
17.848506
 30
0.0
 10
21.665609
 20
20.017864
 30
0.0
  0
SPLINE
  5
26d
100
AcDbEntity
  8
PERIMETER
 62
7
100
AcDbSpline
 70
8
 71
3
 72
8
 73
4
 74
0
 40
0
 40
0
 40
0
 40
0
 40
1
 40
1
 40
1
 40
1
 10
21.665609
 20
20.017864
 30
0.0
 10
21.669088
 20
20.044873
 30
0.0
 10
21.655480
 20
20.071214
 30
0.0
 10
21.631440
 20
20.084007
 30
0.0
  0
SPLINE
  5
26e
100
AcDbEntity
  8
PERIMETER
 62
7
100
AcDbSpline
 70
8
 71
3
 72
8
 73
4
 74
0
 40
0
 40
0
 40
0
 40
0
 40
1
 40
1
 40
1
 40
1
 10
21.631440
 20
20.084007
 30
0.0
 10
21.607399
 20
20.096799
 30
0.0
 10
21.577949
 20
20.093370
 30
0.0
 10
21.557492
 20
20.075395
 30
0.0
  0
SPLINE
  5
26f
100
AcDbEntity
  8
PERIMETER
 62
7
100
AcDbSpline
 70
8
 71
3
 72
8
 73
4
 74
0
 40
0
 40
0
 40
0
 40
0
 40
1
 40
1
 40
1
 40
1
 10
21.557492
 20
20.075395
 30
0.0
 10
21.430796
 20
19.964078
 30
0.0
 10
21.294930
 20
19.863654
 30
0.0
 10
21.151340
 20
19.775192
 30
0.0
  0
SPLINE
  5
270
100
AcDbEntity
  8
PERIMETER
 62
7
100
AcDbSpline
 70
8
 71
3
 72
8
 73
4
 74
0
 40
0
 40
0
 40
0
 40
0
 40
1
 40
1
 40
1
 40
1
 10
21.151340
 20
19.775192
 30
0.0
 10
21.134239
 20
19.764656
 30
0.0
 10
21.122922
 20
19.746851
 30
0.0
 10
21.120642
 20
19.726894
 30
0.0
  0
SPLINE
  5
271
100
AcDbEntity
  8
PERIMETER
 62
7
100
AcDbSpline
 70
8
 71
3
 72
8
 73
4
 74
0
 40
0
 40
0
 40
0
 40
0
 40
1
 40
1
 40
1
 40
1
 10
21.120642
 20
19.726894
 30
0.0
 10
21.017058
 20
18.820047
 30
0.0
 10
20.963334
 20
17.908197
 30
0.0
 10
20.959712
 20
16.995460
 30
0.0
  0
LWPOLYLINE
  5
272
100
AcDbEntity
  8
PERIMETER
 62
5
100
AcDbPolyline
 90
8
 70
1
 10
1.492533
 20
5.658139
 30
0.0
 10
1.492533
 20
10.652233
 30
0.0
 10
4.492533
 20
10.652233
 30
0.0
 10
4.492533
 20
11.658139
 30
0.0
 10
0.424128
 20
11.658139
 30
0.0
 10
0.424128
 20
0.405081
 30
0.0
 10
3.747020
 20
0.405081
 30
0.0
 10
3.747020
 20
5.658139
 30
0.0
  0
SPLINE
  5
273
100
AcDbEntity
  8
PERIMETER
 62
7
100
AcDbSpline
 70
8
 71
3
 72
8
 73
4
 74
0
 40
0
 40
0
 40
0
 40
0
 40
1
 40
1
 40
1
 40
1
 10
20.465620
 20
16.997362
 30
0.0
 10
20.468813
 20
17.802225
 30
0.0
 10
20.510207
 20
18.606483
 30
0.0
 10
20.589665
 20
19.407420
 30
0.0
  0
SPLINE
  5
274
100
AcDbEntity
  8
PERIMETER
 62
7
100
AcDbSpline
 70
8
 71
3
 72
8
 73
4
 74
0
 40
0
 40
0
 40
0
 40
0
 40
1
 40
1
 40
1
 40
1
 10
20.589665
 20
19.407420
 30
0.0
 10
20.591846
 20
19.429404
 30
0.0
 10
20.582790
 20
19.451004
 30
0.0
 10
20.565584
 20
19.464860
 30
0.0
  0
SPLINE
  5
275
100
AcDbEntity
  8
PERIMETER
 62
7
100
AcDbSpline
 70
8
 71
3
 72
8
 73
4
 74
0
 40
0
 40
0
 40
0
 40
0
 40
1
 40
1
 40
1
 40
1
 10
20.565584
 20
19.464860
 30
0.0
 10
20.548378
 20
19.478716
 30
0.0
 10
20.525344
 20
19.482957
 30
0.0
 10
20.504331
 20
19.476139
 30
0.0
  0
SPLINE
  5
276
100
AcDbEntity
  8
PERIMETER
 62
7
100
AcDbSpline
 70
8
 71
3
 72
8
 73
4
 74
0
 40
0
 40
0
 40
0
 40
0
 40
1
 40
1
 40
1
 40
1
 10
20.504331
 20
19.476139
 30
0.0
 10
20.380562
 20
19.435978
 30
0.0
 10
20.254309
 20
19.403920
 30
0.0
 10
20.126373
 20
19.380169
 30
0.0
  0
SPLINE
  5
277
100
AcDbEntity
  8
PERIMETER
 62
7
100
AcDbSpline
 70
8
 71
3
 72
8
 73
4
 74
0
 40
0
 40
0
 40
0
 40
0
 40
1
 40
1
 40
1
 40
1
 10
20.126373
 20
19.380169
 30
0.0
 10
20.097614
 20
19.374830
 30
0.0
 10
20.075889
 20
19.351057
 30
0.0
 10
20.073154
 20
19.321935
 30
0.0
  0
SPLINE
  5
278
100
AcDbEntity
  8
PERIMETER
 62
7
100
AcDbSpline
 70
8
 71
3
 72
8
 73
4
 74
0
 40
0
 40
0
 40
0
 40
0
 40
1
 40
1
 40
1
 40
1
 10
20.073154
 20
19.321935
 30
0.0
 10
19.911946
 20
17.605349
 30
0.0
 10
19.922279
 20
15.876967
 30
0.0
 10
20.103999
 20
14.162431
 30
0.0
  0
SPLINE
  5
279
100
AcDbEntity
  8
PERIMETER
 62
7
100
AcDbSpline
 70
8
 71
3
 72
8
 73
4
 74
0
 40
0
 40
0
 40
0
 40
0
 40
1
 40
1
 40
1
 40
1
 10
20.103999
 20
14.162431
 30
0.0
 10
20.107082
 20
14.133344
 30
0.0
 10
20.129090
 20
14.109833
 30
0.0
 10
20.157910
 20
14.104838
 30
0.0
  0
SPLINE
  5
27a
100
AcDbEntity
  8
PERIMETER
 62
7
100
AcDbSpline
 70
8
 71
3
 72
8
 73
4
 74
0
 40
0
 40
0
 40
0
 40
0
 40
1
 40
1
 40
1
 40
1
 10
20.157910
 20
14.104838
 30
0.0
 10
20.286120
 20
14.082618
 30
0.0
 10
20.412747
 20
14.052072
 30
0.0
 10
20.536987
 20
14.013394
 30
0.0
  0
SPLINE
  5
27b
100
AcDbEntity
  8
PERIMETER
 62
7
100
AcDbSpline
 70
8
 71
3
 72
8
 73
4
 74
0
 40
0
 40
0
 40
0
 40
0
 40
1
 40
1
 40
1
 40
1
 10
20.536987
 20
14.013394
 30
0.0
 10
20.558080
 20
14.006827
 30
0.0
 10
20.581063
 20
14.011343
 30
0.0
 10
20.598102
 20
14.025404
 30
0.0
  0
SPLINE
  5
27c
100
AcDbEntity
  8
PERIMETER
 62
7
100
AcDbSpline
 70
8
 71
3
 72
8
 73
4
 74
0
 40
0
 40
0
 40
0
 40
0
 40
1
 40
1
 40
1
 40
1
 10
20.598102
 20
14.025404
 30
0.0
 10
20.615142
 20
14.039465
 30
0.0
 10
20.623939
 20
14.061172
 30
0.0
 10
20.621495
 20
14.083128
 30
0.0
  0
SPLINE
  5
27d
100
AcDbEntity
  8
PERIMETER
 62
7
100
AcDbSpline
 70
8
 71
3
 72
8
 73
4
 74
0
 40
0
 40
0
 40
0
 40
0
 40
1
 40
1
 40
1
 40
1
 10
20.621495
 20
14.083128
 30
0.0
 10
20.532467
 20
14.883058
 30
0.0
 10
20.481459
 20
15.686764
 30
0.0
 10
20.468645
 20
16.491531
 30
0.0
  0
LWPOLYLINE
  5
27e
100
AcDbEntity
  8
PERIMETER
 62
7
100
AcDbPolyline
 90
2
 70
0
 10
20.959712
 20
16.995460
 30
0.0
 10
20.465620
 20
16.997362
 30
0.0
  0
SPLINE
  5
27f
100
AcDbEntity
  8
PERIMETER
 62
7
100
AcDbSpline
 70
8
 71
3
 72
8
 73
4
 74
0
 40
0
 40
0
 40
0
 40
0
 40
1
 40
1
 40
1
 40
1
 10
20.962678
 20
16.499340
 30
0.0
 10
20.977212
 20
15.586712
 30
0.0
 10
21.041834
 20
14.675569
 30
0.0
 10
21.156253
 20
13.770025
 30
0.0
  0
SPLINE
  5
280
100
AcDbEntity
  8
PERIMETER
 62
7
100
AcDbSpline
 70
8
 71
3
 72
8
 73
4
 74
0
 40
0
 40
0
 40
0
 40
0
 40
1
 40
1
 40
1
 40
1
 10
21.156253
 20
13.770025
 30
0.0
 10
21.158771
 20
13.750097
 30
0.0
 10
21.170300
 20
13.732428
 30
0.0
 10
21.187526
 20
13.722097
 30
0.0
  0
SPLINE
  5
281
100
AcDbEntity
  8
PERIMETER
 62
7
100
AcDbSpline
 70
8
 71
3
 72
8
 73
4
 74
0
 40
0
 40
0
 40
0
 40
0
 40
1
 40
1
 40
1
 40
1
 10
21.187526
 20
13.722097
 30
0.0
 10
21.332163
 20
13.635359
 30
0.0
 10
21.469220
 20
13.536566
 30
0.0
 10
21.597238
 20
13.426772
 30
0.0
  0
LWPOLYLINE
  5
282
100
AcDbEntity
  8
PERIMETER
 62
7
100
AcDbPolyline
 90
2
 70
0
 10
20.468645
 20
16.491531
 30
0.0
 10
20.962678
 20
16.499340
 30
0.0
  0
LWPOLYLINE
  5
283
100
AcDbEntity
  8
PERIMETER
 62
7
100
AcDbPolyline
 90
1
 70
1
 10
21.597238
 20
13.426772
 30
0.0
  0
SPLINE
  5
284
100
AcDbEntity
  8
PERIMETER
 62
7
100
AcDbSpline
 70
8
 71
3
 72
8
 73
4
 74
0
 40
0
 40
0
 40
0
 40
0
 40
1
 40
1
 40
1
 40
1
 10
20.091889
 20
0.941440
 30
0.0
 10
19.566048
 20
0.927904
 30
0.0
 10
19.039934
 20
0.928773
 30
0.0
 10
18.514141
 20
0.944044
 30
0.0
  0
LWPOLYLINE
  5
285
100
AcDbEntity
  8
PERIMETER
 62
7
100
AcDbPolyline
 90
2
 70
0
 10
20.079124
 20
1.435370
 30
0.0
 10
20.091889
 20
0.941440
 30
0.0
  0
SPLINE
  5
286
100
AcDbEntity
  8
PERIMETER
 62
7
100
AcDbSpline
 70
8
 71
3
 72
8
 73
4
 74
0
 40
0
 40
0
 40
0
 40
0
 40
1
 40
1
 40
1
 40
1
 10
18.528537
 20
1.437928
 30
0.0
 10
19.045279
 20
1.422921
 30
0.0
 10
19.562335
 20
1.422068
 30
0.0
 10
20.079124
 20
1.435370
 30
0.0
  0
LWPOLYLINE
  5
287
100
AcDbEntity
  8
PERIMETER
 62
7
100
AcDbPolyline
 90
2
 70
0
 10
18.514141
 20
0.944044
 30
0.0
 10
18.528537
 20
1.437928
 30
0.0
  0
SPLINE
  5
288
100
AcDbEntity
  8
PERIMETER
 62
7
100
AcDbSpline
 70
8
 71
3
 72
8
 73
4
 74
0
 40
0
 40
0
 40
0
 40
0
 40
1
 40
1
 40
1
 40
1
 10
22.978334
 20
1.140303
 30
0.0
 10
22.964414
 20
1.151881
 30
0.0
 10
22.946319
 20
1.157175
 30
0.0
 10
22.928353
 20
1.154927
 30
0.0
  0
SPLINE
  5
289
100
AcDbEntity
  8
PERIMETER
 62
7
100
AcDbSpline
 70
8
 71
3
 72
8
 73
4
 74
0
 40
0
 40
0
 40
0
 40
0
 40
1
 40
1
 40
1
 40
1
 10
22.928353
 20
1.154927
 30
0.0
 10
22.157278
 20
1.058420
 30
0.0
 10
21.382614
 20
0.993151
 30
0.0
 10
20.606262
 20
0.959280
 30
0.0
  0
LWPOLYLINE
  5
28a
100
AcDbEntity
  8
PERIMETER
 62
7
100
AcDbPolyline
 90
1
 70
1
 10
20.079124
 20
1.435370
 30
0.0
  0
SPLINE
  5
28b
100
AcDbEntity
  8
PERIMETER
 62
7
100
AcDbSpline
 70
8
 71
3
 72
8
 73
4
 74
0
 40
0
 40
0
 40
0
 40
0
 40
1
 40
1
 40
1
 40
1
 10
20.584776
 20
1.452907
 30
0.0
 10
21.196168
 20
1.479583
 30
0.0
 10
21.806534
 20
1.526072
 30
0.0
 10
22.414913
 20
1.592302
 30
0.0
  0
SPLINE
  5
28c
100
AcDbEntity
  8
PERIMETER
 62
7
100
AcDbSpline
 70
8
 71
3
 72
8
 73
4
 74
0
 40
0
 40
0
 40
0
 40
0
 40
1
 40
1
 40
1
 40
1
 10
22.414913
 20
1.592302
 30
0.0
 10
22.438056
 20
1.594821
 30
0.0
 10
22.458119
 20
1.609444
 30
0.0
 10
22.467603
 20
1.630704
 30
0.0
  0
SPLINE
  5
28d
100
AcDbEntity
  8
PERIMETER
 62
7
100
AcDbSpline
 70
8
 71
3
 72
8
 73
4
 74
0
 40
0
 40
0
 40
0
 40
0
 40
1
 40
1
 40
1
 40
1
 10
22.467603
 20
1.630704
 30
0.0
 10
22.477088
 20
1.651964
 30
0.0
 10
22.474566
 20
1.676661
 30
0.0
 10
22.460981
 20
1.695566
 30
0.0
  0
SPLINE
  5
28e
100
AcDbEntity
  8
PERIMETER
 62
7
100
AcDbSpline
 70
8
 71
3
 72
8
 73
4
 74
0
 40
0
 40
0
 40
0
 40
0
 40
1
 40
1
 40
1
 40
1
 10
22.460981
 20
1.695566
 30
0.0
 10
22.381615
 20
1.806007
 30
0.0
 10
22.309859
 20
1.921723
 30
0.0
 10
22.246210
 20
2.041910
 30
0.0
  0
SPLINE
  5
28f
100
AcDbEntity
  8
PERIMETER
 62
7
100
AcDbSpline
 70
8
 71
3
 72
8
 73
4
 74
0
 40
0
 40
0
 40
0
 40
0
 40
1
 40
1
 40
1
 40
1
 10
22.246210
 20
2.041910
 30
0.0
 10
22.233735
 20
2.065466
 30
0.0
 10
22.208221
 20
2.079104
 30
0.0
 10
22.181704
 20
2.076390
 30
0.0
  0
SPLINE
  5
290
100
AcDbEntity
  8
PERIMETER
 62
7
100
AcDbSpline
 70
8
 71
3
 72
8
 73
4
 74
0
 40
0
 40
0
 40
0
 40
0
 40
1
 40
1
 40
1
 40
1
 10
22.181704
 20
2.076390
 30
0.0
 10
20.268660
 20
1.880614
 30
0.0
 10
18.340469
 20
1.883796
 30
0.0
 10
16.428082
 20
2.085884
 30
0.0
  0
SPLINE
  5
291
100
AcDbEntity
  8
PERIMETER
 62
7
100
AcDbSpline
 70
8
 71
3
 72
8
 73
4
 74
0
 40
0
 40
0
 40
0
 40
0
 40
1
 40
1
 40
1
 40
1
 10
16.428082
 20
2.085884
 30
0.0
 10
16.401574
 20
2.088685
 30
0.0
 10
16.376015
 20
2.075131
 30
0.0
 10
16.363463
 20
2.051616
 30
0.0
  0
SPLINE
  5
292
100
AcDbEntity
  8
PERIMETER
 62
7
100
AcDbSpline
 70
8
 71
3
 72
8
 73
4
 74
0
 40
0
 40
0
 40
0
 40
0
 40
1
 40
1
 40
1
 40
1
 10
16.363463
 20
2.051616
 30
0.0
 10
16.299417
 20
1.931640
 30
0.0
 10
16.227280
 20
1.816161
 30
0.0
 10
16.147550
 20
1.705982
 30
0.0
  0
SPLINE
  5
293
100
AcDbEntity
  8
PERIMETER
 62
7
100
AcDbSpline
 70
8
 71
3
 72
8
 73
4
 74
0
 40
0
 40
0
 40
0
 40
0
 40
1
 40
1
 40
1
 40
1
 10
16.147550
 20
1.705982
 30
0.0
 10
16.133903
 20
1.687123
 30
0.0
 10
16.131300
 20
1.662433
 30
0.0
 10
16.140714
 20
1.641142
 30
0.0
  0
SPLINE
  5
294
100
AcDbEntity
  8
PERIMETER
 62
7
100
AcDbSpline
 70
8
 71
3
 72
8
 73
4
 74
0
 40
0
 40
0
 40
0
 40
0
 40
1
 40
1
 40
1
 40
1
 10
16.140714
 20
1.641142
 30
0.0
 10
16.150128
 20
1.619851
 30
0.0
 10
16.170143
 20
1.605163
 30
0.0
 10
16.193277
 20
1.602567
 30
0.0
  0
SPLINE
  5
295
100
AcDbEntity
  8
PERIMETER
 62
7
100
AcDbSpline
 70
8
 71
3
 72
8
 73
4
 74
0
 40
0
 40
0
 40
0
 40
0
 40
1
 40
1
 40
1
 40
1
 10
16.193277
 20
1.602567
 30
0.0
 10
16.801434
 20
1.534330
 30
0.0
 10
17.411644
 20
1.485827
 30
0.0
 10
18.022944
 20
1.457135
 30
0.0
  0
LWPOLYLINE
  5
296
100
AcDbEntity
  8
PERIMETER
 62
7
100
AcDbPolyline
 90
2
 70
0
 10
20.606262
 20
0.959280
 30
0.0
 10
20.584776
 20
1.452907
 30
0.0
  0
SPLINE
  5
297
100
AcDbEntity
  8
PERIMETER
 62
7
100
AcDbSpline
 70
8
 71
3
 72
8
 73
4
 74
0
 40
0
 40
0
 40
0
 40
0
 40
1
 40
1
 40
1
 40
1
 10
17.999830
 20
0.963581
 30
0.0
 10
17.223594
 20
1.000014
 30
0.0
 10
16.449150
 20
1.067838
 30
0.0
 10
15.678398
 20
1.166888
 30
0.0
  0
SPLINE
  5
298
100
AcDbEntity
  8
PERIMETER
 62
7
100
AcDbSpline
 70
8
 71
3
 72
8
 73
4
 74
0
 40
0
 40
0
 40
0
 40
0
 40
1
 40
1
 40
1
 40
1
 10
15.678398
 20
1.166888
 30
0.0
 10
15.660440
 20
1.169196
 30
0.0
 10
15.642327
 20
1.163962
 30
0.0
 10
15.628368
 20
1.152430
 30
0.0
  0
SPLINE
  5
299
100
AcDbEntity
  8
PERIMETER
 62
7
100
AcDbSpline
 70
8
 71
3
 72
8
 73
4
 74
0
 40
0
 40
0
 40
0
 40
0
 40
1
 40
1
 40
1
 40
1
 10
15.628368
 20
1.152430
 30
0.0
 10
15.487269
 20
1.035864
 30
0.0
 10
15.335790
 20
0.932467
 30
0.0
 10
15.175828
 20
0.843535
 30
0.0
  0
SPLINE
  5
29a
100
AcDbEntity
  8
PERIMETER
 62
7
100
AcDbSpline
 70
8
 71
3
 72
8
 73
4
 74
0
 40
0
 40
0
 40
0
 40
0
 40
1
 40
1
 40
1
 40
1
 10
15.175828
 20
0.843535
 30
0.0
 10
15.151268
 20
0.829881
 30
0.0
 10
15.138163
 20
0.802074
 30
0.0
 10
15.143267
 20
0.774441
 30
0.0
  0
SPLINE
  5
29b
100
AcDbEntity
  8
PERIMETER
 62
7
100
AcDbSpline
 70
8
 71
3
 72
8
 73
4
 74
0
 40
0
 40
0
 40
0
 40
0
 40
1
 40
1
 40
1
 40
1
 10
15.143267
 20
0.774441
 30
0.0
 10
15.148371
 20
0.746808
 30
0.0
 10
15.170544
 20
0.725516
 30
0.0
 10
15.198361
 20
0.721536
 30
0.0
  0
SPLINE
  5
29c
100
AcDbEntity
  8
PERIMETER
 62
7
100
AcDbSpline
 70
8
 71
3
 72
8
 73
4
 74
0
 40
0
 40
0
 40
0
 40
0
 40
1
 40
1
 40
1
 40
1
 10
15.198361
 20
0.721536
 30
0.0
 10
17.920370
 20
0.332071
 30
0.0
 10
20.683638
 20
0.327512
 30
0.0
 10
23.406917
 20
0.707994
 30
0.0
  0
SPLINE
  5
29d
100
AcDbEntity
  8
PERIMETER
 62
7
100
AcDbSpline
 70
8
 71
3
 72
8
 73
4
 74
0
 40
0
 40
0
 40
0
 40
0
 40
1
 40
1
 40
1
 40
1
 10
23.406917
 20
0.707994
 30
0.0
 10
23.434747
 20
0.711882
 30
0.0
 10
23.456989
 20
0.733100
 30
0.0
 10
23.462185
 20
0.760716
 30
0.0
  0
SPLINE
  5
29e
100
AcDbEntity
  8
PERIMETER
 62
7
100
AcDbSpline
 70
8
 71
3
 72
8
 73
4
 74
0
 40
0
 40
0
 40
0
 40
0
 40
1
 40
1
 40
1
 40
1
 10
23.462185
 20
0.760716
 30
0.0
 10
23.467380
 20
0.788332
 30
0.0
 10
23.454368
 20
0.816182
 30
0.0
 10
23.429853
 20
0.829918
 30
0.0
  0
SPLINE
  5
29f
100
AcDbEntity
  8
PERIMETER
 62
7
100
AcDbSpline
 70
8
 71
3
 72
8
 73
4
 74
0
 40
0
 40
0
 40
0
 40
0
 40
1
 40
1
 40
1
 40
1
 10
23.429853
 20
0.829918
 30
0.0
 10
23.270185
 20
0.919376
 30
0.0
 10
23.119048
 20
1.023271
 30
0.0
 10
22.978334
 20
1.140303
 30
0.0
  0
LWPOLYLINE
  5
2a0
100
AcDbEntity
  8
PERIMETER
 62
7
100
AcDbPolyline
 90
2
 70
0
 10
18.022944
 20
1.457135
 30
0.0
 10
17.999830
 20
0.963581
 30
0.0
  0
LWPOLYLINE
  5
2a1
100
AcDbEntity
  8
PERIMETER
 62
7
100
AcDbPolyline
 90
1
 70
1
 10
22.978334
 20
1.140303
 30
0.0
  0
SPLINE
  5
2a2
100
AcDbEntity
  8
PERIMETER
 62
7
100
AcDbSpline
 70
8
 71
3
 72
8
 73
4
 74
0
 40
0
 40
0
 40
0
 40
0
 40
1
 40
1
 40
1
 40
1
 10
12.528065
 20
3.888320
 30
0.0
 10
12.514529
 20
4.414161
 30
0.0
 10
12.515398
 20
4.940274
 30
0.0
 10
12.530669
 20
5.466067
 30
0.0
  0
LWPOLYLINE
  5
2a3
100
AcDbEntity
  8
PERIMETER
 62
7
100
AcDbPolyline
 90
2
 70
0
 10
13.021995
 20
3.901085
 30
0.0
 10
12.528065
 20
3.888320
 30
0.0
  0
SPLINE
  5
2a4
100
AcDbEntity
  8
PERIMETER
 62
7
100
AcDbSpline
 70
8
 71
3
 72
8
 73
4
 74
0
 40
0
 40
0
 40
0
 40
0
 40
1
 40
1
 40
1
 40
1
 10
13.024553
 20
5.451672
 30
0.0
 10
13.009546
 20
4.934930
 30
0.0
 10
13.008693
 20
4.417874
 30
0.0
 10
13.021995
 20
3.901085
 30
0.0
  0
LWPOLYLINE
  5
2a5
100
AcDbEntity
  8
PERIMETER
 62
7
100
AcDbPolyline
 90
2
 70
0
 10
12.530669
 20
5.466067
 30
0.0
 10
13.024553
 20
5.451672
 30
0.0
  0
SPLINE
  5
2a6
100
AcDbEntity
  8
PERIMETER
 62
7
100
AcDbSpline
 70
8
 71
3
 72
8
 73
4
 74
0
 40
0
 40
0
 40
0
 40
0
 40
1
 40
1
 40
1
 40
1
 10
12.726928
 20
1.001874
 30
0.0
 10
12.738506
 20
1.015795
 30
0.0
 10
12.743800
 20
1.033890
 30
0.0
 10
12.741552
 20
1.051856
 30
0.0
  0
SPLINE
  5
2a7
100
AcDbEntity
  8
PERIMETER
 62
7
100
AcDbSpline
 70
8
 71
3
 72
8
 73
4
 74
0
 40
0
 40
0
 40
0
 40
0
 40
1
 40
1
 40
1
 40
1
 10
12.741552
 20
1.051856
 30
0.0
 10
12.645045
 20
1.822930
 30
0.0
 10
12.579776
 20
2.597594
 30
0.0
 10
12.545905
 20
3.373946
 30
0.0
  0
LWPOLYLINE
  5
2a8
100
AcDbEntity
  8
PERIMETER
 62
7
100
AcDbPolyline
 90
1
 70
1
 10
13.021995
 20
3.901085
 30
0.0
  0
SPLINE
  5
2a9
100
AcDbEntity
  8
PERIMETER
 62
7
100
AcDbSpline
 70
8
 71
3
 72
8
 73
4
 74
0
 40
0
 40
0
 40
0
 40
0
 40
1
 40
1
 40
1
 40
1
 10
13.039532
 20
3.395432
 30
0.0
 10
13.066208
 20
2.784040
 30
0.0
 10
13.112697
 20
2.173674
 30
0.0
 10
13.178927
 20
1.565295
 30
0.0
  0
SPLINE
  5
2aa
100
AcDbEntity
  8
PERIMETER
 62
7
100
AcDbSpline
 70
8
 71
3
 72
8
 73
4
 74
0
 40
0
 40
0
 40
0
 40
0
 40
1
 40
1
 40
1
 40
1
 10
13.178927
 20
1.565295
 30
0.0
 10
13.181446
 20
1.542152
 30
0.0
 10
13.196069
 20
1.522089
 30
0.0
 10
13.217329
 20
1.512605
 30
0.0
  0
SPLINE
  5
2ab
100
AcDbEntity
  8
PERIMETER
 62
7
100
AcDbSpline
 70
8
 71
3
 72
8
 73
4
 74
0
 40
0
 40
0
 40
0
 40
0
 40
1
 40
1
 40
1
 40
1
 10
13.217329
 20
1.512605
 30
0.0
 10
13.238589
 20
1.503121
 30
0.0
 10
13.263286
 20
1.505642
 30
0.0
 10
13.282191
 20
1.519227
 30
0.0
  0
SPLINE
  5
2ac
100
AcDbEntity
  8
PERIMETER
 62
7
100
AcDbSpline
 70
8
 71
3
 72
8
 73
4
 74
0
 40
0
 40
0
 40
0
 40
0
 40
1
 40
1
 40
1
 40
1
 10
13.282191
 20
1.519227
 30
0.0
 10
13.392632
 20
1.598593
 30
0.0
 10
13.508348
 20
1.670349
 30
0.0
 10
13.628535
 20
1.733998
 30
0.0
  0
SPLINE
  5
2ad
100
AcDbEntity
  8
PERIMETER
 62
7
100
AcDbSpline
 70
8
 71
3
 72
8
 73
4
 74
0
 40
0
 40
0
 40
0
 40
0
 40
1
 40
1
 40
1
 40
1
 10
13.628535
 20
1.733998
 30
0.0
 10
13.652091
 20
1.746473
 30
0.0
 10
13.665729
 20
1.771987
 30
0.0
 10
13.663015
 20
1.798504
 30
0.0
  0
SPLINE
  5
2ae
100
AcDbEntity
  8
PERIMETER
 62
7
100
AcDbSpline
 70
8
 71
3
 72
8
 73
4
 74
0
 40
0
 40
0
 40
0
 40
0
 40
1
 40
1
 40
1
 40
1
 10
13.663015
 20
1.798504
 30
0.0
 10
13.467239
 20
3.711548
 30
0.0
 10
13.470421
 20
5.639739
 30
0.0
 10
13.672509
 20
7.552126
 30
0.0
  0
SPLINE
  5
2af
100
AcDbEntity
  8
PERIMETER
 62
7
100
AcDbSpline
 70
8
 71
3
 72
8
 73
4
 74
0
 40
0
 40
0
 40
0
 40
0
 40
1
 40
1
 40
1
 40
1
 10
13.672509
 20
7.552126
 30
0.0
 10
13.675310
 20
7.578634
 30
0.0
 10
13.661756
 20
7.604193
 30
0.0
 10
13.638241
 20
7.616746
 30
0.0
  0
SPLINE
  5
2b0
100
AcDbEntity
  8
PERIMETER
 62
7
100
AcDbSpline
 70
8
 71
3
 72
8
 73
4
 74
0
 40
0
 40
0
 40
0
 40
0
 40
1
 40
1
 40
1
 40
1
 10
13.638241
 20
7.616746
 30
0.0
 10
13.518265
 20
7.680791
 30
0.0
 10
13.402786
 20
7.752929
 30
0.0
 10
13.292607
 20
7.832658
 30
0.0
  0
SPLINE
  5
2b1
100
AcDbEntity
  8
PERIMETER
 62
7
100
AcDbSpline
 70
8
 71
3
 72
8
 73
4
 74
0
 40
0
 40
0
 40
0
 40
0
 40
1
 40
1
 40
1
 40
1
 10
13.292607
 20
7.832658
 30
0.0
 10
13.273748
 20
7.846306
 30
0.0
 10
13.249058
 20
7.848909
 30
0.0
 10
13.227767
 20
7.839494
 30
0.0
  0
SPLINE
  5
2b2
100
AcDbEntity
  8
PERIMETER
 62
7
100
AcDbSpline
 70
8
 71
3
 72
8
 73
4
 74
0
 40
0
 40
0
 40
0
 40
0
 40
1
 40
1
 40
1
 40
1
 10
13.227767
 20
7.839494
 30
0.0
 10
13.206476
 20
7.830080
 30
0.0
 10
13.191788
 20
7.810065
 30
0.0
 10
13.189192
 20
7.786931
 30
0.0
  0
SPLINE
  5
2b3
100
AcDbEntity
  8
PERIMETER
 62
7
100
AcDbSpline
 70
8
 71
3
 72
8
 73
4
 74
0
 40
0
 40
0
 40
0
 40
0
 40
1
 40
1
 40
1
 40
1
 10
13.189192
 20
7.786931
 30
0.0
 10
13.120955
 20
7.178774
 30
0.0
 10
13.072452
 20
6.568564
 30
0.0
 10
13.043760
 20
5.957264
 30
0.0
  0
LWPOLYLINE
  5
2b4
100
AcDbEntity
  8
PERIMETER
 62
7
100
AcDbPolyline
 90
2
 70
0
 10
12.545905
 20
3.373946
 30
0.0
 10
13.039532
 20
3.395432
 30
0.0
  0
SPLINE
  5
2b5
100
AcDbEntity
  8
PERIMETER
 62
7
100
AcDbSpline
 70
8
 71
3
 72
8
 73
4
 74
0
 40
0
 40
0
 40
0
 40
0
 40
1
 40
1
 40
1
 40
1
 10
12.550206
 20
5.980378
 30
0.0
 10
12.586639
 20
6.756614
 30
0.0
 10
12.654463
 20
7.531058
 30
0.0
 10
12.753513
 20
8.301810
 30
0.0
  0
SPLINE
  5
2b6
100
AcDbEntity
  8
PERIMETER
 62
7
100
AcDbSpline
 70
8
 71
3
 72
8
 73
4
 74
0
 40
0
 40
0
 40
0
 40
0
 40
1
 40
1
 40
1
 40
1
 10
12.753513
 20
8.301810
 30
0.0
 10
12.755821
 20
8.319769
 30
0.0
 10
12.750587
 20
8.337881
 30
0.0
 10
12.739055
 20
8.351840
 30
0.0
  0
SPLINE
  5
2b7
100
AcDbEntity
  8
PERIMETER
 62
7
100
AcDbSpline
 70
8
 71
3
 72
8
 73
4
 74
0
 40
0
 40
0
 40
0
 40
0
 40
1
 40
1
 40
1
 40
1
 10
12.739055
 20
8.351840
 30
0.0
 10
12.622489
 20
8.492939
 30
0.0
 10
12.519092
 20
8.644419
 30
0.0
 10
12.430160
 20
8.804380
 30
0.0
  0
SPLINE
  5
2b8
100
AcDbEntity
  8
PERIMETER
 62
7
100
AcDbSpline
 70
8
 71
3
 72
8
 73
4
 74
0
 40
0
 40
0
 40
0
 40
0
 40
1
 40
1
 40
1
 40
1
 10
12.430160
 20
8.804380
 30
0.0
 10
12.416506
 20
8.828941
 30
0.0
 10
12.388699
 20
8.842045
 30
0.0
 10
12.361066
 20
8.836941
 30
0.0
  0
SPLINE
  5
2b9
100
AcDbEntity
  8
PERIMETER
 62
7
100
AcDbSpline
 70
8
 71
3
 72
8
 73
4
 74
0
 40
0
 40
0
 40
0
 40
0
 40
1
 40
1
 40
1
 40
1
 10
12.361066
 20
8.836941
 30
0.0
 10
12.333433
 20
8.831837
 30
0.0
 10
12.312141
 20
8.809664
 30
0.0
 10
12.308161
 20
8.781847
 30
0.0
  0
SPLINE
  5
2ba
100
AcDbEntity
  8
PERIMETER
 62
7
100
AcDbSpline
 70
8
 71
3
 72
8
 73
4
 74
0
 40
0
 40
0
 40
0
 40
0
 40
1
 40
1
 40
1
 40
1
 10
12.308161
 20
8.781847
 30
0.0
 10
11.918696
 20
6.059838
 30
0.0
 10
11.914137
 20
3.296571
 30
0.0
 10
12.294619
 20
0.573292
 30
0.0
  0
SPLINE
  5
2bb
100
AcDbEntity
  8
PERIMETER
 62
7
100
AcDbSpline
 70
8
 71
3
 72
8
 73
4
 74
0
 40
0
 40
0
 40
0
 40
0
 40
1
 40
1
 40
1
 40
1
 10
12.294619
 20
0.573292
 30
0.0
 10
12.298507
 20
0.545462
 30
0.0
 10
12.319725
 20
0.523219
 30
0.0
 10
12.347341
 20
0.518024
 30
0.0
  0
SPLINE
  5
2bc
100
AcDbEntity
  8
PERIMETER
 62
7
100
AcDbSpline
 70
8
 71
3
 72
8
 73
4
 74
0
 40
0
 40
0
 40
0
 40
0
 40
1
 40
1
 40
1
 40
1
 10
12.347341
 20
0.518024
 30
0.0
 10
12.374957
 20
0.512829
 30
0.0
 10
12.402807
 20
0.525841
 30
0.0
 10
12.416543
 20
0.550355
 30
0.0
  0
SPLINE
  5
2bd
100
AcDbEntity
  8
PERIMETER
 62
7
100
AcDbSpline
 70
8
 71
3
 72
8
 73
4
 74
0
 40
0
 40
0
 40
0
 40
0
 40
1
 40
1
 40
1
 40
1
 10
12.416543
 20
0.550355
 30
0.0
 10
12.506001
 20
0.710023
 30
0.0
 10
12.609896
 20
0.861161
 30
0.0
 10
12.726928
 20
1.001874
 30
0.0
  0
LWPOLYLINE
  5
2be
100
AcDbEntity
  8
PERIMETER
 62
7
100
AcDbPolyline
 90
2
 70
0
 10
13.043760
 20
5.957264
 30
0.0
 10
12.550206
 20
5.980378
 30
0.0
  0
SPLINE
  5
2bf
100
AcDbEntity
  8
PERIMETER
 62
7
100
AcDbSpline
 70
8
 71
3
 72
8
 73
4
 74
0
 40
0
 40
0
 40
0
 40
0
 40
1
 40
1
 40
1
 40
1
 10
15.738123
 20
2.241251
 30
0.0
 10
15.758794
 20
2.223522
 30
0.0
 10
15.788283
 20
2.220445
 30
0.0
 10
15.812169
 20
2.233524
 30
0.0
  0
SPLINE
  5
2c0
100
AcDbEntity
  8
PERIMETER
 62
7
100
AcDbSpline
 70
8
 71
3
 72
8
 73
4
 74
0
 40
0
 40
0
 40
0
 40
0
 40
1
 40
1
 40
1
 40
1
 10
15.812169
 20
2.233524
 30
0.0
 10
15.836056
 20
2.246603
 30
0.0
 10
15.849348
 20
2.273105
 30
0.0
 10
15.845546
 20
2.300071
 30
0.0
  0
SPLINE
  5
2c1
100
AcDbEntity
  8
PERIMETER
 62
7
100
AcDbSpline
 70
8
 71
3
 72
8
 73
4
 74
0
 40
0
 40
0
 40
0
 40
0
 40
1
 40
1
 40
1
 40
1
 10
15.845546
 20
2.300071
 30
0.0
 10
15.540217
 20
4.465933
 30
0.0
 10
15.527083
 20
6.662986
 30
0.0
 10
15.806495
 20
8.832343
 30
0.0
  0
SPLINE
  5
2c2
100
AcDbEntity
  8
PERIMETER
 62
7
100
AcDbSpline
 70
8
 71
3
 72
8
 73
4
 74
0
 40
0
 40
0
 40
0
 40
0
 40
1
 40
1
 40
1
 40
1
 10
15.806495
 20
8.832343
 30
0.0
 10
15.809974
 20
8.859352
 30
0.0
 10
15.796366
 20
8.885694
 30
0.0
 10
15.772325
 20
8.898486
 30
0.0
  0
SPLINE
  5
2c3
100
AcDbEntity
  8
PERIMETER
 62
7
100
AcDbSpline
 70
8
 71
3
 72
8
 73
4
 74
0
 40
0
 40
0
 40
0
 40
0
 40
1
 40
1
 40
1
 40
1
 10
15.772325
 20
8.898486
 30
0.0
 10
15.748284
 20
8.911279
 30
0.0
 10
15.718835
 20
8.907849
 30
0.0
 10
15.698377
 20
8.889875
 30
0.0
  0
SPLINE
  5
2c4
100
AcDbEntity
  8
PERIMETER
 62
7
100
AcDbSpline
 70
8
 71
3
 72
8
 73
4
 74
0
 40
0
 40
0
 40
0
 40
0
 40
1
 40
1
 40
1
 40
1
 10
15.698377
 20
8.889875
 30
0.0
 10
15.571681
 20
8.778558
 30
0.0
 10
15.435815
 20
8.678133
 30
0.0
 10
15.292226
 20
8.589671
 30
0.0
  0
SPLINE
  5
2c5
100
AcDbEntity
  8
PERIMETER
 62
7
100
AcDbSpline
 70
8
 71
3
 72
8
 73
4
 74
0
 40
0
 40
0
 40
0
 40
0
 40
1
 40
1
 40
1
 40
1
 10
15.292226
 20
8.589671
 30
0.0
 10
15.275124
 20
8.579135
 30
0.0
 10
15.263807
 20
8.561330
 30
0.0
 10
15.261528
 20
8.541374
 30
0.0
  0
SPLINE
  5
2c6
100
AcDbEntity
  8
PERIMETER
 62
7
100
AcDbSpline
 70
8
 71
3
 72
8
 73
4
 74
0
 40
0
 40
0
 40
0
 40
0
 40
1
 40
1
 40
1
 40
1
 10
15.261528
 20
8.541374
 30
0.0
 10
15.157944
 20
7.634526
 30
0.0
 10
15.104219
 20
6.722676
 30
0.0
 10
15.100597
 20
5.809940
 30
0.0
  0
LWPOLYLINE
  5
2c7
100
AcDbEntity
  8
PERIMETER
 62
7
100
AcDbPolyline
 90
1
 70
1
 10
12.726928
 20
1.001874
 30
0.0
  0
SPLINE
  5
2c8
100
AcDbEntity
  8
PERIMETER
 62
7
100
AcDbSpline
 70
8
 71
3
 72
8
 73
4
 74
0
 40
0
 40
0
 40
0
 40
0
 40
1
 40
1
 40
1
 40
1
 10
14.606506
 20
5.811842
 30
0.0
 10
14.609698
 20
6.616705
 30
0.0
 10
14.651093
 20
7.420962
 30
0.0
 10
14.730551
 20
8.221900
 30
0.0
  0
SPLINE
  5
2c9
100
AcDbEntity
  8
PERIMETER
 62
7
100
AcDbSpline
 70
8
 71
3
 72
8
 73
4
 74
0
 40
0
 40
0
 40
0
 40
0
 40
1
 40
1
 40
1
 40
1
 10
14.730551
 20
8.221900
 30
0.0
 10
14.732731
 20
8.243883
 30
0.0
 10
14.723676
 20
8.265484
 30
0.0
 10
14.706470
 20
8.279339
 30
0.0
  0
SPLINE
  5
2ca
100
AcDbEntity
  8
PERIMETER
 62
7
100
AcDbSpline
 70
8
 71
3
 72
8
 73
4
 74
0
 40
0
 40
0
 40
0
 40
0
 40
1
 40
1
 40
1
 40
1
 10
14.706470
 20
8.279339
 30
0.0
 10
14.689264
 20
8.293195
 30
0.0
 10
14.666229
 20
8.297437
 30
0.0
 10
14.645216
 20
8.290618
 30
0.0
  0
SPLINE
  5
2cb
100
AcDbEntity
  8
PERIMETER
 62
7
100
AcDbSpline
 70
8
 71
3
 72
8
 73
4
 74
0
 40
0
 40
0
 40
0
 40
0
 40
1
 40
1
 40
1
 40
1
 10
14.645216
 20
8.290618
 30
0.0
 10
14.521447
 20
8.250457
 30
0.0
 10
14.395194
 20
8.218399
 30
0.0
 10
14.267259
 20
8.194648
 30
0.0
  0
SPLINE
  5
2cc
100
AcDbEntity
  8
PERIMETER
 62
7
100
AcDbSpline
 70
8
 71
3
 72
8
 73
4
 74
0
 40
0
 40
0
 40
0
 40
0
 40
1
 40
1
 40
1
 40
1
 10
14.267259
 20
8.194648
 30
0.0
 10
14.238500
 20
8.189309
 30
0.0
 10
14.216774
 20
8.165536
 30
0.0
 10
14.214040
 20
8.136414
 30
0.0
  0
SPLINE
  5
2cd
100
AcDbEntity
  8
PERIMETER
 62
7
100
AcDbSpline
 70
8
 71
3
 72
8
 73
4
 74
0
 40
0
 40
0
 40
0
 40
0
 40
1
 40
1
 40
1
 40
1
 10
14.214040
 20
8.136414
 30
0.0
 10
14.052832
 20
6.419828
 30
0.0
 10
14.063164
 20
4.691446
 30
0.0
 10
14.244884
 20
2.976911
 30
0.0
  0
SPLINE
  5
2ce
100
AcDbEntity
  8
PERIMETER
 62
7
100
AcDbSpline
 70
8
 71
3
 72
8
 73
4
 74
0
 40
0
 40
0
 40
0
 40
0
 40
1
 40
1
 40
1
 40
1
 10
14.244884
 20
2.976911
 30
0.0
 10
14.247967
 20
2.947823
 30
0.0
 10
14.269975
 20
2.924312
 30
0.0
 10
14.298796
 20
2.919318
 30
0.0
  0
SPLINE
  5
2cf
100
AcDbEntity
  8
PERIMETER
 62
7
100
AcDbSpline
 70
8
 71
3
 72
8
 73
4
 74
0
 40
0
 40
0
 40
0
 40
0
 40
1
 40
1
 40
1
 40
1
 10
14.298796
 20
2.919318
 30
0.0
 10
14.427006
 20
2.897098
 30
0.0
 10
14.553633
 20
2.866551
 30
0.0
 10
14.677873
 20
2.827873
 30
0.0
  0
SPLINE
  5
2d0
100
AcDbEntity
  8
PERIMETER
 62
7
100
AcDbSpline
 70
8
 71
3
 72
8
 73
4
 74
0
 40
0
 40
0
 40
0
 40
0
 40
1
 40
1
 40
1
 40
1
 10
14.677873
 20
2.827873
 30
0.0
 10
14.698966
 20
2.821306
 30
0.0
 10
14.721948
 20
2.825823
 30
0.0
 10
14.738988
 20
2.839883
 30
0.0
  0
SPLINE
  5
2d1
100
AcDbEntity
  8
PERIMETER
 62
7
100
AcDbSpline
 70
8
 71
3
 72
8
 73
4
 74
0
 40
0
 40
0
 40
0
 40
0
 40
1
 40
1
 40
1
 40
1
 10
14.738988
 20
2.839883
 30
0.0
 10
14.756027
 20
2.853944
 30
0.0
 10
14.764824
 20
2.875651
 30
0.0
 10
14.762380
 20
2.897608
 30
0.0
  0
SPLINE
  5
2d2
100
AcDbEntity
  8
PERIMETER
 62
7
100
AcDbSpline
 70
8
 71
3
 72
8
 73
4
 74
0
 40
0
 40
0
 40
0
 40
0
 40
1
 40
1
 40
1
 40
1
 10
14.762380
 20
2.897608
 30
0.0
 10
14.673352
 20
3.697538
 30
0.0
 10
14.622345
 20
4.501243
 30
0.0
 10
14.609530
 20
5.306010
 30
0.0
  0
LWPOLYLINE
  5
2d3
100
AcDbEntity
  8
PERIMETER
 62
7
100
AcDbPolyline
 90
2
 70
0
 10
15.100597
 20
5.809940
 30
0.0
 10
14.606506
 20
5.811842
 30
0.0
  0
SPLINE
  5
2d4
100
AcDbEntity
  8
PERIMETER
 62
7
100
AcDbSpline
 70
8
 71
3
 72
8
 73
4
 74
0
 40
0
 40
0
 40
0
 40
0
 40
1
 40
1
 40
1
 40
1
 10
15.103563
 20
5.313819
 30
0.0
 10
15.118097
 20
4.401191
 30
0.0
 10
15.182720
 20
3.490049
 30
0.0
 10
15.297139
 20
2.584505
 30
0.0
  0
SPLINE
  5
2d5
100
AcDbEntity
  8
PERIMETER
 62
7
100
AcDbSpline
 70
8
 71
3
 72
8
 73
4
 74
0
 40
0
 40
0
 40
0
 40
0
 40
1
 40
1
 40
1
 40
1
 10
15.297139
 20
2.584505
 30
0.0
 10
15.299656
 20
2.564576
 30
0.0
 10
15.311185
 20
2.546908
 30
0.0
 10
15.328412
 20
2.536577
 30
0.0
  0
SPLINE
  5
2d6
100
AcDbEntity
  8
PERIMETER
 62
7
100
AcDbSpline
 70
8
 71
3
 72
8
 73
4
 74
0
 40
0
 40
0
 40
0
 40
0
 40
1
 40
1
 40
1
 40
1
 10
15.328412
 20
2.536577
 30
0.0
 10
15.473048
 20
2.449838
 30
0.0
 10
15.610105
 20
2.351046
 30
0.0
 10
15.738123
 20
2.241251
 30
0.0
  0
LWPOLYLINE
  5
2d7
100
AcDbEntity
  8
PERIMETER
 62
7
100
AcDbPolyline
 90
2
 70
0
 10
14.609530
 20
5.306010
 30
0.0
 10
15.103563
 20
5.313819
 30
0.0
  0
SPLINE
  5
2d8
100
AcDbEntity
  8
PERIMETER
 62
7
100
AcDbSpline
 70
8
 71
3
 72
8
 73
4
 74
0
 40
0
 40
0
 40
0
 40
0
 40
1
 40
1
 40
1
 40
1
 10
20.789784
 20
2.772949
 30
0.0
 10
20.816551
 20
2.767931
 30
0.0
 10
20.843628
 20
2.780010
 30
0.0
 10
20.857774
 20
2.803280
 30
0.0
  0
SPLINE
  5
2d9
100
AcDbEntity
  8
PERIMETER
 62
7
100
AcDbSpline
 70
8
 71
3
 72
8
 73
4
 74
0
 40
0
 40
0
 40
0
 40
0
 40
1
 40
1
 40
1
 40
1
 10
20.857774
 20
2.803280
 30
0.0
 10
20.871921
 20
2.826550
 30
0.0
 10
20.870181
 20
2.856148
 30
0.0
 10
20.853406
 20
2.877600
 30
0.0
  0
SPLINE
  5
2da
100
AcDbEntity
  8
PERIMETER
 62
7
100
AcDbSpline
 70
8
 71
3
 72
8
 73
4
 74
0
 40
0
 40
0
 40
0
 40
0
 40
1
 40
1
 40
1
 40
1
 10
20.853406
 20
2.877600
 30
0.0
 10
19.506053
 20
4.600627
 30
0.0
 10
18.396153
 20
6.496763
 30
0.0
 10
17.553454
 20
8.515188
 30
0.0
  0
SPLINE
  5
2db
100
AcDbEntity
  8
PERIMETER
 62
7
100
AcDbSpline
 70
8
 71
3
 72
8
 73
4
 74
0
 40
0
 40
0
 40
0
 40
0
 40
1
 40
1
 40
1
 40
1
 10
17.553454
 20
8.515188
 30
0.0
 10
17.542962
 20
8.540318
 30
0.0
 10
17.518006
 20
8.556327
 30
0.0
 10
17.490790
 20
8.555385
 30
0.0
  0
SPLINE
  5
2dc
100
AcDbEntity
  8
PERIMETER
 62
7
100
AcDbSpline
 70
8
 71
3
 72
8
 73
4
 74
0
 40
0
 40
0
 40
0
 40
0
 40
1
 40
1
 40
1
 40
1
 10
17.490790
 20
8.555385
 30
0.0
 10
17.463574
 20
8.554443
 30
0.0
 10
17.439785
 20
8.536748
 30
0.0
 10
17.431055
 20
8.510953
 30
0.0
  0
SPLINE
  5
2dd
100
AcDbEntity
  8
PERIMETER
 62
7
100
AcDbSpline
 70
8
 71
3
 72
8
 73
4
 74
0
 40
0
 40
0
 40
0
 40
0
 40
1
 40
1
 40
1
 40
1
 10
17.431055
 20
8.510953
 30
0.0
 10
17.376992
 20
8.351202
 30
0.0
 10
17.309540
 20
8.196299
 30
0.0
 10
17.229419
 20
8.047894
 30
0.0
  0
SPLINE
  5
2de
100
AcDbEntity
  8
PERIMETER
 62
7
100
AcDbSpline
 70
8
 71
3
 72
8
 73
4
 74
0
 40
0
 40
0
 40
0
 40
0
 40
1
 40
1
 40
1
 40
1
 10
17.229419
 20
8.047894
 30
0.0
 10
17.219877
 20
8.030219
 30
0.0
 10
17.218979
 20
8.009141
 30
0.0
 10
17.226983
 20
7.990718
 30
0.0
  0
SPLINE
  5
2df
100
AcDbEntity
  8
PERIMETER
 62
7
100
AcDbSpline
 70
8
 71
3
 72
8
 73
4
 74
0
 40
0
 40
0
 40
0
 40
0
 40
1
 40
1
 40
1
 40
1
 10
17.226983
 20
7.990718
 30
0.0
 10
17.590700
 20
7.153573
 30
0.0
 10
18.000097
 20
6.337026
 30
0.0
 10
18.453329
 20
5.544761
 30
0.0
  0
LWPOLYLINE
  5
2e0
100
AcDbEntity
  8
PERIMETER
 62
7
100
AcDbPolyline
 90
1
 70
1
 10
15.738123
 20
2.241251
 30
0.0
  0
SPLINE
  5
2e1
100
AcDbEntity
  8
PERIMETER
 62
7
100
AcDbSpline
 70
8
 71
3
 72
8
 73
4
 74
0
 40
0
 40
0
 40
0
 40
0
 40
1
 40
1
 40
1
 40
1
 10
18.024482
 20
5.299363
 30
0.0
 10
17.624815
 20
5.997991
 30
0.0
 10
17.258536
 20
6.715196
 30
0.0
 10
16.926880
 20
7.448557
 30
0.0
  0
SPLINE
  5
2e2
100
AcDbEntity
  8
PERIMETER
 62
7
100
AcDbSpline
 70
8
 71
3
 72
8
 73
4
 74
0
 40
0
 40
0
 40
0
 40
0
 40
1
 40
1
 40
1
 40
1
 10
16.926880
 20
7.448557
 30
0.0
 10
16.917777
 20
7.468686
 30
0.0
 10
16.899134
 20
7.482864
 30
0.0
 10
16.877305
 20
7.486261
 30
0.0
  0
SPLINE
  5
2e3
100
AcDbEntity
  8
PERIMETER
 62
7
100
AcDbSpline
 70
8
 71
3
 72
8
 73
4
 74
0
 40
0
 40
0
 40
0
 40
0
 40
1
 40
1
 40
1
 40
1
 10
16.877305
 20
7.486261
 30
0.0
 10
16.855477
 20
7.489657
 30
0.0
 10
16.833407
 20
7.481813
 30
0.0
 10
16.818619
 20
7.465402
 30
0.0
  0
SPLINE
  5
2e4
100
AcDbEntity
  8
PERIMETER
 62
7
100
AcDbSpline
 70
8
 71
3
 72
8
 73
4
 74
0
 40
0
 40
0
 40
0
 40
0
 40
1
 40
1
 40
1
 40
1
 10
16.818619
 20
7.465402
 30
0.0
 10
16.731512
 20
7.368737
 30
0.0
 10
16.638203
 20
7.277848
 30
0.0
 10
16.539283
 20
7.193311
 30
0.0
  0
SPLINE
  5
2e5
100
AcDbEntity
  8
PERIMETER
 62
7
100
AcDbSpline
 70
8
 71
3
 72
8
 73
4
 74
0
 40
0
 40
0
 40
0
 40
0
 40
1
 40
1
 40
1
 40
1
 10
16.539283
 20
7.193311
 30
0.0
 10
16.517047
 20
7.174307
 30
0.0
 10
16.510118
 20
7.142857
 30
0.0
 10
16.522311
 20
7.116269
 30
0.0
  0
SPLINE
  5
2e6
100
AcDbEntity
  8
PERIMETER
 62
7
100
AcDbSpline
 70
8
 71
3
 72
8
 73
4
 74
0
 40
0
 40
0
 40
0
 40
0
 40
1
 40
1
 40
1
 40
1
 10
16.522311
 20
7.116269
 30
0.0
 10
17.240993
 20
5.549058
 30
0.0
 10
18.114131
 20
4.057402
 30
0.0
 10
19.128772
 20
2.663430
 30
0.0
  0
SPLINE
  5
2e7
100
AcDbEntity
  8
PERIMETER
 62
7
100
AcDbSpline
 70
8
 71
3
 72
8
 73
4
 74
0
 40
0
 40
0
 40
0
 40
0
 40
1
 40
1
 40
1
 40
1
 10
19.128772
 20
2.663430
 30
0.0
 10
19.145986
 20
2.639781
 30
0.0
 10
19.176801
 20
2.630424
 30
0.0
 10
19.204257
 20
2.640509
 30
0.0
  0
SPLINE
  5
2e8
100
AcDbEntity
  8
PERIMETER
 62
7
100
AcDbSpline
 70
8
 71
3
 72
8
 73
4
 74
0
 40
0
 40
0
 40
0
 40
0
 40
1
 40
1
 40
1
 40
1
 10
19.204257
 20
2.640509
 30
0.0
 10
19.326401
 20
2.685371
 30
0.0
 10
19.451336
 20
2.722230
 30
0.0
 10
19.578270
 20
2.750854
 30
0.0
  0
SPLINE
  5
2e9
100
AcDbEntity
  8
PERIMETER
 62
7
100
AcDbSpline
 70
8
 71
3
 72
8
 73
4
 74
0
 40
0
 40
0
 40
0
 40
0
 40
1
 40
1
 40
1
 40
1
 10
19.578270
 20
2.750854
 30
0.0
 10
19.599821
 20
2.755713
 30
0.0
 10
19.617466
 20
2.771116
 30
0.0
 10
19.625192
 20
2.791812
 30
0.0
  0
SPLINE
  5
2ea
100
AcDbEntity
  8
PERIMETER
 62
7
100
AcDbSpline
 70
8
 71
3
 72
8
 73
4
 74
0
 40
0
 40
0
 40
0
 40
0
 40
1
 40
1
 40
1
 40
1
 10
19.625192
 20
2.791812
 30
0.0
 10
19.632918
 20
2.812509
 30
0.0
 10
19.629683
 20
2.835707
 30
0.0
 10
19.616588
 20
2.853499
 30
0.0
  0
SPLINE
  5
2eb
100
AcDbEntity
  8
PERIMETER
 62
7
100
AcDbSpline
 70
8
 71
3
 72
8
 73
4
 74
0
 40
0
 40
0
 40
0
 40
0
 40
1
 40
1
 40
1
 40
1
 10
19.616588
 20
2.853499
 30
0.0
 10
19.139523
 20
3.501745
 30
0.0
 10
18.693497
 20
4.172271
 30
0.0
 10
18.280016
 20
4.862812
 30
0.0
  0
LWPOLYLINE
  5
2ec
100
AcDbEntity
  8
PERIMETER
 62
7
100
AcDbPolyline
 90
2
 70
0
 10
18.453329
 20
5.544761
 30
0.0
 10
18.024482
 20
5.299363
 30
0.0
  0
SPLINE
  5
2ed
100
AcDbEntity
  8
PERIMETER
 62
7
100
AcDbSpline
 70
8
 71
3
 72
8
 73
4
 74
0
 40
0
 40
0
 40
0
 40
0
 40
1
 40
1
 40
1
 40
1
 10
18.703957
 20
5.116591
 30
0.0
 10
19.172858
 20
4.333499
 30
0.0
 10
19.684393
 20
3.576738
 30
0.0
 10
20.236254
 20
2.849723
 30
0.0
  0
SPLINE
  5
2ee
100
AcDbEntity
  8
PERIMETER
 62
7
100
AcDbSpline
 70
8
 71
3
 72
8
 73
4
 74
0
 40
0
 40
0
 40
0
 40
0
 40
1
 40
1
 40
1
 40
1
 10
20.236254
 20
2.849723
 30
0.0
 10
20.248399
 20
2.833724
 30
0.0
 10
20.267217
 20
2.824186
 30
0.0
 10
20.287301
 20
2.823853
 30
0.0
  0
SPLINE
  5
2ef
100
AcDbEntity
  8
PERIMETER
 62
7
100
AcDbSpline
 70
8
 71
3
 72
8
 73
4
 74
0
 40
0
 40
0
 40
0
 40
0
 40
1
 40
1
 40
1
 40
1
 10
20.287301
 20
2.823853
 30
0.0
 10
20.455930
 20
2.821053
 30
0.0
 10
20.624021
 20
2.804025
 30
0.0
 10
20.789784
 20
2.772949
 30
0.0
  0
LWPOLYLINE
  5
2f0
100
AcDbEntity
  8
PERIMETER
 62
7
100
AcDbPolyline
 90
2
 70
0
 10
18.280016
 20
4.862812
 30
0.0
 10
18.703957
 20
5.116591
 30
0.0
  0
LWPOLYLINE
  5
2f1
100
AcDbEntity
  8
PERIMETER
 62
7
100
AcDbPolyline
 90
1
 70
1
 10
20.789784
 20
2.772949
 30
0.0
  0
ENDSEC
  0
SECTION
  2
OBJECTS
  0
DICTIONARY
  5
C
330
0
100
AcDbDictionary
  3
ACAD_GROUP
350
D
  3
ACAD_MLINESTYLE
350
17
  0
DICTIONARY
  5
D
330
C
100
AcDbDictionary
  0
DICTIONARY
  5
1A
330
C
100
AcDbDictionary
  0
DICTIONARY
  5
17
330
C
100
AcDbDictionary
  3
STANDARD
350
18
  0
DICTIONARY
  5
19
330
C
100
AcDbDictionary
  0
ENDSEC
  0
EOF
