0
SECTION
2
HEADER
9
$INSUNITS
70
1
9
$ACADVER
1
AC1014
9
$HANDSEED
5
FFFF
0
ENDSEC
0
SECTION
2
TABLES
0
TABLE
2
VPORT
5
8
100
AcDbSymbolTable
0
ENDTAB
0
TABLE
2
LTYPE
5
5
100
AcDbSymbolTable
70
2
0
LTYPE
5
14
100
AcDbSymbolTableRecord
100
AcDbLinetypeTableRecord
2
BYBLOCK
70
0
0
LTYPE
5
15
100
AcDbSymbolTableRecord
100
AcDbLinetypeTableRecord
2
BYLAYER
70
0
0
ENDTAB
0
TABLE
2
LAYER
5
2
100
AcDbSymbolTable
70
3
0
LAYER
5
50
100
AcDbSymbolTableRecord
100
AcDbLayerTableRecord
2
0
70
0
6
CONTINUOUS
0
LAYER
5
51
100
AcDbSymbolTableRecord
100
AcDbLayerTableRecord
2
CUTOUTS
70
0
62
1
6
CONTINUOUS
0
LAYER
5
52
100
AcDbSymbolTableRecord
100
AcDbLayerTableRecord
2
PERIMETER
70
0
62
5
6
CONTINUOUS
0
ENDTAB
0
TABLE
2
STYLE
5
3
100
AcDbSymbolTable
70
1
0
STYLE
5
11
100
AcDbSymbolTableRecord
100
AcDbTextStyleTableRecord
2
STANDARD
70
0
0
ENDTAB
0
TABLE
2
VIEW
5
6
100
AcDbSymbolTable
0
ENDTAB
0
TABLE
2
UCS
5
7
100
AcDbSymbolTable
0
ENDTAB
0
TABLE
2
APPID
5
9
100
AcDbSymbolTable
70
1
0
APPID
5
12
100
AcDbSymbolTableRecord
100
AcDbRegAppTableRecord
2
ACAD
70
0
0
ENDTAB
0
TABLE
2
DIMSTYLE
5
A
100
AcDbSymbolTable
0
ENDTAB
0
TABLE
2
BLOCK_RECORD
5
1
100
AcDbSymbolTable
70
2
0
BLOCK_RECORD
5
1F
100
AcDbSymbolTableRecord
100
AcDbBlockTableRecord
2
*MODEL_SPACE
0
BLOCK_RECORD
5
1B
100
AcDbSymbolTableRecord
100
AcDbBlockTableRecord
2
*PAPER_SPACE
0
ENDTAB
0
ENDSEC
0
SECTION
2
BLOCKS
0
BLOCK
5
20
100
AcDbEntity
100
AcDbBlockBegin
2
*MODEL_SPACE
0
ENDBLK
5
21
100
AcDbEntity
100
AcDbBlockEnd
0
BLOCK
5
1C
100
AcDbEntity
100
AcDbBlockBegin
2
*PAPER_SPACE
0
ENDBLK
5
1D
100
AcDbEntity
100
AcDbBlockEnd
0
ENDSEC
0
SECTION
2
ENTITIES
0
LWPOLYLINE
5
100
100
AcDbEntity
8
CUTOUTS
100
AcDbPolyline
90
3
70
1
43
0.0
10
-24.739423078838907
20
-19.845826148491863
10
-24.502952755905511
20
-19.436247534689102
10
-24.502952755905511
20
-20.255404762294528
0
LWPOLYLINE
5
101
100
AcDbEntity
8
CUTOUTS
100
AcDbPolyline
90
4
70
1
43
0.0
10
-26.772039519070923
20
-18.928195122414373
10
-26.316118557214299
20
-19.717873392586323
10
-27.227960480928022
20
-19.717873392586519
10
-27.683881442784998
20
-18.928195122414376
0
LWPOLYLINE
5
102
100
AcDbEntity
8
CUTOUTS
100
AcDbPolyline
90
4
70
1
43
0.0
10
-25.416956246964844
20
-24.947457174568843
10
-25.872877208821439
20
-24.157778904396945
10
-24.96103528510773
20
-24.157778904396782
10
-24.505114323250694
20
-24.947457174568839
0
LWPOLYLINE
5
103
100
AcDbEntity
8
CUTOUTS
100
AcDbPolyline
90
4
70
1
43
0.0
10
-24.961043753035597
20
-19.717873392586323
10
-25.872885676749302
20
-19.717873392586053
10
-25.416964714892622
20
-18.928195122414373
10
-24.505122791178483
20
-18.928195122414376
0
LWPOLYLINE
5
104
100
AcDbEntity
8
CUTOUTS
100
AcDbPolyline
90
3
70
1
43
0.0
10
-24.739423078838907
20
-21.937826148491858
10
-24.502952755905511
20
-21.528247534689097
10
-24.502952755905511
20
-22.347404762294534
0
LWPOLYLINE
5
105
100
AcDbEntity
8
CUTOUTS
100
AcDbPolyline
90
4
70
1
43
0.0
10
-29.03895624696484
20
-22.855457174568844
10
-29.494877208821435
20
-22.06577890439695
10
-28.58303528510773
20
-22.065778904396772
10
-28.127114323250691
20
-22.855457174568844
0
LWPOLYLINE
5
106
100
AcDbEntity
8
CUTOUTS
100
AcDbPolyline
90
4
70
1
43
0.0
10
-24.505114323250694
20
-20.763457174568842
10
-25.416956246964844
20
-20.763457174568849
10
-25.872877208821439
20
-19.973778904396951
10
-24.96103528510773
20
-19.973778904396774
0
LWPOLYLINE
5
107
100
AcDbEntity
8
CUTOUTS
100
AcDbPolyline
90
4
70
1
43
0.0
10
-25.416956246964844
20
-22.855457174568844
10
-25.872877208821439
20
-22.06577890439695
10
-24.96103528510773
20
-22.065778904396772
10
-24.505114323250694
20
-22.855457174568844
0
LWPOLYLINE
5
108
100
AcDbEntity
8
CUTOUTS
100
AcDbPolyline
90
3
70
1
43
0.0
10
-29.497038776166615
20
-22.573845983552147
10
-29.260576921160759
20
-22.983409930474103
10
-29.497038776166615
20
-23.392973877396233
0
LWPOLYLINE
5
109
100
AcDbEntity
8
CUTOUTS
100
AcDbPolyline
90
4
70
1
43
0.0
10
-27.44958115512479
20
-19.845826148491909
10
-27.905502116981882
20
-20.635504418663519
10
-28.361423078838907
20
-19.845826148491874
10
-27.905502116981758
20
-19.056147878319809
0
LWPOLYLINE
5
10A
100
AcDbEntity
8
CUTOUTS
100
AcDbPolyline
90
4
70
1
43
0.0
10
-28.361423078838907
20
-24.029826148491864
10
-27.905502116981758
20
-23.240147878319807
10
-27.44958115512479
20
-24.029826148491903
10
-27.905502116981882
20
-24.819504418663531
0
LWPOLYLINE
5
10B
100
AcDbEntity
8
CUTOUTS
100
AcDbPolyline
90
4
70
1
43
0.0
10
-27.683881442784998
20
-25.20419512241434
10
-26.772039519070926
20
-25.204195122414429
10
-26.316118557214299
20
-25.993873392586323
10
-27.227960480928022
20
-25.993873392586512
0
LWPOLYLINE
5
10C
100
AcDbEntity
8
CUTOUTS
100
AcDbPolyline
90
4
70
1
43
0.0
10
-27.227960480928033
20
-24.157778904397048
10
-26.316118557214303
20
-24.157778904397343
10
-26.772039519071011
20
-24.947457174569177
10
-27.683881442785097
20
-24.947457174569166
0
LWPOLYLINE
5
10D
100
AcDbEntity
8
CUTOUTS
100
AcDbPolyline
90
4
70
1
43
0.0
10
-25.638576921160755
20
-22.983409930474107
10
-26.094497883017798
20
-23.773088200646171
10
-26.550418844874873
20
-22.983409930474039
10
-26.094497883017759
20
-22.193731660302451
0
LWPOLYLINE
5
10E
100
AcDbEntity
8
CUTOUTS
100
AcDbPolyline
90
4
70
1
43
0.0
10
-26.316118557214299
20
-23.901873392586321
10
-27.227960480928022
20
-23.901873392586516
10
-27.683881442784998
20
-23.112195122414349
10
-26.772039519070923
20
-23.112195122414441
0
LWPOLYLINE
5
10F
100
AcDbEntity
8
CUTOUTS
100
AcDbPolyline
90
4
70
1
43
0.0
10
-28.127122791178479
20
-21.020195122414311
10
-28.583043753035593
20
-21.809873392586326
10
-29.494885676749309
20
-21.809873392586059
10
-29.038964714892622
20
-21.020195122414197
0
LWPOLYLINE
5
110
100
AcDbEntity
8
CUTOUTS
100
AcDbPolyline
90
4
70
1
43
0.0
10
-29.03895624696484
20
-20.763457174568849
10
-29.494877208821435
20
-19.973778904396951
10
-28.58303528510773
20
-19.973778904396774
10
-28.127114323250691
20
-20.763457174568838
0
LWPOLYLINE
5
111
100
AcDbEntity
8
CUTOUTS
100
AcDbPolyline
90
3
70
1
43
0.0
10
-24.739423078838911
20
-26.121826148491873
10
-24.502952755905511
20
-25.712247534689102
10
-24.502952755905511
20
-26.531404762294528
0
LWPOLYLINE
5
112
100
AcDbEntity
8
CUTOUTS
100
AcDbPolyline
90
4
70
1
43
0.0
10
-28.127122791178479
20
-18.928195122414373
10
-28.583043753035593
20
-19.717873392586327
10
-29.494885676749306
20
-19.717873392586053
10
-29.038964714892622
20
-18.928195122414373
0
LWPOLYLINE
5
113
100
AcDbEntity
8
CUTOUTS
100
AcDbPolyline
90
3
70
1
43
0.0
10
-24.739423078838907
20
-24.029826148491871
10
-24.502952755905511
20
-23.62024753468911
10
-24.502952755905511
20
-24.439404762294529
0
LWPOLYLINE
5
114
100
AcDbEntity
8
CUTOUTS
100
AcDbPolyline
90
3
70
1
43
0.0
10
-29.334450479226053
20
-27.039457174569176
10
-29.497038776166615
20
-27.039457174569176
10
-29.497038776166615
20
-26.757845983552148
0
LWPOLYLINE
5
115
100
AcDbEntity
8
CUTOUTS
100
AcDbPolyline
90
3
70
1
43
0.0
10
-29.497038776166615
20
-20.481845983552152
10
-29.260576921160759
20
-20.891409930474101
10
-29.497038776166615
20
-21.300973877396228
0
LWPOLYLINE
5
116
100
AcDbEntity
8
CUTOUTS
100
AcDbPolyline
90
3
70
1
43
0.0
10
-29.497038776166608
20
-18.389845983552156
10
-29.260576921160759
20
-18.799409930474095
10
-29.497038776166608
20
-19.208973877396218
0
LWPOLYLINE
5
117
100
AcDbEntity
8
CUTOUTS
100
AcDbPolyline
90
3
70
1
43
0.0
10
-26.476545286809589
20
-27.039457174569176
10
-26.094497883017759
20
-26.377731660302448
10
-25.71245047922605
20
-27.039457174569176
0
LWPOLYLINE
5
118
100
AcDbEntity
8
CUTOUTS
100
AcDbPolyline
90
4
70
1
43
0.0
10
-25.416956246964844
20
-27.039457174569169
10
-25.872877208821439
20
-26.249778904396951
10
-24.961035285107734
20
-26.249778904396777
10
-24.505114323250698
20
-27.039457174569169
0
LWPOLYLINE
5
119
100
AcDbEntity
8
CUTOUTS
100
AcDbPolyline
90
4
70
1
43
0.0
10
-27.683881442785097
20
-27.039457174569176
10
-27.227960480928026
20
-26.249778904397051
10
-26.316118557214303
20
-26.249778904397342
10
-26.772039519071019
20
-27.039457174569176
0
LWPOLYLINE
5
11A
100
AcDbEntity
8
CUTOUTS
100
AcDbPolyline
90
4
70
1
43
0.0
10
-28.127114323250691
20
-27.039457174569169
10
-29.03895624696484
20
-27.039457174569169
10
-29.494877208821435
20
-26.249778904396951
10
-28.58303528510773
20
-26.249778904396777
0
LWPOLYLINE
5
11B
100
AcDbEntity
8
CUTOUTS
100
AcDbPolyline
90
4
70
1
43
0.0
10
-24.961043753035593
20
-25.993873392586327
10
-25.872885676749309
20
-25.993873392586053
10
-25.416964714892622
20
-25.204195122414195
10
-24.505122791178472
20
-25.204195122414312
0
LWPOLYLINE
5
11C
100
AcDbEntity
8
CUTOUTS
100
AcDbPolyline
90
4
70
1
43
0.0
10
-28.361423078838907
20
-21.937826148491858
10
-27.905502116981758
20
-21.148147878319801
10
-27.44958115512479
20
-21.937826148491908
10
-27.905502116981882
20
-22.727504418663514
0
LWPOLYLINE
5
11D
100
AcDbEntity
8
CUTOUTS
100
AcDbPolyline
90
4
70
1
43
0.0
10
-26.094497883017798
20
-21.681088200646162
10
-26.550418844874873
20
-20.891409930474033
10
-26.094497883017759
20
-20.101731660302452
10
-25.638576921160755
20
-20.891409930474094
0
LWPOLYLINE
5
11E
100
AcDbEntity
8
CUTOUTS
100
AcDbPolyline
90
4
70
1
43
0.0
10
-24.505122791178479
20
-21.020195122414311
10
-24.961043753035597
20
-21.809873392586326
10
-25.872885676749309
20
-21.809873392586056
10
-25.416964714892622
20
-21.020195122414197
0
LWPOLYLINE
5
11F
100
AcDbEntity
8
CUTOUTS
100
AcDbPolyline
90
4
70
1
43
0.0
10
-27.227960480928033
20
-22.065778904397053
10
-26.316118557214303
20
-22.065778904397341
10
-26.772039519071011
20
-22.855457174569178
10
-27.683881442785097
20
-22.855457174569167
0
LWPOLYLINE
5
120
100
AcDbEntity
8
CUTOUTS
100
AcDbPolyline
90
4
70
1
43
0.0
10
-26.316118557214299
20
-21.809873392586322
10
-27.227960480928022
20
-21.809873392586514
10
-27.683881442784998
20
-21.02019512241435
10
-26.772039519070923
20
-21.020195122414435
0
LWPOLYLINE
5
121
100
AcDbEntity
8
CUTOUTS
100
AcDbPolyline
90
4
70
1
43
0.0
10
-28.127122791178479
20
-23.112195122414317
10
-28.583043753035593
20
-23.901873392586335
10
-29.494885676749309
20
-23.901873392586054
10
-29.038964714892622
20
-23.112195122414196
0
LWPOLYLINE
5
122
100
AcDbEntity
8
CUTOUTS
100
AcDbPolyline
90
3
70
1
43
0.0
10
-29.497038776166615
20
-24.665845983552153
10
-29.260576921160759
20
-25.075409930474102
10
-29.497038776166615
20
-25.484973877396236
0
LWPOLYLINE
5
123
100
AcDbEntity
8
CUTOUTS
100
AcDbPolyline
90
4
70
1
43
0.0
10
-29.03895624696484
20
-24.947457174568843
10
-29.494877208821435
20
-24.157778904396945
10
-28.58303528510773
20
-24.157778904396782
10
-28.127114323250691
20
-24.947457174568839
0
LWPOLYLINE
5
124
100
AcDbEntity
8
CUTOUTS
100
AcDbPolyline
90
4
70
1
43
0.0
10
-27.905502116981758
20
-25.332147878319809
10
-27.44958115512479
20
-26.121826148491909
10
-27.905502116981882
20
-26.911504418663515
10
-28.361423078838907
20
-26.121826148491863
0
LWPOLYLINE
5
125
100
AcDbEntity
8
CUTOUTS
100
AcDbPolyline
90
4
70
1
43
0.0
10
-26.094497883017798
20
-25.865088200646166
10
-26.550418844874873
20
-25.075409930474049
10
-26.094497883017759
20
-24.285731660302446
10
-25.638576921160755
20
-25.075409930474095
0
LWPOLYLINE
5
126
100
AcDbEntity
8
CUTOUTS
100
AcDbPolyline
90
4
70
1
43
0.0
10
-27.227960480928033
20
-19.973778904397051
10
-26.316118557214303
20
-19.973778904397349
10
-26.772039519071011
20
-20.763457174569165
10
-27.683881442785097
20
-20.763457174569169
0
LWPOLYLINE
5
127
100
AcDbEntity
8
CUTOUTS
100
AcDbPolyline
90
4
70
1
43
0.0
10
-24.961043753035597
20
-23.901873392586324
10
-25.872885676749309
20
-23.901873392586054
10
-25.416964714892622
20
-23.112195122414196
10
-24.505122791178479
20
-23.11219512241431
0
LWPOLYLINE
5
128
100
AcDbEntity
8
CUTOUTS
100
AcDbPolyline
90
4
70
1
43
0.0
10
-28.127122791178479
20
-25.204195122414312
10
-28.5830437530356
20
-25.993873392586327
10
-29.494885676749309
20
-25.99387339258606
10
-29.038964714892614
20
-25.204195122414188
0
LWPOLYLINE
5
129
100
AcDbEntity
8
PERIMETER
100
AcDbPolyline
90
30
70
1
43
0.0
10
-27.683881442785097
20
-18.671457174569166
10
-27.500286918440231
20
-18.353462130412421
10
-27.79578115070262
20
-18.353462130412421
10
-27.905502116981882
20
-18.543504418663524
10
-28.015223083261127
20
-18.353462130412421
10
-28.310708847595368
20
-18.353462130412424
10
-28.127114323250691
20
-18.67145717456884
10
-29.03895624696484
20
-18.671457174568843
10
-29.222550771309379
20
-18.353462130412421
10
-29.539999999999996
20
-18.353462130412421
10
-30.002952755905515
20
-18.353462304283571
10
-30.002952755905515
20
-27.472744830351015
10
-29.921766998874382
20
-27.613362686379872
10
-29.511228767161214
20
-27.613362686379876
10
-29.502944287977634
20
-27.599013547519672
10
-29.502944287977634
20
-27.613362686379876
10
-23.997047244094485
20
-27.613362686379876
10
-23.997047244094485
20
-18.353462303174574
10
-24.460000000000001
20
-18.353462303174567
10
-24.688708849876843
20
-18.353462126460791
10
-24.505114323250694
20
-18.67145717456884
10
-25.416956246964844
20
-18.671457174568843
10
-25.600550771309383
20
-18.353462130412421
10
-25.896045003571
20
-18.353462130412424
10
-25.638576921160755
20
-18.799409930474098
10
-26.094497883017798
20
-19.589088200646156
10
-26.550418844874873
20
-18.799409930474038
10
-26.292950762464582
20
-18.353462130412417
10
-26.58844499472622
20
-18.353462130412424
10
-26.772039519071011
20
-18.671457174569177
0
ENDSEC
0
SECTION
2
OBJECTS
0
DICTIONARY
5
C
100
AcDbDictionary
3
ACAD_GROUP
350
D
3
ACAD_MLINESTYLE
350
17
0
DICTIONARY
5
D
100
AcDbDictionary
0
DICTIONARY
5
1A
330
C
100
AcDbDictionary
0
DICTIONARY
5
17
100
AcDbDictionary
0
ENDSEC
0
EOF
