0
SECTION
2
HEADER
9
$INSUNITS
70
1
9
$ACADVER
1
AC1014
9
$HANDSEED
5
FFFF
0
ENDSEC
0
SECTION
2
TABLES
0
TABLE
2
VPORT
5
8
100
AcDbSymbolTable
0
ENDTAB
0
TABLE
2
LTYPE
5
5
100
AcDbSymbolTable
70
2
0
LTYPE
5
14
100
AcDbSymbolTableRecord
100
AcDbLinetypeTableRecord
2
BYBLOCK
70
0
0
LTYPE
5
15
100
AcDbSymbolTableRecord
100
AcDbLinetypeTableRecord
2
BYLAYER
70
0
0
ENDTAB
0
TABLE
2
LAYER
5
2
100
AcDbSymbolTable
70
3
0
LAYER
5
50
100
AcDbSymbolTableRecord
100
AcDbLayerTableRecord
2
0
70
0
6
CONTINUOUS
0
LAYER
5
51
100
AcDbSymbolTableRecord
100
AcDbLayerTableRecord
2
CUTOUTS
70
0
62
1
6
CONTINUOUS
0
LAYER
5
52
100
AcDbSymbolTableRecord
100
AcDbLayerTableRecord
2
PERIMETER
70
0
62
5
6
CONTINUOUS
0
ENDTAB
0
TABLE
2
STYLE
5
3
100
AcDbSymbolTable
70
1
0
STYLE
5
11
100
AcDbSymbolTableRecord
100
AcDbTextStyleTableRecord
2
STANDARD
70
0
0
ENDTAB
0
TABLE
2
VIEW
5
6
100
AcDbSymbolTable
0
ENDTAB
0
TABLE
2
UCS
5
7
100
AcDbSymbolTable
0
ENDTAB
0
TABLE
2
APPID
5
9
100
AcDbSymbolTable
70
1
0
APPID
5
12
100
AcDbSymbolTableRecord
100
AcDbRegAppTableRecord
2
ACAD
70
0
0
ENDTAB
0
TABLE
2
DIMSTYLE
5
A
100
AcDbSymbolTable
0
ENDTAB
0
TABLE
2
BLOCK_RECORD
5
1
100
AcDbSymbolTable
70
2
0
BLOCK_RECORD
5
1F
100
AcDbSymbolTableRecord
100
AcDbBlockTableRecord
2
*MODEL_SPACE
0
BLOCK_RECORD
5
1B
100
AcDbSymbolTableRecord
100
AcDbBlockTableRecord
2
*PAPER_SPACE
0
ENDTAB
0
ENDSEC
0
SECTION
2
BLOCKS
0
BLOCK
5
20
100
AcDbEntity
100
AcDbBlockBegin
2
*MODEL_SPACE
0
ENDBLK
5
21
100
AcDbEntity
100
AcDbBlockEnd
0
BLOCK
5
1C
100
AcDbEntity
100
AcDbBlockBegin
2
*PAPER_SPACE
0
ENDBLK
5
1D
100
AcDbEntity
100
AcDbBlockEnd
0
ENDSEC
0
SECTION
2
ENTITIES
0
LWPOLYLINE
5
100
100
AcDbEntity
8
PERIMETER
100
AcDbPolyline
90
45
70
1
43
0.0
10
-34.252953005674492
20
-20.816221730916791
10
-31.002952755905515
20
-24.689421204785862
10
-31.002952755905515
20
-40.666091286485894
10
-30.383095417599844
20
-41.404808493581733
10
-27.777921216270776
20
-41.404808493581719
42
-3.7491455763440147
10
-27.77792121627057
20
-42.148902981770682
10
-30.730072375010305
20
-42.148902981770696
10
-31.747047244094524
20
-40.93691953243372
10
-31.747047244094521
20
-35.737497392285832
10
-32.75295275590554
20
-36.57757270330702
10
-32.752952755905554
20
-41.303039198252108
10
-29.815424911770013
20
-44.803848546928485
42
-3.7491455763438744
10
-30.385434358733637
20
-45.282143265408045
10
-33.497047244094524
20
-41.573867444200005
10
-33.497047244094524
20
-36.229541546764942
10
-31.747047244094521
20
-34.768040663207579
10
-31.747047244094503
20
-33.457478788712855
10
-34.502952755905561
20
-35.759054983291378
10
-34.502952755905554
20
-41.939987110018414
10
-31.892351203201692
20
-45.05118087780523
10
-31.892351203201695
20
-51.372556374835888
42
-3.7491455763439743
10
-32.636445691390662
20
-51.372556374835888
10
-32.636445691390676
20
-45.322009123753084
10
-35.247047244094524
20
-42.210815355966275
10
-35.247047244094489
20
-35.411023826749243
10
-31.747047244094514
20
-32.488022059634545
10
-31.747047244094524
20
-28.971120912042473
10
-33.662928932279826
20
-30.57115678637054
42
-3.7491455763439978
10
-34.139896422910873
20
-30.000036290998224
10
-31.747047244094524
20
-28.001664182964213
10
-31.747047244094475
20
-26.127042320388437
10
-34.997047493863462
20
-22.253842846519358
10
-34.997047493863462
20
-17.997047244094485
10
-36.00295301363348
20
-17.997047244094485
10
-36.002952926570799
20
-41.301435025952763
10
-36.127952884541614
20
-41.301435025952763
10
-36.127952884541614
20
-52.552060441458153
10
-36.098352293843412
20
-52.633387395774086
10
-29.846119438790829
20
-60.084508335024488
10
-29.747047212229134
20
-60.001376865949915
42
-0.15940241774770494
10
-23.997047244093938
20
-42.42079230149799
10
-23.997047244094485
20
-38.662063815318682
10
-29.997047244094485
20
-38.662063815318682
10
-29.997047244094485
20
-17.997047244094485
10
-34.252953005674492
20
-17.997047244094485
0
ENDSEC
0
SECTION
2
OBJECTS
0
DICTIONARY
5
C
100
AcDbDictionary
3
ACAD_GROUP
350
D
3
ACAD_MLINESTYLE
350
17
0
DICTIONARY
5
D
100
AcDbDictionary
0
DICTIONARY
5
1A
330
C
100
AcDbDictionary
0
DICTIONARY
5
17
100
AcDbDictionary
0
ENDSEC
0
EOF
