0
SECTION
2
HEADER
9
$INSUNITS
70
1
9
$ACADVER
1
AC1014
9
$HANDSEED
5
FFFF
0
ENDSEC
0
SECTION
2
TABLES
0
TABLE
2
VPORT
5
8
100
AcDbSymbolTable
0
ENDTAB
0
TABLE
2
LTYPE
5
5
100
AcDbSymbolTable
0
LTYPE
5
14
100
AcDbSymbolTableRecord
100
AcDbLinetypeTableRecord
2
BYBLOCK
70
0
0
LTYPE
5
15
100
AcDbSymbolTableRecord
100
AcDbLinetypeTableRecord
2
BYLAYER
70
0
0
ENDTAB
0
TABLE
2
LAYER
5
2
100
AcDbSymbolTable
70
2
0
LAYER
5
50
100
AcDbSymbolTableRecord
100
AcDbLayerTableRecord
2
0
70
0
6
CONTINUOUS
0
ENDTAB
0
TABLE
2
STYLE
5
3
100
AcDbSymbolTable
70
1
0
STYLE
5
11
100
AcDbSymbolTableRecord
100
AcDbTextStyleTableRecord
2
STANDARD
70
0
0
ENDTAB
0
TABLE
2
VIEW
5
6
100
AcDbSymbolTable
70
0
0
ENDTAB
0
TABLE
2
UCS
5
7
100
AcDbSymbolTable
70
0
0
ENDTAB
0
TABLE
2
APPID
5
9
100
AcDbSymbolTable
70
2
0
APPID
5
12
100
AcDbSymbolTableRecord
100
AcDbRegAppTableRecord
2
ACAD
70
0
0
ENDTAB
0
TABLE
2
DIMSTYLE
5
A
100
AcDbSymbolTable
70
1
0
ENDTAB
0
TABLE
2
BLOCK_RECORD
5
1
100
AcDbSymbolTable
70
1
0
BLOCK_RECORD
5
1F
100
AcDbSymbolTableRecord
100
AcDbBlockTableRecord
2
*MODEL_SPACE
0
BLOCK_RECORD
5
1B
100
AcDbSymbolTableRecord
100
AcDbBlockTableRecord
2
*PAPER_SPACE
0
ENDTAB
0
ENDSEC
0
SECTION
2
BLOCKS
0
BLOCK
5
20
100
AcDbEntity
100
AcDbBlockBegin
2
*MODEL_SPACE
0
ENDBLK
5
21
100
AcDbEntity
100
AcDbBlockEnd
0
BLOCK
5
1C
100
AcDbEntity
100
AcDbBlockBegin
2
*PAPER_SPACE
0
ENDBLK
5
1D
100
AcDbEntity
100
AcDbBlockEnd
0
ENDSEC
0
SECTION
2
ENTITIES
0
LINE
5
100
100
AcDbEntity
8
0
100
AcDbLine
10
-24.460000000000001
20
-7.1054273576010003e-15
30
0
11
-24.460000000000001
21
38.665016571224193
31
0
0
LINE
5
101
100
AcDbEntity
8
0
100
AcDbLine
10
-24.460000000000001
20
38.665016571224193
30
0
11
-24
21
38.665016571224193
31
0
0
LINE
5
102
100
AcDbEntity
8
0
100
AcDbLine
10
-24
20
38.665016571224193
30
0
11
-24
21
42.4198265082508
31
0
0
ARC
5
103
100
AcDbEntity
8
0
100
AcDbCircle
10
1.2308614320253702e-13
20
59.999999999999964
30
0
40
29.75000000000011
210
0
220
0
230
1
100
AcDbArc
50
180
51
216.22304593384678
0
LINE
5
104
100
AcDbEntity
8
0
100
AcDbLine
10
-29.749999999999986
20
59.999999999999986
30
0
11
-36.000000128636096
21
52.551539790923194
31
0
0
LINE
5
105
100
AcDbEntity
8
0
100
AcDbLine
10
-36.000000128636096
20
52.551539790923194
30
0
11
-36.000000263021903
21
16.580000000000002
31
0
0
LINE
5
106
100
AcDbEntity
8
0
100
AcDbLine
10
-36.000000263021903
20
16.580000000000002
30
0
11
-39.454044794818799
21
16.580000012903895
31
0
0
LINE
5
107
100
AcDbEntity
8
0
100
AcDbLine
10
-39.454044794818799
20
16.580000012903895
30
0
11
-39.454044794818799
21
17.289999999999996
31
0
0
LINE
5
108
100
AcDbEntity
8
0
100
AcDbLine
10
-39.454044794818799
20
17.289999999999996
30
0
11
-42.454044794818898
21
17.289999999999996
31
0
0
LINE
5
109
100
AcDbEntity
8
0
100
AcDbLine
10
-42.454044794818898
20
17.289999999999996
30
0
11
-42.454044794818799
21
16.579999999999998
31
0
0
LINE
5
110
100
AcDbEntity
8
0
100
AcDbLine
10
-42.454044794818799
20
16.579999999999998
30
0
11
-48.454044794818898
21
16.579999999999998
31
0
0
LINE
5
111
100
AcDbEntity
8
0
100
AcDbLine
10
-48.454044794818898
20
16.579999999999998
30
0
11
-48.454044794818898
21
17.289999999999996
31
0
0
LINE
5
112
100
AcDbEntity
8
0
100
AcDbLine
10
-48.454044794818898
20
17.289999999999996
30
0
11
-51.454044794818891
21
17.289999999999996
31
0
0
LINE
5
113
100
AcDbEntity
8
0
100
AcDbLine
10
-51.454044794818891
20
17.289999999999996
30
0
11
-51.454044794818891
21
16.579999999999998
31
0
0
LINE
5
114
100
AcDbEntity
8
0
100
AcDbLine
10
-51.454044794818891
20
16.579999999999998
30
0
11
-53.48316241292909
21
16.579999999999998
31
0
0
LINE
5
115
100
AcDbEntity
8
0
100
AcDbLine
10
-53.48316241292909
20
16.579999999999998
30
0
11
-47.4485360595828
21
0
31
0
0
SPLINE
5
116
100
AcDbEntity
8
0
100
AcDbSpline
70
4
71
2
72
10
73
7
74
0
42
0.000000001
43
0.0000000001
44
0.0000000001
40
-65.892145675457598
40
-65.892145675457598
40
-65.892145675457598
40
-48.0719906614951
40
-48.0719906614951
40
-47.347459192080002
40
-47.347459192080002
40
-42.4198265082508
40
-42.4198265082508
40
-42.4198265082508
41
1
41
1
41
1
41
0.99999999618875102
41
1
41
1
41
1
10
-47.4485360595828
20
0
30
0
10
-38.731096102430797
20
0.0247102305923468
30
0
10
-30
20
0.011900509581306699
30
0
10
-29.644999951821497
20
0.0113796746086065
30
0
10
-29.289999999999996
20
0.010796851722484299
30
0
10
-26.875522097762225
20
0.0068328777048404102
30
0
10
-24.460000000000001
20
-7.1054273576010003e-15
30
0
0
LWPOLYLINE
5
117
100
AcDbEntity
8
0
100
AcDbPolyline
90
4
70
1
43
0.0
10
-29.289999999999996
20
24.999999999999996
10
-29.289999999999996
20
18.999999999999996
10
-30
20
18.999999999999996
10
-30
20
24.999999999999996
0
LWPOLYLINE
5
118
100
AcDbEntity
8
0
100
AcDbPolyline
90
4
70
1
43
0.0
10
-30
20
2.9999999999999898
10
-30
20
8.9999999999999982
10
-29.289999999999996
20
8.9999999999999982
10
-29.289999999999996
20
2.9999999999999898
0
LWPOLYLINE
5
119
100
AcDbEntity
8
0
100
AcDbPolyline
90
4
70
1
43
0.0
10
-30
20
30.165016536871697
10
-30
20
36.165016536871697
10
-29.289999999999996
20
36.165016536871697
10
-29.289999999999996
20
30.165016536871697
0
LINE
5
120
100
AcDbEntity
8
0
100
AcDbLine
10
-30
20
24.999999999999996
30
0
11
-30
21
30.165016536871697
31
0
0
LINE
5
121
100
AcDbEntity
8
0
100
AcDbLine
10
-30
20
36.165016536871697
30
0
11
-30
21
38.665016571224193
31
0
0
LINE
5
122
100
AcDbEntity
8
0
100
AcDbLine
10
-29.539999999999996
20
38.665016571224193
30
0
11
-24.460000000000001
21
38.665016571224193
31
0
0
LINE
5
123
100
AcDbEntity
8
0
100
AcDbLine
10
-29.539999999999996
20
38.665016571224193
30
0
11
-30
21
38.665016571224193
31
0
0
LINE
5
124
100
AcDbEntity
8
0
100
AcDbLine
10
-30
20
8.9999999999999982
30
0
11
-30
21
18.999999999999996
31
0
0
LINE
5
125
100
AcDbEntity
8
0
100
AcDbLine
10
-30
20
18.999999999999996
30
0
11
-30
21
24.999999999999996
31
0
0
LINE
5
126
100
AcDbEntity
8
0
100
AcDbLine
10
-30
20
30.165016536871697
30
0
11
-30
21
36.165016536871697
31
0
0
LINE
5
127
100
AcDbEntity
8
0
100
AcDbLine
10
-24
20
38.665016571224193
30
0
11
-24.460000000000001
21
38.665016571224193
31
0
0
LINE
5
128
100
AcDbEntity
8
0
100
AcDbLine
10
-36.000000128636096
20
17.999999999999996
30
0
11
-30
21
17.999999999999996
31
0
0
LINE
5
129
100
AcDbEntity
8
0
100
AcDbLine
10
-30.499999999939874
20
59.106184793378716
30
0
11
-30.49999999993987
21
47.050460954009061
31
0
0
LINE
5
130
100
AcDbEntity
8
0
100
AcDbLine
10
-29.499999999801116
20
56.151298920468108
30
0
11
-29.499999999523617
21
45.130766884689656
31
0
0
LINE
5
131
100
AcDbEntity
8
0
100
AcDbLine
10
-28.999999999999996
20
53.362040976324124
30
0
11
-28.999999999999996
21
43.144400552709754
31
0
0
LINE
5
132
100
AcDbEntity
8
0
100
AcDbLine
10
-28.999999999999996
20
43.144400552709754
30
0
11
-26.5
21
40.1650165712242
31
0
0
LINE
5
133
100
AcDbEntity
8
0
100
AcDbLine
10
-26.5
20
40.1650165712242
30
0
11
-26.499999999999993
21
38.665016571224193
31
0
0
LINE
5
134
100
AcDbEntity
8
0
100
AcDbLine
10
-26
20
38.665016571224193
30
0
11
-26
21
41.124863601787503
31
0
0
LINE
5
135
100
AcDbEntity
8
0
100
AcDbLine
10
-26
20
41.124863601787503
30
0
11
-28.49999999999644
21
44.10424758326873
31
0
0
LINE
5
136
100
AcDbEntity
8
0
100
AcDbLine
10
-28.49999999999644
20
44.10424758326873
30
0
11
-28.49999999999644
21
51.466975917182026
31
0
0
LINE
5
137
100
AcDbEntity
8
0
100
AcDbLine
10
-30.49999999993987
20
47.050460954009061
30
0
11
-36.000000173674984
21
40.495815897878281
31
0
0
LINE
5
138
100
AcDbEntity
8
0
100
AcDbLine
10
-29.499999999523617
20
45.130766884689656
30
0
11
-35.000000207715985
21
38.576121787693779
31
0
0
LINE
5
139
100
AcDbEntity
8
0
100
AcDbLine
10
-35.000000207715985
20
38.576121787693779
30
0
11
-35.000000207715985
21
24.191753641628047
31
0
0
LINE
5
140
100
AcDbEntity
8
0
100
AcDbLine
10
-35.000000207715985
20
24.191753641628047
30
0
11
-36.000000239037469
21
22.999999999999989
31
0
0
LINE
5
141
100
AcDbEntity
8
0
100
AcDbLine
10
-36.000000244641313
20
21.499999999999989
30
0
11
-34.000000207715985
21
23.883507261853644
31
0
0
LINE
5
142
100
AcDbEntity
8
0
100
AcDbLine
10
-34.000000207715985
20
23.883507261853644
30
0
11
-34.000000207715985
21
35.576121787693779
31
0
0
LINE
5
143
100
AcDbEntity
8
0
100
AcDbLine
10
-34.000000207715985
20
35.576121787693779
30
0
11
-33.000000207715978
21
35.576121780221982
31
0
0
LINE
5
144
100
AcDbEntity
8
0
100
AcDbLine
10
-33.000000207715978
20
35.576121780221982
30
0
11
-33.000000207715992
21
24.075260875229766
31
0
0
LINE
5
145
100
AcDbEntity
8
0
100
AcDbLine
10
-33.000000207715992
20
24.075260875229766
30
0
11
-36.000000248377205
21
20.499999999999989
31
0
0
LWPOLYLINE
5
146
100
AcDbEntity
8
0
100
AcDbPolyline
90
4
70
1
43
0.0
10
-35.500000324963004
20
52.369554441727018
10
-35.500000324963004
20
51.869554441727011
10
-30.999999999939853
20
57.232446069231969
10
-30.999999999939863
20
57.732446069231948
0
LWPOLYLINE
5
147
100
AcDbEntity
8
0
100
AcDbPolyline
90
4
70
1
43
0.0
10
-35.500000324963004
20
51.369554441727018
10
-35.500000324963004
20
50.869554441727018
10
-30.999999999939853
20
56.232446069231969
10
-30.999999999939863
20
56.732446069231955
0
LWPOLYLINE
5
148
100
AcDbEntity
8
0
100
AcDbPolyline
90
4
70
1
43
0.0
10
-35.500000324963004
20
50.369554441727018
10
-35.500000324963004
20
49.869554441727011
10
-30.999999999939853
20
55.232446069231962
10
-30.999999999939863
20
55.732446069231948
0
LWPOLYLINE
5
149
100
AcDbEntity
8
0
100
AcDbPolyline
90
4
70
1
43
0.0
10
-35.500000324963004
20
49.369554441727018
10
-35.500000324963004
20
48.869554441727011
10
-30.999999999939853
20
54.232446069231969
10
-30.999999999939863
20
54.732446069231948
0
LWPOLYLINE
5
150
100
AcDbEntity
8
0
100
AcDbPolyline
90
4
70
1
43
0.0
10
-35.500000324963004
20
48.369554441727018
10
-35.500000324963004
20
47.869554441727011
10
-30.999999999939853
20
53.232446069231969
10
-30.999999999939863
20
53.732446069231948
0
LWPOLYLINE
5
151
100
AcDbEntity
8
0
100
AcDbPolyline
90
4
70
1
43
0.0
10
-35.500000324963004
20
47.369554441727018
10
-35.500000324963004
20
46.869554441727011
10
-30.999999999939853
20
52.232446069231969
10
-30.999999999939863
20
52.732446069231955
0
LWPOLYLINE
5
152
100
AcDbEntity
8
0
100
AcDbPolyline
90
4
70
1
43
0.0
10
-35.500000324963004
20
46.369554441727018
10
-35.500000324963004
20
45.869554441727018
10
-30.999999999939853
20
51.232446069231962
10
-30.999999999939863
20
51.732446069231948
0
LWPOLYLINE
5
153
100
AcDbEntity
8
0
100
AcDbPolyline
90
4
70
1
43
0.0
10
-35.500000324963004
20
45.369554441727018
10
-35.500000324963004
20
44.869554441727011
10
-30.999999999939853
20
50.232446069231969
10
-30.999999999939863
20
50.732446069231948
0
LWPOLYLINE
5
154
100
AcDbEntity
8
0
100
AcDbPolyline
90
4
70
1
43
0.0
10
-35.500000324963004
20
44.369554441727018
10
-35.500000324963004
20
43.869554441727018
10
-30.999999999939853
20
49.232446069231969
10
-30.999999999939863
20
49.732446069231955
0
LWPOLYLINE
5
155
100
AcDbEntity
8
0
100
AcDbPolyline
90
4
70
1
43
0.0
10
-35.500000324963004
20
43.369554441727018
10
-35.500000324963004
20
42.869554441727011
10
-30.999999999939853
20
48.232446069231969
10
-30.999999999939863
20
48.732446069231948
0
LWPOLYLINE
5
156
100
AcDbEntity
8
0
100
AcDbPolyline
90
4
70
1
43
0.0
10
-35.500000324963004
20
42.369554441727018
10
-35.500000324963004
20
41.869554441727011
10
-30.999999999939853
20
47.232446069231969
10
-30.999999999939863
20
47.732446069231948
0
LINE
5
157
100
AcDbEntity
8
0
100
AcDbLine
10
-36.000000253981042
20
18.999999999999989
30
0
11
-32.000000207715978
21
23.767014490832079
31
0
0
LINE
5
158
100
AcDbEntity
8
0
100
AcDbLine
10
-32.000000207715978
20
23.767014490832079
30
0
11
-32.000000207715978
21
38.665016574960092
31
0
0
LINE
5
159
100
AcDbEntity
8
0
100
AcDbLine
10
-32.000000207715978
20
38.665016574960092
30
0
11
-31.000000207715974
21
38.665016571224193
31
0
0
LINE
5
160
100
AcDbEntity
8
0
100
AcDbLine
10
-31.000000207715974
20
38.665016571224193
30
0
11
-31.000000207715974
21
23.958767950375655
31
0
0
LINE
5
161
100
AcDbEntity
8
0
100
AcDbLine
10
-31.000000207715974
20
23.958767950375655
30
0
11
-36.000000128636096
21
17.999999999999996
31
0
0
LINE
5
162
100
AcDbEntity
8
0
100
AcDbLine
10
-34.000000207715985
20
34.576121787693772
30
0
11
-33.000000207715978
21
34.576121780221975
31
0
0
LINE
5
163
100
AcDbEntity
8
0
100
AcDbLine
10
-34.000000207715985
20
33.576121787693779
30
0
11
-33.000000207715978
21
33.576121780221982
31
0
0
LINE
5
164
100
AcDbEntity
8
0
100
AcDbLine
10
-34.000000207715985
20
32.576121787693779
30
0
11
-33.000000207715978
21
32.576121780221975
31
0
0
LINE
5
165
100
AcDbEntity
8
0
100
AcDbLine
10
-34.000000207715985
20
31.576121787693779
30
0
11
-33.000000207715978
21
31.576121780221982
31
0
0
LINE
5
166
100
AcDbEntity
8
0
100
AcDbLine
10
-34.000000207715985
20
30.576121787693776
30
0
11
-33.000000207715978
21
30.576121780221978
31
0
0
LINE
5
167
100
AcDbEntity
8
0
100
AcDbLine
10
-34.000000207715985
20
29.576121787693779
30
0
11
-33.000000207715978
21
29.576121780221982
31
0
0
LINE
5
168
100
AcDbEntity
8
0
100
AcDbLine
10
-33.75
20
19.125721934011583
30
0
11
-33.75
21
17.999999999999996
31
0
0
LINE
5
169
100
AcDbEntity
8
0
100
AcDbLine
10
-33
20
17.999999999999996
30
0
11
-33
21
18.852744261177254
31
0
0
LINE
5
170
100
AcDbEntity
8
0
100
AcDbLine
10
-33.75
20
19.125721934011583
30
0
11
-31.202475007873819
21
22.161744037201757
31
0
0
LINE
5
171
100
AcDbEntity
8
0
100
AcDbLine
10
-31.202475007873819
20
22.161744037201757
30
0
11
-30
21
22.161744037201753
31
0
0
LINE
5
172
100
AcDbEntity
8
0
100
AcDbLine
10
-33
20
18.852744261177254
30
0
11
-30.852744261177257
21
21.411744037201757
31
0
0
LINE
5
173
100
AcDbEntity
8
0
100
AcDbLine
10
-30.852744261177257
20
21.411744037201757
30
0
11
-30
21
21.411744037201753
31
0
0
ENDSEC
0
SECTION
2
OBJECTS
0
DICTIONARY
5
C
100
AcDbDictionary
3
ACAD_GROUP
350
D
3
ACAD_MLINESTYLE
350
17
0
DICTIONARY
5
D
100
AcDbDictionary
0
DICTIONARY
5
1A
330
C
100
AcDbDictionary
0
DICTIONARY
5
17
100
AcDbDictionary
0
ENDSEC
0
EOF
